<?xml version="1.0" encoding="utf-8"?>
<!-- Generator: Adobe Illustrator 26.0.2, SVG Export Plug-In . SVG Version: 6.00 Build 0)  -->
<svg version="1.1" id="Layer_1" xmlns="http://www.w3.org/2000/svg" xmlns:xlink="http://www.w3.org/1999/xlink" x="0px" y="0px"
	 viewBox="0 0 1280 720" style="enable-background:new 0 0 1280 720;" xml:space="preserve">
<style type="text/css">
	.st0{fill:#D1E8EE;}
</style>
<g>
	<path class="st0" d="M1200.2,636.9c-0.4,0.4-3.6,1.7-3.8-1.5c0-0.3-0.9-0.5-1.5,0.1c-1.7,1.7-1.8,1.7-3.3-0.9
		c-1,2.6-2.2,3.6-5.3,2.7c-2.2-0.6-5.4-2.4-7.4,1c-0.2,0.3-1.1,0.2-1.7,0.2c-8.4,0-16.7,0-25.1,0.1c-2.5,0-4.7-0.4-5.8-2.8
		c-0.5-1.1-1.5-1.3-2-0.7c-1.6,2-2.9,1.8-4.6,0.2c-1-0.9-2,0-3,0.2c-0.3,0.6-0.8,0.7-1.5,0.5c-2.5,0.2-4.9,0.6-7.4-0.2
		c-0.2,0-0.5,0-0.7,0.1c0,0,0,0.2,0,0.2l-0.2,0c-0.6,1.3-1.2,1-1.8,0.1c-0.3-0.2-0.5-0.5-0.8-0.7c-1.1-0.6-1.4-2.4-3-2.3
		c-0.9,0.8-0.1,3.5-1.2,2.8c-1.9-1.3-4.3,0.2-5.8-1.6c-1.4-1.8,1-2.5,1.3-2.5c1.7,0,3.5-1.1,5,0.5c0.7-1.1,1.9-1,2.9-1.3
		c0.7-0.4,1.1-0.2,1.3,0.5c0,0,0.1-0.1,0.1-0.1c1.2-1.3,1.9,0.9,3,0.4c-0.3-3,2.6-1.5,3.4-2.8c1.4,1-0.3,2.6,1.1,3.4
		c0.2,0.1,0.4,0.1,0.6,0.2c0.3,0,0.5,0,0.8,0c0,0,0.1,0,0.1,0c0.4-1.7,1.5,0.1,2.1-0.5c0.6-0.5,0.9-0.9,0.4-1.8
		c-0.9-1.5,0.4-2.2,1.3-2.1c2.6,0.5,5.2,1.7,7.6-0.7c0.2-0.2,0.8-0.2,1-0.1c3.4,2.1,6.4,0.3,9.5-0.8c0.5-1.6-1.5-4.4,2.3-4.3
		c2.3,0.2,4.3-1.4,6.5-1.5c0.4-0.5,0.9-1,1.3-1.5c0.4-0.9,0.8-0.7,1.3-0.1l0.2-0.1l0.1,0.1c0.5,0,1-0.1,1.5-0.1
		c0.4-1.1,0.8-2.1,2.1-2.3c0.1,0.4,0.1,0.9,0.2,1.3c0.2,0.2,0.5,0.3,0.7,0.5c0.9-0.7,1.3-2.2,2.8-2.2c-0.1-0.5-0.3-0.9-0.4-1.4
		c-0.8-0.2-1-0.7-0.9-1.4c-0.4-0.8-0.6-1.7-2-1.3c-2,0.6-3.7,1.8-5.5,2.7c0.2,0.1,0.4,0.3,0.6,0.4c-0.6,0.4-1,0.2-1.5-0.2
		c-0.3,0-0.5,0-0.8,0.1c-0.5,0.3-0.9,0.6-0.9-0.3c-0.3-0.3-0.6-0.7-0.9-1c-0.8-0.3-1.7,0.6-2.4-0.4c-0.6-0.1-1.3,0.1-1.5-0.7
		l-0.1-0.1c0,1.9-0.8,1.7-1.9,0.8c-2.1,1.9-5,0.8-7.6,2.3c0.3-1.6,0.5-2.7,0.7-3.9c-2.8-1.6-5.8-0.2-8.8-0.5c-9.6-1-19,1.6-28.6,1.8
		c-6.7,0.2-13.5,1.3-20.2-0.2c-0.2,0-0.5,0.1-0.7,0.1c-0.3,0.1-0.5,0.2-0.8,0.2c-0.2,0.1-0.4,0.2-0.6,0.3c-2.7,1.1-5.1,0.6-7.5-1
		c0,0.4-0.2,0.7-0.7,0.6c-0.7,0.1-1.4,0.1-2.1,0.2c-0.2,0.5-0.5,0.6-0.9,0.4c0,0,0.1-0.3,0.1-0.4c-0.2-0.2-0.2-0.4,0-0.6
		c-0.4-0.7-0.9-0.5-1.5-0.3c0,0-0.1,0.1-0.1,0.1c0,0.8,0.4,2-0.7,2c-1.2,0-0.6-1.2-0.6-1.9c-0.8-0.3-1.3-0.3-1.4,0.6
		c-0.1-0.7-0.3-1.4-0.4-2c0.8,0.1,1.2-0.4,1.8-0.8c0.1-0.9-0.4-2.1,0.8-2.5c1.3-0.3,0.3,1.7,1.5,1.7l0,0c0.1-0.7,1.1-0.8,0.8-1.8
		c-0.8-2.7,1.7-0.1,2.4-1.4c0.5-0.9,1.2,0.5,1.2,1.2c0,1,0.3,1.6,1.4,1.6c0.1-0.6,0.1-1.2,0.2-1.7c0.3-0.8,0.7-1,1,0
		c0.3,0.5,0.6,0.9,0.9,1.4c0.3-0.1,0.6-0.2,0.8-0.3c0.5-0.1,0.9-0.3,1.4-0.4c0.2-0.1,0.5-0.1,0.7-0.2c0.5-0.1,1.1-0.3,1.6-0.4
		c1.4-1.6,1,0.3,1.4,0.7c2.3-0.1,5.5,1.7,6.1-2.6c0-0.1,0.7-0.4,1-0.2c3.3,1.5,6.3,0.6,9.7-0.1c6.5-1.2,13.3-1.1,20-1.5
		c2.1-0.1,4.5,0.6,5-2.6c0.1-0.4,0.7-1,1.7-0.4c1.7,1.1,4.1,1.5,5.5,2.8c1.3,1.3,2.5,0.9,3.6,0.7c1.4-0.2,2.8-0.2,3.9-0.3
		c1.9-0.2,5,1.2,5.9-2.1c-0.5-0.9,0.3-2.9-2.1-2.3c-1,0.3-1.8-0.9-2.5-1.6c-0.6-0.3-1.6-0.5-1-1.3c0.4-0.5,2-0.1,1.6-1.4
		c-0.3-1-1.5-0.8-2.5-1c-6.7-0.9-13.3,0.7-19.9,1.3c-3.5,0.3-6.6-0.6-9.8-0.4c-3.5,0.2-6.7-2.4-10.6-0.3c-1.7,0.9-5,2.6-6.2,1.5
		c-2.2-1.9-3.5-0.5-5.2,0c-0.7,0.2-1.4,0-2.1,0c-6.3,0.5-12.4-1.5-18.7-0.7c-3.3,0.4-6.4,1.7-9.4,2c-8.6,0.7-17.2,0.9-25.8-0.6
		c-1-0.1-2-0.1-2.9-0.2c-0.5,0-1,0-1.5,0c-0.5,0-1,0-1.5,0c-1.4,2.4-3.4-0.2-5,0.6c-0.5,0.7-1,0.7-1.7,0.3c-0.4-0.2-0.9-0.6-1.3-0.5
		c-4.4,1.3-8.9-0.1-13.3,0.4c-0.5,0.1-1.1,0.3-1.3-0.5c-1.2-1.4-2.2-1.9-4.5-1.6c-2.9,0.4-5.3,1.7-7.9,2.2
		c-3.3,0.7-6.9,0.4-10.2-0.3c-4.5-1-9,0.7-13.5-1.2c-2.1-0.9-5.6,0.3-8.4,0.5c-5.1,0.3-9.8-1.4-14.6-2.2c-5.6-0.8-10.6,0.1-16,0.8
		c3.1,0.9,1.9,4,3.2,5.8c0.7,0.9,2-1.3,2.6,0.5c0.3,0.9,1.2,0.7,1.8,0.9c0.5,0,1,0,1.5-0.1c0.1-0.1,0.3-0.3,0.4-0.4
		c0.1,0.3,0.2,0.6,0.3,0.9c0.2,0.3,0.4,0.6,0.6,0.8c1.1-0.1,2.2-0.6,3.2,0.7c0.6,0.7,2.3,1.8,3.2,0.7c1.7-2.1,3.9-1.4,5.9-1.4
		c5.1,0,9.8,2.5,14.8,2.9c2-2.6,3.6-1.1,5.3,0.4c0.9,0.6,1.8,1.2,2.6,1.7c0.1-0.7,0-1.5,0.9-1.8c0.9-0.3,1.1,0.6,1.6,1.1
		c0.8,0.3,0.8,0.9,0.7,1.5c2.3-1.2,5.2,0.2,7.6-1.9c1.4-1.3,4.9,0,5.9,1.9c0.9,1.9-1.3,2.9-3.1,4c-1.3,0.7-2.8,0-3.7,1.2
		c-1.8-1.4-2.4,0.6-4,2.3c1.1-4.3-0.5-5.7-3.6-6c0,0.8,0,1.5-0.1,2.3c0.1,0.7-0.5,1.3-0.9,1.3c-0.6,0-1.1-0.5-1.1-1.3
		c0-0.3-0.1-0.5-0.1-0.8c-0.2-0.1-0.5-0.2-0.7-0.3c-1.3,1.9-2.3,2-3-0.4c-0.2,0.2-0.5,0.3-0.7,0.5c-0.5,0-1,0-1.5,0.1
		c-0.5,0.1-0.7-0.1-0.5-0.6c-0.3-0.5,0-1.2-0.8-1.4c-0.3,1.1-1.7,0.8-2.1,1.8c0,0.6,0,1.2-0.8,1.2c-2.6,2-3.6,1.5-5.2-2.3
		c-1.2,0.1-2.2-0.1-3.3-0.5c-2.5-0.8-5.1,0.5-6.7,2.2c-0.8,0.8-1.1,1.1-2.2,1.4c-5.5,1.7-10.8,0.1-16.2-0.1
		c-0.3,0.1-0.6,0.3-0.9,0.4c-0.7,0-1.4,0-2.2,0c-0.3,0-0.5,0-0.8,0c-0.5,0-1,0-1.4-0.1c-0.6,0.1-1.2,0.5-1.4-0.4c0,0,0,0,0,0
		c-0.3-0.1-0.5-0.1-0.8-0.2c-1.1,0.4-2,0.4-3.2-0.3c-2.9-1.8-6.5-3-9.7-2.9c-7.2,0.3-14.5,0.2-21.7,0.7c-2.1,0.1-4,0.6-6.3,0.2
		c-4.7-0.9-9.7-1-14.4-0.7c-5.1,0.3-10-0.8-15-0.5c-0.7,0-1.5-0.1-2.2-0.1c-0.7,0-1.4,0-2.2,0c-0.5,0-1,0-1.5-0.1
		c-3.5,0.8-6.9-0.7-10.4-0.5c-6.3,0.3-12.6,0.1-18.3-3.3c-0.6-0.3-1.6-0.5-2.1-0.2c-2.6,1.4-5,2.4-7.1-0.7
		c-5.7,0.9-11.1-2.1-16.9-0.8c-2.9,0.7-6,1.7-8.8-0.6c-1.4,1.5-1.6-0.2-2.3-0.8c-1.9,0-3.8,0.1-5.7,0.1c-0.3,0.6-0.6,1.3-1.5,0.7
		c-0.9-0.7-1.9-0.9-3-1c-0.3,0-0.5,0-0.8,0c-1.4-0.3-2.1,1.3-3.7,1.6c0.8-3.7-1.2-3.4-3.4-2.6c-1.1,0.4-2.1,0.1-3.1,0.2
		c-1-0.1-2-0.1-3-0.2c-1.7,0.3-3.4,0.4-5.1,0c-0.4,0.2-0.7,0-0.9-0.4c-2.2-1.7-4.9,0.3-6.9-0.8c-3.5-1.8-7.2-2.1-10.9-2.2
		c-3.8-0.2-7.5-0.2-11.3-0.3c-1.8,0.2-3.5,0-5.2-0.4c-6-1-12.2-0.6-18.2-1c-1.3,0.2-2.5,0.3-3.7-0.5c-0.9-0.6-1.9-0.8-3.1-0.8
		c-4,0.2-7.9-0.1-11.9-0.4c-6.6-0.5-13.3-0.2-20-0.2c-1,0-2.1,0.1-2.3,1.3c-0.2,1,0.8,1.5,1.6,1.5c1.2,0.1,2.3,1.2,2.2,1.6
		c-1,3,2.6,5.1,1.4,8.3c-0.9,2.3,1.4,4.3,4,3.8c0.7-0.1,1.3-0.6,2-0.4c9.8,1.8,19.5,3.6,29.5,3.7c6,0.1,11.9,1.6,17.9,1.9
		c2.7,0.2,4.9,2.1,7.1,2.1c6.1,0,12,2.2,18.1,0.9c3.2-0.7,6.3,1,9.7,1.2c6.1,0.3,12.3,1.6,18.5,2.3c1.2,0.1,1.9,1.7,3.6,0.8
		c2.6-1.4,5.2-0.8,7.2,1.4c-0.2,1.5-3,1.2-2.2,2.1c1.8,1.9-0.1,1.7-0.8,1.7c-4.6-0.3-9.3,2-14-0.2c-1.3-0.6-3.2-0.5-4.6-0.2
		c-3.5,0.9-7,0.6-10.5,0.2c-0.5,0-1,0-1.5,0.1c-0.8,0.4-1.6,0.4-2.3-0.2c-1,0.4-1.9,0.5-2.9,0.3c-1.1,0.6-1.8-0.7-2.8-0.5
		c-0.8,1-1.6,1.1-2.4,0.1c-4.1,0.6-8.2-0.1-12.3-0.2c-1.5-0.2-3.2,0.8-4.5-0.5c0,0-0.1-0.2-0.1-0.2l0.1-0.2c0,0,0,0,0,0
		c-0.9-1.1-1.9-1.4-3-0.3c-0.8,0.8-1.7,0.8-2.7,0.7c-1,1-2,0.9-2.9-0.1c-0.3-0.1-0.5-0.1-0.8-0.2c-0.3,0-0.5,0-0.8,0
		c-0.7,0-1.5,0.1-2.2,0.1c-0.3,0-0.5,0-0.8,0c-1.9,0-3.9-0.1-5.8-0.1c-1.5,0.2-3,0.3-4.2-1c-1.2,1.3-2.8,0.7-4,0.5
		c-3.3-0.8-6.6-1.6-10.1-1.5c-1.2,0-0.6-0.9-0.7-1.4c-1.1,0.4-2.4,1.1-3-0.7c0.2-0.3,0.4-0.6,0.6-1c-0.3-1.8-1.3-2-2.8-1.2
		c0.1,1.3-0.4,1.4-1.3,0.6c-0.3,0-0.6,0.1-1,0.1c-0.1,1.3-1,0.3-1.5,0.5c-1.9-2.4-4-3.3-7.1-2.1c-1.2,0.5-3.1,0.5-4.6-0.2
		c-0.4-0.1-0.9-0.2-1.3-0.3c-0.5,0.5-1.1,0.2-1.7,0.2c-4.7,0.1-9.3-1.4-14.1-1.1c-1.3,0.1-2.5,0.5-4,0.4c-6.4-0.5-12.9-1.1-19.3-1.5
		c-3.5-0.2-7-0.6-10.3-1.2c-6.3-1.1-12.5,0.1-18.6-0.8c-2.8-0.4-5.7,0.7-8.6-0.9c-1.7-1-5.2-1.2-6,0.1c-1.8,2.9-4.2,2.4-6.6,2.5
		c-1.7,0.1-3.1,0.6-5.4,1.4c2.1,0.8,3.5,1.2,5.5,2c-2.2,0.5-2.5,2.1-3.4,3.2c-0.1,0.7,1.3,1.3,0.3,2.1c-0.9,0.7-1.7,0.4-2.5-0.1
		c-0.3,0.4-1.6,0.1-0.8,1c1.3,1.4,2.7,2.6,4.8,2.7c4.2,0.2,8.1,1.8,12.1,2.9c3.6,1,7.4,2.2,10.7,1.9c7.2-0.6,14.1,1.2,21.1,1.2
		c3.1,0,3.4,1.4,1.6,3.6c-0.1,0.3-0.3,0.5-0.4,0.8c-0.1,0.4-0.2,0.8-0.7,0.5c-0.4,0-0.8,0.1-1.1,0.1c0,1.7,0.1,3.4,0.1,5.2
		c0.1,0.5,0.1,1,0.2,1.4c0.1,0.6,0.1,1.2,0.2,1.8c0.8,0.8,1.4,1.3,2.8,0.9c2.1-0.7,4.4-0.8,6.7-1.2c0.4,0.1,0.8-1.5,1.2,0
		c0.1,0.2,0.1,0.5,0.2,0.7c0.2,0.2,0.4,0.5,0.6,0.7l0.1,0.1c1.2,1,0.7-2.6,2.2-0.8c2.5,2,8.3,1.6,11.1-0.7c0.1-0.7,0.3-1.5,0.4-2.2
		c-2.3,0.9-1.2-3.4-3.9-2.2c2-1.3,3.3-2.5,2.6-4.9c-0.3-1,0.1-1.5,1.8-1.5c7.1-0.2,13.8,1.9,20.7,2.5c3.3,0.3,7-0.6,9.7,2.7
		c-3.6-0.6-7,1.4-10.6,0.1c-3.2-1.1-6.4-0.4-9.7,0.1c-0.8,0.1-1.5,0.8-1.5,1.8c1.6,1.2,1.5,2.9,1.3,4.6c-0.1,0.2,0,0.3,0.1,0.5
		c1.3-0.1,2.6-0.2,3.7,0.8c0.9-1.2,1.9-0.2,2.8-0.1c1.2-1.2-0.4-4.3,2.1-4.1c1.2,0.1,1.4,2.8,1.8,4.5c0,0.1,0,0.2,0,0.4
		c2.2,0.4,4.5,0.7,6.1,3c-0.3-2.3,0.8-4,2.6-3.3c1.8,0.7,5.4-1,5.5,3.1c0,1.1,1.2,2,2.6,2.1c1.2,0.3,1.9-0.9,2.9-1.1
		c-0.7-1.4-1.6-2.9,0.7-3.7c1-0.6,1.5-0.4,1.6,0.8c2,0.3,1.3,3.3,1.9,3.2c3.3-0.5,6.4,2.9,9.7,0.4c-0.1-2.7-0.1-2.7,2.3-2.9
		c1.4-3.9,2.9,0.1,4.3,0c1.4,1.4,3.1,2,5.1,1.5c1.1,0.2,1.8-1.2,2.9-0.7c4.6-1.2,5.7,0.1,4.4,4.9c1.8-0.3,3,2.8,5.1,0.9
		c0.3-0.8-1-1.2-0.6-2.3c0.2-0.6-2.1-1.4-1.2-2.5c0.7-0.9,2.2-0.5,3.8-0.3c-1.1,1.5-0.4,3.1-0.7,4.7c0.6-0.1,1.4-0.8,1.6,0.5
		c1.3-1.7-0.1-4.1,1.4-5.9c0.7-0.9,1.3-1.1,2.2-1.4c1.5-0.3,2.1,1.9,3.7,1.4c0.2-0.2,0.3-0.4,0.5-0.7c0.3-0.7,0.5-0.6,0.8,0
		c1.5,0.2,2.4,2,4.3,1.1c2.6-1.1,5.5,1.5,8.2-0.2c0.1,0.2,0.2,0.5,0.3,0.6c2.6,0.7,3.7,3.7,6.4,4.3c0.3-0.1,0.5-0.2,0.8-0.3
		c0.9-0.4,0.2-2.3,1.6-1.9c0.6,0.2,0.9,1.5,1.3,2.2c0.1-1.9,1.9-0.5,2.6-1.3c-0.3,1.2,2.5,1.2,1.1,2.8c0.4,1.7,0.7,4.7,1.4,4.8
		c2.5,0.3,5.8,1.8,7.3,0.7c2.7-2.1,5.3-1.5,7.6-0.9c6,1.6,12.8-1.1,18.1,3.7c0.2,0.1,0.5,0.3,0.6,0.2c2.7-1.9,5.5-0.3,8.2-0.4
		c7.8-0.3,15.6,0.8,23.4,1.6c0.5,0,1,0,1.5,0c0.2,0,0.5,0,0.7,0c0.3,0.1,0.5,0.3,0.8,0.4c0,0,0,0,0,0c0.7,0.3,1.4-0.6,2.2,0
		c0.8,0.2,1.6,0.7,2.4,0.6c3.9-0.2,7.8-0.2,11.7-0.5c2.9-0.2,5.7,1.3,8.7-0.1c6.7-3.1,12.9-0.9,19,2.3c1.2-2.5,3-2.6,5.1-1.2
		c0.5-0.3,1-0.2,1.4,0.1c0.5-0.1,1-0.1,1.4-0.2c1.1-0.7,2.1-0.8,3.5-0.5c5.1,0.8,10.2,2,15.3,0.3c0.3-0.7,0.6-0.7,0.9,0
		c7.7-0.3,15.5-0.5,23.2-0.8c0.3-0.1,0.6-0.3,0.9-0.4c1.6-0.7,3.2-1.9,5.1-1c2.3,1.1,4.5,0.6,6.7,0c0.9-0.4,1,0.5,1.4,0.8
		c1-0.3,1.9-0.6,2.9-0.8c0.2-0.3,0.3-0.6,0.6-0.8c0.7-0.6-0.9-1.7,0.3-1.9c0.8-0.2,1.4,0.7,1.5,1.6c0,0.3,0.1,0.7,0.1,1
		c1-0.2,2.1,0.6,2.8-0.6c0.5-2.5,2.4-4.1,4.1-5.7c0.6-0.6,1.2,0.5,1.6,1c0.7,0.7-0.1,0.9-0.5,1.2c-0.9,0.7-1.3,1.6-1.1,2.8
		c2.3,1.3,4.9,0.8,7.3,0.7c1.3-0.4,2.7-1.3,4,0.1c0.1,0.1,0.2,0.2,0.2,0.3c0,0.2-0.1,0.4-0.2,0.6c0.6,1.2,1.7,1.4,2.8,1.9
		c0.2-0.1,0.3-0.1,0.5,0c0.3-0.2,0.6-0.5,0.8-0.7c0.2-0.3,0.4-0.5,0.6-0.8c0.2-0.5,0-2,0.9-1c1,1.1,1.9,0.3,2.9,0.6
		c0.8-0.3,1.8-0.8,2.2,0.6c0.8,0.5,0.9-0.7,1.5-0.6c1.1-0.2,2.1-0.4,3.2-0.5c0.8-0.7,1.6-1.9,2.8-0.6c2,0,4,0.2,6,0.5
		c2.8,0.4,5.9,0.6,8.6-0.1c2.6-0.7,5.2-1.3,7.9-1c3.8,0.4,7.4-0.2,11-0.8c0-2.1-0.2-4.2,1.5-5.8l0,0c-0.5-0.1-1.3,0.3-1.5-0.5
		c-0.1-0.5,0.2-0.9,0.8-0.9c0.8-1.8-0.5-1.2-1.3-1.3c-4.1-0.5-8.2,0.3-12.5,0.7c0.7,1.3,2.7,0.5,3,2.1c-1.7,0.4-3.5,0.7-5.6,1.2
		c1.9-2.5,1-3.6-1.6-3.2c-2,0.3-3.3-1.9-5.3-1.2c-2.5,0.9-4.5,0.3-5.7-2.2c-0.1-0.2-1.2-0.3-1.2-0.3c-1,3.6-3.4,0.3-4.9,1
		c-0.1,0-0.3-0.3-0.5-0.5c-0.4,3.6-2.7,2.8-5,2.2c-0.6-0.1-0.9,0-1,1c0,1.2-0.6,1.7-0.9,0c-0.1-0.9-0.8-0.8-1.3-0.6
		c-2.9,0.8-5.8-1.6-8.9-0.1c-0.8,0.4-2.4-0.4-3.3-1c-1-0.7-1.6-0.5-1.9,0.4c-0.7,2.5-2.7,1.8-4,1.3c-1.8-0.7-3.3-0.7-5,0.1
		c-1.4,0.7-2.9,0.9-4.7,0.1c-2.9-1.3-5.9,0.9-9.1,0.7c-3.4-0.2-6.7-0.9-10-1.5c-4.9-0.8-9.6-0.5-14.4-0.5c-1.5,0-3.6,0.8-2.5-2.2
		c0.2-0.6-1-1.6-1.3-1.2c-1,1.2-3.2-0.2-3.5,2c-0.2,1.1-1.7,1.8-2.1,1.1c-2.4-4.5-7-1.5-10.3-2.9c-0.5-0.2-1,0.6-1,1.2
		c0.1,1.2,0,2.4-1.5,2.3c-1.2-0.1-3,0.2-3.4-1.5c-0.4-1.7-1.5-1.9-2.9-1.9c-3.6,0.1-7-1.1-10.8-0.4c-1.6,0.3-3.7,0-5.6,0.1
		c-0.4,0-1.2-0.3-1.2-0.5c0.1-3.3-2.5-1.4-3.7-2.3c-0.2,2,2.2,0.8,2,2.4c-0.5,1.4-4.2-0.2-7.5-3.6c2.4-0.4,4.6-0.7,6.7-1.3
		c0.3-0.1,0.1-1.5,0.2-2.9c-3.3,2.6-4-2.1-6.5-1.6c-0.1-0.7-0.4-1.6,0.8-1.5c0.9,0.1,1.8,0.8,3,0c-1.9-1.4-4.1-1.8-6.2-2.7
		c-0.9-0.4-2.5-0.9-2-2.5c0.4-1.5,1.8-0.9,2.8-0.8c3.8,0.4,7.7-0.1,11.2,1.9c0.7,0.4,0.3-0.6,0.5-0.9c1.2-1.1,2.3-1.5,3.8-0.5
		c3.1,2,7.1,2.9,10.3,1.9c4.2-1.2,8.2-0.9,12.2-0.8c4.4,0.1,8.8,1.7,13.3,2c1.6-0.5,3.6-2.1,3.8,1.4c0.1,1.3,1.2,0.7,2,0.6
		c0.4-1.2-0.5-2.2-1.1-4.2c2.6,2,4.5,2.1,6.2,0.3c0.8-0.9,2.1-0.5,3.2-0.5c7.8,0.2,15.7-1.1,23.5,0.9c2.1,0.5,4.7-2,6.5,1
		c3.6-2.5,7.5-0.2,11.3-0.8c3.1-0.4,6.3,0.2,9.3,0.4c4.2,0.3,8.5,2,12.9,0.3c2.2-0.9,4.8,0.2,7.2,0.4c4.7,0.4,9.4-0.9,14-0.4
		c4.8,0.6,8.5-3,13.4-2.6c6.6,0.4,12.7,1.4,18.1,5.5c-1.7,2.1-4.3,1.4-6.1,2.8c-1.5,1.2-2.7,2-0.4,3.5c1.4,0.9,2,2.5,2.2,4.2
		c0.3,2-0.1,3.4-2.6,3.2c-2.9-0.2-5.6,1.5-8.6,0.9c-0.7-0.1-2.3-1.3-2.7,0.6c-0.4,2.2,1.8,1.3,2.7,1.9c-0.1,1.4-1.2,0.9-1.9,1.2
		c-0.2,0.9-0.1,1.6,0.9,1.9c1.5,0.4,1.2,1.1,0.2,1.7c0.5,2,2.4,1.8,3.3,1.4c2.3-1,4.4-0.4,6.5,0.1c2.7,0.6,4-0.3,4.4-2.9
		c0.2-3.2,0.8-3.8,2.8-3c2,0.5,3.9,1.1,5.9,1.6c0.6-0.1,1.3-0.5,1.4,0.6c0.5,0.3,1,0.7,1.5,1c0.3,0.1,0.6,0.3,0.8,0.4
		c0.7-0.2,1.4-0.2,1.5,0.7c0.7,0.1,1.6,0,2.1,0.8c2,0,4-1.2,6.1-0.1c0,0,0,0,0,0c2.2-2,5.1,0.6,7.3-1.3c-0.4-1.3-0.3-2.6,0.7-3.6
		c0.8,1.5,3,1.1,3.6,2.8c0.6,0.1,1.1,0.1,1.7,0.2c0,0,0,0,0,0c0,0,0,0,0,0c0.2,0.1,0.3,0.2,0.3,0.3c0.3,0,0.5-0.1,0.8-0.1
		c6.4-1.2,12.6-3.3,19.1-4c1.3-0.1,3.1-0.1,3.8-0.9c2-2.4,4.7-1.2,7-1.8c5.1-1.2,10.3,1.5,15.4-0.4c0.3-0.1,0.6-0.2,0.8-0.4
		c0.8-0.1,1.5-0.2,2.3-0.3c0.2-0.3,0.4-0.3,0.6,0c0.4-0.2,0.7-0.5,1.1-0.7c0.4-1,0.7-0.9,1.1,0l0,0c0.3,0.1,0.5,0.1,0.8,0.2
		c1.9-0.9,2.9,1.6,5.6,0.8c6.5-2,13.6-1.6,20.3-3.8c2.1-0.7,4.6-1.8,6.8-1.4c3.1,0.5,5.8,0.8,7.8-2.2c0.5-0.7,1.3-0.3,2,0
		c2.9,1.4,8.6,0.2,10.7-2.4c0.7-0.7-1.8-2.2,0.6-2.4c2.4-0.2,0.5,1.7,1.1,2.3l0,0c0.3,0.1,0.5,0.1,0.8,0.2c0,0,0.2-0.2,0.2-0.2
		c0.2-0.2,0.4-0.4,0.6-0.6l0.1-0.1c0.4-0.6,0.8-1.4,1.3,0l0,0c1,0.4,1.9,0.7,2.9,1.1c0.4-0.1,0.7-0.2,1.1-0.3
		c1.2,1.3,2.2,0.4,3.3-0.3c-0.9-3.6,2.2-3.6,4-4.8c0.9,1.9-0.2,3.4-0.3,5.1c2.6-0.4,5.4,0.2,7.4-2.3c-0.6-2.2,0.5-3.8,2.4-5.2
		c-0.1,0.8-0.2,1.5-0.2,2.2c2,0.7,2.3-0.9,2.8-2.1c-0.2-1.1-0.6-2.4,1.4-1.9c1,0.2,0.7-0.7,0.8-1.2
		C1204.7,635.9,1202.6,634.6,1200.2,636.9z M643.9,640.1c-0.3,1.8-2.2,0.9-3.7,1.4c-3.4-2.4-6.8,0.7-10.4,0.7
		c-3.3,0-2.7-2.9-3.1-4.4c-0.7-2.6,2.1-1.6,2.9-1.4c3.8,1.3,8-0.4,11.6,2C642.1,638.9,644.4,637.8,643.9,640.1z M807.2,648.9
		c-0.5,1.6-1.2-0.2-1.8,0c-3.2,0.8-6.3-0.7-9.6,0.1c-2.4,0.6-3.2-1.9-3.8-3.4c-0.7-1.6,1.4-1.3,2.2-1.6c1.8-0.6,2,0.6,1.8,2
		c0,0.4-0.1,1.1,0.6,1.1c1.2,0.2,0.6-0.7,0.6-1.1c0-0.9,1.1-0.8,1.3-0.7c2.1,0.7,2.2-1.2,3-2.6c1.2,1.4,0.4,2.6,0.9,3.7
		c1.1,0,2.4-0.1,3.5,0C807.1,646.6,807.6,647.7,807.2,648.9z M815.7,649.2c-1.2-3.2-0.9-5,2.6-4.5
		C818.5,646.6,817.1,647.6,815.7,649.2z M838.6,642.1c-0.6-1.5-1-2.7-1.5-3.9c-0.2-0.7-0.3-1.6,0.5-1.7c0.6-0.1,1.6-0.1,1.8,0.9
		C839.8,638.9,841.2,640.7,838.6,642.1z M1013.6,661.4c-0.4,0.8-0.6,2.1-1.2,2.4c-2.1,0.9-2.6-1.8-5.2-2
		C1010,660.6,1011.8,660.6,1013.6,661.4z M852.7,654c0,0,0.1,1.1-0.7,0.7c-1.4-0.7-3.2,1.3-4.8-1c1.6,0,2.9-0.1,2.7-2
		c-0.1-0.6,0.4-1.2,1.2-1C852.9,651.1,851.3,653.3,852.7,654z M1074.3,611c-0.1,0.1-0.1,0.1-0.2,0.2c0-0.1,0-0.2,0-0.3
		C1074.2,611,1074.2,611,1074.3,611z"/>
	<path class="st0" d="M1156.4,613.6C1156.4,613.6,1156.4,613.6,1156.4,613.6C1156.4,613.6,1156.5,613.6,1156.4,613.6L1156.4,613.6z"
		/>
	<path class="st0" d="M284,248.5c1.5,0.6,2.5-1.2,3.9-1c2.7-0.7,5,0.1,7,2c2-0.2,3.9,5.3,5.9,0c3.3-0.3,3.3-0.3,3.2-3.9
		c-2,0.2-2.8-2.7-5-1.7c-2.3-2.5-4.8-1.2-7.2-0.2c-1.1-1-0.5-5.3-3.7-1.8c-0.6,0.5-0.8,0.9-0.8,1.4c0-0.5,0.2-0.9,0.8-1.4
		c-2-3.2-3.1,0.6-4.6,0.6c-1.5-2.7-3.4-2-5.5-0.7C276.2,248.4,277.8,250.1,284,248.5z"/>
	<path class="st0" d="M413.7,258c-0.2-0.1-0.4-0.2-0.6-0.3c0.1,0.7,0.2,1.3,0.3,2c0.5,0,1,0,1.5,0c0.1,1.1,0.3,2.2,0.5,3.7
		c0.9-3.2,4.8-3.8,4.7-7.7c-2.4,0.4-4.5-2.6-7.2-0.5c0.1,0.8,0.2,1.7,0.2,2.5C413.2,257.8,413.5,257.9,413.7,258z"/>
	<path class="st0" d="M273.4,247.1c1.2-1.5-1.9-2.7-1.7-3.4c0.6-1.5-1.2-2-0.8-3.1c-0.7-0.1-1.5-0.2-1.9,0.6
		c-0.4,2.1,0.6,4.3-0.9,6.4C270.4,247.8,272.5,248.3,273.4,247.1z"/>
	<path class="st0" d="M352.3,258.4c3.3,0.2,1.2-4,2.8-5.6c-1.7-0.3-3.5-0.6-5.2-1c0,0.2,0,0.3,0,0.5
		C350.3,254.5,350.6,258.3,352.3,258.4z"/>
	<path class="st0" d="M220.4,243.4c0.9-1.1,3.4,0.8,3.5-1.8c0.1-1.5-0.5-2.1-2-1.5c-1.1,0.5-2.2,0.6-3-0.5
		C217,241.8,220.8,241.8,220.4,243.4z"/>
	<path class="st0" d="M474.9,289.5c3.1,1.4,4.1,0.5,3.1-2.7c-1.1-0.7-2.3-1.1-3.5-0.2C473.1,287.8,475.1,288.5,474.9,289.5z"/>
	<path class="st0" d="M237.2,286.2c1-1.4,0.3-2.4-0.1-3.4c-1.4-0.3-2.7-0.2-4,0.4C235.2,283.1,235.7,285.4,237.2,286.2z"/>
	<path class="st0" d="M278.9,284.6c-1.3-1.3-2.6-1.5-4-0.1C276.1,288.8,277.6,283.4,278.9,284.6z"/>
	<path class="st0" d="M322.9,246.6c1.4-0.4,2.3-2,4-1.5c-1.8-1.3-3.5-0.7-4.8,0.6C321.2,246.5,322.4,246.4,322.9,246.6z"/>
	<path class="st0" d="M183,318.4c-0.9-0.7-1.3-3.2-3.1-1C180.3,319.5,181.2,320.4,183,318.4z"/>
	<path class="st0" d="M298.7,286.3c-1.6-1.8-3.6-1.7-5.7-1.4C294.8,285.7,296.6,286.6,298.7,286.3z"/>
	<path class="st0" d="M264,324.9c2.3,1.4,4.7,0.7,7.1,0.6C268.7,324.9,266.4,324.6,264,324.9z"/>
	<path class="st0" d="M123.9,225.7c0-1-0.2-1.9-1.4-2c-1.2,0-1.4,1-1.5,1.9C121.9,226.6,122.9,225.3,123.9,225.7z"/>
	<path class="st0" d="M397,253.4c-2.5-3.6-1.8,1.1-3,1.1C396.1,257,395.4,252.1,397,253.4z"/>
	<path class="st0" d="M258.7,287c-0.9,0.8-1.1,1.9-0.8,3.5c1-1,1.9-1.6,1.8-2.9C259.7,287.3,258.8,286.9,258.7,287z"/>
	<path class="st0" d="M241,288.1c0.4-0.1,0.8-0.4,0.9-0.4c-0.2-1.2-0.3-1.9-1.2-1.8c-0.3,0.1-0.7,0.6-0.7,1
		C240,287.5,240.1,288.3,241,288.1z"/>
	<path class="st0" d="M252.9,244c1.7,0.1,0.8-1.6,1-2.5c1.6,0.3,3.3,0.4,4.9,1.7c-5,0.6-0.8,3.8-1.8,5.5c2.2-0.7,2.9,2.4,5,2
		c1.2-0.3,2.1-0.7,3-1.9c2.1-2.5,0.1-5.7,2-8.1c-0.7-1.4-2-0.9-3.1-1c-3.5-2.2-7.3-0.6-11-0.7c-1.4,0-0.6,1.5-0.8,2.4
		C252.2,242.3,251.3,243.9,252.9,244z"/>
	<path class="st0" d="M261,283.8c1.9,1.6,4.1,0.5,6.2,0.7C265.3,282.7,263,284.1,261,283.8z"/>
	<path class="st0" d="M216,319.9c-1.3-0.1-2.7-0.2-4-0.2C213.1,323.2,214.6,320.3,216,319.9z"/>
	<path class="st0" d="M229,241.6c-0.3-0.8,1-2.4-0.1-2.4c-1.4,0-0.7,1.8-0.9,2.9C228.3,241.9,228.6,241.7,229,241.6z"/>
	<path class="st0" d="M331,291.9c-0.7,0.2-1.9-1.1-2,0.7C330.2,294,330.8,293.6,331,291.9z"/>
	<path class="st0" d="M301,327.6c-1.6-1-3.3-0.9-5-0.6C297.5,328.2,299.3,327.7,301,327.6z"/>
	<path class="st0" d="M192.9,317.3c-1.2-0.8-1.6,0.1-2,0.9C192.5,320,192.8,318.9,192.9,317.3z"/>
	<path class="st0" d="M127,225c-0.8,0-1,0.6-1,1.3c0.7,0,1.4,0,2.1,0C127.9,225.6,127.7,225,127,225z"/>
	<path class="st0" d="M325.9,293.5c0.6-0.3,1.1-0.6,1.7-0.9C326.4,291.7,325.7,291.8,325.9,293.5z"/>
	<path class="st0" d="M283.3,287.5c0.2,0.3,0.6,0.5,0.9,0.7c0.1-0.2,0.3-0.5,0.5-0.9c-0.4-0.2-0.7-0.4-1.1-0.5
		C283.6,286.9,283.3,287.5,283.3,287.5z"/>
	<path class="st0" d="M227,288.2c0.2,0,0.4-0.3,0.7-0.5c-0.3-0.3-0.4-0.7-0.6-0.8c-0.2,0-0.7,0.2-0.8,0.3
		C226.1,287.8,226.4,288.2,227,288.2z"/>
	<path class="st0" d="M265.6,286.5c0,0.2,0.5,0.5,0.6,0.4c1-0.3,0.9-1.2,1-2c0,0,0,0,0,0C266.7,285.5,265.6,285.5,265.6,286.5z"/>
	<path class="st0" d="M413,268.4c0.9-0.2,1.2-0.9,0.4-1.7c-0.5,0-1,0.1-1.5,0.1C411.8,267.7,411.9,268.6,413,268.4z"/>
	<path class="st0" d="M322,251.7c-0.5-0.9-1.3-1-2.2-1.1C319.9,252.2,320.7,252.6,322,251.7z"/>
	<path class="st0" d="M196.9,320.2c1,0.3,1-0.8,1.1-1.5c-0.3,0-0.7,0-1,0C196.9,319.2,196.1,319.9,196.9,320.2z"/>
	<path class="st0" d="M240.9,283.5c1.1,0,2.2-0.1,3.3-0.1C243,282,241.9,282.2,240.9,283.5z"/>
	<path class="st0" d="M88,308.9c-1-0.1-2-0.1-3-0.2C85.9,309.9,86.9,310.1,88,308.9z"/>
	<path class="st0" d="M318.9,289.6c-0.2-0.7,0.6-1.9-1-1.9C318,288.5,317.8,289.4,318.9,289.6z"/>
	<path class="st0" d="M348.7,295.4c-0.6-0.1-1.2-0.3-1.8-0.4C347.4,295.7,348,295.8,348.7,295.4z"/>
	<path class="st0" d="M93,308.9c-0.7,0-1.4,0-2-0.1C91.6,309.8,92.3,309.9,93,308.9z"/>
	<path class="st0" d="M228.7,236.5c-0.1-0.1-0.1-0.3-0.2-0.3c-0.1,0-0.2,0.1-0.3,0.2c0.1,0.2,0.3,0.3,0.4,0.5
		C228.6,236.8,228.7,236.6,228.7,236.5z"/>
	<path class="st0" d="M256.3,249.5c-0.4,0-0.8,0-1.1,0C255.6,250.3,256,250.4,256.3,249.5z"/>
	<path class="st0" d="M399.9,255.5c-0.6,0-1.1,0-1.7,0C398.8,257.5,399.3,255.4,399.9,255.5z"/>
	<path class="st0" d="M230,282.9c-0.7,0-1.3,0-2,0.1C228.7,283.8,229.3,283.8,230,282.9z"/>
	<polygon class="st0" points="228.6,285.1 228.4,285 228.4,285.2 	"/>
	<path class="st0" d="M281,284.9c-0.3,0-0.7,0-1,0C280.3,285.6,280.6,285.6,281,284.9z"/>
	<path class="st0" d="M283.9,284.8c0.3,0.6,0.6,0.8,1,0.1C284.6,284.8,284.3,284.8,283.9,284.8z"/>
	<path class="st0" d="M322.1,291.9c0.3-0.4,0.6-0.9,0.9-1.3C322.3,290.7,322,291.2,322.1,291.9z"/>
	<path class="st0" d="M223,320c0.4,0.2,0.8,0.3,1.2,0.5C223.9,320,223.5,319.7,223,320z"/>
	<path class="st0" d="M349.4,266.9c9.5,0.9,18.6,3.7,28.3,3.4c2.4-0.1,2.8-0.7,2.4-2.1c-0.9-3.3,0.8-5,3.5-6.7
		c-3.7,1.5-2.2-4.3-5.4-3c0.2-1,0.4-2,0.6-3c-1.6,0-3.9,0.9-4.3-0.9c-0.8-3.6-3.2-2.9-5.5-2.8c-0.1,0.7-0.1,1.3-0.2,1.9
		c0.1-0.6,0.1-1.3,0.2-1.9c-1.7-1.3-3-0.7-4,0.9c-2.1-1.8-4.1-3-6.2,0c1.5,1.3,3.3,1.2,5.1,1c0.2,0.2,0.3,0.4,0.2,0.6
		c0.3-0.2,0.5-0.4,0.8-0.6c0,0,0,0,0,0c-0.3,0.2-0.5,0.4-0.8,0.6c-0.2,2.3-0.5,4.7,1.8,6.3c0,1.4-1,2.3-2.1,2.5
		c-4.4,0.6-8.9,1.6-13.2,0.1c-5-1.8-9.6,1-14.5,0.2C339.8,267.7,344.9,266.5,349.4,266.9z"/>
	<path class="st0" d="M380.9,268.4c-0.6,3.1,2.4,1.6,3.7,2.4c4.9,3.2,10.7,0.9,15.8,2.7c1,0.4,4.9,1.7,3.9-1.9
		c-0.5-2.1,0.3-6-4.2-6.1c-5,0-9.6,4.2-14.2,0.9C383.9,267.2,381.4,265.9,380.9,268.4z"/>
	<path class="st0" d="M159.9,259.7c1.6,0.3,3.2,0.1,4.8,0.1c0.7,1.5-0.4,3.2,1.2,5c1-1.9,1.2-4.4,4-3.5c0.2,0.1,1.7,0.2,1.8-1
		c0-0.7-0.8-1.8,0.8-1.6c0.9,0.1,0.9,1,0.8,1.6c-0.2,1.9,0,3.6,2.5,2.8c1.1-0.4,3.9,0,3-2.2c-0.9-2.1-1.9-5.5-5.2-4.7
		c-4.4,1.1-8.7-0.9-13.1,0.1c-0.8,0.2-1.8-2.2-2.5,0C157.4,257.9,158,259.4,159.9,259.7z"/>
	<path class="st0" d="M96.9,248.3c-1.1-0.5-1,1-1,1c1.9,1-0.4,3.9,2.2,4.5c1.1,0.2,1.7-0.6,1.6-1.4c-0.3-2.6,1.5-2.7,3.7-2.7
		C101.2,246.5,98.8,249.2,96.9,248.3z"/>
	<path class="st0" d="M116.3,273.2c1.1-0.2,1.1-1.4,0.7-2.4c-0.6-1.7-1.2-3.3-2-5.3c-3.6,1.9-1.6,4.3-1.1,6.5
		C114.2,273.3,115.5,273.4,116.3,273.2z"/>
	<path class="st0" d="M146.3,255.8c-1.9,2.3-3.8,3.6-3.5,6.2C147.6,262.6,148,260.3,146.3,255.8z"/>
	<path class="st0" d="M67,254.6c0-1,0.5-2.9-0.9-2.7c-2,0.2-1,2.2-1.1,3.6c0.6,1.4,1.1,2.8,1.7,4.2c0.1-0.8,0.3-1.5,0.4-2.3
		c2,1.8,3.6,1.7,4.7-1.5c-0.1,2.7,0.2,4.9,0,7.2c-0.3,3.2,3.8-0.1,4.7,2.4c0.2,0.5,1.7-0.3,1.5-1.2c-0.4-2.4-2.1-0.4-3.1-0.5
		c-2.9-0.3-1.7-2-1.6-3.4c1.7,1.1-1.2-5.3,2.4-1.5c0.3,0.3,2.7,0.6,3.3-1c0.3-0.7-0.1-1.6-0.2-2.3C74.8,256.1,71.2,251.4,67,254.6z"
		/>
	<path class="st0" d="M859,89.1c-0.1,0.5,0.1,1.1,0.1,1.7h0c-0.4,0.9-0.8,1.8-1.2,2.7c1.1,1.2,1.6,3.3,4,0.8c2.1-2.3,9-1.7,11.6,0.5
		c0.6,0.5,1.6,0.7,1.8,0.2c0.9-2.4,4-2.4,4.7-4.7c1.8,2.2,8.1,2.7,11.1,0.8c-0.6,0-1.3-0.1-1.9-0.1c0.7-1.3,0.1-2.8,0.7-4.1
		c0,0,0,0,0.1,0.1c0.1-0.1,0.1-0.3,0.2-0.4c0,0,0,0,0,0c0,0,0-0.1,0.1-0.1c0,0,0,0.1,0,0.1c0,0,0.1,0,0.1,0c0.5,0.4,1.2,0.5,1.2-0.2
		c0.1-2.5-1.9-3.1-3.7-3.4c-3.1-0.6-6.7,1-9-2.4c-2.1,1.5-3.1-2.9-5.3-1c-1.2-0.7-2.4-1.2-3.7-0.1c-1.2,1.1,2.1,0.5,0.7,1.7
		c-0.8-0.1-1.6-0.2-2.3-0.3l0,0c-0.2-0.4-0.4-1.2-0.7-1.2c-0.8-0.1-1,0.7-1.1,1.3c-2.9-2-4.9,1.2-7.5,1.3c0.1,2.1-1.5,2.8-2.7,4.1
		C853.7,89,859.4,86.6,859,89.1z"/>
	<path class="st0" d="M1098.1,90.2c-0.1,0-0.1,0-0.2,0c0,0,0,0,0,0c0,0,0,0,0,0C1098,90.2,1098.1,90.2,1098.1,90.2z"/>
	<path class="st0" d="M1102,92.1c0.7,2.3,1.6,1.1,2.6,0.2c0.6,0,1.1,0,1.7,0c0.2,0.2,0.5,0.4,0.7,0.6c1.8,0.7,3-2.4,5-1
		c0.3-0.1,0.7-0.2,1-0.4c2.2-0.6,2.6-3,2.5-4.3c-0.2-1.6-2.5-0.9-3.9-1.1c-5.1-0.6-8.9,2.8-13.4,4C1099.8,90,1100.8,91.2,1102,92.1z
		"/>
	<path class="st0" d="M719.6,101.2c4.2-1.7,6.1,2,8.9,3.4c1.7,1.5,2.3,0.3,2.6-1.2c1.4,0.5,2.1-0.2,2.7-1.4c0.2-0.2,0.4-0.3,0.6-0.5
		c2.3-0.4,4.6-0.8,6.7,0.6c0.3,0.3,0.6,0.5,0.9,0.8c0.5,0,1.1-0.1,1.6-0.1c0.4,0.7,0.8,1.6,1.8,1.4c1.1-0.2,0.8-1.3,0.8-2.1
		c3.6,1.5,6.4-0.2,9.5-2.4c-2.7-0.8-4.8-1.5-7-2.2c-0.2-0.4-0.4-0.6-0.8-0.2h0c-0.5,0.2-1,0.4-1.6,0.6v0c-0.9,0.4-1.9,0.4-2.8,0
		c-1-0.3-2.6,0.9-2.8-1.3c-0.1-1.4-1.2-1.4-2.1-1.2c-3.6,0.7-7.3-0.2-10.9,0c-1.6-2.9-1.6-2.9-3.4-1.7c-0.1,1.1,0.6,2.4-1.1,2.9
		c-1.8-1-0.4-2.1-0.1-3.2c0.3-0.8,0-1.4-0.7-1.8c-0.4-0.2-1.4-0.1-1.5,0c-0.6,2.1-3.6,3.5-1.8,6.2
		C718.4,99.2,718.8,101.6,719.6,101.2z M729.4,101.8c0.1-0.3,0.3-0.5,0.8-0.4c0.4,0,0.7,0.1,1,0.2c-0.2-0.1-0.6-0.1-1-0.2
		C729.8,101.3,729.6,101.5,729.4,101.8c-0.1,0.2-0.1,0.4-0.2,0.6C729.3,102.2,729.4,102,729.4,101.8z"/>
	<path class="st0" d="M1086.9,93.7c0.5,0.8,1.1,0.9,1.7,0.1c2-0.4,4.5,0.2,5-2.8c0.6,0,1.1,0,1.7,0c0,0,0.1-0.1,0.1-0.1
		c-0.2-1.3-0.6-2.1-1.8-0.6c-3.1-0.3-6.1-0.6-9.2-0.9c-0.2,1.4-1.2,2.6-0.8,4.1C1084.7,94.7,1085.9,91.3,1086.9,93.7z"/>
	<path class="st0" d="M484,137.3c2.6-1.8,3.2-4.6,3.9-7.4c-1.1-0.3-2.1-0.7-3.2-0.9c-1.6-0.3-2.8,0.5-2,2
		C483.8,133,482.9,135.3,484,137.3z"/>
	<path class="st0" d="M759.6,73.1c0.1,0,0.3-0.1,0.5-0.2c1.9,1.5,3.6,0.2,3.8-1.3c0.4-2.3-2.2-1.5-3.3-1.7c-2.4-0.5-4.4,1-6.4,2.1
		C755.7,73.5,757.8,72.7,759.6,73.1z"/>
	<path class="st0" d="M1129.2,88.1c1.8-0.9,4.2,0,5.6-2c-1.9-0.4-3.8-0.7-5.7-1.1c-1.2,0.1-2.3,0.2-2.8,1.5
		c-0.2,0.5-0.4,1.3-0.2,1.5C1127,89,1128.2,88.6,1129.2,88.1z"/>
	<path class="st0" d="M665.4,165.1c-8.4-0.2-16.9-0.4-25.3-0.5C648.5,165.9,657,165.3,665.4,165.1z"/>
	<path class="st0" d="M706.7,100c0.6-0.4,2.2,1.3,2.3-0.8c0.1-1.5-1-2.6-2.5-2.8c-2-0.3-3,1.5-3,2.7
		C703.5,101.1,705.4,99.7,706.7,100z"/>
	<path class="st0" d="M726.2,73.8c1.4,1.2,2-0.4,2.5-1.1c0.8-1.4-0.9-2.1-1.5-2.1c-1.6-0.2-3.3,0.2-4.9,0.3
		C722.5,73.6,725,72.7,726.2,73.8z"/>
	<path class="st0" d="M1066.6,105.1c0.4-1.7,0-3.1,0.9-4c-2.1-1.7-3.9-1.9-5.1,1C1063.1,104.2,1065.7,102.9,1066.6,105.1z"/>
	<path class="st0" d="M911.4,99.7c3.4,0.2,1.3-2.2,2-3.3c0.2-0.3,0.1-0.8,0.2-1.2c-0.3,0-0.6,0-0.9,0c-0.3,0-0.5,0-0.8,0
		c-0.3,0-0.6-0.1-0.8-0.1c-0.5-0.3-1.1-0.5-1.6-0.8c0,0.6,0,1.1,0,1.7C909.6,97.5,908.3,99.5,911.4,99.7z"/>
	<path class="st0" d="M1026.4,105.9c0-1,0-1.9,0-2.9c-2.4-0.3-4.4,0.6-6.4,2.2C1022.2,105.3,1024.2,106.8,1026.4,105.9z"/>
	<path class="st0" d="M819.2,85.2c0.8,2.9,3.4,0.8,4.5,1.5c1.8,1.2,3.3,0.6,3.7-0.4c0.6-1.6-1.1-3.2-2.2-3.9
		c-2.2-1.4-1.1,1.2-1.7,1.9c-1.2,1.4-2.2-0.1-3.2-0.3c0-0.1,0-0.3-0.1-0.4c-1.7-2.4-3.4-0.3-5.1,0.1c-0.7,0.2-0.8,1.2-0.2,1.7
		C816.3,87,817.8,85.9,819.2,85.2z"/>
	<path class="st0" d="M897.6,88.1c1.3,0.2,2.4-1,2.5-2.3c0.1-1.9-2.3-1.1-2.9-2.3c-1.4-0.2-1.5,0.7-1.3,1.6
		C896.1,86.3,896.2,87.9,897.6,88.1z"/>
	<path class="st0" d="M608.5,113.2c0.6-1.2,1.6-2.2,2.3-3.3c-1.2,0-2.5-1-3.7,0.1c1.3,2.8-1.9,2.5-3,3.8
		C606.1,114.9,607.4,115.2,608.5,113.2z"/>
	<path class="st0" d="M827.5,68.1c0.4,0.1-0.2-1.3-0.5-2.1c-1.8-1.8-3.2-1.2-4.3,0.8C823.6,69.5,825.9,67.8,827.5,68.1z"/>
	<path class="st0" d="M1179,85.8c1.7-1.2,3.5,0.1,5.5-0.9c-1.6-2.6-4.5-0.4-6.4-2c-0.2-0.2-1.3,0.7-1,1.4
		C1177.5,85.1,1177.8,86.6,1179,85.8z"/>
	<path class="st0" d="M1118.1,90.3c0.1,0.4,0.2,0.7,0.4,1.1c0.2-0.3,0.3-0.7,0.5-1c0.5-0.3,1.1-0.7,1.6-1c0.1-0.2,0.2-0.4,0.3-0.6
		c0.1-0.2,0.2-0.4,0.2-0.6c0,0.2-0.1,0.4-0.2,0.6c-0.1,0.2-0.2,0.4-0.3,0.6c1-0.6,2.6,1.9,3-0.2c0.3-1.3-0.9-2.5-2.7-2.3
		c-1-1.5-2.5-0.8-3.2-0.1C1116.7,87.7,1116.5,89.3,1118.1,90.3z"/>
	<path class="st0" d="M797.9,106c-2.6-2.3-4.8-2.7-7.2-1.4c0.2,0.7,0.5,1.3,0.7,2C793.4,106.5,795.3,106.3,797.9,106z"/>
	<path class="st0" d="M624.1,80.1c-0.2-1.2,0.6-2.9-1.4-3.2c-1.3-0.2-2.9-0.5-2.7,1.8C621.2,79.6,622.3,81,624.1,80.1z"/>
	<path class="st0" d="M1161.2,85.6c1.9-0.5,4.5,0.5,6-2.2c-1.9,0-3.7,0-5.4,0c-0.1-0.3-0.3-1-0.4-1c-0.7,0.1-0.4,0.7-0.5,1.1
		C1160,84.4,1160.3,85.8,1161.2,85.6z"/>
	<path class="st0" d="M762,98.6c-1.4,0.2-1.9-2.3-3.5-1.2c-0.4,0.3-0.6,1.3-0.5,1.8c0.3,1.7,1.6,2,3.1,1.9c0.1,0,0.3,0,0.4-0.1
		C760.2,100,762.5,99.6,762,98.6z"/>
	<path class="st0" d="M766.3,164.6c-4.5-0.3-9,0-13.5,0.5C757.4,165.2,761.9,165.8,766.3,164.6z"/>
	<path class="st0" d="M1148.3,94.1c2.1-0.5,4.3-0.7,5.2-3C1151.2,91.1,1148.5,90.4,1148.3,94.1z"/>
	<path class="st0" d="M789,95.4c-2.8-3.4-5.2,0.3-7.8,0.5C783.8,96,786.4,96.2,789,95.4z"/>
	<path class="st0" d="M781.2,95.9c-0.2,0-0.4,0-0.6,0C780.8,95.9,781,95.9,781.2,95.9z"/>
	<path class="st0" d="M1161.8,90.9c1.7,0.3,3.5,0.5,5.2,0.9c1.6,0.4,1.5-0.6,1.4-1.6C1166.1,89.2,1164,90.1,1161.8,90.9z"/>
	<path class="st0" d="M692.3,165.4c-3.9,0-7.9,0-11.8,0C684.4,166.4,688.4,166.5,692.3,165.4z"/>
	<path class="st0" d="M997.7,96.1c-1.7-2.4-3.3,2.4-5.1,0.1C994.4,98.9,996.1,98.7,997.7,96.1z"/>
	<path class="st0" d="M538.1,81.5c-1.6,1.3-2.7,2.1-4.1,3.2C537,85.5,538.2,84.8,538.1,81.5z"/>
	<path class="st0" d="M564.6,92.7c-0.5-1-1.2-2-1.6-3.1c-0.6-2-1.3,0-2-0.1C560.8,92.1,562.1,93,564.6,92.7z"/>
	<path class="st0" d="M1094.3,98.7c0.9,2.3,2.4,2.1,4.3,1.2c-0.5-0.9-2.5-0.4-1.6-2.2C1096.2,98.1,1095.3,98.4,1094.3,98.7z"/>
	<path class="st0" d="M954.8,94.5c0.1,1.3,1.2,0.5,1.7,0.7c-0.3-0.6-0.7-1.2-1-1.9c0-0.7,0.4-1.9-0.6-2c-1.7-0.2-0.6,1.7-1.3,2.3
		c-1.4-0.1-2.9-0.4-3,1.7C952.4,96.9,953.6,95.9,954.8,94.5z"/>
	<path class="st0" d="M1182,89.7c-1.2,0-2.3,0.6-2.5,2.1c1.2,1,2.3,0.8,3.4-0.2C1182.8,90.9,1183.1,89.7,1182,89.7z"/>
	<path class="st0" d="M645.1,90c-1-0.7-0.1-2.2-1-3.3c-0.7,2-0.4,3.7-0.2,5.3C645.4,92,645.5,91.2,645.1,90z"/>
	<path class="st0" d="M661.1,114.2c2,0.5,4,0.7,5.9-0.4c-1.7-0.5-3.6,0.7-5-0.9c-0.5,0.1-1.3-0.1-1.6,0.2
		C659.5,114.1,660.9,114.1,661.1,114.2z"/>
	<path class="st0" d="M1175.3,92.7c-1.4-1.3-3.2-0.6-4.8-0.8C1172,92.4,1173.3,94.9,1175.3,92.7z"/>
	<path class="st0" d="M591.4,94.4c0-1.8-0.2-3.3-2.6-2.4C588.6,94,589.6,94.6,591.4,94.4z"/>
	<path class="st0" d="M1206.4,97.9c0.3-1,1.7-2.4,0-3c-1.3-0.4-1.5,1.2-1.7,2.2C1205,98.1,1205.8,97.7,1206.4,97.9z"/>
	<path class="st0" d="M1196.3,93.4c1.1,0.2,1.9,0.1,1.8-1.3c0-0.8-0.2-1.9-1.2-1.6C1194.9,90.9,1196.8,92.4,1196.3,93.4z"/>
	<path class="st0" d="M987.6,71.2c-1.9-0.8-2,1.2-3,1.8C986.4,73.7,987.5,73.3,987.6,71.2z"/>
	<path class="st0" d="M512.3,123.2c-1.8,0.1-2.7,1.9-4.2,2.4C509.5,124.9,512.6,127.1,512.3,123.2z"/>
	<path class="st0" d="M916.4,96.9c1.6-0.1,0.1-1.9,1.2-2.5c-0.5,0-0.9,0-1.4,0c-0.6,0-0.9,0.3-0.9,0.9c-0.3,0-0.6,0-0.9,0
		C914.7,96.4,915.5,97,916.4,96.9z"/>
	<path class="st0" d="M802.6,163.7c-2.6,0-5.1,0-7.7,0.1C797.5,164.7,800,164.8,802.6,163.7z"/>
	<path class="st0" d="M800.8,93.2c-1.5-1.2-2.7,0.4-4.1,0.4C798.1,94.3,799.6,95.8,800.8,93.2z"/>
	<path class="st0" d="M1047.5,93.6c-2.6,0-5.1-0.6-7.6,0.5C1042.4,94.5,1045,94.5,1047.5,93.6z"/>
	<path class="st0" d="M1076.8,99.5c-1.8-1-3.4,0-5,0.5C1073.5,100.1,1075.3,100.5,1076.8,99.5z"/>
	<path class="st0" d="M1139.3,85.7c4,1.1,8.1,0.3,12.2,0.3c2.2,0,4.7,1.7,6.6-1c-2-1.8-4-1.8-6-0.4c-0.5-1.1-1.4-1-2.4-1.1
		c-3.6-0.3-6.9,0.7-10.2,2c-1.6-0.2-2.8,0.1-3.8,2C1137.6,87.5,1138.7,87,1139.3,85.7z"/>
	<path class="st0" d="M1197.2,119.7c1-0.4,3.2,1.1,2.6-1.7C1199.1,118.8,1197.6,118.5,1197.2,119.7z"/>
	<path class="st0" d="M787.3,105c-1.9-0.1-3.9-0.1-5.8-0.2C783.4,105.8,785.3,105.8,787.3,105z"/>
	<path class="st0" d="M1111.4,95.7c1.4,0.4,0,2.5,1.7,2.7C1113.8,95.3,1113.8,95.3,1111.4,95.7z"/>
	<path class="st0" d="M1081.9,94.5c-1.3-0.5-2.4-0.7-3.2,0.8C1079.8,95.2,1081,95.7,1081.9,94.5z"/>
	<path class="st0" d="M1097.9,90.2c-0.8,0.3-1.7,0.6-2.5,0.8c0,0-0.1,0.1-0.1,0.1c0.2,0.6,0.3,1.3,0.5,1.9
		C1096.7,92.2,1097.8,91.6,1097.9,90.2z"/>
	<path class="st0" d="M522.3,118.9c-0.4-0.5-1-0.9-0.7-1.7c-0.7,0-2-0.4-1.9,0.6C519.8,119.1,521.2,118.9,522.3,118.9z"/>
	<path class="st0" d="M1190.5,93.1c1.6,0,3.3,0.1,4.9,0.1C1193.8,92.2,1192.2,92.4,1190.5,93.1z"/>
	<path class="st0" d="M1103.1,97c-0.9,0.3-1.8,0.6-2.7,0.8C1102.5,101.6,1102.3,97.7,1103.1,97z"/>
	<path class="st0" d="M542.3,113c-1.1,0-2.2,0-3.3,0C540.1,116.5,541.2,113.2,542.3,113z"/>
	<path class="st0" d="M542.3,113c0.1,0,0.2,0,0.3,0C542.5,113,542.4,113,542.3,113z"/>
	<path class="st0" d="M1206.6,98.6c-0.3,0.6-0.6,1.1-0.9,1.7c0.7,0,1.7,0.3,2-0.6C1208.1,98.8,1207.2,98.8,1206.6,98.6z"/>
	<path class="st0" d="M788.1,164.2c1.5,0.3,3,0.6,4.4-0.5C791,163.4,789.5,163.6,788.1,164.2z"/>
	<path class="st0" d="M612.5,81c-0.3-0.5-0.6-1.4-1-1.4c-0.9,0-0.7,0.9-0.8,1.5C611.3,81.9,611.9,81.9,612.5,81z"/>
	<path class="st0" d="M1113.9,98.4c1.1-0.2,2.2-0.4,3.3-0.6C1116,97.8,1114.8,97.4,1113.9,98.4z"/>
	<path class="st0" d="M1087.1,97.4c-0.9-0.2-0.9,0.6-1,1.2c0.6,0,1.1,0,1.7,0C1087.6,98.1,1087.4,97.4,1087.1,97.4z"/>
	<path class="st0" d="M1074.3,97.1c-1.2,0.2-2.4-0.3-3.5,0.6C1072.1,97.8,1073.3,98.3,1074.3,97.1z"/>
	<path class="st0" d="M869.2,64.2c-1.2,0-2.4,0-3.6-0.1C866.8,65.2,868,64.9,869.2,64.2z"/>
	<path class="st0" d="M980,152.5c1.2,0.1,2.4,0.4,3.4-0.5C982.2,151.7,981.1,152,980,152.5z"/>
	<path class="st0" d="M651.9,74.7c0.2,0,0.4-0.3,0.5-0.4c-0.1-0.2-0.2-0.5-0.4-0.6c-0.2-0.1-0.6,0.1-0.7,0.2
		C651.3,74.4,651.5,74.7,651.9,74.7z"/>
	<path class="st0" d="M655.1,74.7c0.9,0.1,0.9-0.6,1.1-1.2l0,0c0.1-0.1,0.2-0.3,0.3-0.4c-0.1,0.1-0.3,0.2-0.4,0.3
		c-0.6,0.1-1.3,0.1-1.2,1.1C654.8,74.5,655,74.7,655.1,74.7z"/>
	<path class="st0" d="M796.7,75.9c-0.2-1-0.1-2.3-1.8-1.4C795,75.7,795.6,76.1,796.7,75.9z"/>
	<path class="st0" d="M586.9,92.3c-0.5,0.4-1,0.9-1.4,1.3C587.4,94.8,587,93.4,586.9,92.3z"/>
	<path class="st0" d="M790,107.9c0.4-0.4,0.7-0.7,1.1-1.1c-0.5-0.1-1.2-0.4-1.4-0.2C789.1,107.1,789.5,107.6,790,107.9z"/>
	<path class="st0" d="M1032.3,105.4c-1.2,0-2.4-0.5-3.4,0.6C1030,105.6,1031.3,106.5,1032.3,105.4z"/>
	<path class="st0" d="M1037.3,144.3c-1.2-0.2-2.3,0.1-3.3,0.6C1035.1,145,1036.3,145.3,1037.3,144.3z"/>
	<path class="st0" d="M800.1,76c0.8,0,1.6,0,2.4-0.1C801.7,75,800.9,74.7,800.1,76z"/>
	<path class="st0" d="M548.5,82.6C548.5,82.6,548.5,82.6,548.5,82.6c-0.1-0.6-0.3-1.1-0.4-1.7C547.3,81.7,547.6,82.2,548.5,82.6
		c-0.3,0.5-0.6,1-0.9,1.5C548.7,84.1,549.9,84.2,548.5,82.6z"/>
	<path class="st0" d="M725.9,109.6c0.9,0.2,1.7,0.4,2.6,0.6C727.8,109.3,726.8,109.4,725.9,109.6z"/>
	<path class="st0" d="M1128.3,97c-0.9,0-1.8,0-2.6,0C1126.5,97.9,1127.4,98.2,1128.3,97z"/>
	<path class="st0" d="M1035.6,105.1c0.9-0.2,1.7-0.4,2.6-0.6C1037.3,104.5,1036.4,104.3,1035.6,105.1z"/>
	<path class="st0" d="M943.3,83.5c0.1-0.1-0.1-0.4-0.2-0.6c-0.2,0.1-0.5,0.2-0.6,0.3c-0.1,0.1,0.1,0.4,0.2,0.7
		C942.9,83.7,943.2,83.7,943.3,83.5z"/>
	<path class="st0" d="M490.2,129.9c0.9,0.2,1.8,0.4,2.7,0.6C492.2,129.2,491.2,129.6,490.2,129.9z"/>
	<path class="st0" d="M643.5,92.9c-0.9,0-1.8-0.2-2.3,0.8C642.1,93.6,643.1,94,643.5,92.9z"/>
	<path class="st0" d="M1060.8,102c-0.9,0-1.8-0.3-2.5,0.5C1059.1,102.1,1060.1,102.9,1060.8,102z"/>
	<path class="st0" d="M1065.9,98.1c-0.9-0.2-1.8,0-2.5,0.5C1064.2,98.8,1065.2,98.9,1065.9,98.1z"/>
	<path class="st0" d="M1121.4,97.8c-0.8,0-1.6,0-2.4,0C1119.8,98.6,1120.6,99,1121.4,97.8z"/>
	<path class="st0" d="M1044.1,103.7c-0.9-0.1-1.8-0.3-2.6,0.5C1042.5,104.5,1043.3,104.3,1044.1,103.7z"/>
	<path class="st0" d="M683.7,112.1c-0.5,0-1,0-1.5,0C682.8,112.6,683.3,113.1,683.7,112.1z"/>
	<path class="st0" d="M544.2,112.6c0.6,0,1.1,0,1.7-0.1C545.3,111.8,544.7,111.9,544.2,112.6z"/>
	<path class="st0" d="M1031.4,145.2c-0.6,0.2-1.1,0.4-1.7,0.6C1030.4,145.9,1031,145.8,1031.4,145.2z"/>
	<path class="st0" d="M668.8,111.5c0.5,0.2,1.1,0.4,1.6,0.5C670.2,111.1,669.6,111,668.8,111.5z"/>
	<path class="st0" d="M730.2,110.1c0.6,0,1.1,0.1,1.7,0.1C731.3,109.4,730.8,109.3,730.2,110.1z"/>
	<path class="st0" d="M782.3,109.3c0.6-0.2,1.2-0.3,1.8-0.5C783.4,108.6,782.8,108.6,782.3,109.3z"/>
	<path class="st0" d="M778.9,108.8c0.4,0.6,1.1,0.7,1.7,0.6C780.2,108.7,779.6,108.7,778.9,108.8z"/>
	<path class="st0" d="M1048.3,102.9c-0.6-0.1-1.2-0.1-1.7,0.5C1047.1,103.2,1047.7,103,1048.3,102.9z"/>
	<path class="st0" d="M779.2,103.1c-0.4-0.1-0.7-0.1-1.1-0.2c0.3,0.3,0.6,0.5,0.9,0.8C779.1,103.5,779.1,103.3,779.2,103.1z"/>
	<path class="st0" d="M1042.3,100.8c-0.6,0.1-1.2,0.3-1.7,0.4C1041.2,101.3,1041.8,101.3,1042.3,100.8z"/>
	<path class="st0" d="M1060,98.9c-0.5,0.1-1.1,0.1-1.6,0.2C1059,99.7,1059.5,99.6,1060,98.9z"/>
	<path class="st0" d="M936.4,98.2c0.6-0.1,1.1-0.2,1.7-0.3C937.4,97.7,936.9,97.6,936.4,98.2z"/>
	<path class="st0" d="M950.5,96.1c-0.4,0-0.9,0-1.3,0C949.6,97.3,950,97.3,950.5,96.1z"/>
	<path class="st0" d="M1132.4,95.9c0.6-0.2,1.2-0.4,1.7-0.6C1133.4,95.2,1132.8,95.3,1132.4,95.9z"/>
	<path class="st0" d="M651.9,88.6c-0.5,0.3-1.1,0.6-1.6,0.9C651.1,89.6,651.8,89.7,651.9,88.6z"/>
	<path class="st0" d="M968.4,95.3c0,0.3,0.1,0.6,0.1,0.9C969.2,95.7,969.1,95.4,968.4,95.3z"/>
	<path class="st0" d="M1129,96.1c0.3-0.1,0.5-0.2,0.8-0.3C1129.3,95.3,1129.1,95.6,1129,96.1z"/>
	<path class="st0" d="M1144.3,95.3c-0.4,0-0.8,0-1.2,0C1143.5,96.2,1143.9,96.2,1144.3,95.3z"/>
	<path class="st0" d="M1078.8,96.2c-0.2-0.1-0.4-0.2-0.6-0.3c0,0-0.1,0.1-0.1,0.1C1078.4,96,1078.3,96.8,1078.8,96.2z"/>
	<path class="st0" d="M933.8,98.4c0.3,0,0.6,0,0.9,0C934.4,98,934.1,97.9,933.8,98.4z"/>
	<path class="st0" d="M949.2,91.9c0.1,0.3,0.2,0.6,0.3,0.9C950,92.3,949.8,92,949.2,91.9z"/>
	<path class="st0" d="M558,91.1c-0.1-0.4-0.1-0.8-0.2-1.2C557.5,90.4,557.5,90.8,558,91.1z"/>
	<path class="st0" d="M1048.9,100.3c0.3-0.2,0.7-0.3,1-0.5C1049.4,99.6,1049.1,99.8,1048.9,100.3z"/>
	<path class="st0" d="M1070.2,100.4c-0.3,0.1-0.6,0.3-0.9,0.4C1069.8,101.1,1070,100.7,1070.2,100.4z"/>
	<path class="st0" d="M1058.1,102.8l-0.3,0l-0.3,0.1C1057.7,103.2,1058,103.3,1058.1,102.8z"/>
	<path class="st0" d="M779.8,104.9c-0.3-0.2-0.5-0.3-0.8-0.5C779,105,779.1,105.4,779.8,104.9z"/>
	<path class="st0" d="M1160.1,91.9c-0.3,0.2-0.5,0.4-0.7,0.7C1159.9,92.8,1160.2,92.6,1160.1,91.9z"/>
	<path class="st0" d="M606.1,109.7c0-0.4,0.1-0.7,0.1-1.1C605.6,108.9,605.2,109.3,606.1,109.7z"/>
	<path class="st0" d="M1178.7,92c-0.3,0.2-0.6,0.4-0.9,0.6C1178.4,92.8,1178.6,92.4,1178.7,92z"/>
	<path class="st0" d="M537.3,121.3c0.3,0,0.7,0,1,0.1C538,120.4,537.7,120.7,537.3,121.3z"/>
	<path class="st0" d="M538.7,123.1c-0.2,0.2-0.3,0.4-0.5,0.6C538.8,123.7,539,123.6,538.7,123.1z"/>
	<path class="st0" d="M706.6,165.4c-0.3,0-0.6,0-0.9,0C706,165.9,706.3,166,706.6,165.4z"/>
	<path class="st0" d="M695.7,165.4c-0.3,0-0.6,0-0.9,0C695.1,165.9,695.4,165.9,695.7,165.4z"/>
	<path class="st0" d="M673.8,165.4c-0.3,0-0.6,0-0.9,0C673.2,165.9,673.5,166,673.8,165.4z"/>
	<path class="st0" d="M635.9,164.6c-0.3,0-0.6,0-0.9,0C635.3,165.1,635.6,165.2,635.9,164.6z"/>
	<path class="st0" d="M855.8,93.5c0,0-0.3,0.1-0.3,0.1c0.2,0,0.4,0,0.6,0L855.8,93.5z"/>
	<path class="st0" d="M649.4,89.6c-0.3,0-0.6,0-0.9,0.1C648.8,90.3,649.1,90.1,649.4,89.6z"/>
	<path class="st0" d="M1083.6,94.1c0,0-0.4,0-0.4,0l-0.1,0.4C1083.3,94.5,1083.5,94.3,1083.6,94.1z"/>
	<path class="st0" d="M618.9,80.6c-0.2,0.4-0.5,0.7-0.7,1.1C619.1,81.7,619.1,81.2,618.9,80.6z"/>
	<path class="st0" d="M1147.3,94.2c-0.5-0.4-1-0.4-1.5,0.1C1146.3,94.2,1146.8,94.2,1147.3,94.2z"/>
	<path class="st0" d="M553.2,81c-0.2,0.2-0.4,0.3-0.6,0.5C553.1,81.7,553.3,81.4,553.2,81z"/>
	<path class="st0" d="M815.1,94.7c-0.3-0.1-0.6-0.2-0.9-0.2C814.4,94.9,814.6,95.2,815.1,94.7z"/>
	<polygon class="st0" points="927.4,94.7 927.4,95 927.7,94.9 	"/>
	<path class="st0" d="M1145.6,94.4c-0.3,0-0.4,0.2-0.5,0.4C1145.4,94.9,1145.6,94.7,1145.6,94.4z"/>
	<path class="st0" d="M793.9,74.3c-0.2-0.5-0.5-0.5-0.8-0.1C793.4,74.3,793.7,74.4,793.9,74.3z"/>
	<path class="st0" d="M1200.6,95c-0.1-0.3-0.2-0.7-0.2-1C1199.9,94.5,1199.9,94.8,1200.6,95z"/>
	<path class="st0" d="M982.9,73.3c-0.4-0.2-0.7-0.5-1.1-0.7c0-0.6,0.2-1.7-0.5-1.6c-1.6,0.1-1.1,1.5-1.2,2.5
		c0.6-0.3,1.2-0.6,1.8-0.8C981.9,73.2,982.2,73.4,982.9,73.3z"/>
	<path class="st0" d="M887.5,63.9c0.3,0,0.6,0,0.9,0C888.1,63.4,887.8,63.4,887.5,63.9z"/>
	<path class="st0" d="M816.4,95.8c0-0.2,0-0.4,0.1-0.5l-0.2,0C816.3,95.4,816.4,95.6,816.4,95.8z"/>
	<path class="st0" d="M593.3,113.5c1.9-0.1,1.1-1.2,0.5-2.1c-0.7-0.9,4.3-1.7,0-2.6c-2.4,0.4-5.2,0-5.9,3.3c0.5,0,0.9,0.1,1.4,0.1
		C589.6,115.7,591.9,113.6,593.3,113.5z"/>
	<path class="st0" d="M573.3,492.5c0.6,0,1.3,0.1,1.9,0.1c0.3,0,0.7,0,1,0c1.3-0.1,2.6-0.1,4-0.2c1,0.3,2,0.5,3,0.8
		c4.8,0,9.7,0.3,14.5-0.1c3.5-0.3,6.4,2.1,9.3,1.9c10.1-0.8,20,0.6,29.9,1.3c3.4,0.2,6.9,0.1,10.1,0.8c5.9,1.4,11.8,2,17.8,2
		c4.1,0.1,8.3,0.2,12.3,1.5c0.4,0,0.7,0,1.1-0.1c1,0,2,0,2.9-0.1c0.7,0,1.4,0.1,2,0.1c2.1-0.2,4.3-1,6.2-0.6
		c3.9,0.9,5.1-1.4,4.5-4.2c-0.5-2.1,0.2-1.7,1.4-1.7c1.8,0,3.5-0.2,5.3,0.6c2.1,0.9,4.4,1,5.6-2.3c-2.9-0.3-5.1-1.6-7.4-2.4
		c-2.9-1.1-3.4-5-6.4-4.6c-6.9,1-13.5-1.4-20.2-1.5c-2.6,2-2.6,2-4.1-0.7c-12.2-1-24.5-2-36.7-3.2c-3-0.3-6.1-1.7-9.1-0.7
		c-5.3,1.8-10-1.6-15.3-1.2c-5,0.4-10.5-2-15.7-3.5c-6.5-1.8-13.1,0.5-19.3-2.1c-0.3-0.1-1,0.3-1.3,0.6c-2,2.1-4.6,1.5-6.4,0.7
		c-2.8-1.4-5.8-2.1-8.6-2.1c-4.4,0.1-8.4-4.3-13.1-0.8c-1.1,0.8-4.8,0.4-4.9-0.2c-1.4-4.8-5.2-2-7.8-2.8c-0.3,0.2-0.5,0.5-0.8,0.7
		c-4.9,1.2-9-0.6-13-3.1c-0.3,0-0.7,0-1,0c-1,0.5-2,0.5-3-0.1l-0.5,0.1c0,0-0.5-0.1-0.5-0.1c-4.7-0.3-9.4-0.6-14.1-0.9
		c-1.3,0-2.6,0-3.9-0.1c-0.7,0-1.4,0-2.1,0c-0.3,0-0.6,0-0.9,0c-3.7,0.2-7.6,1.8-11-1c-0.3-0.1-0.6-0.1-0.9-0.1
		c-1.8,1-3.5,0.7-5.3-0.3c-0.9,0.1-1.8,0.3-2.8,0.4c-0.7,0-1.4,0-2,0.1c-0.4-0.2-0.8-0.4-1.3-0.6c-0.6,0-1.2-0.1-1.8-0.1
		c-1,1.4-2,1.1-2.9,0c-0.6,0-1.3,0.1-1.9,0.1c-1.1,0.6-2.2,1.5-3.4,0c-1.3-0.1-1.9,0.7-2.2,1.9c0,0.3,0,0.7-0.1,0.8
		c-0.7,0.2-1.2,0-1.4-0.8c-1.6-2.5-4.7,1.9-6.1-1.4l-0.5,0.1c0,0-0.5-0.2-0.5-0.2c-1.4,0.2-2.3,1.9-3.9,1.5
		c-0.3,0.2-0.5,0.4-0.8,0.6c-0.1-0.2-0.1-0.5-0.2-0.7c0,0,0-0.1,0-0.1c-0.3-0.2-0.6-0.4-0.9-0.6c-1.4,1.4-2.2,0.2-3.2-0.6
		c-0.3-0.2-0.6-0.4-0.8-0.7c-5.3,2-10.6,0.2-16,0.1c-1,0.4-1.6,2.9-3,0.4c-2.2,1.1-4.3,1.8-6.4-0.3c-0.4,0.5-0.5,0.1-0.7-0.2
		c-1.4-0.1-2.7-0.2-4.1-0.4c-2.4-0.1-4.8,0.9-7.1-0.6c-6,0.5-11.9,1.1-17.9,1.6c-1.4,0-3,0.5-4.2-0.6c-0.3,0.2-0.5,0.1-0.7-0.2
		c-3-1-7,1.1-9.1-2.9c-0.6,0.1-1.3-0.3-1.7,0.5c-2.1,4.4-3.2,4.6-7.1,1.4c-4.6,2.8-8.7-1-13.1-1c0.1,3.1-1.8,3.9-4.5,3.9
		c-7.5-0.1-14.8,1.4-22.3,1.1c-2.8-0.1-5.9-1.1-8.3,1.8c-1.1,1.4-2.3-0.7-3.7-0.9c-12.9-1.4-25.8-0.4-38.7,0.9
		c-5.7,0.6-11.6-0.4-17.3,1.4c-4.9,1.6-10,1.9-15.1,0.8c-1.6-0.4-2.3,1.1-3.6,1.3c-5.7,0.7-11.4,1.9-17.1,1.6
		c-3.1-0.2-5.7,1.4-8.6,1.8c-0.4,0-0.8,0-1.2,0c-0.9,0-1.8,0.1-2.7,0.1c-1.7-0.1-2.6,0.9-3.3,2.3c-0.3,0.8-1,0.8-1.7,0.7
		c-2.1,0-3.7,2.7-6.1,1l-0.5,0.1l-0.5,0c-0.8,0.1-2.1,0.6-2.2,0.3c-1.5-2.8-4.2-2.6-6.7-2.9c-0.9,4.4-2.6,0.9-4,0.5
		c-2.9,1.2-6.2,1.8-8.9,3.2c-2.7,1.4-2.9-2.5-5.5-1c-5.6,3.3-12.3,3.3-18.6,4.3c-3.4,0.6-2.3,1.8-1.1,3.5c1.3-0.1,2.6-0.1,4-0.2
		c0.9-0.7,1.7-1.6,3-1c0.7-0.2,1.1-0.1,1,0.7c1,3.5,3.6,3.6,6.1,2.4c3.9-2,7-0.8,9.9,1.6c0.3,0,0.7,0,1,0c0-0.3,0.1-0.7,0.3-0.9
		c2.4-3,2.8-2.9,4.6,1c6.2,0,11.8-2.9,18.1-2.7c5.3,0.2,10.6-3,16-0.3c3.3-1.6,6.7-1.5,10,0.1c3.2-0.3,6.6-3.8,9.4,0.8
		c0.1,0.2,1,0.1,1.4,0.1c7.8-1,15.4-2.1,23.4-1.1c11.7,1.4,23.4-2.5,35.2-0.9c1.2,0.2,2.6-0.9,3.7,0.5c1.8,2.4,4.2,1.6,6.2,0.7
		c5.5-2.4,10.6-2.2,15.7,0.8c4.2,0,7.3-4.7,12-3c1.2,2.8,4.4,0.4,6,2.2c1.4,0.2,2.7,0.4,4.1,0.5c4.2-4.2,8.6-1.5,12.9-0.5
		c0.2,0.2,0.4,0.4,0.6,0.6c0.9,2,2.3,2.8,3,0.2c1-3.8,2.2-1.9,3.5-0.4c0.5,0.4,1,0.9,1.5,1.3c2.2,1.9,3.9,0.9,5.5-0.8
		c0.8-0.9,1.8-2,2.8-0.7c4.2,5.1,10,2.5,15,3.3c2.2,0.3,4-0.9,5-3.2c0.9-2.2,2.6-3,4.9-2.9c3.4,0.2,6.5,0.9,9.2,3.1
		c0.3,0.7,0.6,1.4,0.9,2.1c2.2-0.6,1.2-2.7,2-4c-0.6-0.6-0.1-0.9,0.3-0.8c0.3,0,0.6,0.5,0.9,0.7c0.3,0,0.5,0,0.8,0.1
		c0.2-0.3,0.4-0.5,0.6-0.8c0.1,0.3,0.3,0.6,0.4,0.9c2.3,0.6,3.2-2.3,5.7-2.2c5.3,0.2,10.5-0.3,15.9-0.1c3,0.2,6,2,9,0.7
		c3.1-1.3,5.8-0.9,8.6,0.8c0.3-0.1,0.6-0.3,0.9-0.4c0.7-1.6,2-0.8,3.1-0.8c1.3-0.9,2.1-0.7,2,1.1c-0.1,1.3-0.2,2.6-0.4,3.8
		c0.5,2.2,2.2,2.5,3.8,1.8c5.5-2.1,10.7,1,16.4,0c-0.8,1.5-1.7,2.9-1.7,3c1.9,1.2,4.7,2.9,6.1,1.9c3.8-2.7,7.9-1.6,11.8-2.3
		c10-1.8,19.9,0.6,29.8,0.7c3.5,0,5.2-0.7,7-2.6c2.1-2.1,2.4-2.4,3,0c0.5,2.1,2.1,2.6,3.2,2.2c4-1.5,7.9,0.4,11.9,0.2
		c7.3-0.4,14.5-1.9,21.9-1.1c2.9-1.2,6-0.6,9-0.9c0.3,0,0.6,0.1,1,0.1C572.6,492.5,573,492.5,573.3,492.5z"/>
	<polygon class="st0" points="178.3,468.2 178.3,468.2 178.3,468.2 	"/>
	<path class="st0" d="M153.3,455.4c2.1-2.2,3.9-3.1,5,0.8c2.4,1,4.7,1.6,7.1,0c0.1-1.1,0.6-1.9,1.6-2.3c0.1,0.8,0.3,1.5,0.4,2.3
		c0.6,0.1,1.2,0.1,1.9,0.2c1.2,0.8,2.9-0.9,3.9,0.9c0.1,0.3,0.2,0.6,0.3,0.9c1.1,1.8-1,1-1.3,1.6l-0.1,0.3c-2.1,3.1,0.4,6,0.5,9
		c1.7,0.8,3-1.7,4.8-0.7c0.3-0.1,0.7-0.1,1-0.2c0-2.3,1.3-0.7,2-0.6c0.7,0,1.4-0.1,2-0.1c0.6-0.1,0.8,0.2,0.8,0.8l0.1,0.2
		c0.3,0.3,0.6,0.5,0.9,0.8c0.7,0,1.1,0.3,1.2,1c0.3,0.1,0.6,0.2,1,0.4c0.3-0.1,0.7-0.3,1-0.4c0.3-0.5,0.6-1.1,0.8-1.6
		c0-0.8-0.4-1.8,0.5-2.1c0.5-0.1,1.2,0.8,1.8,1.3c0-0.2,0.1-0.5,0.1-0.7c0.1,0.4,0.2,0.7,0.3,1.1c0.9,2.9,3.4,1.6,5.3,2
		c1.4-0.7,2.8-0.8,4.2,0.1c0.6,0,1.3,0,1.9,0c0.3-0.2,0.7-0.5,1-0.7c0.2-0.3,0.4-0.4,0.8-0.3c0.4-0.2,0.8-0.3,1.2-0.5
		c0.7,0,1.4,0,2.1,0c11.7-0.4,23.2-3,35-3.3c7.1-0.2,14.3-2.1,21.3-1c8.4,1.4,15.8-3.1,23.9-2.7c4.3,0.2,8.8-2.1,12.9,0.9
		c0.2,0.2,0.7,0.5,0.8,0.4c4.7-3.9,10.5-0.5,15.4-2.2c4-1.3,7.9,0.9,11.7-0.5c3.5-4.2,9.7-4.3,13-0.2c0.7,0,1.3,0.1,2,0.1
		c-0.1-0.8-0.1-1.7-0.3-2.4c-0.3-1.1-1.1-2.3,0.2-3.1c1-0.7,2.2-0.3,3.3,0.3c4.1,2.4,8.5,3.5,13.2,3.5c0.9,2.5,2.7,1.7,4.4,1.2
		c1.6-0.5,3.1-1.1,4.3,0.6c4.6-1.5,9.2-1.6,13.8,0c1.4,1.2,3.1,0.9,3.9-0.4c2.3-3.8,4.7-2.7,7.4-0.6c2.5-2.2,5.2,0.2,7.8-0.4
		c3.4-0.5,6.7-2.8,10.2-0.2c0.4,0.2,0.7,0.3,1.1,0.5c1.5,0,3.1,0,4.6,0c2-0.9,4.1-0.9,6.2-0.6c2-0.3,4.1-0.6,6.1,0.1
		c1.3,0,2.6,0,3.9-0.1c1.5-0.1,2.3-0.9,2.3-2.4c3.5-1.8,7.1-0.6,10.6-0.4c0.6-0.2,1.3-0.3,1.9-0.5c1.3-2.1,2.7-0.5,4,0
		c0.2,0.1,0.4,0.1,0.5,0.1c0.8-0.4,1.5-0.2,1.9,0.6c1.4-0.2,2.9,0.3,4-0.9c0.1-1,0.7-0.9,1.4-0.7c3.1-0.7,6.2-0.7,9.2,0.7
		c0.4-0.2,0.7-0.4,1.1-0.5c3.1,0.4,5.7,3,9,1.8c0.9,0.5,2.3-0.8,3,0.8c0.3,0.2,0.7,0.4,1,0.6c0.3-0.2,0.6-0.2,0.9-0.2
		c4.9-4.4,10.6-2.4,16.1-1.9c1.3,0,2.6-0.1,3.9-0.1c1-0.4,2-0.7,3-0.2c0.3,0,0.7-0.1,1-0.1c0-0.4,0-0.8,0-1.2
		c-0.9-0.7-2.6-0.8-2.2-2.6c0.4-1.8,2.1-0.9,3.1-1.4c0.2-1.5-0.4-2-1.9-1.7c-1.7,0.4-2.4-0.5-2-2.2c-0.1-0.8-0.1-1.5,1-0.8
		c0.2-0.1,0.3-0.1,0.5-0.2c0.1-0.1,0.3-0.3,0.3-0.4c-0.2-1-2.8,0.1-1.7-1.8c0.6-1,2-1.8,3.1-2c1.4-0.2,1,1.1,1,2.1
		c0,3.2,1.7,1.7,3,1c0-0.4,0-0.7,0.1-1.1c-0.1-0.2-0.2-0.5-0.2-0.7c0-0.1,0.1-0.2,0.1-0.4c0,0,0,0,0,0c-0.7-1.9,1.3-2.1,1.9-3.1
		c0-0.6,0.1-1.3,0.1-1.9c-0.1-0.6-0.1-1.2-0.2-1.8c-2.6-1.4-5-2.7-8.1-1c-1.4,0.8-3.2,0.1-4.6-1c-2.6-2-3.2-0.3-3.4,1.9
		c-3.5,1.1-6.8-0.6-10-1.2c-4.6-0.8-9.2,0.6-13.7-0.7c-0.9,1.1-1.9,0.6-3,0.3c-0.5,1.2-1.6,0.2-2.3,0.6c-0.5,1.2-1.2,0.7-1.9,0.1
		c-0.7,0-1.3,0-2-0.1c-0.1,0.4-0.3,0.7-0.4,1.1c-0.1-0.2-0.2-0.5-0.4-0.7c-0.1-0.1-0.2-0.2-0.3-0.3c-1,0.4-1.9-0.1-2.8-0.4
		c-0.3,0-0.7,0-1,0c-1.3,0-2.7,0-4,0c-1,0-2,0.1-3,0.1c-0.7,0.4-1.3,0.4-2-0.1c-1.4-0.2-2.7-0.5-4.1-0.7c-0.5,0-1,0.1-1.4,0.1
		c1.6-3.7-1.4-3.8-3.2-3.2c-3.8,1.2-7.5-0.5-11.1,0.3c-8.2,1.9-16.6,1.1-24.8,1.6c-7.7,0.5-15.4,4-23.3,1.3c0.6,3.7-1.2,5.6-4.5,7.2
		c-5.1,2.3-5.4,4.3-2,8.7c0.5,0.7,1.1,1.3,1.4,2c0.5,1,1.4,2-0.1,3c-1,0.6-1.8,0.6-2.6-0.3c-6-6.3-12.7-11.9-18.2-18.7
		c-0.3-0.2-0.7-0.3-1-0.5c-1.3,0.1-2.7,0.2-4,0.3c-3.7,0.3-7.3,0.5-10.9-0.8c-0.4,1.2-1.3,0.8-2.1,0.6c-1.7,0.7-3.3,0.3-5,0
		c-1.2,0.3-2.4,0.7-3.3-0.5c-0.5,0-1,0-1.5-0.1c-1.3,1-2.7,0.8-4.2,0.6c-1.3,0-2.6,0-4,0c-0.7,0-1.4,0-2,0c-2.6,0.7-5.3,0.5-7.8,0.7
		c-4.8,0.4-10.3,0.9-14.5-0.9c-6.6-2.7-12.9-1.7-19.5-1.4c-0.8,1.4-2,0.5-3.1,0.5c-0.7,0.5-1.4,0.9-2.1,1.4c-0.3,0.5-0.5,0.5-0.7,0
		c-1.4,1-2.8,0-4.1,0.1c-0.4,0.2-0.7,0.5-1.1,0.7c-0.7,0-1.3-0.1-2-0.1c-0.4-0.2-0.7-0.4-1.1-0.6c-6,1.9-12.6-0.3-18.5,2.8
		c-0.5,0.2-1.4-0.6-2.1-0.7c-2.4-0.4-4.9-1.4-7.1-1c-10.2,1.7-20.6,1.7-30.8,3.1c-4.3,0.6-7.2-2.7-11.1-2.1
		c-0.6,1.1-1.4,0.8-2.3,0.5c-0.7,0-1.3,0-2,0c-0.3,0-0.7-0.1-1-0.1c-0.7,0-1.4,0-2,0.1c-0.3,0.2-0.6,0.3-1,0.5
		c-1.2,3.5-3.8,1.8-6,1.6c-0.3,0-0.7,0.1-1,0.1c-0.3,0.1-0.6,0.2-0.9,0.3c-0.9,0.9-1.9,1.1-3.1,0.7c-1.4,1.5-3,2.3-5,2.3
		c-0.1,1.6-1.3,0.7-2,0.9c-1.3,2.1-3.2,1.1-4.9,0.9c-0.3,0-0.7-0.1-1-0.1c-1,0.1-2,0.2-3,0.3c-0.3,0.8-0.6,0.7-0.9,0
		c-6.1,1.9-12.9,0.2-18.9,3.1c-1.3,0.8-2.7,1-4.2,0.7c-0.6,0-1.2,0-1.9-0.1c-3.4,0.9-4.8-2.1-7.1-3.5c-0.2,0-0.5-0.1-0.7-0.1
		c-0.3,1.8-2.1,1.4-3.2,2c0,0.7,0.6,1.3-0.7,1.8c-2.3,0.9-4.2-1.2-6.4-0.6c-0.3,0.6-0.7,0.8-1.2,0.5c0,0,0,0,0,0
		c0.1,1.3,0.2,2.6,0.3,3.9c3.1-0.8,1.5,2.7,3.1,3.3c0.9-0.1,2-0.6,2.1,0.9c0.9,0.1,1.8,0.3,2.8,0.4c0.4,0,0.7-0.1,1.1-0.1
		c0.6-0.3,1.2-0.6,1.8-0.9c0.2-0.8,0.1-2,0.5-2.2c1.3-0.7,1.2,0.7,1.7,1.4c0.8,1.1,2.2,1.8,2,3.5c0.3,0,0.7,0.1,1,0.1
		c0.7-0.3,1.3-0.5,2-0.8c0,0,0.2-0.2,0.2-0.2c0.2-0.2,0.5-0.4,0.7-0.7c1.7-1.9,3.9-1.4,6-1.4c1.1,0,0.9,2.7,2.4,1.1
		C144.5,453.5,149.1,455.7,153.3,455.4z M494.4,440.5c1.4-1.6,4.2-2.3,3.7-5.2c2.6,3.3-1,7.6,2,11c-1.5-1.2-2.3-2.5-4.6-2.4
		C493.4,444.1,492.5,442.7,494.4,440.5z M120.7,455c-0.5-0.1-0.5-0.4-0.3-0.8c0.2,0.2,0.5,0.4,0.7,0.6
		C121,454.9,120.8,455.1,120.7,455z"/>
	<path class="st0" d="M419.5,514.2c-1.5,0.9-3.3-0.1-4.6-0.9c-7.5-4.8-15.4-3.5-23.4-1.9c-1.4,1.3-2.6,0.4-3.9-0.2
		c-3.2-2.4-5.8-0.1-8.5,1c-0.2,0.5-0.4,0.5-0.6,0l-0.1-0.1c-0.4,0-0.7-0.1-1.1-0.1c-3.2-0.7-6.8-4.3-9.3,1.2c-0.1,0.2-1.3,0.1-1.3,0
		c-0.6-2.8-4.6,0.8-4.8-2.6c-3,0.4-6.2-1.8-8.9,0.1c-2.9,1.9-5.5,3.8-8.5,0.6c-0.9-0.9-2-1.1-2.6-0.7c-2.8,2.1-7.5-1.1-9.3,3.5
		c-0.1,0.3-2.8,0.9-2.9-0.2c-0.1-4-2.9-2-4.6-2.4c-2.9-0.7-5.8,0.2-8.8-0.6c-4.3-1.2-8.9-2.3-13.1-0.4c-2.7,1.2-4.6,0.8-6.9-0.3
		c-0.7,0.2-1.4,0.4-2.2,0.7c0,0-0.2,0.3-0.2,0.3c-1.7,2.1-1.7,2.1-5.6-0.9c-6.6-0.1-13,2.4-19.7,1.1c-1.5-0.3-1.2,1.2-1.6,2
		c0,0.6-0.1,0.9-0.7,0.4c-0.6,0.2-1.3,0.4-1.9,0.7c-0.4,1-0.9,0.7-1.3,0c-1.4,1.5-2.7-0.7-4-0.1c-0.3,0.2-0.5,0.4-0.8,0.7
		c-5.4-1.3-11.3,3.5-16.5-1.2c-0.7-0.6-1,0.1-1.4,0.7c-3,4.8-8.3,4.3-12.4,3.8c-5.9-0.8-12.3-0.1-17.7-3.5c-1.6,0.1-3.3,0.1-4.9,0.2
		c-3.1,2-8,0.7-9.5,5.5c-0.3,0.6-0.8,0.9-1.5,0.7c-0.4,0.4-0.7,0.7-1.1,1.1c0.3,0.7,0.6,1.4,0.9,2c4.6,2.1,9.6,2.6,13.8,2.1
		c3.6-0.4,8.7,0.4,10.7-0.8c5.7-3.2,12.1-1.9,17.6-4.3c1.1-0.5,1,0.3,1.1,0.9c2.7-3.4,2.4,1.5,3.9,1.4c1.4-0.6,3,2.1,4.3-0.3
		c3.6,2.1,5.9-3.5,10.3-1.2c4,2.1,10.1-1.3,13.8,3.9c0.3,0.5,1.9,0,2.9,0.1c5.7,0.6,11.2-1.8,16.9-1c5.6,0.8,11.1,0,16.6,0.1
		c4.5,0.1,8-1.2,11.1-4c0.3-0.2,0.7-0.4,1-0.7c0.2-0.3,0.5-0.4,0.9-0.4c0.2-1.1,0.3-2.2,0.6-4.5c0.2,2.3,0.3,3.4,0.4,4.6
		c0,0,0,0,0,0c0.3,0.1,0.7,0.2,1,0.3c1,0,2-0.1,3-0.1c0.7-0.2,0.9,0.2,1,0.8c0,0,0,0,0,0c0.7,0.1,1.4,0.2,2,0.3
		c9.4-1.7,18.8,0.4,28.2,0.1c1.2,0.9,5.1-2.1,3.6,2.6c1.9,1.5,2.3-0.7,2.9-1.4c2.3-2.4,5.8-2.6,7.3,0.3c0.5,0.9,1,1.1,1.8,1.1
		c3.3,0.3,6.5,0.7,9.8,0.9c1.1,0.1,3,0.4,3.1-0.7c0.6-6.2,2.2-3,3.8-0.5c0.7,1.2,1.9,1.2,3.1,1.3c4.2,0.1,8.5-0.4,12.6,0.3
		c6.7,1.1,11.8-3.4,17.9-4.2c2.1-0.3,4.3-2.7,3.5-4.9C424.5,515,422.6,512.3,419.5,514.2z"/>
	<path class="st0" d="M237.4,522.2C237.4,522.1,237.4,522.1,237.4,522.2C237.4,522.1,237.4,522.1,237.4,522.2L237.4,522.2z"/>
</g>
</svg>
