<?xml version="1.0" encoding="utf-8"?>
<!-- Generator: Adobe Illustrator 26.0.2, SVG Export Plug-In . SVG Version: 6.00 Build 0)  -->
<svg version="1.1" id="Layer_1" xmlns="http://www.w3.org/2000/svg" xmlns:xlink="http://www.w3.org/1999/xlink" x="0px" y="0px"
	 viewBox="0 0 1280 720" style="enable-background:new 0 0 1280 720;" xml:space="preserve">
<style type="text/css">
	.st0{fill:#FACB35;}
</style>
<g>
	<path class="st0" d="M1127.5,582c-6.8-1.7-13.8-1.6-20.8-1.9c-0.4,0-0.7,0-1.1,0c-0.3-0.1-0.7-0.3-1-0.4c-0.9-1.1-2-0.6-3.1-0.6
		c-1.3-1.6-2.8-0.7-4.3-0.3c-0.6-0.5-1.1-0.5-1.6,0.1c-0.2,0.8-0.8,1.2-1.6,1.3c-0.4-0.1-0.9-0.2-1.3-0.3v0l-0.1-0.1
		c-0.7-1.3-1.9-1-3-0.9c-0.7-0.5-1.3-0.9-2-1.4c-1-1-2-0.9-3,0c-1.8-0.1-3,2.3-5,1.1c-0.6-1.1-1.3-1.1-2-0.2
		c-12.1,0.6-24.2,0.9-35.8-3.8c-2-0.8-4.4-1.7-5.9,0.3c-1.5,2.1-3.3,1.8-5.2,2c-8.1,0.8-16.2,0.4-24.2-0.6
		c-6.6-0.8-13.1,0.1-19.6,0.2c-10.6,0.2-21.2,0.7-31.9-0.2c-3.7-0.3-7.2-2-11.1-1.3c-5.4,1-11.3,5.4-15.9-1.6
		c-0.1-0.2-0.7-0.3-0.9-0.2c-3,2-5.7-0.8-8.6-0.4c-0.4,0-0.8,0.1-1.2,0.1c-1.2,0-2.5-0.1-3.7-0.1c-0.3,0.2-0.7,0.4-1,0.7
		c-2.7-0.2-5.3,1.2-8,0.4c-0.1-1.4-0.7-2-2.1-2c-1.9,0.1-1.8,1.4-1.9,2.8c-0.7,0.1-1.3,0.1-1.9,0.3c-3.8,1.1-7.2-1.4-11-0.9
		c-8.8,1.3-17.8,1.7-26.7,2.1c-5.9,0.3-13.4-2-17.4,5.4c-0.5,1-1.4,0.4-2.2,0.4c-2.6,0-5.1,0-7.7,0.1c-2.1,0.5-5-1.5-6.3,1.8
		c-0.9,0.1-2.4-0.3-2.4,1c0.1,1.8,1.7,0.9,2.7,1c1.8,0.4,3.3-0.9,4.9-1.1c2.9-0.2,6.8-0.3,8.3,1.5c3.2,3.8,7,2.2,10.6,2.8
		c1.7,4.4,4.9,3.3,8.1,2.1c1,0,1.9,0.1,2.9,0.1c0.6,0.8,1.3,0.9,2.2,0.6c3.9,0.3,7.6-1.4,11.7-1.1c7.3,0.6,14.6,0,21.9-0.8
		c7.4-0.8,15.1-0.6,22.5,0c6.8,0.6,13.1-2.3,19.7-2.2c2.7-0.6,6.7,3.9,8.1-2.1c9-0.8,18.1,1.1,27.1-0.9c2.2-0.5,6.4-0.3,6.3,1
		c-0.5,4.6,2.8,2.7,4.2,2.7c7.4,0.2,14.8,0.1,22.3,0.1c1.2,0.2,2.6,0.6,3.1-1.1c-0.9-0.4-1.7-0.9-3.7-1.9c3.4,0,5.5,0,7.6,0
		c1.5,0,3,0,4.4,0c1.4,1.1,1.8,3,4.4,3.2c11.9,0.5,23.7,1.2,35.6,1c2.2,0,4-0.2,5.2-2.8c0.6-1.4,2.4-2.6,5.2-1.6
		c5.8,2,11.8,0.2,17.8-0.4c1.4-0.2,5.2-4.5,4.9,1.6c0,0.2,0.9,0.7,1.2,0.6c4.9-2.1,10.6,2.3,15.4-1.9c1.3-1.2,2.8-0.9,3.5,1
		c0.5,1.3,1.8,1.4,2.9,1.4c5.7-0.3,11.8,0.9,16-4.6C1131,581.5,1129.1,582.4,1127.5,582z"/>
	<path class="st0" d="M840.9,235.4c0.2,0.5,0.6,0.7,1,0.1c1.2-2.7,2.7-0.2,4-0.3c0.7,1,1.8,0.7,2.8,0.8c1.7,2.3-2,2.8-1.6,4.7
		c2,0.2,3.9,0.4,5.9,0.6c1,0.9,1.9,0.9,2.9,0c1-0.2,2-0.4,3-0.6c0.2,0.7,0.1,1.7,1.1,1.7c0.3,0,0.6-0.9,1-1.3
		c1.2-0.1,2.7-0.7,3.4-0.2c4.2,2.8,7.7,0.3,11.6-0.8c2.9-0.8,7.1-2.1,9-1.3c4.8,1.9,8.2,0.3,11.9-1.6c1.5-0.8,3.6-0.8,4.1,0.2
		c1.7,3,5.1,2.4,7.3,4.3c1.3,1.1,2.5,0.5,2.6-0.6c0.3-2.6,1.6-2.6,3.6-2.2c2.7,0.4,5.6-0.2,7.1-2.2c1-1.4-0.4-3.8-1.4-5.7
		c-0.4,0.2-0.8,0.4-1.2,0.6c-0.9,0.2-1.8,0.3-2.6,0.5c-0.8-0.1-1.6-0.1-2.4-0.2c0,0-0.2-0.2-0.2-0.2l0.1-0.3c-0.1-0.5-0.2-1-0.3-1.4
		c-2.5-1.9-6.5,0-8.2-2.8c-1.6-2.7-3.3-2.7-6-2.4c-4.1,0.6-9.1,3.6-11.5-3c-0.2-0.5-0.7,0.6-0.9,1.1c-1,0.2-2.4-0.5-2.7,1.3
		c0.1,0.3,0.1,0.5-0.1,0.8c-0.4-0.3-0.9-0.6-1.3-0.9c-0.5-1.9-2.6-1.7-2.8-0.9c-0.6,2.4-3.8,2.3-4.1,4.8c-1.7-1.1-3.3-1.7-3.8,1.2
		c-2.5,1.4-2.9,3.4-0.9,5.5c2,2.1-0.4,1.1-0.9,1.4c-1.2-0.1-2.5-0.2-3.7-0.3c0.5-1.3,0.2-2.5-0.6-3.6c0.1-0.3,0.2-0.6,0.2-0.9
		c0.5-0.4,2.2-0.8,1.2-1.3c-2.7-1.2-4.6-4.4-8.2-3.4c-0.3-0.6-0.6-0.6-1,0c-1.9,1.6-3.7,3.5-6.6,2.3c-3.7-1.6-6.8-0.1-9.6,2.2
		c-1.2,0.6-1.8,1.6-1.8,3C839.8,234.7,840.5,235,840.9,235.4z"/>
	<path class="st0" d="M398.1,256.8c-2.2,2.4-2.9,5.1-5.4,3.1c-1.2,1.7-3.3,0.6-5.1,1.7c-2.5,1.4-5.5,2.8-4.2,5.4
		c1.3,2.6,6.1,4.3,8,2.5c3.4-3,7.2-1,10.4-2.7c0.8-0.4,1.2-1,1.1-1.9C398.8,264.7,396.5,262.7,398.1,256.8z"/>
	<path class="st0" d="M335.1,570.9c-2,0.4-3.1,3-2,4.8c0.8,1.4,2.8,1,4.3-0.3c1.1-1,2.7-2.8,4.1-1.7c4.3,3.3,7.2,1.2,10.3-1.9
		C346.1,566.3,340.5,569.7,335.1,570.9z"/>
	<path class="st0" d="M1188.6,562.6c0-1.4-0.9-1.4-1.9-1.6c-1.3-0.3-2,0.8-3.1,1.1c-0.1-2.3,1.7-3.6,3-5c-2,1.4-4.2-0.3-5.9-0.6
		c-2.5-0.5-3.9-1.4-7.1-0.6c-4.5,1-9.9,1.3-15.1,0.1c-10.9-2.4-22.1-0.4-33.1-0.8c-0.7,0-1.4,0.1-1.1,1.1c0.2,0.6,0.7,1.6,0.8,1.6
		c4-1.1,5.6,2.6,8.3,4.1c1.1,0.4,2.2,0.7,3.3,1.1c7.9,1.1,15.9,1.2,23.9,1c1.5,0,3.1,0,4.6,0c7.2,1.9,14.5,2.2,21.9,1.1
		C1189.1,564.8,1188.6,563.7,1188.6,562.6z"/>
	<path class="st0" d="M705.2,394.5c0,0-0.2,0.2-0.2,0.2l-0.3,0c-1.4-1.8-3.4-0.7-5.1-1c-2.5-0.5-4.7,1.4-4.6,2.7
		c0.2,2.1,2.2,3.8,5.1,3.2c3.5-0.7,7-1.8,10.5-1.7c3.9,0.1,4-1.3,2.7-4.3c-2.2,0.8-4.5,0.4-6.8,0.3
		C705.9,394.1,705.5,394.3,705.2,394.5z"/>
	<path class="st0" d="M1007.7,237.7c4.7-1.5,6.5-6.1,4.2-10.6c-0.1-1-0.1-2.3-1.3-2.3c-0.9,0-0.5,1.4-0.6,2.1
		c-1.8,2.4-4.9-1.8-6.6,1.3c-2.7-1.4-3.9,1-5.2,2.4c-1.5,1.6,1.3,2.1,1.3,4c0.8-1.7,0.5-3.6,2.6-3.6c0,0.6,0,1.3,0,1.9
		c-1.1,2.7,0.3,3.4,2.7,3.1C1004.9,238,1005.9,238.2,1007.7,237.7z"/>
	<path class="st0" d="M1021.3,162.4c1.1-1.2,0.2-1.7-0.1-2.5c-0.6-1.8-1.4-0.6-2.1,0c-0.7,0.6-1.3,1.3-2,2c-1-0.8,0.7-3-1.9-3
		c-0.5,3-1.4,5.7-5.6,4.3c-0.7-0.3-1.8,0.5-2.8,0.8c0,1.9,0,3.9,0,5.8C1012.7,169.3,1017.4,166.7,1021.3,162.4z"/>
	<path class="st0" d="M1085.2,203.9c-0.4,0.2-0.8,0.4-1.3,0.6c-1.6,0.1-2.6,0.9-3,2.5c-0.1,0.6-0.4,1.6-0.3,1.6
		c1.1,0.4,1.2-0.5,1.4-1.2c2.1,2.6,4.9,2,7.7,1.5c0.5,0,0.9,0.1,1.4,0.1c1.3-2.5,3.8-4.6,2.9-7.9c-3.1,0-6.2-0.6-9.1,1
		C1085,202.7,1085.1,203.3,1085.2,203.9L1085.2,203.9z"/>
	<path class="st0" d="M983.8,217c-0.8,0.6-2,2.3,0.5,2.7c0.5,0.1,1,0.2,1.5,0.3l0,0c1.3,0,2.6,0,3.9-0.1c0,0,0.4,0.1,0.4,0.1l0.5,0
		c-0.1,2.5,1.9,1.7,3.2,2c0.6,0,1-0.2,0.6-0.9c-0.8-1.2-1.7-2.4-1.2-4c0.3,0.1,0.7,0.1,0.9,0.3c1.5,1.7,3.2,1.2,4.6,0
		c0.6-0.5,1.5-1.6,0.8-2.5c-1.2-1.6-2.3,1.7-3.7,0.3c-0.3-0.2-0.8-0.2-1.2-0.2c-0.1-0.1-0.1-0.2-0.1-0.3c0.1-0.2,0.1-0.4,0-0.7
		c0-0.7-0.1-1.3-0.1-2c0,0,0,0,0,0c0.4-1.1,0.5-2.1-0.4-3c-3.9-3-6.5,1.1-10.4,1.6C986.1,212.9,986.8,214.9,983.8,217z M994.6,214.8
		C994.6,214.8,994.6,214.8,994.6,214.8C994.6,214.8,994.6,214.8,994.6,214.8L994.6,214.8z M991.4,213.9c0.5,0,0.9,0,1.4,0
		C992.4,213.9,991.9,213.9,991.4,213.9L991.4,213.9c-0.4-1.2-1-1.5-1.7-1.5C990.4,212.4,991.1,212.8,991.4,213.9z"/>
	<path class="st0" d="M106.3,144.5c0.2-0.8,0.7-3.5-1.4-3.6c-1.8-0.1-3.8,0.7-5.6,1.1c0.5,1.5-1.7,3.5,0.8,4.7
		c-0.2,0.2-0.2,0.4-0.1,0.6c-1.6,3.2-0.8,4.3,2.9,4.3C108.9,151.5,105.7,147,106.3,144.5z"/>
	<path class="st0" d="M243.9,391.9c-3.2,0.1-5.1,1.5-4.6,5c0.4,1.1,0.7,0.9,1,0c0.3,0,0.6,0,1,0c-0.1,0.9-0.2,1.7,1,1.9
		c2.6,0.1,4.8-0.9,7-2c0-1.7-0.1-3.3-0.1-5C247.4,391.9,245.6,391.8,243.9,391.9z"/>
	<path class="st0" d="M152.3,137.5c0.6-0.7,1.2-1.4,1.8-2c3.1-0.2,5.7-2.4,8.9-2.1c5.1,0.1,2.4-3.8,3.1-5.9c-2.3,1-4.6,1.7-7.3,1.6
		c-6.3-0.3-6.9,0.6-6.7,7C152.1,136.5,152.2,137,152.3,137.5z"/>
	<path class="st0" d="M1060.1,215.3c3.2-2.7,6.7,0.6,9.8-1c0,0-0.1,0.2-0.1,0.2c1.5,0.2,1.9-0.3,1.1-1.6c0-0.4,0.1-0.9,0.1-1.3
		c-0.1-0.9-0.1-1.7-0.2-2.6c-0.2-0.8-0.5-1-1.1-0.2c-0.1,0.4-0.2,0.8-0.3,1.2l0,0c-0.6,0-1.1,0.1-1.7,0.1v0
		c-2.8-0.5-5.4,0.3-7.8,1.7c-0.5,0.3-2.5-0.4-1.4,1.5C1059,214,1059.5,215.8,1060.1,215.3z"/>
	<path class="st0" d="M647.7,569c2.1,1.5,4,0.2,6,0c1.6-1.2,2.6-2.6,2.1-4.7c-2.7,0.3-5.5-1.3-8.2,0.3c-1.4,0.8-3.4,1.1-3.1,3.2
		C644.8,569.8,646.9,568.4,647.7,569z"/>
	<path class="st0" d="M780.2,397.8c0.3-0.2,0.7-0.4,1-0.6c0.7,0,1.3,0,2,0c0.3,0.7,0.7,0.6,1.1,0c0,0,0-0.4,0-0.4c1,0.2,2,0.3,3,0.5
		c0.3,0.1,0.6,0.1,0.9,0.2c1.7-0.7,3.4-1.4,2.1-3.7c-1.3-2.4-3-2.5-5-0.9c-3-2.1-6-0.1-9,0.1c-1.8,0.1-1.5,1.4-0.9,2.8
		C776.2,398.4,778.3,397.8,780.2,397.8z"/>
	<path class="st0" d="M174.1,166.4c-1-1-2-2.6-3.4-2.2c-3.2,0.8-2.1-1.9-2.8-3.1c-1.9-1.3-2.8,0.4-4,1.4c-0.3-0.8,0.2-2.8-1.7-1.3
		c-0.9,0.7-1.6,2.1-2.8,1.5c-3.6-1.7-6.4,0.3-9.3,1.8c-0.5-1.1-1-2.2-2.1-4.6c0,2.9,0,4.5,0,6.1c-0.7,0.5-1.4,0.9-2.1,1.4
		c-0.5,0.1-0.8,0.4-0.5,1c0,1,0,2.1,0,3.1c-0.3,0.1-0.4,0.3-0.4,0.6c-0.7,0.4-0.9-0.1-1-0.6c-0.2-2.4,1.2-5.4-2.7-6.1
		c-0.1-1.3-0.6-2.2-2.1-1.9c-1.2,0.2-1,1.1-1.1,1.8c-0.1,2.1,0.6,4.4-2.9,5c-0.9,0.1-1.7,2.6-2.1,4.1c-0.1,0.5,1.2,2,1.8,2
		c2.4,0,5.2,0.3,6.3-2.9c0.6,0.3,1.1,0.6,1.7,1c0.5,0.5,0.2,1.7,1.2,1.7c1.1,0,0.9-1.1,1.2-1.7c0.9,0,1.7,0,2.6,0
		c2.7,2.9,2.7,2.9,6.3,0.7c0.9-0.6,1.2-2.1,2.7-1.7c0.3-0.2,0.7-0.4,1-0.7c2.1-0.1,4.3-0.3,6.4-0.2c2.9,0.1,3.9-1.1,3.1-3.9
		C170.3,169.4,172.1,167.7,174.1,166.4z"/>
	<path class="st0" d="M1013.9,207c-1.2,0.2-3-0.3-2.8,1.6c0.2,2,1.5,0.9,2.4,0.5c1.9,1.5,4,0.6,6,0.7c1.9,0.1,2.8-0.2,2.4-2.3
		c-0.3-1.4,0.5-3.2-2.3-3.3C1017,204.1,1015.4,205.2,1013.9,207z"/>
	<path class="st0" d="M371.3,390.4c5.8-0.5,11.4-1.3,16.9-3.4c-5-0.1-10.1-1.2-15,0.8C375.3,390.6,371.2,389,371.3,390.4z"/>
	<path class="st0" d="M372.6,564.7c-1.7,3.1-5.5,0.9-7.9,3.4c2.5,1.9,5.3,1.3,7.7,1.7c2,0.3,4.2-1.9,4.2-3.8
		C376.6,564.2,373.8,565.8,372.6,564.7z"/>
	<path class="st0" d="M1014.6,376.8c0.7-0.7,1.4-1.9,2-1.9c2.8,0,4.1-1.8,4.2-4c0.3-3.9-2.2-0.3-3.1-0.9c-0.3-0.2-0.3-0.9-0.5-1.3
		c-1.2-3.3-2-0.2-3,0.1C1014.9,371.4,1013.4,374.2,1014.6,376.8z"/>
	<path class="st0" d="M413.8,560.6c-2.4-1-4.5,0.5-6.7,0.8c-1.8,0.3-1.4,1.6-1.3,2.6c0.1,1.5,1.1,1.3,2.1,1.1c2.1-0.3,4.2-0.3,6-1.6
		c3.6-1.2,7.9,0.3,10.8-3.2C421.1,558.5,417.5,560.5,413.8,560.6z"/>
	<path class="st0" d="M424.8,560.3C424.8,560.3,424.8,560.4,424.8,560.3c0,0.1,0,0.1,0.1,0.1C424.9,560.4,424.9,560.4,424.8,560.3
		C424.8,560.4,424.8,560.4,424.8,560.3C424.8,560.3,424.8,560.3,424.8,560.3z"/>
	<path class="st0" d="M1088,212c-0.5,0.4-1.5,1.1-1.5,1.1c-2.9-3.5-2.4-0.5-3.2,1.3c-0.7,1.5,1.2,3.7-1.3,4.5
		c1.2,1.5,3.3,1.6,4.1,0.5C1087.7,217.4,1089.4,215,1088,212z"/>
	<path class="st0" d="M767.9,392.8c-2.2,0.5-5.1,0.7-5.4,3.3c-0.2,2.1,2.3,1.6,4.3,1.8c1.6,0,3.5,0,3.5-3
		C770.3,393,769.5,392.4,767.9,392.8z"/>
	<path class="st0" d="M445,186.8c0.3,1.6-0.3,2.8-1.5,3.8c-0.6,0.5-1.7,0.7-0.7,1.7c0.6,0.6,1.4,2.1,2.2,1.3c2.4-2.2,5-4.3,5.7-7.7
		C448.8,186.2,446.9,186.5,445,186.8z"/>
	<path class="st0" d="M353.5,193.2c1.4,0.4,1.6,1.3,1.3,2.5c0.7,0,1.4,0.1,2.1,0.1c2.4-2.2,2.2-5.1,2.1-8c-2.5-0.2-3.4,2.7-5.7,3
		C351.8,191.8,351.5,192.6,353.5,193.2z"/>
	<path class="st0" d="M1076,210.4c0.3-0.1,0.7-0.3,1-0.4c4-2,0-4.8,0.7-7.1c-4.8,1.4-5.5,3.5-2.5,7.9
		C1075.4,210.7,1075.7,210.5,1076,210.4z"/>
	<path class="st0" d="M197.8,119.6c1.9,1.1-0.4,3.2,1.5,4.6c1-1.8,5,0.3,4.6-3.8C202.2,118.3,200.4,115.9,197.8,119.6z"/>
	<path class="st0" d="M839.1,562.8c0.4,0.8,0.7,2.1,2,1.8c1.3-0.3,1.6-1.5,1.6-2.8c0-1,0-2,0-3c-2.5-2.2-4.9-1-7.3,0.1
		C837.2,559.6,838.2,561.1,839.1,562.8z"/>
	<path class="st0" d="M121.1,99.7c-1.8,1.5-3.3-1.8-5.1-0.3c-0.2,2.2-1.7,4.3-0.4,6.9C118.1,104.6,122.4,104.6,121.1,99.7z"/>
	<path class="st0" d="M486.6,549.5c3,0.2,0.1,1.2,0.2,1.8c3.7,0.5,7.4-0.2,11-0.9c0-0.6,0-1.3,0-1.9c-4.6,0.1-9.3,0.2-13.9,0.3
		C484.6,549.6,485.6,549.4,486.6,549.5z"/>
	<path class="st0" d="M266,153.2c0,1,1,2.9,1.6,1.6c0.9-1.8,4.3,1.7,3.2-1.9c-0.4-1.3,1-1.5,1.1-2.5c-2.6,0-5.5-2.6-7.9,0.6
		C265.6,151,266,151.8,266,153.2z"/>
	<path class="st0" d="M1027.2,372c0-1.4-0.5-3.2-1.9-2.8c-1.7,0.5-3.1,2.4-3.4,4.2c-0.3,1.3,0.8,2.4,2.5,2.3
		C1026.8,375.7,1027.2,374,1027.2,372z"/>
	<path class="st0" d="M890.8,557.2c-2.2-0.3-4.4-2.5-5.6,1.4c-0.4,1.1-1.6,0.8-2.6,0.5c-1.3-1.2-3-2.7-4.4-2
		c-1.6,0.7-0.3,2.5,0.4,3.7c1.9,2.7,2.8,0.2,4-0.8c1.7,1.9,3.1,4.6,6.1,1.9c-1-0.5-1.9-0.9-2.9-1.4
		C887,558.7,889.9,559.8,890.8,557.2z"/>
	<path class="st0" d="M781.7,181.7c0.7-0.2,1.4-0.7,2.1-1.1c0.1,1.3,0.6,2.2,2.1,2.4c2.4,4.1,2.9,0.1,4.1-0.9
		c-1.5-2.2-1.1-4.7-1.1-7.2c-2,0.1-3,1.1-3,3.1c-0.4,0-0.7,0.1-1.1,0.1c-1.3,0-2.7,0.1-4-0.1c-1.8-0.3-3.1,0.7-4.5,1.4
		c0.3,0.6,0.5,1.2,1,1.7C778.5,182.4,780.1,182.2,781.7,181.7z"/>
	<path class="st0" d="M140.3,141.5c2,0,2.5-2.1,3.8-3c-0.3-1.6,0.5-3.7-1.8-4.6c-0.1,2.2-3.5,3-2.3,5.7
		C140.1,140.2,140.2,140.9,140.3,141.5z"/>
	<path class="st0" d="M823.6,579.2c-1,1.9-1.4,2.8-1.9,3.8c-4.7,0-9.3-0.1-14-0.1c-0.5-0.3-0.9-0.6-1.4-1c-1.1-1.9-2.3-3.8-4.9-1.9
		c-0.3-0.1-0.5,0-0.8,0.1c-4.2,1.1-8.3,0.2-12.5,4.2c-3.2,3.1-10.5,2.3-15.9,2.9c-4.8,0.5-9.3,2.2-13.9,3.2c-3,0.7-5.5,1.7-8.5,0.4
		c-3.4-1.5-5.6,3-5.4,3.3c2.1,3.8-2.3,1.4-2.5,2.8c-1.9-0.8-5-1.6-5.8-1.2c-5.3,2.8-10.7,2.2-16.1,1.4c-4.3-0.6-8.5-3.2-12.6,0.2
		c-3,2.4-5.8-0.1-8.7-0.2c-11.7-0.7-23.1,2.4-34.6,3.5c-2.8,0.3-5.5-1-8-0.2c-6,1.9-12.2,2.1-18.3,2.8c-3.6,0.4-7.2,0.6-10.7,1.1
		c-2.5,0.4-6.8,0.3-5.4,5.3c0.2,0.6-0.1,1.7-0.8,1.5c-4-1.4-7.3,3.5-11.5,1.2c-1.1-0.6-3.3-0.5-4.3,0.2c-3,2.4-2.4-1.2-3.6-1.9
		c-0.6-0.6-0.9-0.3-1,0.4c-1.4,3.8-4.1,3.3-7,2.1c-0.3,0.6,0.7,2-1,1.8c-4.1,1.8-8.8,0.9-12.8,2.6c-3.4,1.5-6.7,2.2-10.2,2.5
		c-2.3,0.2-5.9,0.4-6.2,1.7c-1,4.4-3.8,2-5.9,2.4c-0.6,0.9-1.2,1-1.9,0.1c-1.6,1.2-2.5-2.6-3.9-0.6c-2,2.8-5.1,2.9-7.9,3.7
		c-0.5,0.1-1.8-0.8-1.5,0.8c0.2,0.9,0.6,1.8,0.9,2.7c4.7-1.7,5.8,2.9,8.4,4.8c0.3,0,0.7,0,1,0c3-0.5,6-0.9,9-1.4
		c0-1.1,0.1-2.3,0.1-3.4c0-0.8,0.4-1.5,1.1-1.9c0.3,0.7,0.6,1.5,0.9,2.2c2.1,0.6,3.6-1.7,5.7-1c1.1-1.2,2.1-1.3,3.1,0.1
		c0.6-0.4,1.2-0.7,1.9-1.1c0.5-1,1.4-0.7,2.2-0.6c4.9-1.4,9.9,1,14.8-0.2c4.7-1.1,11-0.4,13.8-3.2c4.1-4,8.7-3.5,13.1-4.8
		c1.5-0.4,2.7-0.7,3.3-2.4c1.6-4.6,4.8-3,7.4-1.4c1,0.6,1.6,1.9,3.1,1.8c2.7-0.2,5.6,2.3,8.2-1.6c1.3-1.9,4.4,1.1,6.7,1.4
		c7.9,1.1,16-0.7,23.8-1.5c8.5-0.9,16.9-3,25.6-3.3c0.9,0.3,1.7,0.3,2.2-0.5c1.3-0.8,3,0,4.1-1.3c0.6,0,1.1,0,1.7,0
		c1.9-1.4,3.2-3.5,6.3-3.3c6.5,0.4,12-1.7,17.5-5.6c0.6-0.4,1.6-0.2,2.4-0.2c1.4,0.1,2.6-0.2,3.7-1.1c1.8,0,3.5,0.8,5.2-0.3
		c3.6-2.3,5.6,0.9,8,2.4c2-0.8,5.1,1.8,6.1-2c3-0.2,5.9-4.9,8.9,0c0.1,0.2,1.6-0.2,1.7-0.4c0.7-2.9,2.9-1.2,4.4-1.5
		c6.6-1.3,13.1-3.4,19.9-1.6c0.2,0.1,0.5-0.3,0.8-0.5c1.2,0.3,2.3,0.5,3.2-0.6c0.7,0,1.3,0,2-0.1l0,0c0.3,1.2-0.6,3,1.2,3.4
		c1.4,0.3,1.6-1.1,1.7-2.3c0.2-2,2.1-0.6,3.1-1.2c3.5,1.1,6.6-1.7,10-1c2.7,0.5,4.5-0.8,5.2-3.3c0.4-1.5,1.4-2.5,2.3-3.6
		c0.4,0.5,0.8,0.9,1.3,1.4c0.1-0.1,0.1-0.2,0.2-0.3c0.1-0.2,0.2-0.4,0.2-0.5c0,0.2-0.1,0.3-0.2,0.5c-0.1,0.1-0.1,0.2-0.2,0.3
		c0.1,1.4,0.9,1.8,2.2,1.6c1.5,0.1,4.3,0.8,3.3-1.6C823.7,586.3,824.4,583.2,823.6,579.2z M573.8,623.3c2.3,0,4.5,0,6.6,0
		c0,0.4,0,0.9,0,1.3C578.3,624.5,575.7,627.7,573.8,623.3z"/>
	<path class="st0" d="M92.9,148.1c0.7,0.9,2.7,2,2.9,1.9c1.9-2,1.1-4.1-0.6-6.3C95.4,145.7,90.8,145.2,92.9,148.1z"/>
	<path class="st0" d="M847.3,326.5c-8.1-1.4-16.1-0.9-24.2-0.5C831.1,326.9,839.2,326.9,847.3,326.5z"/>
	<path class="st0" d="M542.4,385.9c0.6,0,1.2,0,1.8-0.1c-0.6-0.5-1.3-1.1-0.3-1.8c1.2-0.8,4-0.2,3.1-2.6c-1.2-3.1-2.4,1-4.1,0.5
		c-0.9-0.3-3-1.2-3.4,0.3C538.9,384.3,541.4,384.6,542.4,385.9z"/>
	<path class="st0" d="M584,327.2c1.7,0,3.2-0.6,3.4-2.7c0.2-1.7-0.7-2.4-2.3-2.4c-2.1,0-2.5,1.4-2.9,3.2
		C581.6,327.4,583,326.9,584,327.2z"/>
	<path class="st0" d="M265.7,567.7c0,1.9,0.1,1.9,4.2,2.6c2.4,0.4,1.6-1.5,1.9-2.6C269.8,567.1,267.8,567.2,265.7,567.7z"/>
	<path class="st0" d="M785.2,326.5c7.4,0.5,14.8,0,22.2-0.6C800,325.5,792.5,325.1,785.2,326.5z"/>
	<path class="st0" d="M685.7,399.4c3-0.5,3-2.4,2.3-5c-1.7-0.1-2,1.9-3.6,1.7c-1.5-0.2-1.8,1.7-1.6,2.4
		C683.1,399.8,684.6,399.6,685.7,399.4z"/>
	<path class="st0" d="M543.7,331.3c-0.9-0.6-1.5-1.5-2.5-0.5c-0.4,0.4-0.8,1.1-0.8,1.7c0,1.4,1.1,1.6,2.1,1.5
		c1.9-0.3,3.5,0.7,6.2,1.8C547.5,332.7,545.3,332.4,543.7,331.3z"/>
	<path class="st0" d="M259.5,565.4c-2.1-0.1-3.8,0.6-4.8,2.5c-0.4,0.7-0.8,2.5,0.4,1.9c2.1-1.1,3.1,1.5,4.7,0.7
		c2,0.2,3.4-0.7,4.2-2.5c-1.4-0.1-2.8-0.2-4.1-0.3C258.2,567.1,260,566,259.5,565.4z"/>
	<path class="st0" d="M208.4,490.5C208.4,490.5,208.4,490.5,208.4,490.5c-1.3,0.9-0.1,2.2-0.5,3.2c4.4,1,5.1-1.4,4.7-5
		C210.9,488.7,209.1,488.3,208.4,490.5z"/>
	<path class="st0" d="M416.9,270.8c-2.3-1.1-4.6-2.5-7.2-0.6C412,272.4,414.3,274.4,416.9,270.8z"/>
	<path class="st0" d="M99.1,109.3c0.8-1.6,1.2-3.8,3.9-2.8c-0.1,0.9-0.2,1.9-0.3,3c2.6-1.9,4-4,3.3-7c-1.2,0.2-2.4,0.3-3.6,0.5
		c-2.4-3.6-4.3,0.4-6.4,0.4c-0.5,0.3-0.9,0.6-0.6,1.2c-0.4,0.6-0.9,1.3-1.3,1.9l0,0c-0.8,0-1.2,0.2-0.8,1.1c0.1,0.3,0.3,0.6,0.4,0.9
		c-0.5,2.3-0.1,4.2,2.4,5c0.1-0.7-0.2-2,1.1-1.6C99.9,112.6,99.3,110.9,99.1,109.3z"/>
	<path class="st0" d="M1012.4,370c1.7,0.2,0.1-1.6,0.6-2.3c-2.4,0.4-4.2-2.8-6.8-1c0.4,1.2,2.3,0.6,2.4,2.7
		C1008.7,371.8,1011.1,369.9,1012.4,370z"/>
	<path class="st0" d="M550.9,179.8c-2.8-1.4-5.1-0.5-7,1.7C546.8,183.3,549.2,183.2,550.9,179.8z"/>
	<path class="st0" d="M998.2,209.4c-0.3,0.5-0.4,1.6-0.1,1.8c1.7,1.6,3-1.1,4.6-0.7c0.2,0.7,0.2,2.1,1.1,1.8
		c1.9-0.6,0.9-2.3,0.9-3.7c-0.5-0.1-0.9-0.2-1.4-0.3C1001.5,208.1,999.5,207.2,998.2,209.4z"/>
	<path class="st0" d="M353.5,564c6,1.3,12.1,1.4,18.1-0.1C365.5,564,359.5,564,353.5,564z"/>
	<path class="st0" d="M330,196.8c2.7,1.1,3.5,0.3,3.8-4c-0.8-0.4-0.9-2-2.1-1.6c-1.3,0.4-0.7,1.5-0.8,2.4
		C330.9,194.8,332.9,196.5,330,196.8z"/>
	<path class="st0" d="M287.7,193c0.9,2.3,3.9,1.8,4.9,3.8c1.4-1.5,1.5-3.1,1-5C291.9,193.4,289.7,192.7,287.7,193z"/>
	<path class="st0" d="M419.8,261.8c1.9,0.2,3.9,0.1,5,2.2c0.5,1,0.6,2.5,2.2,1C424.7,259.7,423.3,259.1,419.8,261.8z"/>
	<path class="st0" d="M316.8,401.6c2.6,0.2,1.7-1.5,0.7-2.8c-1.1,0-2.3-0.4-3.2,0.6c-1,0.9-3.8,0.7-2.8,2.5
		C312.8,404.3,314.8,401.5,316.8,401.6z"/>
	<path class="st0" d="M970.3,234.7c2,0.2,1.6-1.7,1.6-2.9c0-1.1,0.4-2.6-1.3-2.7c-1.7-0.1-1.7,1.1-1.4,2.4
		C970.1,232.5,968.1,234.5,970.3,234.7z"/>
	<path class="st0" d="M700.3,388.1c2.3,0.3,4.7,3,6.9-0.3C705,388.6,702.5,384.4,700.3,388.1z"/>
	<path class="st0" d="M387.1,464.4c-2.4,2-5.2,0.4-7.6,1.2c3.3,0.8,6.6,1.3,10,0.6C388.8,465.5,388.2,463.5,387.1,464.4z"/>
	<path class="st0" d="M788.9,239.9c-1.5-0.1-0.5-2.8-2.4-2.4c-0.9,1-0.6,2.2-0.6,3.3c0,1-0.1,2,0.1,3c0.1,0.5-0.3,1.5,0.6,1.5
		c0.7,0,1.9-0.4,2.1-0.9c0.4-1,0.4-2.2,0.5-3.4c0.6,0.1,1.3,0.1,1.9,0.2c0.8,0.2,1.2,1.8,2.4,0.9c0.4-0.3,0.4-1.2,0.3-1.8
		c-0.2-1.2-1.3-1.3-2.3-1.3C790.5,238.9,789.6,239,788.9,239.9z"/>
	<path class="st0" d="M799.4,240.5c-1.2,2.8,0.9,4.2,2.8,4.7c1.1,0.3,1.5-1.6,1.1-3c-0.3-0.9-1.9-1.7-0.1-2.7c2.6-1.5,0.7,2.6,2.6,2
		c0.6-5.8-0.1-6.2-6.8-4.5c-1.6-0.1-3.1,0-3,2.1C796,242.2,798.9,238.5,799.4,240.5z"/>
	<path class="st0" d="M438.5,469.7C438.5,469.7,438.5,469.7,438.5,469.7C438.4,469.7,438.4,469.7,438.5,469.7L438.5,469.7z"/>
	<path class="st0" d="M438.4,469.7c0-0.4-0.1-0.7-0.1-1.1c-1.6,0.9-3-2-4.7-0.4C433.9,473.4,436.8,469.2,438.4,469.7z"/>
	<path class="st0" d="M180.5,571.3c1.9-0.9,0.9-3.2,2.1-4.5C178.1,566.5,179.8,569.1,180.5,571.3z"/>
	<path class="st0" d="M1003.2,160.1c-1.8-0.2-4-2.8-5.1,0.9C999.5,159,1002.1,163.9,1003.2,160.1z"/>
	<path class="st0" d="M216.3,494.3c3.5,0.3,1.8-4,4.2-4.8c-0.2-0.9-0.6-1.5-1.5-1.5C218,490.1,216.6,491.9,216.3,494.3z"/>
	<path class="st0" d="M988,161.4c0.3,0,0.6-0.1,0.9-0.3C988.6,161.2,988.3,161.3,988,161.4z"/>
	<path class="st0" d="M988,161.4c-2,0.2-4.4-2-6.1,0.7C984.2,163.8,986.1,162.2,988,161.4z"/>
	<path class="st0" d="M959.5,382.7c-0.6-1.2,0.4-2.9-1-3.9c-2.1,0.1-1.3,4.1-4.2,3C955.7,383.7,957.7,382.5,959.5,382.7z"/>
	<path class="st0" d="M327.5,502.4c4,0,8.1,0,12.1,0C335.5,501.1,331.5,501.1,327.5,502.4z"/>
	<path class="st0" d="M870.7,558.3c1.9,1.2,3.4,3.3,6.1,2.7C876.3,556.5,872.8,559.1,870.7,558.3z"/>
	<path class="st0" d="M974.8,234.2c6-0.2,3.6-4.9,4.4-8c-0.2-0.2-0.5-0.5-0.7-0.7c-2.1,0.2-4.1,0.5-3.9,3.4
		C972,231.5,972.1,233.4,974.8,234.2z"/>
	<path class="st0" d="M173.5,499.9c1.8,0.2,2.2,4.3,5,1.7C177.8,498.3,176.1,497.7,173.5,499.9z"/>
	<path class="st0" d="M767,386.9c-1.9-0.7-3.9-1.5-5.8-2.2C761.8,389,764.6,387.4,767,386.9z"/>
	<path class="st0" d="M270.3,400.7c0.5-0.9,2.9-1.2,0.9-2.9c-0.6-0.3-1.3-0.6-1.9-0.9c-0.5,1.2-1.5,2.3-0.6,3.7
		C269.1,401.1,269.8,401.4,270.3,400.7z"/>
	<path class="st0" d="M421.8,185.3c1.2,1.3,1-0.7,1.2-1.4c-2.1-3.1-3.6-0.9-5.1,0.6C419.2,184.8,420.4,183.8,421.8,185.3z"/>
	<path class="st0" d="M251.3,391.8c-0.7,0-1.4,0-2.2,0c0,1.7,0.1,3.3,0.1,5c0.8,0,1.6,0,2.4,0.1C251,395.2,251,393.5,251.3,391.8z"
		/>
	<path class="st0" d="M136.5,102.6c3.3-0.3-0.2-2.3,0.8-3.3c-0.8,0-1.5,0-2.3,0.1C135.8,100.4,133.3,102.9,136.5,102.6z"/>
	<path class="st0" d="M835.6,185.8c0.2,0,0.6-0.6,0.8-0.9c-0.5-0.3-1-0.6-1.5-0.9c-1.7,0.5-0.4-2.4-2.1-1.9
		C831.1,185.3,833.6,185.4,835.6,185.8z"/>
	<path class="st0" d="M997.9,183c-2.4,1-3.7,2.6-2.8,5.3C997.3,187.2,997.3,184.9,997.9,183z"/>
	<path class="st0" d="M304.4,501.7c3.7,0.6,7.4,1,11.2,0.6C311.9,500.9,308.2,501.4,304.4,501.7z"/>
	<path class="st0" d="M750.9,189c1.2,1.7,2.6,2.9,4.9,2c0.9-0.4,1.6-0.8,2-1.8c0.4-1.1-2.9-0.8-0.7-2.1c0.9-0.5,2.1-0.2,3.2,0.6
		c3.6,2.6,5,2,6.7-2.7c0-0.4,0-0.7-0.1-1.1c0.5-1.1,2.6-1.5,1.8-3.1c-0.7-1.4-2-0.4-3.1-0.4c-5.5-0.1-9.6,2.9-13.7,5.9
		c-1.2-0.5-2.3-0.4-3.2,0.7c-0.8-0.1-1.7-0.1-1.8,1C747.8,190,749.6,188.6,750.9,189z"/>
	<path class="st0" d="M750.4,326.9c-3.4-0.3-6.9-0.8-10.2,0.6C743.6,327.9,747,327.8,750.4,326.9z"/>
	<path class="st0" d="M1118.3,220.3c1.7,0.2,2.9,0,2.8-2.1c-0.1-0.1-0.2-0.3-0.4-0.4c-1.2,0.5-3.2-0.7-3.7,1.5
		C1116.9,220.2,1117.5,220.2,1118.3,220.3z"/>
	<path class="st0" d="M1076.9,215.9c-0.5-2.5-1.9-2.4-3.5-1.1C1074.5,215.3,1074.9,218.4,1076.9,215.9z"/>
	<path class="st0" d="M1022.8,556.9c-3.3-1.3-6.8-0.6-10.1-0.8C1015.9,558,1019.4,557,1022.8,556.9z"/>
	<path class="st0" d="M369.5,503.3c-3.3-1.4-6.7-0.8-10.1-0.6C362.8,503.3,366.1,503.6,369.5,503.3z"/>
	<path class="st0" d="M1019.2,362.1c2.6,0.9,5.3,1.5,8,0.6C1024.6,361.9,1021.9,361.9,1019.2,362.1z"/>
	<path class="st0" d="M674.3,390.2c1.1,0.1,1.6-1.4,2-2.4c-1.7,1.3-2.4-1.7-4-0.9C672.6,388.2,672.5,390.1,674.3,390.2z"/>
	<path class="st0" d="M187.5,504.3c3.4,0.4,6.7,0.2,10-0.7C194.2,503.6,190.8,502.9,187.5,504.3z"/>
	<path class="st0" d="M339.6,563.9c-3,0-6.1,0-9.1,0.1C333.5,565.2,336.5,565.3,339.6,563.9z"/>
	<path class="st0" d="M519.3,384.8c1.3,0.5,3-0.3,4,1.1c0.9-0.6,2-1.1,1.7-2.7C523.1,383.8,521.2,384.3,519.3,384.8z"/>
	<path class="st0" d="M456.8,188.6c1.6-0.3-0.6-1.8,0.4-2.6c0.4-0.3,0.6-0.8,0.8-1.1c-1.1,0-2.3,0.1-3.4,0.1c0.1,0.5,0.1,1,0.2,1.4
		C454.9,187.7,455.7,188.8,456.8,188.6z"/>
	<path class="st0" d="M965.9,167.9c-1.7,0.9-5.8-1.8-4.8,3.2C963,170.5,964.4,169.1,965.9,167.9z"/>
	<path class="st0" d="M1047.8,557.9c-3-0.9-6.1-1-9.2-0.7C1041.6,558.7,1044.7,558.2,1047.8,557.9z"/>
	<path class="st0" d="M1148,585.2c-0.8,0.1-1.1,0.6-1.1,1.3c0,0.9,0.6,1.4,1.6,1.3c0.8-0.1,1.1-0.7,1.1-1.3
		C1149.5,585.6,1149,585.1,1148,585.2z"/>
	<path class="st0" d="M148.1,137.7c-1.6-0.8-2.1,0.8-3.1,1.5c0.1,0.6,0.2,1.2,0.3,1.8C147,140.5,147.6,139.2,148.1,137.7z"/>
	<path class="st0" d="M251.5,502.2c3.1,0.4,6.1,0,9.1-0.5C257.6,501.4,254.5,500.9,251.5,502.2z"/>
	<path class="st0" d="M310.9,485c-1.1,1.5-1.8,2.6-2.5,3.6c1.1,0,2.1,0.1,3.2,0.1C311.3,487.6,311.1,486.5,310.9,485z"/>
	<path class="st0" d="M275.1,149.5c-1.1,0.1-2.4-0.4-3.1,1c1.7,0,0.3,2.8,2,2.4C275.6,152.4,275,150.7,275.1,149.5z"/>
	<path class="st0" d="M830,182.2c-1.3,0.3-2.3,0.8-3,2C829.2,185.4,830.8,185.6,830,182.2z"/>
	<path class="st0" d="M428.7,564c1.4,0.2,1.4-1.5,2.1-2.4c-1-0.1-2-0.1-3-0.2C428,562.3,427.5,563.8,428.7,564z"/>
	<path class="st0" d="M369.5,558.5c-1.3-1.9-2.5-0.2-3.8,0.1C367.1,560.4,368.3,558.8,369.5,558.5z"/>
	<path class="st0" d="M215.5,503.3c2.8,0.5,5.5,0.2,8.2-0.6C220.9,502.5,218.1,502,215.5,503.3z"/>
	<path class="st0" d="M450.9,549.4c2.6-0.2,5.3,0.8,7.8-0.6C456.2,549.5,453.4,547.7,450.9,549.4z"/>
	<path class="st0" d="M549.4,389.3c0.9-0.2,0.9-1.1,1-1.8c-0.2-0.4-0.3-1.1-0.5-1.1c-1.3-0.1-1.2,1.1-1.6,1.9
		C548.3,389,548.7,389.4,549.4,389.3z"/>
	<path class="st0" d="M570.4,358c-0.3-0.7-0.6-1.5-0.9-2.2c-0.8,0.4-1.1,1.1-1.1,1.9c0,1.1-0.1,2.3-0.1,3.4
		C569.8,360.6,569,358.5,570.4,358z"/>
	<path class="st0" d="M402.7,268.9c0.7,0.6,0.9,1.9,2.2,1.5c1.2-0.4,1.1-1.5,1.2-2.5C405,268.3,403.9,268.6,402.7,268.9z"/>
	<path class="st0" d="M924.7,385.2c1.2,0,1.4-1.2,1.5-2.2c-1-0.5-2-0.5-3-0.1C923.3,384,923.5,385.2,924.7,385.2z"/>
	<path class="st0" d="M1048.8,509.9c-2.3-1.3-4.7-0.8-7.1-0.6C1044,510,1046.4,510.3,1048.8,509.9z"/>
	<path class="st0" d="M226.5,490.6c-1.7,0.7,0,2.2-0.8,3.1C227.1,493,226.5,491.7,226.5,490.6c3.7,2.2,3.1-0.5,3.1-2.7
		C228.6,488.8,227.5,489.7,226.5,490.6z"/>
	<path class="st0" d="M580.3,263.1c-1.3,0.5-3.3-2.5-4.1,0.8C577.6,263.6,579.4,265.5,580.3,263.1z"/>
	<path class="st0" d="M845.6,558.9c1.4,1.6,2.4,1.4,3.1-0.7C847.7,558.7,846,555.8,845.6,558.9z"/>
	<path class="st0" d="M468.6,548.3c2.4,0.1,4.8,0.7,7.1-0.6C473.3,547.3,471,547.8,468.6,548.3z"/>
	<path class="st0" d="M410.6,550.3c1.1,0.2,1.2,2.3,2.6,1.5c0.5-0.3,0.4-1.4,0.6-2.2C412.7,549.7,411.5,549,410.6,550.3z"/>
	<path class="st0" d="M303.3,398.1c-1.4-0.2-2.9-1-4,0.6C300.9,400.6,302.1,399.6,303.3,398.1z"/>
	<path class="st0" d="M696.3,387c-1.1,0.9-2.9-0.1-3.9,1.4C694.3,389.6,695.4,388.6,696.3,387z"/>
	<path class="st0" d="M1081.2,215.5c-1-0.5-1.1,0.7-1.2,1.4c0.7,0.6,1.4,1.3,2.1,1.9C1081.8,217.7,1082.5,216.2,1081.2,215.5z"/>
	<path class="st0" d="M131.5,478.4c1.4-0.2,2.8-0.5,4.1-0.7C134,476.2,132.5,476.1,131.5,478.4z"/>
	<path class="st0" d="M641.2,551c-0.1,0.4,0.7,1,1.2,1.3c1.1,0.5,1.3-0.4,1.3-1.2c-0.1-0.3-0.1-0.7-0.2-1
		C642.6,550.1,641.4,549.6,641.2,551z"/>
	<path class="st0" d="M127.5,507.3c2.4,0.1,4.9,0.6,7.2-0.6C132.3,506.6,129.8,505.9,127.5,507.3z"/>
	<path class="st0" d="M701.4,328.9c-2.1-0.3-4.2-0.8-6.1,0.5C697.3,329.8,699.4,329.6,701.4,328.9z"/>
	<path class="st0" d="M256.3,390.8c-1.4-0.1-2.9-0.3-4,0.9C254,393.2,255.1,391.6,256.3,390.8z"/>
	<path class="st0" d="M180.7,495.3c-1.2,0-0.3,1.8-1.1,2.4c0.7,0,1.4,0,2.1,0C181.7,496.7,182,495.3,180.7,495.3z"/>
	<path class="st0" d="M1130.6,562.4c-2-0.4-4,0.1-5.9,0.7C1126.7,563.1,1128.8,563.7,1130.6,562.4z"/>
	<path class="st0" d="M793.6,563.2c0,1.3-0.1,2.6,1.6,2.9C794.7,565.1,797,562.5,793.6,563.2z"/>
	<path class="st0" d="M910.1,149.1c-1.2-0.4-2.7-2-3.2,0.8C908,149.7,909.5,151.1,910.1,149.1z"/>
	<path class="st0" d="M993.2,361.3c2,1.4,4.1,0.7,6.2,0.5C997.4,360.9,995.3,361.4,993.2,361.3z"/>
	<path class="st0" d="M1055.8,361.4c-0.1,0-0.2,0-0.2,0.1c0.1,0,0.1,0,0.2,0C1055.7,361.5,1055.8,361.4,1055.8,361.4z"/>
	<path class="st0" d="M1055.6,361.4c-0.6-0.1-1.2-0.4-1.7-0.3c-0.4,0.2-0.5,1.1-0.7,1.6c0.6,0,1.3,0,1.9,0
		C1055.3,362.4,1054.9,361.7,1055.6,361.4z"/>
	<path class="st0" d="M127.1,98.9c1.3,0.5,2.7,1,4,1.5C130.6,97.6,128.8,98.3,127.1,98.9z"/>
	<path class="st0" d="M986.8,233.6c0.1-0.5,0-1-1-0.9c-0.3,0.3-0.9,0.8-1.1,1.3c-0.3,0.7,0.3,0.8,0.8,0.8
		C986.2,234.8,986.7,234.4,986.8,233.6z"/>
	<path class="st0" d="M429.6,184.5c0.7-3.7-1.9-2.7-3.8-2.6C427.2,182.6,428.8,182.9,429.6,184.5z"/>
	<path class="st0" d="M450.8,554.1c2-0.2,4-0.5,6-0.7C454.8,553.4,452.7,552.7,450.8,554.1z"/>
	<path class="st0" d="M670.3,387.6c-1,0.6-2.1-1.6-3.1,0C668.2,389.1,669.3,389.6,670.3,387.6z"/>
	<path class="st0" d="M451.3,388.8c-0.9-1.3-1.9-1.6-3.1-0.2C449.1,390.1,450.1,390.1,451.3,388.8z"/>
	<path class="st0" d="M288.3,398.9c-1.3,0-2.7,0-4,0.1C285.6,399.8,287,402.2,288.3,398.9z"/>
	<path class="st0" d="M414.8,549.4c1.9,0,3.9,0,5.8,0C418.7,548,416.7,548.3,414.8,549.4z"/>
	<path class="st0" d="M435,185.9c-1.8,0-3.6-0.1-5.4-0.1C431.4,187.7,433.2,186.5,435,185.9z"/>
	<path class="st0" d="M349.3,395.8c1.1,0.8,2.4,0.8,3.7,1c5.6,0.9,10.2-2.4,15.3-3.4c-0.1-0.6-0.1-1.3-0.2-1.9
		c-4.2,0.4-8.5,0.9-12.7,1.3c-0.4,0.2-0.8,0.4-1.2,0.5c-1.7,0.4-3.6,0-5,1.5c-0.6-0.9-1.3-1.3-2.3-0.6c-0.2,0.1-0.3,0.6-0.2,0.8
		C347.4,396,348.4,395.7,349.3,395.8z"/>
	<path class="st0" d="M274.2,143.8c-1.5,0-1,1.7-1,2.7c0.6,0,1.3,0,1.9-0.1C274.9,145.5,275.8,143.8,274.2,143.8z"/>
	<path class="st0" d="M313.5,463.3c2,0,4,0,6,0.1C317.5,462.1,315.5,462.1,313.5,463.3z"/>
	<path class="st0" d="M314.7,190.9c0.6-0.3,1.3-1,0.8-1.5c-1.2-1.1-2.4,0.5-3.6,0.4C312.6,190.9,313.7,190.8,314.7,190.9z"/>
	<path class="st0" d="M180.3,575.6c-0.8,1.4-1.2,2.7,1.1,2.9C181,577.5,182,576,180.3,575.6z"/>
	<path class="st0" d="M1004.1,195.7c1.3,1.1,1.9-0.3,2.8-0.7C1005.7,194.1,1004.9,194.7,1004.1,195.7z"/>
	<path class="st0" d="M728.8,547.2c1.1-0.3,2.3-0.7,1.9-2.2c-0.3-1-1.1-1-2-0.8C729.5,545.2,729.1,546.2,728.8,547.2z"/>
	<path class="st0" d="M424.9,560.4c0.5,0.6,1.1,1.1,2,0.8c0-0.9,0-1.8,0-2.7C425.3,558.2,424.5,558.7,424.9,560.4z"/>
	<path class="st0" d="M1000,364.9c0.2,1.3,0.3,2.6,2.2,1.9C1002.1,365.4,1001.4,364.8,1000,364.9z"/>
	<path class="st0" d="M680.4,387.7c-0.9-1.1-2-1.4-3.3-0.6C677.8,389.8,679.2,388,680.4,387.7z"/>
	<path class="st0" d="M378.5,564c1.6,1.3,3.4,0.8,5.1,0.6C382,564,380.3,563.7,378.5,564z"/>
	<path class="st0" d="M434.9,551.4c1.6-0.1,3.4,0.5,4.9-0.7C438.1,550.6,436.4,550.3,434.9,551.4z"/>
	<path class="st0" d="M418.7,263.3c-0.6,1.3-2.5,0.9-2.9,2.4C417.4,265.7,419.4,266.2,418.7,263.3z"/>
	<path class="st0" d="M415,183.8c0.1-0.7-0.2-1.5-0.9-1.4c-1.4,0.1-1.2,1.3-1.2,2.2C413.7,184.7,413.9,183,415,183.8z"/>
	<path class="st0" d="M430.8,558.7c1.8,1.6,2.5,0.4,3.1-1.2C432.4,556.7,431.7,558.2,430.8,558.7z"/>
	<path class="st0" d="M750.4,571.4c0.5-0.8,2.2-0.8,1.3-2.4c0,0,0,0-0.1,0c-0.8-3.9-6.4-2.1-7.3-5.9c-0.3,0.3-0.6,0.7-1,1
		c0.4,3.8,4.1,3.5,6.3,4.9C749.9,569.9,749.5,570.8,750.4,571.4z"/>
	<path class="st0" d="M408.5,185.3c-1.4-0.5-2.6,0.3-3.8,0.8C406.4,187.9,407.4,186.3,408.5,185.3z"/>
	<path class="st0" d="M535.6,282.6c0.2-0.8,0.4-1.7,0.6-2.5c-3.4,0.2-2.1,6-6.3,5.2c-0.1-0.6-0.3-1.2-0.4-1.8l-0.2-0.4
		c-1.1,0.2-2.1,1.4-3.4,0.5c0-0.3-0.1-0.5-0.1-0.8c0,0.3,0,0.5-0.1,0.8c-0.3,0.1-0.6,0.3-1,0.4l-0.2,0.3c2.5,0.2,1.5,2,1.7,3.3
		c-0.2-1.3,0.8-3.1-1.7-3.3c0,0,0.2-0.3,0.2-0.3c-3.3-2.3-3.7,0.7-4.6,2.7c-2.2-1-3.9-2.5-6.4,0.6c-3.1,3.7,0.6,3.4,1.9,4.5
		c1.5,1.2-1.5,2.3,0,3.4c1.2-0.3,2.4-0.6,3.7-0.9c0.3,0.1,0.5,0.2,0.8,0.2c1.6,1.9,3.2,3.8,4.8,0c0.4-0.8,0.2-2.2,1.7-2
		c5,0.7,1.2-2.3,1.5-3.6c0.5-0.7,1-1.4,1.5-2v0c1.5,0.2,3,0.6,4.5-0.3c0.4-0.1,0.9-0.2,1.3-0.4c0.3-0.3,0.5-0.5,0.8-0.8
		c0.1-0.4,0.3-0.8,0.4-1.3c0-0.2,0-0.4,0-0.6C536.4,283.2,536,282.9,535.6,282.6z M522.1,289.1c-0.1,0.1-0.2,0.3-0.3,0.4
		C521.9,289.4,522,289.3,522.1,289.1c0-0.7,0.1-1.3,0.1-2C522.2,287.8,522.1,288.5,522.1,289.1z"/>
	<path class="st0" d="M584.3,261.2c-1.7-1.7-1.8-0.3-2,1C583.1,262,584,262.2,584.3,261.2z"/>
	<path class="st0" d="M712.6,544.7c1.2,1.8,1.8,1.1,2.1-0.5C713.9,544,713.1,543.7,712.6,544.7z"/>
	<path class="st0" d="M119.4,571.6c1.4,0.3,2.9,0.6,4.1-0.6C122.1,570.7,120.7,570.9,119.4,571.6z"/>
	<path class="st0" d="M989.2,361.2c-1.3,0-2.7,0-4,0C986.5,362.3,987.9,362.3,989.2,361.2z"/>
	<path class="st0" d="M643.7,549c-0.6-1.9-2-0.5-3-0.7C641.5,549.3,642.7,549,643.7,549z"/>
	<path class="st0" d="M1052.2,363.3c-1.3,0-2.6-0.1-4-0.1C1049.5,364.2,1050.8,364.3,1052.2,363.3z"/>
	<path class="st0" d="M531.1,282.3c0.1-0.4,0.1-1.1-0.6-1c-1.1,0.1-1.3,0.8-1.2,1.8c0,0,0.2,0.4,0.2,0.4
		C530.5,283.8,531,283.2,531.1,282.3z"/>
	<path class="st0" d="M344.1,283c-0.9-0.5-1.7-0.6-2.3,0.4C342.8,285,343.5,284.6,344.1,283z"/>
	<path class="st0" d="M865.8,560.7c0.1-0.4,0.3-0.7,0.4-1.1c0-0.1-0.5-0.2-0.9-0.4c-0.1,0.4-0.3,0.8-0.2,1.1
		C865.1,560.5,865.5,560.6,865.8,560.7z"/>
	<path class="st0" d="M932.7,560.3c-1.1,0.9-2.8-1.4-3.7,0.7C930.3,561,931.7,561.8,932.7,560.3z"/>
	<path class="st0" d="M897.7,561.3c1.2,1.2,2.7,0.5,4,0.7C900.6,560.2,899.1,561.3,897.7,561.3z"/>
	<path class="st0" d="M998,162.1c-0.6,0.6-1.3,1.3-1.9,1.9C997.5,164.2,998.1,163.6,998,162.1z"/>
	<path class="st0" d="M882.8,221.4c-0.2-0.4-0.4-0.7-0.5-1c-0.3,0.2-0.7,0.4-1,0.7c-0.1,0.1,0.2,0.5,0.4,0.8
		C882,221.7,882.4,221.6,882.8,221.4z"/>
	<path class="st0" d="M692.5,569.9c1.5-0.4,1.3-1.6,1.2-2.7C691.7,567.4,693.8,569.5,692.5,569.9z"/>
	<path class="st0" d="M922.2,382.8c-1.3-0.2-2.7-0.5-4-0.7C919.4,383.3,920.8,383.1,922.2,382.8z"/>
	<path class="st0" d="M538,386.7c1.5,0.2,3,0.8,4.3-0.7C540.8,386,539.3,385.6,538,386.7z"/>
	<path class="st0" d="M330.9,284.3c-1.3-0.1-2.7-0.2-4-0.2C328.2,285.6,329.6,285.1,330.9,284.3z"/>
	<path class="st0" d="M463.9,278.5c-1-1.3-2.3-0.6-3.5-0.7C461.1,280.2,462.9,277.3,463.9,278.5z"/>
	<path class="st0" d="M1141.5,584.4c-0.2,0.1-0.3,0.5-0.4,0.8c0.3,0.1,0.6,0.4,0.8,0.3c0.2-0.1,0.3-0.5,0.4-0.8
		C1142,584.6,1141.7,584.3,1141.5,584.4z"/>
	<path class="st0" d="M111.4,149.3c0,0.2,0.2,0.5,0.3,0.7c0.3-0.2,0.6-0.5,0.9-0.7c-0.2-0.2-0.3-0.4-0.5-0.6
		C111.8,149,111.4,149.2,111.4,149.3z"/>
	<path class="st0" d="M547,339.2c0.4-0.4,0.6-0.7,0.9-1c-0.2-0.1-0.5-0.4-0.7-0.4c-0.4,0.1-0.8,0.4-1.2,0.6
		C546.4,338.6,546.6,338.9,547,339.2z"/>
	<path class="st0" d="M299.5,463.3c1.3,0,2.7,0,4-0.1C302.2,462.2,300.8,462.2,299.5,463.3z"/>
	<path class="st0" d="M405.8,261.9c0-1-0.7-1.8-1.5-1.7c-0.5,0-1.4,0.7-1.2,1.7C404,261.9,404.9,261.9,405.8,261.9z"/>
	<path class="st0" d="M146.8,134.1c0.2,0.1,0.5-0.2,0.8-0.3c-0.2-0.3-0.4-0.6-0.6-0.9c-0.2,0.2-0.4,0.3-0.6,0.5
		C146.5,133.6,146.6,134,146.8,134.1z"/>
	<path class="st0" d="M463.9,184.9c-0.1-1.3-0.3-2.5-2-1.1C462.5,184.3,462.8,185.4,463.9,184.9z"/>
	<path class="st0" d="M187.8,502.2c0.3-0.1,0.5-0.6,0.7-1c-0.2-0.4-0.3-0.6-0.5-0.9c-0.3,0.3-0.6,0.7-0.8,1.1
		C187,501.9,187.2,502.4,187.8,502.2z"/>
	<path class="st0" d="M193,120.1c0.8-0.8,2.4,1.6,2.9-0.6C194.9,119.4,193.8,119.1,193,120.1z"/>
	<path class="st0" d="M1003.1,194.9c-0.5-0.7-0.6-2.6-2.1-0.9C1001.4,195,1002.2,195.1,1003.1,194.9z"/>
	<path class="st0" d="M1082.9,201c-1.1,1-3-0.8-3.9,1C1080.3,201.9,1081.9,202.7,1082.9,201z"/>
	<path class="st0" d="M1092.3,210.6c-1.1-0.7-1.2,0.4-1.4,1.2c0.3,0.2,0.6,0.3,0.9,0.3C1092.4,211.7,1093,211,1092.3,210.6z"/>
	<path class="st0" d="M913.9,168.3c-1.3,0-2.7,0-4,0C911.2,169.5,912.6,169.5,913.9,168.3z"/>
	<path class="st0" d="M983.3,225.8c0,0.2,0.1,0.7,0.3,0.8c0.5,0.2,0.9-0.1,0.9-0.7c0-0.2-0.3-0.4-0.5-0.7
		C983.7,225.5,983.3,225.6,983.3,225.8z"/>
	<path class="st0" d="M835.8,495c1,0,2,0,3-0.1C837.8,493.9,836.7,493.9,835.8,495z"/>
	<path class="st0" d="M316.2,396.7c-1,0.1-2,0.3-3,0.4C314.4,398.1,315.5,398.2,316.2,396.7z"/>
	<path class="st0" d="M281.2,397c-0.1,1.7,0.9,2,2.2,1.7C283,397.8,282.4,397,281.2,397z"/>
	<path class="st0" d="M234.9,489c0.1,0,0.3-0.1,0.3-0.2c0.1-0.8,1-1.8-0.7-2c0,0.6,0,1.3,0,1.9C234.6,488.8,234.7,489,234.9,489z"/>
	<path class="st0" d="M254.9,153.4c-0.6-0.3-1.3-0.6-1.9-0.9C253.5,153.1,253,155.6,254.9,153.4z"/>
	<path class="st0" d="M269.2,396.8c-0.8-1.1-1.9-1-3-0.7C267.1,397.1,268.2,396.9,269.2,396.8z"/>
	<path class="st0" d="M1015.2,195c0.9,0,1.9,0,2.8-0.1C1017,194.1,1016.1,193.1,1015.2,195z"/>
	<path class="st0" d="M1019.9,195c1.1,0.1,2.2,0.5,3-0.6C1021.9,194.7,1020.7,193.8,1019.9,195z"/>
	<path class="st0" d="M441.8,555c1-0.2,2-0.4,2.9-0.6C443.7,554.3,442.7,554.1,441.8,555z"/>
	<path class="st0" d="M353.3,390.1c-1,0.2-2.1,0.4-3.1,0.7C351.3,391,352.4,391.1,353.3,390.1z"/>
	<path class="st0" d="M365.3,388.1c-1.1-0.1-2.3-0.6-3.2,0.6C363.2,388.9,364.3,389.1,365.3,388.1z"/>
	<path class="st0" d="M576.1,357c1,0,2.1,0.1,3.1,0.1C578.2,355.7,577.2,355.8,576.1,357z"/>
	<path class="st0" d="M686.7,495c1,0,2.1,0,3.1,0C688.8,493.8,687.8,494,686.7,495z"/>
	<path class="st0" d="M145.7,476.7c-1.1,0-2.2,0-3.3,0C143.5,478.1,144.6,477.5,145.7,476.7z"/>
	<path class="st0" d="M696.4,386.9c0.8,0,1.6,0,2.5,0C698,385.7,697.2,385.7,696.4,386.9z"/>
	<path class="st0" d="M354.8,557.7c-1,0.3-2.2-0.5-3,0.7C352.9,558.5,354,558.8,354.8,557.7z"/>
	<path class="st0" d="M313.7,562.9c0-0.1-0.1-0.1-0.1-0.2c0,0.1,0,0.2,0,0.3c-0.3,0.1-0.6,0.2-0.9,0.3c0.3,0.2,0.6,0.3,0.9,0.4
		c-0.1,0.3-0.4,0.5-0.5,0.7c-0.2,0.3-0.3,0.6-0.4,0.9c1.2,0.1,2.1-0.3,2.2-1.6c-0.1,0-0.2,0-0.2-0.1c0.3-0.1,0.6-0.3,0.9-0.5
		C314.9,562.7,314.3,562.7,313.7,562.9z"/>
	<path class="st0" d="M269.8,538.2c1.1,0,2.3,0.5,3.1-0.7C271.8,537.3,270.7,537.1,269.8,538.2z"/>
	<path class="st0" d="M360.8,556.7c-1,0.2-2,0.5-3,0.7C359,557.7,360,557.8,360.8,556.7z"/>
	<path class="st0" d="M694.8,567.1c0.9,0,1.9,0,2.8,0C696.7,565.4,695.8,566,694.8,567.1z"/>
	<path class="st0" d="M160.2,145.4c-0.9-1.3-2.2-0.1-3.3-0.5c-0.1,0.2-0.1,0.5,0,0.7c0.3,1.1-0.5,2.6,1.1,3.4
		c1.6-0.7,0.7-2.3,1.1-3.3C159.5,145.6,159.8,145.5,160.2,145.4z"/>
	<path class="st0" d="M893,562.1c1-0.1,2,0.1,2.7-0.8C894.7,561.1,893.5,560.5,893,562.1z"/>
	<path class="st0" d="M1099.6,561c-1-1-2-0.9-3,0C1097.6,561,1098.6,561,1099.6,561z"/>
	<path class="st0" d="M1086.7,561c-1-0.5-1.9-1-3-0.7C1084.5,561.3,1085.6,561.2,1086.7,561z"/>
	<path class="st0" d="M347.8,559.4c1.1,0.2,2.1,0.4,3-0.6C349.8,558.9,348.7,558.6,347.8,559.4z"/>
	<path class="st0" d="M1008.7,556.3c-1,0-2.1,0-3.1,0C1006.6,557.5,1007.7,557.5,1008.7,556.3z"/>
	<path class="st0" d="M836.9,182.4c-0.5,0.4-1.6-1-1.7,0.6C835.9,183.1,836.5,183.1,836.9,182.4z"/>
	<path class="st0" d="M536.7,283.5c0,0.2,0,0.4,0,0.6c0.9,0,1.7-0.1,2.6-0.1C538.8,282.3,537.5,283.8,536.7,283.5z"/>
	<path class="st0" d="M205.4,114.6c0.8,0,1.7-0.1,2.5-0.1C207.1,113.3,206.2,112.9,205.4,114.6z"/>
	<path class="st0" d="M225.9,568.4c1.1,0.1,2.1,0.3,3-0.7C227.7,567.5,226.7,567.5,225.9,568.4z"/>
	<path class="st0" d="M230,567.5c0.8,0,1.7,0,2.5,0C231.7,564.9,230.9,567.1,230,567.5z"/>
	<path class="st0" d="M1003.6,366.7c0.4,1.5,1.1,1,1.8,0.2C1004.8,366.8,1004.2,366.7,1003.6,366.7z"/>
	<path class="st0" d="M611.7,551.3c-1,0-2,0-3,0C609.7,552.4,610.7,552.4,611.7,551.3z"/>
	<path class="st0" d="M344.6,563.9c-1,0-2.1,0-3.1,0.1C342.5,565.2,343.6,565.1,344.6,563.9z"/>
	<path class="st0" d="M668.7,550.2c-1,0-2,0.1-3,0.1C666.8,551.3,667.8,551.4,668.7,550.2z"/>
	<path class="st0" d="M285.3,194.8c0,0,0.2,0,0.3,0c0.5-0.7,0.6-1.4-0.2-2C284.7,193.4,284.8,194.1,285.3,194.8z"/>
	<polygon class="st0" points="285.4,192.7 285.4,192.7 285.4,192.7 	"/>
	<path class="st0" d="M707.7,545c1.1,0,2.1,0,3.2-0.1C709.8,543.5,708.7,543.8,707.7,545z"/>
	<path class="st0" d="M514.8,512.9c1.1,0.3,2.2,0.3,3.1-0.6C516.8,512.1,515.7,511.9,514.8,512.9z"/>
	<path class="st0" d="M831.7,494.3c0.7,0.2,1.4,0.4,2.1,0.6C833.3,494.1,832.5,494,831.7,494.3z"/>
	<path class="st0" d="M1085.2,359.2c-0.7,0-1.4,0-2,0C1083.8,360.1,1084.5,360.2,1085.2,359.2z"/>
	<path class="st0" d="M544.3,275c1,0.3,1.9,0.4,2.5-0.7C545.8,274,544.9,274.1,544.3,275z"/>
	<path class="st0" d="M982.2,362.7c0-0.5,0-1.1,0-1.6c-0.8-0.1-1.2,0.4-1.1,1.1C981.2,362.4,981.9,362.5,982.2,362.7z"/>
	<path class="st0" d="M614.8,550c0.6,0,1.2,0,1.8,0C616,549.4,615.4,548.9,614.8,550z"/>
	<path class="st0" d="M649.7,550c0.6,0,1.2,0,1.8,0.1C651,548.5,650.3,549.7,649.7,550z"/>
	<path class="st0" d="M153.4,143.2c-0.6-0.5-1.3-0.8-2-0.3c0.3,0.2,0.6,0.4,0.9,0.6C152.7,143.4,153,143.3,153.4,143.2z"/>
	<path class="st0" d="M140.8,143.4c0.5,0.6-0.2,1.9,1.3,1.9C142.1,144.4,141.9,143.6,140.8,143.4z"/>
	<path class="st0" d="M1041.2,363.2c-0.7,0-1.3,0-2-0.1C1039.8,364,1040.5,364,1041.2,363.2z"/>
	<path class="st0" d="M474.8,260.9c-0.3-1.3-1.2-0.8-1.9-0.6C473.4,261,474.1,260.9,474.8,260.9z"/>
	<path class="st0" d="M271.2,144.9c-0.6-0.3-1.1-0.1-1.3,0.6c0.4,0,0.7,0,1.1,0.1C271,145.3,271.2,144.9,271.2,144.9z"/>
	<path class="st0" d="M273.1,146.7c-0.8,0.3-1.5,0.6-2-0.3C271.5,147.9,272.2,147.8,273.1,146.7z"/>
	<path class="st0" d="M707.6,554c-0.6,0.1-1.1,0.2-1.7,0.3C706.5,554.4,707.1,554.8,707.6,554z"/>
	<path class="st0" d="M542.9,284.9c0.1-0.7,0.2-1.4,0.3-2C541.6,283.4,542.5,284.2,542.9,284.9z"/>
	<path class="st0" d="M147.2,149.3c0.1,0.3,0.2,0.5,0.3,0.8c0.1-0.1,0.4-0.2,0.4-0.3c-0.1-0.3-0.2-0.5-0.3-0.8
		C147.4,149.1,147.2,149.2,147.2,149.3z"/>
	<path class="st0" d="M546.6,286.4c0.9,0.1,0.5-0.7,0.7-1.1c-0.3,0-0.7,0-1,0C546.4,285.6,546.4,286.3,546.6,286.4z"/>
	<path class="st0" d="M145.4,150.1c0-0.1,0-0.3-0.1-0.4c-0.1-0.1-0.3-0.1-0.4-0.1c0,0.2,0.1,0.4,0.1,0.6
		C145.1,150.2,145.2,150.2,145.4,150.1z"/>
	<path class="st0" d="M924.7,561.3c0.5,0.8,1.2,0.8,2,0.7C926.2,561.1,925.5,561.2,924.7,561.3z"/>
	<path class="st0" d="M906,150c-0.8-0.1-1.5-0.1-2,0.6C904.8,150.9,905.5,150.8,906,150z"/>
	<path class="st0" d="M999.9,378.7c0.7,0.1,1.5,0.1,2.2,0.2C1001.5,377.7,1000.7,378.1,999.9,378.7z"/>
	<path class="st0" d="M263.8,153.4c-0.5,0-0.9,0-1.4,0C262.9,154.7,263.4,154.5,263.8,153.4z"/>
	<path class="st0" d="M455.9,276.6c0.7,0,1.4,0,2.1-0.1C457.2,275.7,456.5,275.5,455.9,276.6z"/>
	<path class="st0" d="M445.2,385.3c0,0.4,0,0.9-0.1,1.3C445.8,386.1,446.1,385.7,445.2,385.3z"/>
	<path class="st0" d="M363.9,283.2c0.4,0.7,1.1,0.7,1.8,0.7C365.5,282.7,364.7,283,363.9,283.2z"/>
	<path class="st0" d="M335,284.2c-0.7,0-1.4,0-2,0C333.6,285.1,334.3,285.2,335,284.2z"/>
	<path class="st0" d="M445,386.7c-0.2,0.4-0.5,0.8-0.4,1.2c0.2,0.8,0.9,0.6,1.5,0.4C445.6,387.8,444.7,387.7,445,386.7z"/>
	<path class="st0" d="M272.4,395.8c0.8,0.1,1.5,0.1,1.9-0.7C273.5,394.9,272.8,395.1,272.4,395.8z"/>
	<path class="st0" d="M564.1,351c-0.6,0-1.3,0-1.9,0.1C562.9,352,563.5,352,564.1,351z"/>
	<path class="st0" d="M583.3,355.3c-0.8-0.1-1.7-0.4-2.2,0.6C581.9,356.1,582.7,356.2,583.3,355.3z"/>
	<path class="st0" d="M394.9,468c0.2-0.4,0.5-0.9,0.7-1.3c-0.5,0-0.9,0.1-1.4,0.1C394.5,467.2,394.7,467.6,394.9,468z"/>
	<path class="st0" d="M214.5,488.1c-0.6,0.2-1.3,0.4-1.9,0.6C213.3,488.9,214,488.8,214.5,488.1z"/>
	<path class="st0" d="M157.9,492.4c-0.2,0.4-0.4,0.7-0.6,1.1c0.5,0,1,0,1.5,0C158.4,493.2,158.2,492.8,157.9,492.4z"/>
	<path class="st0" d="M236.6,492.6c-0.7-0.1-1.4-0.2-2.1-0.3C235.2,492.9,235.9,492.9,236.6,492.6z"/>
	<path class="st0" d="M163.5,493.8c0.7,0.2,1.3,0.5,2,0.7C165.2,493.2,164.3,493.6,163.5,493.8z"/>
	<path class="st0" d="M426.5,484.8c-0.4-0.8-1-0.5-1.6-0.4c-1.3-0.4-1.9-1.5-2-2.7c-1.9,1.1-3.9,0.4-5.8,0.7
		c-1.1,0.1-3.1-0.9-3.1,1.1c0,2,2.5,1.6,3.5,2.8c2.2-3.3,5.2,0.4,7.7-0.9l0.5,0.1c0,0,0.5-0.1,0.5-0.1
		C426.2,485.2,426.6,484.9,426.5,484.8z"/>
	<path class="st0" d="M164.4,496.7c-1.1,0.1-1.6-0.8-2.4-1.3c-2-1.1-3.4-0.8-2.3,1.9c0.4,1-0.5,2.9,0.9,2.9c1.5,0,3.7-0.1,4.2-2.5
		c0.5-0.1,1.1,0,1-0.7C165.7,496.8,164.9,496.8,164.4,496.7z"/>
	<path class="st0" d="M184.3,498.5c0.8,0.2,1.6,0.3,2.2-0.4C185.7,497.9,184.9,497.8,184.3,498.5z"/>
	<path class="st0" d="M179.5,504.3c0.7,0,1.3,0,2,0C180.9,503.4,180.2,503.4,179.5,504.3z"/>
	<path class="st0" d="M237.6,566c-0.7,0-1.4,0-2,0C236.2,566.9,236.9,566.9,237.6,566z"/>
	<path class="st0" d="M462.8,553c0.6,0,1.3-0.1,1.9-0.1C464.1,552.2,463.4,552.2,462.8,553z"/>
	<path class="st0" d="M425.8,551.8c-0.6,0.2-1.2,0.3-1.7,0.5C424.8,552.6,425.4,552.6,425.8,551.8z"/>
	<path class="st0" d="M539.9,181.6c0.7-0.1,1.3-0.2,2-0.2C541.1,180.5,540.5,180.5,539.9,181.6z"/>
	<path class="st0" d="M275.8,536c0.8,0.2,1.5,0.1,2.1-0.6C277.1,535.3,276.4,535.3,275.8,536z"/>
	<path class="st0" d="M302.3,189.9c0.4,0.2,0.9,0.1,1.3,0.2c0,0,0,0,0,0c-0.4-0.2-0.8-0.5-1.2-0.6
		C301.9,189.3,301.8,189.7,302.3,189.9z"/>
	<path class="st0" d="M320.1,193.8c0.2,1.4,1.1,0.9,1.9,0.8C321.5,193.8,320.8,193.8,320.1,193.8z"/>
	<path class="st0" d="M212.6,87.4c-0.5,0-1,0-1.6,0C211.6,88.7,212.1,88.8,212.6,87.4z"/>
	<path class="st0" d="M125.6,99.4C125.6,99.4,125.5,99.4,125.6,99.4c0,0.4,0,0.9,0,1.4C125.6,100.3,125.6,99.8,125.6,99.4z"/>
	<path class="st0" d="M132.8,100.4c-0.6,0-1.2,0-1.7,0.1C131.7,102.3,132.3,101.1,132.8,100.4z"/>
	<path class="st0" d="M1005.5,159.4c-0.1,0.2-0.2,0.4-0.3,0.6c0.4,0,0.7,0,1.1,0C1006,159.8,1005.7,159.6,1005.5,159.4z"/>
	<path class="st0" d="M194,114.8c-0.8-0.2-1.5-0.1-2,0.7C192.8,115.6,193.5,115.5,194,114.8z"/>
	<path class="st0" d="M820.4,325.9c-0.4,0-0.8,0-1.3,0C819.5,326.4,819.9,326.4,820.4,325.9z"/>
	<path class="st0" d="M1092.2,359.1c-0.4,0-0.7,0.1-1.1,0.1C1091.6,360,1092,359.8,1092.2,359.1z"/>
	<path class="st0" d="M635.5,548.9c0.4-0.2,0.8-0.3,1.2-0.5C636.1,548.2,635.8,548.4,635.5,548.9z"/>
	<path class="st0" d="M724.7,548.6c0.3-0.1,0.6-0.1,0.9-0.1C725.3,548,725,548.1,724.7,548.6z"/>
	<path class="st0" d="M663.7,549.1c0.4,0.3,0.7,0.5,1.1,0.8C664.7,549.3,664.5,548.8,663.7,549.1z"/>
	<path class="st0" d="M727.3,549c-0.2-0.1-0.4-0.1-0.6,0C726.9,549.4,727.2,549.9,727.3,549z"/>
	<path class="st0" d="M652.6,550.6c-0.3-0.1-0.7-0.2-1-0.4C651.8,550.8,652.1,551.2,652.6,550.6z"/>
	<path class="st0" d="M605.6,552c0.4-0.2,0.8-0.5,1.1-0.7C606.1,551.1,605.8,551.4,605.6,552z"/>
	<path class="st0" d="M699.7,555.1c0.3-0.2,0.6-0.3,0.9-0.5C699.9,553.9,699.8,554.4,699.7,555.1z"/>
	<path class="st0" d="M792.9,563.1l0.2,0.1l0.3-0.1C793.3,562.6,793.1,562.4,792.9,563.1z"/>
	<path class="st0" d="M997.2,377.8l0.5,0.1c0,0,0.5-0.1,0.5-0.1C997.9,376.6,997.5,377.6,997.2,377.8z"/>
	<path class="st0" d="M1004.7,379c-0.5,0-1,0.1-1.5,0.1C1003.7,379.6,1004.2,379.5,1004.7,379z"/>
	<path class="st0" d="M1006.6,379c0.6,0.2,1.2,0.5,1.8,0.7C1008,379,1007.4,378.8,1006.6,379z"/>
	<path class="st0" d="M953.2,381.1c0.3,0.3,0.7,0.5,1,0.8C954.1,381.2,954,380.8,953.2,381.1z"/>
	<path class="st0" d="M905.2,382.1c-0.4,0.2-0.7,0.4-1.1,0.6C904.7,382.9,905.1,382.7,905.2,382.1z"/>
	<path class="st0" d="M914.2,382.1c-0.4,0-0.7-0.1-1.1-0.1C913.5,382.7,913.8,382.8,914.2,382.1z"/>
	<path class="st0" d="M708.2,385.5c-0.6-0.6-0.6-0.1-0.5,0.3C708,385.9,708.1,385.8,708.2,385.5z"/>
	<path class="st0" d="M551.9,386.9l0.4-0.1c-0.3-0.2-0.5-0.4-0.8-0.7c0,0.2-0.1,0.5-0.1,0.7L551.9,386.9z"/>
	<path class="st0" d="M364.8,556.6c0.2,0.3,0.5,0.5,0.7,0.8C365.9,556.6,365.3,556.6,364.8,556.6z"/>
	<path class="st0" d="M481.9,551.7c0.3-0.1,0.6-0.2,0.8-0.3C482.4,551.3,482.2,551.4,481.9,551.7z"/>
	<path class="st0" d="M955.6,166c0.2-0.2,0.5-0.4,0.7-0.6c-0.7-0.4-1.3-0.4-1.7,0.4l0.5,0.2C955.1,166,955.6,166,955.6,166z"/>
	<path class="st0" d="M956.3,165.4C956.3,165.4,956.3,165.4,956.3,165.4C956.3,165.4,956.3,165.4,956.3,165.4
		C956.3,165.4,956.3,165.4,956.3,165.4C956.3,165.4,956.3,165.4,956.3,165.4C956.3,165.4,956.3,165.4,956.3,165.4
		C956.3,165.4,956.3,165.4,956.3,165.4L956.3,165.4z"/>
	<path class="st0" d="M284,192.4c0.3-0.1,0.7-0.1,1-0.2C284.6,191.9,284.2,191.9,284,192.4z"/>
	<path class="st0" d="M131.6,570.8c-0.4,0-0.7,0.1-1.1,0.1C130.9,571.7,131.3,571.4,131.6,570.8z"/>
	<path class="st0" d="M244.7,564.3c0.4,0,0.9,0,1.3,0C245.5,563.2,245.1,563.3,244.7,564.3z"/>
	<path class="st0" d="M993.9,162.2c0.3,0.3,0.5,0.5,0.8,0.8C994.8,162.3,994.6,162.1,993.9,162.2z"/>
	<path class="st0" d="M243.1,565.4c0.2-0.3,0.5-0.5,0.7-0.8C243.3,564.6,242.7,564.5,243.1,565.4z"/>
	<path class="st0" d="M250.8,564.6c-0.3,0-0.7,0.1-1,0.1C250.2,565.3,250.6,565.1,250.8,564.6z"/>
	<path class="st0" d="M210,87.2c0.3,0.1,0.7,0.2,1,0.2C210.8,86.7,210.5,86.4,210,87.2z"/>
	<path class="st0" d="M214.9,86.4c-0.3-0.2-0.5-0.2-0.8,0C214.4,86.8,214.6,86.9,214.9,86.4z"/>
	<path class="st0" d="M980,213.1C980,213.1,980,213.1,980,213.1L980,213.1c0.2-0.3,0.5-0.7,0.7-1c0,0-0.3-0.2-0.5-0.4
		c-0.1,0.4-0.3,0.8-0.4,1.2l0,0c-0.1,0.2-0.3,0.4-0.4,0.5C979.6,213.3,979.8,213.2,980,213.1z"/>
	<path class="st0" d="M233.8,568.8c-0.4,0-0.7-0.1-1.1-0.1C233,569.4,233.4,569.6,233.8,568.8z"/>
	<path class="st0" d="M959.8,170c0.3-0.8,0.1-1.2-0.8-1.2C959.2,169.2,959.5,169.6,959.8,170z"/>
	<path class="st0" d="M133.9,99.2c0.4,0.1,0.7,0.2,1.1,0.2C134.8,98.5,134.5,98.3,133.9,99.2z"/>
	<path class="st0" d="M1083.8,200.1c0.2,0.3,0.5,0.7,0.7,1C1085,200.3,1084.6,200.1,1083.8,200.1z"/>
	<path class="st0" d="M994.7,192c-0.1-0.4-0.1-0.7-0.2-1.1C993.7,191.5,993.9,191.8,994.7,192z"/>
	<path class="st0" d="M979.6,225.3c-0.4,0.1-0.7,0.2-1.1,0.2c0.2,0.2,0.5,0.5,0.7,0.7C979.3,225.9,979.4,225.6,979.6,225.3z"/>
	<path class="st0" d="M350.6,563.9c-0.4,0-0.7,0-1.1,0C349.8,564.6,350.2,564.7,350.6,563.9z"/>
	<path class="st0" d="M205.1,115c-0.3,0-0.7,0-1,0.1C204.4,115.5,204.8,115.4,205.1,115z"/>
	<path class="st0" d="M196,119.4c0.3,0,0.7,0,1-0.1C196.6,118.4,196.3,118.6,196,119.4z"/>
	<path class="st0" d="M871,157c-0.4,0-0.8,0-1.2,0c0.1,0.2,0.3,0.4,0.4,0.7C870.5,157.4,870.8,157.2,871,157z"/>
	<path class="st0" d="M371.5,503.3c0.4,0,0.7,0,1.1,0C372.2,502.7,371.9,502.7,371.5,503.3z"/>
	<path class="st0" d="M178.7,498.7c0.3-0.3,0.6-0.7,0.9-1C178.9,497.7,178.3,497.8,178.7,498.7z"/>
	<path class="st0" d="M463.8,486.8c-0.3,0-0.7,0-1-0.1C463.1,487.4,463.4,487.5,463.8,486.8z"/>
	<path class="st0" d="M225.6,493.9c-0.3,0.1-0.7,0.3-1,0.4C225.3,494.9,225.5,494.4,225.6,493.9z"/>
	<path class="st0" d="M231.5,492.3c0.3,0.5,0.6,0.5,0.9,0.1C232.2,492.3,231.8,492.3,231.5,492.3z"/>
	<path class="st0" d="M307.6,488.8c-0.4,0-0.7,0.1-1.1,0.1C306.9,489.7,307.3,489.5,307.6,488.8z"/>
	<path class="st0" d="M230.4,487.6c0.5-0.3,1.1-0.5,1.6-0.8C231.3,486.6,230.8,486.9,230.4,487.6z"/>
	<path class="st0" d="M425.5,481c-0.4,0-0.7-0.1-1.1-0.1C424.8,481.6,425.1,481.8,425.5,481z"/>
	<path class="st0" d="M420.5,480.9c-0.4,0-0.7,0-1.1,0C419.9,481.6,420.2,481.6,420.5,480.9z"/>
	<path class="st0" d="M426.6,480.7c0,0,0.4,0.1,0.4,0.1l0.4-0.1c-0.2-0.2-0.4-0.4-0.6-0.7C426.7,480.3,426.7,480.5,426.6,480.7z"/>
	<path class="st0" d="M1004.9,160.8c-0.3,0.2-0.6,0.2-0.9,0c0.2,0.2,0.3,0.5,0.5,0.7C1004.6,161.3,1004.7,161.1,1004.9,160.8z"/>
	<path class="st0" d="M150.5,137.6c-0.1-0.2-0.1-0.4-0.2-0.6c-0.1,0.2-0.2,0.4-0.3,0.5c0,0,0.2,0.2,0.2,0.2L150.5,137.6z"/>
	<path class="st0" d="M154.5,143.1c0.4,0.1,0.8,0.3,1.2,0.4C155.7,142.3,155.1,142.6,154.5,143.1z"/>
	<path class="st0" d="M471,260.2c-0.4,0-0.7,0-1.1,0C470.2,260.9,470.6,260.9,471,260.2z"/>
	<path class="st0" d="M392.5,466.4c0.4,0,0.7,0,1.1,0C393.2,465.5,392.8,465.7,392.5,466.4z"/>
	<path class="st0" d="M306.5,463.3c0.4,0,0.7,0,1.1,0.1C307.2,462.7,306.9,462.6,306.5,463.3z"/>
	<path class="st0" d="M559.3,362.4c-0.3,0-0.7,0-1,0C558.6,362.9,558.9,362.9,559.3,362.4z"/>
	<path class="st0" d="M599.1,340.2L599.1,340.2c0,0.6,0.1,1.1,0.1,1.7c1.7,0.2,0.8-1.1,1-1.8c-0.3-0.1-0.6-0.1-0.9-0.1l0,0
		c-0.2-0.1-0.4-0.2-0.6-0.3C598.9,339.8,599,340,599.1,340.2z"/>
	<path class="st0" d="M276.9,145.3C276.9,145.3,276.9,145.3,276.9,145.3C276.9,145.3,276.8,145.3,276.9,145.3z"/>
	<path class="st0" d="M476,261.2c-0.4-0.1-0.7-0.2-1.1-0.2C475,261.9,475.4,262.2,476,261.2z"/>
	<path class="st0" d="M254,145.8c-0.3,0.1-0.6,0.1-1,0.2C253.4,146.5,253.8,146.3,254,145.8z"/>
	<path class="st0" d="M266.1,146.5c0.3-0.3,0.6-0.5,0.9-0.8C266.3,145.6,266.1,145.9,266.1,146.5z"/>
	<path class="st0" d="M406.9,263.3c-0.3-0.1-0.6-0.3-1-0.4C406,263.5,406.2,263.9,406.9,263.3z"/>
	<path class="st0" d="M413.9,263.1c0.2,0.3,0.5,0.5,0.7,0.8C414.9,263.2,414.6,262.9,413.9,263.1z"/>
	<path class="st0" d="M162.7,148.4c3.7,2.1,7.1,1,10.4-0.9c0.4,0,0.9,0,1.3,0c0.3-1.6,0.6-3.1,1-5.3c-3.6,2-7.6,0.5-10.4,3.1
		c-1.5-1.2-2.5-1.5-2.5,1c-0.1,0-0.1,0-0.2,0c0,0,0.2,0.1,0.2,0.1c0.1,0.1,0.2,0.3,0.3,0.4c0,0,0,0.1,0,0.1
		C162.1,147.3,162.1,147.9,162.7,148.4z"/>
	<path class="st0" d="M297.4,398.9l0.4,0.1c0,0,0.4-0.1,0.4-0.1C297.9,398.4,297.6,398.5,297.4,398.9z"/>
	<path class="st0" d="M277.5,148.4c0,0.1,0,0.1,0,0.2c0.1-0.1,0.1-0.1,0.2-0.2C277.6,148.4,277.5,148.4,277.5,148.4z"/>
	<path class="st0" d="M277.4,149c0-0.1,0-0.3,0.1-0.4c-0.1,0.1-0.2,0.2-0.3,0.3C277.3,149,277.3,149,277.4,149z"/>
	<path class="st0" d="M266.8,538.1c0.3,0,0.7,0,1,0C267.5,537.5,267.2,537.5,266.8,538.1z"/>
	<path class="st0" d="M310.2,397.5c-0.3,0.1-0.5,0.2-0.8,0.3l0.5,0C309.8,397.8,310.2,397.5,310.2,397.5z"/>
	<path class="st0" d="M264.3,396.3c-0.3,0-0.7-0.1-1-0.1C263.5,396.9,263.8,397,264.3,396.3z"/>
	<path class="st0" d="M279.3,395.2c0.3,0.2,0.5,0.4,0.8,0.6C280.1,395.2,279.9,395,279.3,395.2z"/>
	<path class="st0" d="M454,274.8c0.3,0.4,0.6,0.8,0.9,1.2C454.9,275.3,454.7,274.9,454,274.8z"/>
	<path class="st0" d="M424,182.9c0.4-0.3,0.8-0.6,1.2-1C424.4,181.9,424.1,182.2,424,182.9z"/>
	<path class="st0" d="M258.3,390.4c0.3,0,0.7,0,1,0C259,389.7,258.6,389.7,258.3,390.4z"/>
	<path class="st0" d="M580.1,389.7c0.4-0.2,0.8-0.5,1.2-0.7C580.5,388.7,580.3,389.3,580.1,389.7z"/>
	<path class="st0" d="M520.3,387.9c-0.4,0.3-0.8,0.5-1.2,0.8C519.7,388.8,520.2,388.6,520.3,387.9z"/>
	<path class="st0" d="M452.6,387.8c-0.1,0.3-0.1,0.7-0.2,1C453.1,388.6,453.3,388.3,452.6,387.8z"/>
	<path class="st0" d="M769.3,387c-0.4,0-0.7,0.1-1.1,0.1C768.6,387.9,769,387.7,769.3,387z"/>
	<path class="st0" d="M554.3,387.1c-0.4,0-0.7,0-1.1,0C553.6,387.9,553.9,387.9,554.3,387.1z"/>
	<path class="st0" d="M514.1,181.9c-0.4,0-0.8,0-1.3-0.1C513.2,182.9,513.7,182.9,514.1,181.9z"/>
	<path class="st0" d="M520.3,386.8c0,0.4,0.1,0.7,0.1,1.1C521.4,387.4,521.2,387.1,520.3,386.8z"/>
	<path class="st0" d="M363.8,556.6c-0.4,0-0.7,0-1.1,0C363.2,557.4,363.5,557.3,363.8,556.6z"/>
	<path class="st0" d="M770.1,386.7c0.4,0,0.7,0.1,1.1,0.1C770.9,386.4,770.5,386.3,770.1,386.7z"/>
	<path class="st0" d="M371.8,195.9c-3.5-0.3-4.2-4-7.1-2.7c-0.9,0.4-1.1,2.2-1.7,3.3C365.5,197.6,368,197.5,371.8,195.9z"/>
	<path class="st0" d="M359,196.5c-0.3-1.1-1.3-0.5-2-0.7c0.3,0.6,0.7,1.3,1,1.9C358.7,197.7,359.2,197.3,359,196.5z"/>
	<path class="st0" d="M210,121.5c1.4-0.5,3-0.3,3.9-1.8c2.1,2.2,4.6,0.7,6.9,0.7c0.4,0,3.8-1,1.8-3.4c-2-2.5-5.3-0.4-7.9-2.2
		c-1.4-1-0.3,2.7-1.6,3.8c-2.3,0.1-2.7-2.2-4.2-3.1c-0.3,1.8-0.6,3.7-0.9,5.5c0,0,0.2-0.2,0.2-0.2
		C208.6,121.8,209.1,122.1,210,121.5z"/>
	<path class="st0" d="M124.5,559.7c0,0.6,0,1.3,0,1.9c4.2,0.7,7.6-2.1,11.6-2.5C132.2,558.6,128.3,557.9,124.5,559.7z"/>
	<path class="st0" d="M1113.6,556.6c1-0.2,1.5-1.4,0.8-2.4c-0.7-0.9-1.6-2.8-3-1.8c-4.3,3.1-9.3,1.8-13.9,3.4
		C1102.8,557.1,1108.2,557.4,1113.6,556.6z"/>
	<path class="st0" d="M959.4,167c0.4,0.1,0.9-0.1,1.2-0.2c0.2-0.8-0.3-0.9-0.8-1c-0.4,0-0.9,0.1-1.3,0.2
		C958.8,166.4,959.1,166.9,959.4,167z"/>
	<path class="st0" d="M956.1,164.1c0,0.3,0.1,0.5,0.1,0.8C956.4,164.6,957.1,164.2,956.1,164.1z"/>
	<path class="st0" d="M956.2,164.9c0,0.1,0,0.3,0.1,0.4C956.3,165.2,956.3,165,956.2,164.9C956.2,164.9,956.2,164.9,956.2,164.9z"/>
	<path class="st0" d="M533.6,382.1c-1.1,1.5-3.4,0.2-4.3,2.7c1.7-0.5,3.2-0.8,4.9-0.1c0.5,0.2,1.6-0.9,2.2-1.7
		c0.3-0.3,0-1.4-0.3-1.7C534.9,380.3,534.1,381.3,533.6,382.1z"/>
	<path class="st0" d="M1093.8,208.5c0.1,0.5,0.9,1.2,1.3,1.2c1.3-0.1,1.1-1.4,1.4-2.3c1.4-0.5,3.7,0.3,3.4-2.5
		c-0.1-1.6,2.4-4.7-2.2-3.8c1.1,2.5-1.8,3.4-2.2,5.4l0,0C1094.5,206.8,1093.6,207.3,1093.8,208.5z"/>
	<path class="st0" d="M1110.8,207.8c0.3-0.8-1-0.9-1.7-1.1c-0.2,0.3-0.5,0.7-0.7,1C1109.2,208.1,1110.3,209,1110.8,207.8z"/>
	<path class="st0" d="M587,351.7c0-0.4,0-0.9,0-1.3c-2.1,0-4.3,0-6.6,0C582.3,354.8,584.8,351.6,587,351.7z"/>
	<path class="st0" d="M520.8,218.9c0.8,1.7,1.8,0.3,2.3,0c2.1-1.6,1-3.9,0.8-5.9c-0.1-1.8-2.1-0.3-3.2-0.7c-1.8-0.7-4,2.2-4.4,1.8
		c-2-2.1-3.6-0.8-5.3-0.1c-0.9-3.6-3.5-0.4-5-1.1c-4.2-2.1-8-0.7-13,1.5c5.7-0.3,4,5.8,8,6.5c1-0.1,2.6-0.8,2.7,0.9
		c0.3,4.8,3,2.7,5.3,2c0.6-1.9,1.3-3.8,1.9-5.8C514.4,216,518,213,520.8,218.9z"/>
	<path class="st0" d="M532.2,220.5c2.7,1.8,1.3-1.4,2.3-1.6c0.5-0.1,1-0.3,1.4-0.1c1.5,0.7,0,1.2-0.2,1.7c-0.2,0.6-0.8,1.2-0.1,1.7
		c0.3,0.2,1.1,0.1,1.2-0.1c1.1-1.9,1.9-4.1,0.5-5.9c-0.7-0.9,0.6-5.7-3-2.3c-0.5-0.1-0.7-0.2-0.8-0.2c-1.2,0-3.5-0.9-3.3,0.5
		C530.5,216.2,529.7,218.8,532.2,220.5z"/>
	<path class="st0" d="M541.7,214.6c3,0,5.8,3.3,8.6,0.1c1.2,1.5-1.8,3.1,0.3,4.1c1.1,0.5,2.6-0.2,3-1.9c-0.6-1.4-1.1-2.8-1.7-4.2
		C547.5,208,545.3,214.7,541.7,214.6z"/>
	<path class="st0" d="M527.8,123.6c2.1-4.2,0.4-7.4-1.8-12C527,116.4,525,120.1,527.8,123.6z"/>
</g>
</svg>
