<?xml version="1.0" encoding="utf-8"?>
<!-- Generator: Adobe Illustrator 26.0.2, SVG Export Plug-In . SVG Version: 6.00 Build 0)  -->
<svg version="1.1" id="Layer_1" xmlns="http://www.w3.org/2000/svg" xmlns:xlink="http://www.w3.org/1999/xlink" x="0px" y="0px"
	 viewBox="0 0 500 500" style="enable-background:new 0 0 500 500;" xml:space="preserve">
<g>
	<path d="M183.5,456.3c-29.8-10.5-53-28.7-68.8-56.4C80.4,340,112.1,269.3,153.6,246c26.3-14.7,47.8-35.4,68.2-57.3
		c10.8-11.6,21.4-23.3,34.3-32.7c13.5-9.9,28.3-13.8,44.8-8.7c4.8,1.5,8.1,0.3,10.7-4c5.4-8.8,11.9-16.7,19.3-23.9
		c5.6-5.4,5.1-11.3,1.1-17.2c-4-5.9-8.9-6.8-15.7-3.8c-57.1,24.6-114.3,23.8-171.3-0.8c-7.5-3.2-14.4-7.6-21.5-11.6
		c-3.9-2.2-4.1-4.8-1.1-8.2C157.2,38,211.8,20.2,262.9,40c24.3,9.5,43.8,25,59.3,45.7c2.1,2.8,4.3,5.2,7.4,7c3.5,2,6.9,4.9,7.7,8.7
		c2.3,11,6.8,6.6,12.3,2.7c13.2-9.5,28-15.7,43.7-19.8c8.5-2.2,13.1,0.6,14.3,8.4c1,6.9-1.2,8.9-10.5,9.7c-29.7,2.6-53.1,16-70,40.7
		c-6.6,9.6-6.3,10.6,2.6,17.4c13.1,10,18.5,23.9,19.9,39.8c1.5,17.4,0,34.8-0.6,52.2c-0.8,26.5,0.7,52.7,6.9,78.6
		c16.7,70-44.7,157.3-141.3,136.6C203.7,465.4,193.7,460.6,183.5,456.3z"/>
</g>
</svg>
