<?xml version="1.0" encoding="utf-8"?>
<!-- Generator: Adobe Illustrator 26.0.2, SVG Export Plug-In . SVG Version: 6.00 Build 0)  -->
<svg version="1.1" id="Layer_1" xmlns="http://www.w3.org/2000/svg" xmlns:xlink="http://www.w3.org/1999/xlink" x="0px" y="0px"
	 viewBox="0 0 50 50" style="enable-background:new 0 0 50 50;" xml:space="preserve">
<style type="text/css">
	.st0{fill:#FFFFFF;}
</style>
<g>
	<path class="st0" d="M14.5,25.8l1.7-0.4c0.3-0.1,0.5-0.3,0.6-0.5c0.1-0.3,0.1-0.6,0-0.8c-0.3-0.6-0.5-1.2-0.7-1.8
		c-0.1-0.2-0.2-0.3-0.3-0.5c-0.8-0.7-1.5-1.7-1.6-2.9l-0.3-2.5c-0.1-1.2,0.2-2.3,1-3.3c0.2-0.2,0.2-0.4,0.2-0.7
		c0-0.4-0.1-0.8-0.1-1.2c0-1.3,0.2-2.4,0.6-3.4c0.1-0.3,0.1-0.7-0.1-1c-0.2-0.3-0.5-0.4-1-0.4c-1.1,0.1-1.9,0.4-2.7,0.8
		c-4.5,0.1-5,2.5-5,4.3c0,0.3,0.1,1.1,0.1,1.7c-0.2,0.1-0.3,0.2-0.4,0.4c-0.3,0.4-0.5,1-0.4,1.5L6.3,17c0.1,0.7,0.5,1.3,1.2,1.5
		c0.2,1.2,0.8,2.3,1.6,3.3l-0.2,0.7l-3.3,0.8c-2.7,0.6-4.5,3-4.5,5.7c0,0.5,0.4,1,1,1h6c0.3,0,0.6-0.2,0.8-0.4
		C10.3,27.8,12.3,26.4,14.5,25.8z"/>
	<path class="st0" d="M44.5,23.5l-3.3-0.8L41,22c0.8-1,1.5-2.1,1.7-3.4c0.5-0.3,1-0.8,1.1-1.5l0.2-1.9c0.1-0.5-0.1-1.1-0.4-1.5
		c-0.1-0.1-0.3-0.3-0.4-0.3l0.1-1.3l0.2-0.2c0.5-0.5,1.3-1.8,0.1-3.6c-0.5-0.8-1.7-1.9-4-1.9c-1,0-1.8,0.1-2.5,0.4
		c-0.5,0.2-0.7,0.6-0.6,1.2c0.3,1.5,0.1,3-0.8,4.1c-0.2,0.3-0.2,0.8,0,1.2c0.6,0.8,1,2,0.7,3.1L35.9,19c-0.1,1.1-0.6,2-1.5,2.7
		c-0.1,0.1-0.2,0.3-0.3,0.4c-0.2,0.6-0.4,1.4-0.8,2c-0.1,0.3-0.1,0.6,0,0.8c0.1,0.2,0.4,0.5,0.6,0.5l1.6,0.4c2.2,0.5,4.2,2,5.6,3.9
		c0.2,0.3,0.5,0.4,0.8,0.4h5.8c0.5,0,1-0.4,1-1C49,26.5,47.2,24.2,44.5,23.5z"/>
	<path class="st0" d="M35.2,27.8l-4.7-1.2l-0.3-1.3c1.3-1.3,2.1-3.1,2.4-4.8c0.7-0.3,1.4-1,1.5-1.8l0.3-2.5c0.1-0.6-0.1-1.3-0.5-1.8
		c-0.2-0.2-0.4-0.4-0.6-0.5l0.1-2.1l0.4-0.4c0.6-0.7,1.6-2.2,0.1-4.5c-1.1-1.6-2.8-2.4-5.2-2.4c-1,0-3.1,0-5,1.3
		c-5.7,0.1-6.5,3.1-6.5,5.5c0,0.5,0.1,1.7,0.2,2.4c-0.3,0.1-0.5,0.3-0.7,0.5c-0.4,0.5-0.6,1.2-0.5,1.8l0.3,2.5
		c0.1,1,0.7,1.7,1.6,1.9c0.3,1.7,1.2,3.4,2.3,4.7l-0.7,1.5l-4.8,1.2c-3.4,0.8-5.8,3.9-5.8,7.4c0,0.5,0.4,1,1,1h9.5l0,0V36
		c0.1-2.2,1.1-3.9,2.9-5c0.8-0.5,1.8-0.7,2.8-0.7c0.6,0,1.2,0.1,1.8,0.3c0.6,0.2,1.4,0.5,1.9,1.1c1.1-0.8,2.3-1.3,3.7-1.3
		c1.9,0,3.5,0.8,4.6,2.3c0.6,1,1.1,1.9,1.2,3c0,0.2,0,0.3,0,0.5h1.5c0.5,0,1-0.4,1-1C41,31.7,38.7,28.6,35.2,27.8z"/>
	<path class="st0" d="M32.6,32c-1.1,0-2,0.4-2.8,1.1c-0.3,0.2-0.5,0.5-0.8,0.8c0,0-0.1,0.1-0.1,0c-0.1-0.1-0.2-0.2-0.4-0.4
		c-0.5-0.6-1.2-1.1-2-1.3c-1.1-0.3-2.1-0.3-3.2,0.3c-1.4,0.8-1.9,2.1-2,3.6c0,0.2,0,0.4,0.1,0.6c0,0.2,0.1,0.4,0.1,0.5
		c0.2,0.8,0.6,1.6,1.2,2.3c0.7,1.2,1.7,2.1,2.8,3.1c1.2,1.1,2.3,1.9,3.5,2.9H29c1.1-0.7,2-1.5,3.1-2.3c1.1-1,2-1.9,2.9-3.1
		c0.5-0.7,1.1-1.6,1.4-2.5c0.2-0.6,0.3-1.3,0.2-1.9c-0.1-0.7-0.3-1.5-0.8-2.1C35,32.5,34,32,32.6,32z"/>
</g>
</svg>
