<?xml version="1.0" encoding="utf-8"?>
<!-- Generator: Adobe Illustrator 26.0.2, SVG Export Plug-In . SVG Version: 6.00 Build 0)  -->
<svg version="1.1" id="Layer_1_xA0_Image_00000181061804551506283200000013050607181382842244_"
	 xmlns="http://www.w3.org/2000/svg" xmlns:xlink="http://www.w3.org/1999/xlink" x="0px" y="0px" viewBox="0 0 350 350"
	 style="enable-background:new 0 0 350 350;" xml:space="preserve">
<style type="text/css">
	.st0{fill:#FFFFFF;}
</style>
<g>
	<path class="st0" d="M187.9,97.3c-8.7,0-17.3,0-26,0c-1.5,0-2.6,0.6-3.5,1.8c-5.2,6.7-9.6,13.9-13.1,21.6
		c-5.4,12.1-6.5,24.9-5.9,38c0.2,5,3.4,8,8.5,8c9.1,0.1,18.1,0,27.2,0c9.1,0,18.1,0,27.2,0c4.9,0,8-3,8.4-7.9
		c1.7-22.4-4.9-42.2-18.9-59.6C190.6,98,189.5,97.3,187.9,97.3z"/>
	<path class="st0" d="M201,220.8c-8.7,0-17.3,0-26,0c-8.8,0-17.7,0-26.5,0c-6.1,0-9.2,3.1-9.2,9.2c0,11.8,0,23.7,0,35.5
		c0,7.9,4.9,12.8,12.9,12.8c15.2,0,30.4,0,45.6,0c7.8,0,12.7-4.9,12.7-12.6c0-11.8,0-23.7,0-35.5C210.6,223.8,207.6,220.8,201,220.8
		z"/>
	<path class="st0" d="M143.4,212.2c0.1,2.9,1.2,3.4,3.7,3.4c9.2-0.1,18.5,0,27.7,0c9.5,0,19.1-0.1,28.6,0c2.4,0,3.3-0.9,3.3-3.3
		c-0.1-12.4-0.1-24.9-0.1-37.3c0-2.4-0.9-3.1-3.1-3c-19,0.1-38,0.1-57,0c-2.5,0-3.4,0.9-3.4,3.3
		C143.3,187.5,143.1,199.9,143.4,212.2z"/>
	<path class="st0" d="M161.7,92.1c4.4-0.1,8.7,0,13.1,0c4.6,0,9.1,0,13.7,0c1.7,0,2.9-0.5,2.9-2.5c0-4.2,0.1-8.3-0.1-12.5
		c-0.2-3.7-2.2-5.4-6.1-5.4c-6.8,0-13.7,0-20.5,0c-4.2,0-6,1.7-6.1,5.9c-0.1,3.8,0,7.5,0,11.3C158.5,91.1,159.4,92.1,161.7,92.1z"/>
</g>
</svg>
