<?xml version="1.0" encoding="utf-8"?>
<!-- Generator: Adobe Illustrator 26.0.2, SVG Export Plug-In . SVG Version: 6.00 Build 0)  -->
<svg version="1.1" id="Layer_1_xA0_Image_00000070089360810732718610000013865453504857316273_"
	 xmlns="http://www.w3.org/2000/svg" xmlns:xlink="http://www.w3.org/1999/xlink" x="0px" y="0px" viewBox="0 0 1000 1080"
	 style="enable-background:new 0 0 1000 1080;" xml:space="preserve">
<g>
	<path d="M442.1,931.3c-13-3.8-17-9-18.4-22.7c-3.8-35.2-7.8-70.5-11.6-105.7c-3.5-32.1-6.8-64.2-10.3-96.3
		c-3.8-35.2-7.8-70.5-11.6-105.7c-3.5-32.1-6.9-64.2-10.3-96.3c-1.8-16.9-3.6-33.8-5.7-50.6c-2-16.4,6.2-26.1,22.6-26.1
		c77.8,0,155.6,0,233.4,0c15.3,0,23.6,8.7,22.1,24.1c-2.2,22.7-4.9,45.3-7.4,68c-2.5,23-5,46-7.5,69c-2.9,26.3-5.7,52.6-8.6,78.9
		c-2.5,22.7-4.9,45.3-7.4,68c-2.9,26.5-5.8,52.9-8.7,79.4c-2.5,22.7-4.9,45.3-7.3,68c-1,9.8-1.9,19.5-3.2,29.3
		c-1.4,10.5-7.9,16.5-18.1,18.7C536.7,931.3,489.4,931.3,442.1,931.3z M513,441.7c-38.7,0-77.3,0-116,0c-7.4,0-9.7,2.7-8.9,9.6
		c1.6,13.4,2.9,26.8,4.3,40.2c2.4,22.8,4.8,45.7,7.3,68.5c2.8,26,5.8,51.9,8.6,77.9c2.8,26,5.5,51.9,8.3,77.9
		c3.5,32.1,7.2,64.1,10.7,96.2c3.5,32.1,6.8,64.2,10.2,96.3c0.8,7.2,2.6,8.7,10,8.7c43.7,0,87.3,0,131,0c7.7,0,9.6-1.9,10.2-9.6
		c0.7-7.8,1.5-15.6,2.3-23.3c2.5-22.8,5.1-45.6,7.6-68.4c2.5-23.1,4.9-46.3,7.4-69.5c2.5-22.8,5.1-45.6,7.6-68.4
		c2.5-23,4.8-46,7.3-69c2.5-22.8,5.2-45.6,7.6-68.4c3.2-29.1,6.1-58.2,9.3-87.3c1-9.2-0.7-11.3-10-11.3
		C589.6,441.7,551.3,441.7,513,441.7z"/>
	<path d="M175.1,149.3c25,9.3,49.9,18.6,74.9,27.9c12.6,4.7,25.2,9.6,37.8,14.4c1.8,0.7,3.6,1.8,5.3-0.5c2-2.6,4.7-3.7,8-2.4
		c3.2,1.3,4.4,3.9,4.4,7.2c0,0.8-0.2,1.7,0.8,2.2c1.7,0,2.2-1.7,3.5-2.5c4.6-2.6,9.4-0.1,10.5,5.7c0.7,3.6,2,4.6,4.8,1.8
		c2.6-2.5,5.6-3.1,8.7-1.6c2.9,1.4,3.6,4,3.5,7.1c-0.1,3.6,5,6.2,8.3,4c3.5-2.3,6.9-3,10.1-0.1c3,2.8,2.4,6.1,0.6,9.6
		c-1.8,3.4,1.5,8.8,5.2,9c3.1,0.2,5.5,1.2,6.8,4.1c1.4,3.2,0.4,5.7-1.8,8.2c-2.7,2.9-2.3,5.3,0.9,6.4c9.5,3.2,10.5,6.7,4,14.3
		c1.2,1.5,3,1,4.5,1.7c4.3,2.1,5.7,7.3,2.2,10.8c-2.3,2.3-2,4.1-1.1,6.6c14.7,44.6,28.4,89.5,42.1,134.4c1.9,6.4,1.8,6.5-5.1,6.6
		c-14.9,0.1-14.7,0-19.2-14.3c-12.5-40.2-25.2-80.4-37.9-120.6c-0.5-1.7-0.8-3.4-3.1-4.1c-9-2.5-10.1-7-3.6-13.9
		c-0.3-1.4-1.5-1-2.4-1.3c-5.9-1.5-7.7-6.4-4.2-11.4c0.7-1.1,2.8-2,0.4-3.4c-8.3-4.9-8.3-4.9-4.6-13.9c-3.3-0.2-8.1,0.8-8.8-2.9
		c-1.3-6.8-4-7.6-10.1-5.8c-2.9,0.9-5.2-2.4-5.6-5.8c-0.4-2.7-1.2-2.9-3.5-1.4c-6,4-10.4,2.4-11.6-4.5c-0.6-3.5-1.6-2.7-3.7-1.3
		c-4.6,2.9-9.7,1.4-10.7-3.6c-0.7-3.5-2.7-4.6-5.4-5.6c-30.7-11.5-61.4-23.1-92.1-34.7c-4.8-1.8-9.6-3.8-14.5-5.4
		c-4.4-1.4-7.7-3.9-10-7.8c0-0.7,0-1.3,0-2c0-4-1.6-9.6,0.4-11.6S171.1,149.3,175.1,149.3z"/>
	<path d="M837.5,448.6c-10.8-4.6-20.9-8.8-31-13.1c-49.1-20.8-98.2-41.5-147.2-62.4c-4.2-1.8-5.7-1.1-7,3.2
		c-4.2,14.2-8.8,28.3-13.2,42.5c-1.6,5.1-7.5,7.8-12.1,5.4c-2.5-1.3-0.8-3.2-0.4-4.8c4.8-15.4,9.5-30.9,14.5-46.2c1.4-4.3,1-6-3.9-7
		c-62-13.4-123.9-27-185.9-40.6c-0.6-0.1-1.2-0.3-3.2-0.9c7-2.5,13.1-2.6,19-3.4c34.1-4.7,68.3-9.3,102.4-13.9
		c32.5-4.4,65-8.8,97.5-13.2c4.2-0.6,7.2,0.6,10.2,3.5c31.2,29.3,62.5,58.6,93.8,87.7c21.2,19.8,42.5,39.4,63.7,59.2
		C835.8,445.4,837,446.1,837.5,448.6z M672.6,306.9c-0.2,0.3-0.5,0.5-0.7,0.8c0.2,0.5,0.2,1,0.5,1.4c16.6,28.3,33.3,56.5,49.9,84.8
		c1.4,2.3,3.3,3.6,5.7,4.6c17.2,7.2,34.3,14.5,51.5,21.8c8.3,3.5,16.6,7,24.9,10.5c0.1-0.2,0.3-0.5,0.4-0.7
		C760.7,388.9,716.6,347.9,672.6,306.9z M573.1,347.3c0.7,1.8,1.6,1.6,2.4,1.8c23.1,5.1,46.1,10,69.2,15.3c4.4,1,5.9-0.2,7.1-4.1
		c5.3-17.2,10.8-34.3,16.3-51.4c0.4-1.2,1.1-2.5,0.2-4.3C636.5,318.7,604.8,333,573.1,347.3z"/>
	<path d="M513.3,564.9c31.2,0,62.3,0,93.5,0c8.6,0,11.3,2.5,10.5,11.1c-1.5,16.7-3.5,33.4-5.3,50.1c-2.2,20.2-4.4,40.3-6.6,60.5
		c-2.2,19.8-4.3,39.7-6.5,59.5c-2.2,19.8-4.3,39.7-6.5,59.5c-2.2,20.2-4.4,40.3-6.6,60.5c-1.2,10.7-2.4,21.5-3.3,32.2
		c-0.8,9.2-2.9,11.3-12.1,11.3c-38.3,0-76.6,0-115,0c-8.2,0-10.7-2.2-11.5-10.3c-3.4-32.2-6.8-64.5-10.3-96.7
		c-4.2-38.2-8.5-76.3-12.7-114.5c-4.1-36.9-8.1-73.7-12-110.6c-1.1-9.8,1.6-12.6,11.5-12.6C451.3,564.9,482.3,564.9,513.3,564.9z"/>
	<path d="M416.9,445c12.2,0.2,9.9-2.2,13.6,10.1c9.8,33.2,19.5,66.4,29.3,99.6c1.9,6.6,1.9,6.8-4.9,6.7c-19-0.4-14.2,3.3-19.7-14.8
		c-9.4-31.4-18.5-62.9-27.8-94.3c-0.4-1.3-0.6-2.6-1.1-3.8c-0.8-2.4,0.1-3.5,2.5-3.5C411.6,445,414.3,445,416.9,445z"/>
	<path d="M588.8,561.4c-7.1,0-7.4-0.2-5.5-6.2c11.1-35,22.2-70,33.4-105.1c1.5-4.6,8.1-7.3,12.2-4.9c2.5,1.5,0.7,3.7,0.2,5.3
		c-4.1,13.5-8.5,27-12.8,40.4c-6.9,21.7-13.9,43.4-20.7,65.1C594.4,560.2,592.4,562.2,588.8,561.4z"/>
</g>
</svg>
