<?xml version="1.0" encoding="utf-8"?>
<!-- Generator: Adobe Illustrator 26.0.2, SVG Export Plug-In . SVG Version: 6.00 Build 0)  -->
<svg version="1.1" id="Layer_2_xA0_Image_00000169538155043642733620000007923988883645879226_"
	 xmlns="http://www.w3.org/2000/svg" xmlns:xlink="http://www.w3.org/1999/xlink" x="0px" y="0px" viewBox="0 0 1280 720"
	 style="enable-background:new 0 0 1280 720;" xml:space="preserve">
<style type="text/css">
	.st0{fill:#BCBCBC;}
</style>
<g>
	<path class="st0" d="M102,532.2c0.4,0,0.8,0,1.3,0C102.8,532.1,102.4,532.1,102,532.2z"/>
	<path class="st0" d="M1188.7,440.4c-2.4-0.5-5.5,1.9-7.3-1.4c-0.7-1.2-1.6-2.8-3.3-2.7c-2.6,0.2-0.5,2.9-2.7,4.2
		c-0.8-3.3-3.7-1.9-6-2.3c-1.4-0.2-4.1,1.2-3.7-1.9c0.2-1.6-0.2-3.4,3-3.7c3.1-0.3,6.1-0.9,9.3-1c5.8-0.2,10.6-5.1,10.9-10.4
		c0.4-5.3-1.8-10.3-2.2-15.4c-1.3-19.5-0.6-39.1-5-58.4c-0.6-2.6-1.5-4-3.9-3.1c-6.9,2.7-12.6-0.8-18.8-2.1
		c-2.5-0.5-4.4-2.5-4.5-3.3c-1.3-6.8-9.2-11.7-6.7-19.4c0.2-0.6-0.6-1.3-0.7-2c-0.9-7-4.1-14.7,5.5-19.2c1-0.5,1.6-0.8,0.9-2.1
		c-6.1,1.7-12.4,0.8-18.6,0.8c-0.7-2,1.1-4.8-1.6-6c-1-0.4-3.3,0.7-3.4,2.7c-0.8,0.1-1.6,0.2-2.4,0.2c-1.2,0-2.3,2.4-3.3,0.3
		c-0.8-1.5,0.3-2,2-2.9c2.5-1.4,4.2-4.1,6.3-6.2c-1.5-1.4-3.2-0.6-4.6-0.8c-2.7,0.1-6.4-1.4-6,3.3c0,2.2-1.8,1.7-3.2,2.1
		c-6.7,2-7,4-2.2,8.7c1.4,1.4,4.3,3.2,2.7,5.8c-3.4,5.4-6.9,10.8-12.8,14.7c3,0.5,5.6,0.2,8.2-0.7c1.3-0.4,4.3-1.6,4.7,1.4
		c0.4,2.2,0.1,5-2.5,5.5c-4.6,0.9-9.7,2.7-14,0.4c-4.2-2.3-9.2-1.9-13.1-4.3c-0.2-1-0.3-1.9-0.5-2.9c0.3-2.4-0.3-4.6-3.5-4.3
		c-3.4,0.2-3.4,2.9-3.6,5.2c-0.1,0.7-0.2,1.3-0.3,2c0.5,0.7,1,1.2,1.5,1.5c0.5,0.3,1,0.4,1.5,0.4c-0.5,0-1-0.1-1.5-0.4
		c-0.5-0.3-1-0.8-1.5-1.5c-3.6,0.1-7.1,0.2-9.8-2.6c5.4-0.7,3.7-6.5,7.2-8.7c0.3-0.2-1-1.9-2.7-1.9c-3.3-0.1-6.1,1.2-8.8,2.5
		c-1.4-0.5-1.2-2.9-3.5-2.4c-0.1-1-0.2-2-0.3-3.1c0.3-1.3,1.5-1.3,2.6-1.3c4.2,0,9.1,1.9,11.7-3.2c2.4-0.2,5.6,0.1,2.2-3.3
		c-0.9-0.9-0.8-1.9-0.7-3c0.8-0.1,1.5-0.2,2.3-0.3v0c3.2,0,6.4,0,9.6,0.2c2.4,0.2,2.4-1.2,2.8-2.6c0.5-1.9,0.8-3.9-0.2-5.4
		c-1.3-2-2.5-0.1-3.8,0.8c-2.1,1.4-4.1,0.4-6-0.5c-0.7,1.2-2.5,1.7-2.4,3.3c-3.6,0.1-7.2,0.1-10.7,0.2c-3.8-0.2-7.8-1.3-10.8,2l0,0
		c-2.4-0.6-4.4-2.7-7.3-2c-4.4-3.5-9.4-2-14.3-1.3c-0.9-4.5,1.3-6,5.8-4.8c2.8,0.8,5.5,0.1,8.3,0.3c2.5,0.2,2.8-1.2,2.7-2.9
		c1.2,0,2.3,0,3.5,0c-0.1,0.9,0.1,1.6,1.2,1.9c5.9,1.8,12,0.5,18,1c0.8,0,1.6,0,2.5,0c1.2,0.5,2.4,0.9,3.6,1.4
		c0.7-0.5,1.5-0.9,2.2-1.4c4.7-1,4.7-3.4,2.5-6.5c0.2,5.1-4,2.8-6.6,3.3c-0.2-2.3-0.2-4.7-4-3.5c-0.8-0.8-1.7-0.3-2.7-0.3
		c-12.8,1-25.5,0.7-38.2-0.5c0-1.1,0-2.3-0.1-3.4c1.3,0,2.6,0,3.8,0c7,0.8,13.9,0.5,20.8-1.5c4-1.1,8.3-0.4,12.4-0.5
		c2.8-0.1,6,0.5,8.6-1.3c-0.5-3-5.5-5-6.4-2.8c-2.2,5-6,2-9.1,2.6c-0.1-1.1,0.3-2.3-1.1-3c0.5-4,3.9-1.8,6-2.1
		c2.7-0.4,4.4-1.9,5.7-3.7c0.5-0.7,0.7-2.6-1.2-4.1c-5.8-4.5-12.4-8.9-10.9-16.3c-12.5,0.2-23.8,8.1-36.9,3.2
		c0.2-0.6,0.1-1.4,0.5-1.9c0.7-0.9,3.1,0.5,3-1.6c-0.1-1.8-2.4-0.6-3.2-1.4c-0.8-0.8-1.7-0.7-2.6-0.6c0-1.2,0.2-2.4-1-3.3
		c-0.5-1.4,1.9-2.9,0.1-4c-2.2-1.3-2.8,1.3-4.2,2.1c-0.6,0.3-0.8,1.2-1.2,1.8c-0.6,0-1.3,0.1-1.9,0.1c-0.4-0.8-1.2-2.9-1.8-1.8
		c-1.1,2.3-2.1,2.9-4.7,2.3c-2.1-0.4-2.7,1.1-2.6,2.8c0.5,4.6-2.9,5.2-6.6,5.4c-1.9-1.3-0.5-3.9-2.7-5.2c-1.5-0.9-2.1-3.2-4.8-2.3
		c-2.5,0.8-1.4,2.3-1.3,3.9c0.1,1.6-0.9,3.5-3.3,3.8c-3,1.3-3.3-3.9-6-2.4c-3,1.6-5.6-0.2-8.3,0c0-1.2-0.5-3,0.1-3.6
		c3.7-3.1,1.6-5.1-1.2-7.2c0.4-0.7-2.4-2.3,0.9-2.2c3.5,0,7-0.3,10.5-0.5c1.2,0.1,2.3,0.3,3.5,0.3c1.2,0,2.6,0,2.7-1.4
		c0.1-1.8-1.5-1.8-2.9-1.8c-1.2,0-2.4,0-2.9,1.3c-1.7-1-3.6-1.2-5.6-1.4c-1.9-0.2-5-1.8-4.7-2.4c3.6-7.7-3.7-0.9-4.3-2.8
		c-1.3-2.6-3.9-0.6-5.7-1.4c-0.4-1.1,0.4-3.7-2.3-1.9c-1.7,1.1-3.3,0.9-5.1,1.1c-3.8,1.8-7.2,1.2-10.5-1c-4.4,0.3-8.9,4.1-13.3-0.1
		c-0.4-2-0.9-4.8-3.5-4.1c-4.1,1-8.8-0.3-12.5,2.5l0.1-0.3c0,0-0.3,0-0.3,0c0.8-3.2-2-2.4-3.7-2.5c-5.9-0.3-11.3,2.4-17,3
		c0,0,0,0,0,0c-0.6-0.1-1.2-0.2-1.8-0.3c-3-0.7-6.1-1-9.2-0.5c-4,0-7.9,1.7-12,0.7c0-0.3,0-0.6,0-0.8c0.5-4.4-2.3-5-6.1-4.4
		c-2.8,0-5.5,0-8.3,0c-1-0.2-2.1-1.5-3-0.3c-0.4,0.5,0.3,1.6,0.4,2.4c-0.1,2.4,2.7,1.9,3.7,3.2l0.4,0.3l0,0c0.6,1.7-2.1,4.5,1.5,5.2
		c1.5,0.3,4.7,1.3,4.3-2.3c0.4-0.4-1.1-3.9,1.5-0.8c1.2,1.4,2.3,1,3.3-0.2c1,1.2,3.9,0.8,3.4,3.2l0,0c-0.4,0.1-0.8,0.2-1.1,0.3
		c-1.7-0.1-3.6-0.7-3.7,2c-0.1,2.3-1.6,4.2-3.5,5.7c-2.7-2.7-5.5,1-8.2,0c0.5,1.4-1.2,3.4,1.3,4.1c2.6,0.8,3.3-0.5,3.8-2.6
		c0.1-0.4,2-0.5,3.1-0.8c2.4,0.1,4.8,0.2,7.2,0.2c-0.4,2.6,1.2,4.1,3.4,5.3c1.3,0.5,2.5,1.1,3.8,1.6c0,1,0,1.9,0,2.9c0,0,0,0,0,0
		c-3.4,1.3-8.1-2.2-10.8,2.2c-1.3,0-2.6,0.1-3.9,0.1v0c-2.7,0.2-5.3,0.1-7.4-2.4c-0.6,2.4-2.2,4.7,1.8,4.6c1.6,0,2,0.7,1.9,2
		c-1.9,0.7-4.2-0.8-5.8,1.2c-5.5-1.7-11.2-0.1-16.7-0.7c-0.8-0.1-1.6-0.2-2.4-0.3c-0.6-2.6-2.8-2.1-4.8-2c0-0.7,0-1.4,0.1-2
		c4.6-0.5,0.1-5.8,4.1-6.5c-2.9,0-5.8,0-8.7,0c0.3,2.1,0.7,4.1,1,6.2c0,1.4-0.1,2.8-0.1,4.2c-0.4,0.1-0.7,0.2-1,0.4
		c-5.3,0.9-10.5-1.8-15.7-0.1c-2.4,0.1-2.4,1.7-2.4,3.3c0,0,0,0,0,0c-0.4,1.1-1.2,1.8-2.4,2.2c-0.8-0.1-1.6-0.2-2.4-0.4
		c-1.2,1.8-5.4,1.2-4.6,4.7c-1.2,1.5-4.3,1.7-4,4.4c-0.7,0.4-1.3,0.7-2,1.1c-3.5-2.2-7.4-0.6-11.1-1.1c-1.7-0.6-0.8-3.8-3.8-3.1
		c-1,0.1-2.3-0.2-2.8,0.2c-3.6,3.3-6.9,3.3-10.3-0.2c0.3-2.9,2.7-2.2,4.6-2.3c3.2,2.6,4.9,0.4,5.1-2c0.2-2.6-2.7-2.3-4.8-2.4
		c-3.7-0.7-7.3,3.3-11.2,0.1c-0.8-0.6-1.8,0.8-1.4,2.1c0.3,1.4,0.4,2.8,0.5,4.3c-4.6,2.8,1.5,4.3,1,6.6c-0.5,1.6-2,1.1-2.8,0.8
		c-1.9-0.7-8.5,0.6-10.3,2.2c-3.6-0.1-1.4-2.8-2.2-4.2c2.7-0.4,3.7-2.3,3.1-4.2c-0.6-2.1-3-0.8-4.6-1c-0.8-0.1-1.6-0.1-2.3-0.1
		c-2.4,0.4-6.5-1.6-6.9,1.2c-0.4,2.5-2,4-2.7,6.1c-3.4,0.3-5.9-3-9.4-2c-2.1-0.4-4-0.5-3.9,2.3c0.1,1.5-0.2,2.8-1.3,3.9l-0.4-0.3
		c0.3-4-0.2-4.3-7.7-3.6c-2.4-1-4.4-3.3-7.6-2.3c-0.7,0.2-1.6-0.1-1.9,0.9c-0.2,0.9,0.3,1.3,1.2,1.4c5.7,1.1,0.6,2.2,0,3.3
		c-1.6-1.4-5.6-0.4-5.4-2.3c0.5-3.8-2.5-2.9-4.3-3.6c-3.6-1.5-7.2-0.5-10.8,0.4l0,0c0,0,0,0,0,0c-1.4-3.8-4.8-1.6-7.3-2.1
		c-1.8,0-3.5,0.1-5.3,0.1c-1.7,0-1.7,1.1-1.8,2.2c-0.2,1.7,0.5,2.3,2.3,2.1c1.2,0.1,2.4,0.2,3.6,0.3c-0.1,2.3-4.7,2.1-3.5,5.2
		c-5,2.5-10,0.7-14.2-1c-3.3-1.3-2.9-2.5-4.8,0.5c-0.6,0.9-1.2,1.3-2.2,1.4c-7.8,0.7-15.2,3.5-23.1,3.8c-3-2-6.3-1.2-9.6-1.1v0
		c-2.1,0-4.1,0-6.2,0c0,0.7-0.1,1.4-0.1,2.1c0.3,0.3,0.7,0.6,1,0.8c0.4,0.2,0.8,0.3,1.1,0.3c-0.4,0-0.8-0.1-1.1-0.3
		c-0.4-0.2-0.7-0.4-1-0.8c0,0,0,0,0,0c0-0.7,0.1-1.4,0.1-2.1c-4-0.8-8-0.1-11.9,0c-2.8-0.3-5.5-0.6-7.5,1.8
		c-2.2,2.6-4.2,2.1-6.7-0.1c-3.5-3.1-8.9-2.3-12.4,1c-1.4,1.3-3.7,1.3-4.6-0.5c-0.6-1.3-0.9-2.6-2.5-1.9c-2.6,1.1-0.2,2.6,0.1,4
		c-1.6,0-3.1,0-4.7,0c-2.2-1.7-4.8-0.8-7.2-0.8c0.2-4.4-3.2-3.6-6.1-3.5c-2.1,0-4.3-0.1-6.4,0c-1.4,0-3.5-0.6-3.3,1.8
		c0.2,2.2,2,1.6,3.5,1.4c-0.2,1.5,1.4,3.3-0.9,4.3c-0.5,0.2-1.8,0-2.1-0.4c-3.6-6-7.3-2.7-11-0.2c-1,0.7-1.9,2.6-3.2,1.7
		c-3.7-2.5-6.1,0.1-9,1.3c-1.7,0.1-3.4,0.2-5.1,0.2c-2.7,0.3-6.1-0.3-8,1c-5,3.4-10,4.1-16.1,3.9c-2-0.1-5.6,1.1-8.5,1.5
		c-1.4,0.2-3-0.2-4.1,0.4c-4.9,2.5-10.7,2.2-15.8,4c0.1-2.1-1.7-2.4-3.1-2c-3.3,1-1.1,3.6-1.5,5.4h0c-0.2,1-0.4,2-0.6,3
		c-3.1,0.8-6.5-2.6-7.9-1.6c-4.3,3.1-6.2,0.4-8.7-1.7c3.4,0.2,5.6-1.7,8.1-3.4c-3.6-2.6-9.4,1.6-11.4-3.9c0.9-0.2,2.1,0.1,2.4-1.2
		c2.6-1.3,7.7,0.6,7.7-2.9c-0.1-2.6-4.8-1.3-7.5-1.7c-0.9-1.7-2.6-0.4-3.8-1c-0.1-2.5-4.8-2.4-3.7-5.5c0.1-0.3,0.1-0.5,0.1-0.8
		c4-0.6,8.4,2.1,12.1-1.2c5.1,0.5,10.1,1.6,15.2,1.1c0.9,1.7,2.7,1,4.1,1.1c1.8,0.2,3.1-0.6,3.2-2.3c0-1.3,0.8-3.2-0.6-3.9
		c-1.3-0.6-3.4-1-4.3,1.3c-0.1,0.4-1.3,0.4-2,0.6c-4.1-1.5-8.1-1.5-12.2-0.1c-0.1-0.9-0.1-1.8-0.2-2.8l0-0.1c-2.2,0-4.4,0.1-4.4-1.9
		c0,2,2.2,1.9,4.4,1.9c0,0,0,0.1,0,0.1c3.1-3.7,6.6-6.1,12.2-4.2c1.4,0.5,3.5-0.3,5.1-0.8c4.3-1.3,1.8-4.6,1.9-6.8
		c0.1-2.8-2-0.9-3.3-0.6c-3.5-3.4-7.3-5.3-11.8-1.3c-0.3,5.1-4,2.1-6.4,2.2c0.9-2.1-1.6-5.3,2.3-6.5c0.1-0.7,0.2-1.4,0.2-2.2
		l0.1,0.1c1.2-0.2,2.5-0.4,3.7-0.7c4.3,1.6,7.9-1.1,11.8-1.6c2.2,2.6,5.5,1.9,8.5,2.2c2.4,0.3,2.8-1.5,3-2.6c0.2-1.8-1.5-2.1-3.2-2
		c-2.7,0.2-5.5,0.3-8.2,0.4c-4-0.1-8-0.2-12-0.2c-1.2,0-2.5,0-3.7,0c-5,1.7-9.9,3.8-15.5,3.3c-2.4,0-4.8,0.1-7.2,0.1
		c-1.7-0.7-4.4,1.1-4.9-2.3c-0.4-2.3-4-1.1-4-0.9c-0.2,4.4-4.7,2-6.6,3.5c-1.4,1.1-4.2-0.2-4.7,2.4c-0.2,4.1-0.2,4.1,2.3,3.4
		c0.8,0.1,1.5,0.2,2.3,0.4c0,1.4,0,2.8,0,4.1c-0.6,0.1-1.3,0.1-1.9,0.2c-2.6,0.3-5.4,0-6.5,2.9c-3.8,4.6-3.5,6.5,1.2,7.9
		c0,0.8-0.1,1.4-0.9,2.2c-2.2,2-3.8,4.5,1,5.7c0,2.7,0,5.4,0,8.1c-4,1.2-8,2.4-11.9,3.6c0.5,2.3-1.6,5.3,2.2,6.6
		c2.2,2.1,5.5,1.5,8.1,1.9c3.5,0.5,4.3,1.8,4.2,4.5c-1.1,1.8-4.3,0.8-5,3.2c-0.4,0.4-0.8,0.8-1.2,1.2c-0.1,0.5-0.2,1-0.4,1.5
		c0.1-0.5,0.2-1,0.4-1.5c-0.4,0.1-0.8,0.2-1.2,0.3c-2.8-0.6-5.7,0.1-8.6-1c-2.4-1-3.2,1-3.6,2.8c-1.5,0.1-3.1,0.2-4.6,0.3
		c-4.4-1.9-7.2-6.9-13.2-5.6c-1.7-0.2-3.3-0.4-5-0.6l0.2-0.4c-1.3-4,4.6-2.5,4.9-5.3c0.9-0.4,2.4,0.3,2.4-1.4
		c-0.1-1.1-0.1-2.2-0.2-3.3c0-0.7,0.1-1.4,0.1-2.1l0,0c3-1.2,7.3,2.5,9.3-2.1c-3.1,0-6.2-0.1-9.4-0.1c-1-0.3-3.2-0.6-2-1.6
		c3.9-3.3,0.4-3.8-1.8-4.9c2.7-2.1,5.4-4.3,8.6-6.8c-4,0.2-7.5,0.4-11,0.6c-4-1.5-7.8,1.1-11.8,0.4c0-1.3,0-2.6,0-3.9
		c4.6-0.1,9.1-0.1,13.7-0.3c1.4-0.1,3.7,0.8,4.1-1c0.5-2.2-1.9-1.8-3.3-2c-1.2-0.2-2.4-0.1-2.4-1.7c0-1.2,0.8-1.5,1.8-2.2
		c2.7-2,5.8-1.6,8.8-1.8c3.4,0.6,5.3-3,9.8-2.1c-4.3-3-6.9-0.7-9.7,0.1c-3.6-0.1-7.2-0.2-10.8-0.3c0.4-1.7,0.8-3.4,1.2-5.1
		c1.7-0.6,3.9,0.6,5.8-1.3c-11.5,0-22.5,0-33.4,0c-1.5,0-4.3,0.6-4.4-0.6c-0.5-4.1-3.8-2.5-5.8-2.5c-5.8-0.2-11.6,0-17.3,0.1
		c-2.8,0-5.6,0-8.5,0c-6.6-0.6-13.1-0.4-19.7-2.2c-5.2-1.5-3.7-4.7-2.8-5.7c1.8-2.1,0.6-3-0.5-4.2c-1.5-1.7-4-1.5-5.2-0.4
		c-3.2,3.1-5.3,1-7.7-0.7c0.9-3.6-0.7-6.9-1.2-10.4c0.8-0.2,1.6-0.4,2.3-0.6c0.8,0,1.6,0.1,2.3,0.1c0.1,1.8,0.2,3.6,0.3,6.4
		c1-2.8,1.6-4.6,2.3-6.4c1.9-5.7-3.2-2.4-5.1-3.3c-1.7,0.1-3.2-0.5-4.5-1.4c-1.3-1.5-2.9-2.9-2.2-5.2c1.4-1.2,2.9-2.4,4.3-3.6
		c0.1-2.7,2.1-6.2-3.6-6.2c-0.2,2.8-4.5,2.4-4.7,5.2c-2,0.2-2.5,1.3-2.4,2.9c0.1,2.9,0,5.8,0,8.6c0,4.7-0.8,8.5-7.7,7.2
		c-1.2-0.2-3.6-1-4,0.9c-0.4,1.6,2.4,1.3,3.2,2.4c-1.7,3.6,4.3,2.6,4,5.4c-0.7,2.2-4.3,3.7-2.4,6.6c1.3,2,3.8,0.8,5.8,0.9
		c0.9,3.9,0.7,8,1.7,11.6c0.5,1.9-3.1,5.3,1.7,6.1c0,2,0,4,0,6.1c-3.5,0.6-1.7,3.1-2,4.8c0,1.8-1.3,3.6,0,5.5
		c0.1,1.5,0.1,2.9,0.2,4.4c-0.4,2.2-0.8,4.4-1.2,6.5c-0.1,1.5-0.2,2.9-0.3,4.4l-0.1-0.1c-1.2,0.1-2.4,0.2-3.6,0.3
		c-5.3-0.1-10.6-0.2-15.8-0.2c-4.1,0-6.9-2.1-6.5-5.3c0.5-3.7-2.7-5.2-4.2-5.2c-4.5-0.2-3.1-2.7-3.3-4.8c2.3,0,2.8-1.2,2-2.8
		c-1.5-3-4.5-3-7.5-2.8c-1.4,0.1-3.3,0-3.5,1.3c-0.5,2.4,2.2,1.7,3.6,2.4c0.7,0.4,1.1,1.2,1.7,1.9c-1.3,4-2.8,8.2,4.2,9.1
		c1.5,0.2,1.5,1.5,1.9,2.5c1.7,4.5-3.6,3-4.9,4.8c-3.1,0.7-6.4-1.3-9.4,0.7c-0.9,0.4-2.3,0.1-2.6,1.5c-2.5-0.2-3.6,0.9-3.4,3.1
		c-0.8,0.1-1.6,0.3-2.5,0.4l0.1-0.3c1.4-3.6-0.7-5.1-4-4.1c-4.4,1.3-8.6,1.7-13,1c-4.2-2-8.7-1-13.1-0.9c-3.7-0.6-6.9-0.7-6.2,4.1
		c-0.3,0.1-0.6,0.1-1,0.2c-3.2-0.5-6.3-0.8-7.3,3.1c-1.2,0.1-2.3,0.1-3.5,0.2c-2.2-0.7-3.6,0.2-4.7,1.9c-0.1-1.2-0.6-1.7-2.1-2
		c-5.8-0.9-5.8,4.6-9,6.5c-3.8-0.8-4,5.2-8.2,3.6c-4.2-0.1-8.3-0.2-12.5-0.1c-3.4,0.1-6.9,2.1-10.3-0.1c0-1.1-0.1-2.2-0.1-3.3
		c0.4-0.7,0.8-1.5,1.2-2.2c3.3-1.1,6.6-2.1,9.9-3.2c-2.7-0.9-5.4-1.1-8-1.2c-2.9-0.1-3.6-1.1-1.9-3.3c1.9-0.1,3.9,0.6,5.9-0.7
		c-2.9-0.9-5.6-0.5-8.2-0.3c-0.8,0-1.7,0-2.5,0c-3.9-0.1-7.8-0.2-11.8-0.3c-0.8,0-1.6,0.1-2.4,0.1c-16.6,1.8-33.1,1.4-49.7,0.3
		c-1.6-0.1-3.9-0.9-4.3,0.2c-0.8,2.3-0.9,5-0.4,7.5c0.3,1.8,2.6,0.9,4.1,0.9c3.8,0,7.5-0.4,11.2,0.8c6.2,2.1,12.2,1.3,18.7,0
		c7.2-1.5,15-2.5,22.3,1c1.5,0.7,3.1,1.4,2.5,3.1c-0.6,1.4-2.3,1.7-4,1.7c-3.1,0-6.4-0.1-9,2c-6.4,0.1-12.7,0.1-19.1,0.2
		c-5.6-0.1-11.8,1.1-16.6-0.7c-7.7-3-5.7,1.7-6.3,4.9c-1.4,0.1-3.4-0.3-3.3,1.8c0.1,1.7,1.8,1.4,3.1,1.6l0.4,0.2l0.3-0.3
		c0.3,3.6,0.6,7.2,0.9,10.9c0.1,3.3,2.3,6.4,5.1,6.3c3.5,0,6.9,0.9,10.4,0.2c0.9,0.2,2.1-0.2,2.4,1.1c0.7,2.4-2.1,3.4-2.5,5.4
		c-2.8,0-5.6,0-8.4-0.1c-0.3-0.3-0.6-0.5-1-0.8c-0.4-1.3-1.5-1.1-2.6-1.1c-1.4-1.6-2.7-0.8-3,0.5c-0.5,2.1,1.6,1.4,2.8,1.7
		c3.3,4.3,2.2,9.2,2.8,14c0.4,3.4,2.9,6.4,2.4,10.1c-0.2,1.8,2.1,0.9,3.3,1.1c3.6,0.5,7.5-1,11.8,1.1c-1.4,0.6-2,1-2.4,1
		c-3.3-0.4-3.5,1.3-3.3,3.6c0.3,3.4,2.1,1.2,3.5,1c4.5-1,5.7,2.5,7.1,5c2.7,4.6,8.4,5,12.2,0.4c2.8-3.4,1.5-8.7-2.4-9.9
		c-1.5,0-3.2-0.6-3.2-1.6c0-1,1.6-1.8,3.1-1.7c2.4-0.4,6.3,1.9,6.3-2.9c3.9-0.2,7.9-0.3,11.8-0.5c3.7-0.8,8.1,2.2,11.1-1.9
		c7.9,0,15.8,0,23.7-0.1c-0.2,2.6,1.9,2.1,3.6,2.2c0.3,1.4-0.5,3.5,2.3,3.6c2.2,5.3-2.7,12.3,4.9,16.2c-1.4,6.3,2.6,12,2.4,18.2
		c-0.6,0.2-1.1,0.5-0.9,1.2c-0.3,1.6,4.5,2.5,1.1,4c-4.7,2.1,1,2.7,0.3,4c2.3,0.6,4.9,2.7,5.9-1.4c5.4-2.5,5.4-3.6,0.1-7.9l-0.3,0.1
		c3.8-4.1,10.8-3.3,14.4-7.7c0.1-1.1,0.2-2.1,0.2-3.2c0.3,0,0.7-0.1,1-0.2c5.8,1.6,10.2-2.8,15.6-3.1c5.1,0.4,8,2.6,7.4,7.6
		c-1.2,1.7-0.3,4-2.8,5.5c-2.3,1.4,3.2,1.4,1.5,3.8c-0.7,1,0.1,2.6-2.3,2.9c-2,0.3-1.8,1.6,0.1,2.2c6.2,1.9,1.6,5.9,2.2,8.9
		c0.6,3.1-2.7,3.8-4.5,3.8c-8.1,0-16.2-0.5-24.2-0.9c-0.3,0-0.9-0.2-1-0.4c-3.4-6.7-9.5-6-15.8-4.8c-1.6-0.2-3.2-0.7-4.3,1
		c0.2,1.4,0.4,2.8,0.5,4.3c-4.2,0.5-7.6-3.2-12-2.1c-1.4,0.3-3-0.2-4.5,0.9c2.2,2.8,5.9,0.1,7.9,2.3c-2.2,0.2-5.1-1.3-5.7,2.1
		c-0.2,1.2-0.4,2.8,1.4,3.1c1.7,0.3,4.2,1.2,4.6-1.7c4.4-0.4,8.9-1.1,12.8,1.8c0.8,0.6,2.3,0.8,3.4,0.7c1.3-0.1,2.8-0.9,3,1.2
		c0.1,1.6-0.1,2.9-2.4,2.8c-1.1,0-2.4-0.2-2.4,1.6c0,1.6,1.2,1.6,2.3,1.9c3,0.9,5.1,3.6,8.6,3.6c1.9,0,2.2,1.4,2.2,2.6
		c0,1.7-1.6,1.3-2.6,1.3c-2.7,0-5.4,1.5-8.1-0.2c-0.4-1-0.6-2.5-2.1-0.8c-2.7,3-6.7,4.5-9.9,6.9c-1.1,0.8-3.4,1.1-2.3,2.9
		c0.9,1.5,3.1,2.7,4.9,1.8c2.3-1.1,4.7-0.5,7-1c2,0,4,0,6.1,0c2.4,0.1,4.7,0.2,7.1,0.4c2.1,2.5,1.3,4.2-2,4.2
		c-6.5,0.1-12.5,1.5-18.2,4.2c-0.8,0.4-2,0-3,0c-5.3-0.2-10.7-0.2-15.4,2.6c-1.2,0.7-2.6,1.5-3.8,0.6c-1.4-0.9,0.2-2.5,0-3.2
		c-0.6-2.4,4-5.3-0.7-7.2c0,0.2,0,0.4,0,0.7c0-0.2,0-0.4,0-0.7c-2,0-4.1-0.1-6.1-0.1c-1.3-0.7-3.8,0.6-4-0.9
		c-0.2-1.1,0.8-3.1,2.9-3.5c1.6-0.3,3.6,0.6,5.3-1.3c-3.5-1.9-7.3-0.4-11.4-1.3c4.5-1.4,4.9-6.6,10.1-6.8c0.7,0,1.6-2.9-1.3-3.4
		c-1-0.2-2-0.1-3-0.3c-1.3-0.3-3.3,0.7-3.4-1.8c-0.1-2.3,1.6-2,3-2.9c3.6-2.3,8.9-3.9,7.5-9.5c0.6-1.8,1.1-3.7,1.7-5.5
		c-2.6-2.2-5.7-0.6-8.6-1.2c0.6-2.8,1.3-4.9,5.5-4.4c3.4,0.4,0.5-4.5,3.9-4.8c-0.9-1.5-2.4-2-4-1.6c-5.1,1.5-10.2-0.4-15.3,0
		c-4.8,0.3-5.7-2.2-4.3-5.2c2.2-5.1-1.3-5.4-5-5.7c-3-0.2-7.6,0.9-8.6-0.4c-4.3-5.7-7.2-2.7-10.4,0.5c-1,0.9-3.3,1.1-2.4,3.1
		c1,2.1,3,1,4.6,0.9c1.9-0.1,2.6,0.9,2.6,2.4c3.2,1.5,4.4,4,4.7,7.3c0.4,4.5-2,4.7-5,2.8c-3.5-2.2-4.1-1.1-4.8,2
		c-0.8,3.5-3.9,2.7-5.7,1.3c-4.2-3.3-8.1-3.6-12,0.1c-1.3,1.2-2.7,2-4.6,2c-2.1,0-4.3,0-6.4-0.1c-3.8-0.2-8.8,0.7-11-1.8
		c-2.3-2.6-5.4-3-7.9-4.7c-2.6-0.5,0.4-5.1-3.5-4.3c-2.6,0.6-1.2,3-1.2,4.6c0,3,3,1.2,4.4,2.1c0.4,2.7-0.7,5.3-0.1,8.2
		c0.5,2.7,0.8,7.2-1.9,9.9c-3.5,3.4-3.6,4.6,1.1,6.5c-2.2,1.8-6,4.4-2.3,6.4c2.9,1.5,1.9,2.9,2.3,4.6c-6.4,0.1-2.8,4.2-3.3,6.7
		c0.3,3-2.3,6.8,3,8.5c0.3,0.1,1.4,3.4-1.3,4.4c-0.5,0.2-1.1,0.4-1.6,0.6c7,2.5-1.2,4.1-0.5,6.6c1.4,4.9-2.9,9.2-2.4,14.3
		c0.3,2.8-0.1,5.8-1.3,8.7c-1,2.7,0.2,7.6,3.4,8c5.7,0.8,11.7,1.2,17.6,0.2c1-0.2,1.9-0.2,1.9-1.5c0-1.2-0.7-1.4-1.8-1.7
		c-5.3-1.5-5.6-2.7-1.8-6.7c2.4-2.3,2.2-3.8-1.5-4.1c-2.3-0.2-4.6,0-7,0c-2.7,0-2.5-1.6-2.3-3.3c0.2-1.6,1.6-1.2,2.7-1.2
		c2.7-0.1,5.4-0.1,8.2-0.2c3.9,0.1,7.8,0.2,11.6,0.2c1.9,0,3,0.3,2.9,2.2c-2,4.9,5.4,10-0.4,14.8c-0.1,0.1,0.1,0.8,0.3,1
		c4.2,2.5,2.8,6.3,2.2,9.5c-0.6,3,0.2,4.1,3.5,4.2c1.5,0,3.9-1,3.9,1.8c0,2.3-2,1.7-3.4,2c-1.6,0.3-3.9-0.4-3.7,2.3
		c0.2,2.8,2.6,1.6,4,1.6c3.1,0.2,4.9,0.7,2,3.5c-3-0.8-3.6,0.4-3.7,3c-0.2,3.8,2.2,3.5,4.9,3.2c8,1.1,16,3.2,24.2,1.2
		c1.8-0.4,4,0.3,5.7-1.1c6.5,1.3,6.8-2.2,6-6.5c1.2-1.8,3.1-0.8,4.7-1c0.6,1.5-1.6,4.5,2.2,4.3c2.1-0.1,4.9-0.2,5-3.2
		c0-1.1,0.2-2.1,0.3-3.2c3.5,0.4,3.8-4.1,6.9-4.6c-2.3,0-4.7,0-7,0c-1.8-2.9,2.8-2.8,3.1-5.3c-5.2,1.4-9.9,1.7-14-1.3
		c0.4-0.7,0.9-1.3,1.3-2c-3-1.9-6.3-0.9-9.4-0.9c0,1-0.1,2.1-0.1,3.1c-0.9,1.7-2.4,0.9-3.8,0.9c-0.8-0.3-1.5-0.6-2.3-0.9
		c-2.4,0-4.8,0.2-7.2,0.1c-1.6-0.1-4.2,0.7-4.3-1.5c0-1.6,1.7-3.8,3.8-3.8c3.6-0.1,7-0.8,10.6-0.7c4.7,0.1,9.2-2.4,14.1-1.9
		c1,0.1,0.9-1,0.9-1.7c-0.1-1.5-1.1-2.1-2.6-2.5c-2-0.4-4.9-0.4-4.3-3.2c0.5-2.3,3-1.2,4.5-1.2c3.7,0,4.2-3.9,7.2-4.6
		c2.6-0.7,7.2,2.6,7.4-3c2.2-0.5,4.5,0.4,6.5-1.7c1.2-1.3,3.9-0.8,5.7-0.3c5,1.6,9.7,3.6,14.7,5.1c1.7,0.5,2.3,1.2,2.4,2.6
		c0.2,1.9-1.3,1.9-2.7,1.9c-1,0-1.9,0.1-3,0.2c0.3,3.1,6.6,1.9,4.8,6.1c-2.9,0.6-7.7-1.4-6.6,4.3c1.5,0,2.9,0.1,4.4,0.1
		c3.1,0.4,2.7,3,2,4.2c-1.5,2.9-5,0.4-7.4,1.8c0.2,2.2,2.4,4.4,0.5,7.2c5-1.1,9.7-1.9,14-1c9.8,2.1,19.3,0.1,29-0.1
		c2.1,0,4.4,0.5,5.6-2c1-2.1,3.3-2,5-1.2c2.4,1.1,0,2.8,0.2,4.2c-2.7,0.7-5.8-1.1-8.3,1.1c-2.7,1.4-5.3,3-8.7,2.4
		c-1.6-0.3-1.8,1-2.2,2c-3.9,0-7.9,0.1-11.8,0.1c-1.2,0-2.4,0.1-2.4,1.6c0,1-0.5,2.4,1.1,2.6c1.9,0.2,5.4,0.4,5.6-0.2
		c1.7-4.4,5.9-2.2,8.8-3.2c4.4-0.4,8.8-0.8,13.1-1.2c2,0.1,2.8-2.4,5-2c1.2,0,2.3,0,3.5,0c2.8,0,5.6,0,8.3,0c2,0.1,4,0.3,6,0.4
		c0.1,0.7,0.2,1.4,0.4,2.1c-0.2,0.7,0.1,1.1,1,0.9c1.2,3.2,3.7,4,7.1,3.1c2.6-0.8,7.1,2.8,7.5-2.8c5.1-0.1,10.3-0.3,15.4-0.4
		c1.2,0,2.4,0,3.6,0c2.9,0.6,4.9,0.4,3.3-3.1c1-2,3-2.3,5.1-2.3c1.2,4.2,4.7,1.7,7.2,2.1c1,0,2,0,2.9,0.1c0-3.9,3.5-2.5,5.7-3.3
		c5.2-2,10.6,2,15.5-1c0.5-3-1.2-3.4-4.1-3.4c-5.5-0.1-11.4,1.5-16.4-2.2c3.6-2.2,7.5-0.6,11.2-0.8c2.9-0.1,4.1-0.7,3-3.4
		c-0.4-1.6,3.8-5.1-2.2-4.4c0-0.2-0.1-0.5,0-0.5c5.8-2.7,5.8-5.4,0.5-8.7c-1.4-0.9-0.4-2.5,1.8-2.7c1.6-0.2,3.6,0.7,4.9-1
		c2.5-0.1,5.2-0.8,7.6-0.3c7,1.2,8.4-2.1,7.9-7.4c0.3-0.1,0.7-0.1,1-0.2c2.3,1.3,6.4-2.2,7.4,2.4c-1,2,1.1,4.3-0.8,6.2
		c-0.6,2-1,3.9,0.6,5.7c0.1,0.7,0.5,1.1,1.3,0.9c0.8,0.1,1.5,0.2,2.3,0.2c-0.1,2.5-0.2,5-0.3,7.5c-1.4,0-2.8,0.1-4.3,0.1
		c-0.3-0.9-0.1-2-1.9-2c-1.7,0-1.6,1.1-1.8,2.1l0,0c-0.8,0.2-2.1-0.2-2.2,1.1c0,1.3,1.4,0.8,2.1,1.2c0.1,1.1,0.2,2.1,0.3,3.2
		c-0.2,1.8-0.3,3.7-0.5,5.5c0.8,1.7,2.5,0.8,3.8,1.2c0.1,0.3,0.2,0.7,0.3,1c-0.1,1.1-0.1,2.2-0.2,3.3c0,1.1,0,2.2-0.1,3.3
		c0,2.4,0.9,3.6,3.8,3.4c3.6-0.2,3.1-2.5,3.2-4.6c0-0.7,0-1.5,0.1-2.2c0-1.1,0-2.2-0.1-3.2h0c0.2-0.3,0.3-0.7,0.2-1
		c3.9-0.8,1.7-3.6,2.3-5.5c0.3-0.1,0.4-0.3,0.3-0.6c2.8-0.4,2-2.2,1.9-3.8c0.1-1.1,0.2-2.1,0.3-3.2c1.9-0.4,3.7-0.8,3.3-3.2
		c0.1-2.3,0.1-4.6,0.2-6.8c0-1.5,0-2.9,0-4.4c-0.4-6.8-0.2-13.5,6.7-18.1c0.6,2.8,1.4,5.4,5.1,2.5c1.6-1.2,3.4-0.3,5.1-0.8
		c2,0,4.1,0,6.1,0c2.7-0.4,7.5,4.4,7.7-2.6c0-0.2,2.2-0.3,3.3-0.4c1.5-0.1,3.7,0.5,3.3-1.9c-0.3-1.7,2-4.7-2.3-4.9
		c-1.6-1.4-4.3-1.8-4.8-4.3c0.1-0.7,0.1-1.4,0.2-2l0.5,0l0.5-0.3c1.2,0,2.3,0,3.5,0v0c0.8,0,1.6-0.1,2.4-0.1
		c-0.1,2.1,1.7,3.2,2.9,4.6c1.1,1.2,2.4,2.8,4.4,2c2.2-0.8,1.5-3.2,2-4.8c0.8-2.6-3.5-0.7-3.9-2.8c1.2-1.4,4.9,0.2,4.3-3.1
		c0.4-0.7,0.8-1.4,1.1-2c3.3-0.6,3.2-0.6,1.6-2.5c-0.3-0.4-0.4-1-0.5-1.5c-0.3-1.7,7.8-8.4,9.5-8.1c1,0.2,1.3,0.7,1.2,1.5
		c-0.4,3.6,2.5,3.2,4.7,2.9c2.3-0.3,3.4,0.9,4.8,2c0.9,0.2,1.9,0.2,2.3,1.3c2.7,7.7,5.8,0,8.7,0.2c0.9,4,2.8,2.6,4.8,0.8
		c1.1,0.4,2.2,0.9,3.4,1.3c2.1,0.4,4.3,0.7,6.4,1.1c4.5-1.3,8-0.5,9.3,4.2c2.1-0.4,4.1-0.7,6.2-1.1c1.2-3.9,4.3-4.7,7.6-2.8
		c1.8,1,3.9,2.6,4.3,4.9c-0.4,2.1-0.8,4.2-1.1,6.3c-0.1,0.6-0.4,1.7,0.8,1.6c0.6-0.1,1-0.9,1.5-1.4c0.8,0.4,1.7,1.1,2.5,1.2
		c3.3,0.2,6.8,0.5,7.8,3.9c0.9,3.1,0.4,6.1-3.8,7.4c-1,0.3-0.7,2.2-0.3,2.3c4.6,0.3,2.6,4.5,4.5,6.2c0.9,3.4,6.4,2.9,6.8,5
		c0.5,3.1-1.8,6.5,0.5,9.8c0.6,0.9,1.1,1.5,0.5,2.8c-2,4.2-0.2,5.9,4.7,5.5c2.1-0.2,5.3-1.1,5.3,2.5c0,3.7,0.9,7.6-2.7,11.2
		c4.5-0.6,8.1-1.1,11.7-1.7c1.2-0.2,3.1,0.4,3.1-1.6c-0.2-4.3,1.1-8.8-2.4-12.7c-1.6-1.8-2.1-5.2,1-5c2.9,0.2,5.5-0.7,8.3-0.5
		c1.3,0.1,3.6,1,3.8-1.1c0.3-3-2.6-1.8-4.3-2.2c-0.5-1.3,0.7-3.8-2.6-3c-1.4,0-2.9-1-3.7,1.4c-1,3.1-4.2,2.4-5.7,0.7
		c-1.4-1.6-3.9-1.8-4.5-2.6c-2.5-3.4-8.8-3.3-9.1-8.4c4.3-6.2,3.8-8.1-3.4-13.4c-1.4-1-1.1-2.7-1.1-4.1c0-1.6,1.6-1.8,3-1.9
		c3.4-0.1,6.7-0.2,10.1-0.4c1.5-0.1,3.5,0.4,3.3-1.9c-0.1-2,1.3-4.3-1.5-5.8c-4.1-2.1-3.8-10.2,0.5-13.3c0.4,0,0.8,0,1.3,0
		c2.9,0.9,4.1-0.1,3.7-2.8c7-0.1,14.1-0.3,21.1-0.1c2.5,0.1,3.9-0.8,5.1-2.4c3.4-0.4,6.7,0.1,8.1,3.2c1.2,2.7-2.3,4-3.2,5.9
		c-1.6,3.3-4.4,5.9-6.3,9.4c2,0.1,3.3,0.3,4.7,0.2c4.7-0.5,9.2-1.2,8.1-7.2c-0.8-4.4-1.5-8.9,4.2-11.3c0.8,0,1.6,0,2.4,0
		c2.3,0.2,4-0.8,4.3-2.9c0.3-1.6-0.4-3.5-1.9-4.2c-2.2-1.1-2.4,1.9-4,2.4c-0.7,0.2-1.5,0.3-2.3,0.5c-4-1.7-6.5,3.6-10.5,2
		c-1.1-4.4-5.9-2.5-6.7-1.6c-2.6,3.1-4.8,1.3-7.1,0.5c-2.1-0.8-4-1.9-6.8-2.1c1.1,4.9-1.4,6.1-5.9,5.5c-1.1-0.2-2.4,0.1-3.5,0.1
		c-2.8-1-6.2,1.1-8.8-1.5c-1.6-1.5-5.5-0.5-5.2-4.4c0.4-5.4,4.5-7.1,9-7.2c5.1-0.1,10.5-2,15.6,1.6c2.3,1.6,5.1-2.6,8.4-2.1
		c1.3,0,2.5,0,3.8,0c11.6,0.1,23.2,0.2,34.8,0.3c3.4,0,5.2-1.1,4.7-4.4c1.5-0.7,2.9-2,4.8-1.1c-0.2,3.4,1.8,5.6,5.2,5.3
		c4.3-0.4,4.9,3.4,7.6,4.6c0.5,0.2,0.3,2.5,0.2,2.5c-7.1,1-0.8,6.2-3.3,8.9c-1.1,1.2,1.4,4-0.2,6.1c2,0.1,5.3-0.5,5.7,0.3
		c3,5,7.9,2.2,11.9,2.9c2.3,0.4,3.6-0.1,4.5-2.7c0.9-3,3.4-5.3,7.2-2c1.7,1.5,4.2,1.6,6,0.7c4.1-2,6.2,1.1,9.1,2.3
		c0.4,0.2-0.4,2.2,1.3,0.5c4-4.1,9.4-1.7,14-1.8c2.7,0,3.4,3.9,4,6.5c0.9,3.6,1.1,3.7,4.6,1.9c0.7-0.4,1.5-1,1.9-0.7
		c3.8,4.2,8.8,1.1,13.1,1.8c1.1,0.2,2.7,0.5,3.1-1.5c0.9-4,5-6.8,5-11.2c2.5,0,5-0.7,7.5,0.4c2.1,0.9,4,0.2,4.2-2.2
		c0.2-2.4-2-1.7-3.3-1.7c-2,0-3.9,0.3-6,0.5c-0.4-2.2,1.2-5.7-3.6-4.9c-2.4-2.8-0.6-5,1.5-6.7c1.2-1,1.4-2,2-3.1l0.1,0.1
		c3,0.5,4.8,5,8.8,2.2c2.5-0.4,4.6,1.7,7.1,0.8c5.1,0.1,10.2,0.2,15.3,0.1c2.7-0.1,4.6,0.4,4.8,3.3c-0.1,0.3-0.1,0.6-0.1,1
		c-2.9,0.5-4.3,2.1-4.4,4.7c-2.1,2.9-3.7,6.4-8.7,5.3c-1.9-3.8-5.7-3.9-9-2.8c-3.8,1.3-1.2,4.9-2.4,7.8c2.2-0.7,3.8-1.2,5.4-1.7
		c1.1,0.4,3-0.7,3.4,1.2c0.2,0.8-0.3,2,1.1,2.1c1.5,0.1,1.3-1,1.4-1.8c0.3-2.1,2.1-1.1,3.2-1.3c2-0.3,4.1,0,5.7-1.4
		c1.1,1.4-0.4,3.7,2.2,5c0.9-2.9,1.5-4.1,5.7-3.5c3.4,0.5,5.5,2.5,8.3,3.1c7.2,1.4,7.2,1.2,2.9,6.3c-0.7,0.8-0.7,1.6-0.6,2.5
		c-1.3,1.8-3.8,2.8-3.7,5.3c-0.9,3.1-3.3,3.7-6.5,3.4c-1.4-0.1-2.8-0.2-4.2,0c-1.3,0.2-3.6-0.7-3.5,1.8c0.2,2.3,2.4,1.4,3.7,1.5
		c1.8,0.2,3.7-0.3,5.3,0.2c2.2,0.7,5.4,0.7,2.3,4.8c-1.5,2-4.9,2.8-5,6.1c-0.1,4,3.8,4.3,5.8,6.8c0.4-0.9,0.7-1.4,0.7-1.8
		c1.4-8.4,3.5-9.4,11.1-5.2c0.5,0.3,1.1,0.3,1.7,0.5c9.2,3.1,18.3,6.4,28.4,4.2c1.2-0.2,1.9,0.3,1.9,1.4c0,1.6,0.1,3.3,0.1,4.9
		c-3.9,2.4-3.4,6.2-3.7,9.7c-6.4,5.8-5.7,7.3-1.2,14.3c2.4,3.6,5.4,1,7.3,2.8c3.6,3.4,5.5-0.1,7.1-1.8c4.6-4.7,4.6-11.7,9.5-16.5
		c1.1-1.1,1.6-1.9,3.2-1.9c1.7,0,2.6,0.2,3.1,2.2c0.6,2.5,1.8,3.6,5.7,1.9c3.1-1.3,3.6-4.1,6.3-5c1.1,0,2.2-0.1,3.4-0.1
		c3.3,2,7,1.3,10.4,0.9c5.4-0.6,6.7-3.9,4.2-8.3c-1.2-2-3.2-4.5,1.6-5.4c1.1-0.2,1.9-1.8,3-2.9c-8-2.7-13,1.7-18.1,5.7
		c-4-0.9-5.5,1.8-7.1,4.3c-3.6-0.1-7.4,1.1-10.8-0.9c-0.3-0.4-0.7-0.7-1-1.1c0-0.7,0.1-1.4,0.1-2.1c1.6-0.1,2.3-0.9,2.1-2.3
		c2.3-0.1,5.4,0.6,6.8-0.5c2-1.6-3.4-1.6-2.1-3.9c0,0,0-0.1,0-0.1c3.1,1.3,1.4-3.9,4.2-2.8c1.5,1.5-1,4.9,2,4.8c2.3,0,0.6-3,1.2-4.6
		c0.5-1.2,2-2.7,0.1-3.8c-1.8-1-2.4,1.1-3.5,1.7c-1.1,0.6-2.6,0.5-3.9,0.8c-2.2,0.2-4.4,0.5-3.6-2.6c4.2,0.8,3.7-1.9,3.8-4.2
		c-2.7,0.1-4.1,0.1-4.5,0.7c0.5-0.5,1.8-0.6,4.5-0.7c0-2,0-4,0.1-6c0,2,0,4,0,6c0.7-0.1,1.4-0.2,2.1-0.2c2.8,0.4,5-0.6,7-2.2
		c1.9,2.5,4.1,4.6,7.5,2.5c2.8-1.8,3.4-4.3,1.1-7c-2.5,0.2-5,0.1-7.2,1.2c-1.4-1.8-3.5-1.1-5.3-1.2c-2.2-0.2-3.1-1-3-2.9
		c2-0.1,3.9-0.3,5.9-0.4c2.4,0,3.5-1.1,3.7-3.3c0.1-2.2-0.6-3.2-3.3-3.1c-1.3,0.1-3.5,0.3-3.4-1.9c0.1-1.7,2-1.5,3.2-1.5
		c3.7,0.2,3.5-2.1,3.5-4.3c1.5-0.2,2.8-0.5,2.1-2.3c0.1-1.4,0.2-2.9,0.2-4.3h0c3.4-0.1,2.1-2.6,2.6-4.2c3.1,0.1,3.7-3.8,6.9-3.6
		c2.4,0,4.8,0,7.3,0.1c4.2,1,6.5-3.7,10.6-3c0.5,0.4,1,0.8,1.5,1.2c1.6-1.3,3.5-1.3,5.5-1.5c1.5-0.1,3.8,0.6,4-2
		c-1.9-0.6-5.3,1.7-5.6-2.3c-0.2-0.5-0.3-1-0.5-1.5c-3.6,2.5-7.9,0.9-11.8,1.8c-4.7-0.9-9.1-3.2-14.3-2.8c-1.1,0.1-3.3-3-3.6-4.9
		c-0.4-2-2.1-3-2.7-4.6c1.1-1.3-0.7-4.1,2.6-4.1c3.6,0.1,2.9,3.8,5,5.2c0.4,4.2,3.8,1.6,5.8,2.1c2.8,0.7,2.6-1.4,2.6-3
		c0.1,0,0.3,0,0.3,0l0.4-0.1c-0.1,4.8,3.8,2.6,6.3,3c0.8,0,1.6,0,2.4,0c0.1-1.4,0.2-2.7,0.3-4.1c1.9,0.3,3.9,0.7,5.8,1
		c-1.9-0.3-3.9-0.6-5.8-1c-0.1,1.4-0.2,2.7-0.3,4.1c2.5,0.5,3.9,3.3,7,2.5c1.2-0.4,2.5-0.9,3.7-1.3c3.1,1.7,6,1.8,8.5-1
		c0,1.1,0,2.1,0,3.2c-0.2,0.1-0.5,0.3-0.4,0.3c0.1,0.3,0.3,0.5,0.5,0.8c1.3,1.6,3.1,0.9,4.8,1.1c2.9,1.8,4,0.1,4.8-2.1
		c4.9-1.6,4.9,3.3,8.2,4.8c-9.2-1-6.9,5.4-8.3,9.3c0,0.2,0,0.3,0,0.4c0-0.1,0-0.3,0-0.4c-3.5,0-7.1,0.1-10.6,0.1c-1.7,0-3.4,0-5.2,0
		c-3.1-0.1-6.4,2.6-9.4-0.4c-2.9-0.8-3.7,2.4-6,2.7c-1.3,0-2.9-0.2-2.5,1.8c-3.9,0-6.7-5.6-9.8-3.5c-3.1,2.1-0.1,7.1-1.4,10.6
		c-0.3,0.8-0.2,1.4,0.5,1.9c0,1.4,0,2.8,0,4.2c-3.7-1.4-6.8-1.7-7.3,3.1c-1.1,0.3-2.7,0.3-2.8,1.5c-0.1,1.7,1.7,0.5,2.5,1
		c1.6,1,3.2,2,3.2,4.1c2.1,0.4,3-1.1,4.1-2.1c1.7,0,3.5,0,5.2,0c6.6,0.1,13.1,0.2,19.7,0.1c2.4-0.1,4,0.5,5.3,2.2c0,1-0.1,2-0.1,3
		l0.1,0.3c-4.7,0.6-4.7,0.9-0.1,6.3c5.8,1,3.1-3.2,3.8-5.2c2.5,0,6.5,0,6.5-2c-0.1-6,4.2-4.6,7.7-4.8c3.2,1.9,7.5-1,10.7,2
		c0.7,0.6,2.7-1.1,2.4-2.4c-1.1-5.6,2.9-5.1,6.7-5c2.7,4.5,6.9,3.9,11.2,2.9c0.9,0,1.9,0,2.8-0.1c1.6-0.2,4.3,2.1,4.5-1
		c0.1-1.9-1.3-4.1-4.3-4.1c-1,0-1.9,0.1-2.9,0.2c-3.6-0.1-7.1-0.1-10.7-0.2c-4-0.4-8-0.7-12-1.1c-5-1.6-2.8,3.3-4.8,4.4
		c-2,0-4,0-6,0c-3-2.4,0.8-3,1.5-4.4c1,0.2,2.4,1.6,2.8,0c0.3-1.4-1.7-0.9-2.8-1.1c-2.8-4.4,0.2-5.4,4.1-5.3
		c7.8,0.2,15.6,0.6,23.4,1c-3-1.5-2.6-4-2.5-6.4c0.6-1.5,2.5-2.4,2.5-4.3c2.1-0.1,4.3-0.3,6.5-0.4c-2.9-2.9-7.9-2.9-10-6.4
		c0-0.6-0.1-1.3-0.1-1.9l0,0c3.8-1.7,8.6,0.7,12.1-2.4c0.3-0.3,1.8-0.1,2.2,0.4c5.2,4.6,11.8,3.8,18.2,4c2.3,0.1,5.8-1.7,6.2,2.7
		c0.4,3.8-2.8,3.3-5.1,4c-4.2-0.4-8.5-0.8-12.7-1.1c-1.4-0.1-2.8,0.5-2.8,2.1c0,1.3,1.3,1,2.2,1.1c0.7,0.7,0.7,1.4,0,2.1
		c-0.4,0-0.8,0.1-1.2,0.1c0,1.1,0,2.1,0.1,3.2l0,0c0,0,0,0,0,0l0,0c0,0,0.1,0,0.1,0c0.1,0.8,0.2,1.5,0.3,2.3
		c-0.2,1.2-0.9,2.5,0.8,3.3c1,5.3,5.8,1.9,8.6,3c2.7-0.3,6.5,1.7,7.5-2.7c0-0.1,1.3-0.2,1.4-0.1c1.8,4.7,6.4,3.3,10.1,4
		c0.1,1,0.1,2.1,0.2,3.1c0,0.7,0,1.4-0.1,2.1c-2.3-0.6-2.4,2.6-4.6,2.2c-0.6-1.2,1.1-3.9-1.8-3.7c-2.8,0.2-6-1.2-8.5,0.8
		c-1.2,1,3.9,11.6,5.6,11.9c1.3,0.2,2.9,0.7,3.6-0.9c0.6-1.4,2.3-1.2,3.2-2.2c-0.2,1.7,0.2,3,2.3,3.2c1.3,3.6-2.4,2.9-5.5,4.1
		c4,0,5.9,0.9,5.5,3.7c-0.2,1.1,0.7,2.3-1.4,3.1c-3.2,1.1-5.6,6.2-4.6,8.9c3.4,9.7,5.5,11.1,15.6,10.7c1.4-0.3,3.9,1.5,3.7-1.7
		c2.3-1,2.5-2.7,1.9-4.7c4.1,0.2,3.3-3,2.7-4.5c-0.9-2.2-3.7-0.8-5.7-1.1c-0.6-0.1-1.2,0-1.8,0c-2.1,0.2-4.2-0.1-4.2-2.5
		c0-1.8,0-4.3,2.2-4.9c1.4-0.4,4.1-1.7,5,1.7c0.6,2.3,3.8,2,4.4,0c0.5-1.7,2.3-1.7,2.8-3.1c0.7-0.2,1.8-0.3,1.9-0.7
		c0.6-1.7-1-1.6-2.1-1.6c-4.4,0.3-8.8,0.8-13.2,1.2c-0.4-2.5-4.5,0.3-4.6-2.9c-0.1-5,9,0.6,7.5-5.6c1,0,2.7-0.2,2.8,0.1
		c2,5,6.4,2.6,9.9,2.8c2,0,4,0,6.1,0c4.9,0.8,8.4,2.3,8.6,7.8c0.1,3.1,5.9,4.7,7.8,2.3c7-8.6,17.6-4.3,26.4-6.2c5.9-1.3,11,3.7,17,4
		c0.2,1.9,0.5,3.5,3.4,3.3c2.4-0.2,4.2-0.7,4.1-3.3c1.2,0.1,3.2-0.2,3.4,0.3c3,5.6,8.5,4.9,13.8,5.1c2.6,0.1,5.1,1.3,7.9,0
		c0.9-0.4,2.8-0.7,3.7,0.8c1.1,1.8,2.1,1.5,3.6,0.2c1.5-1.3,3-1.3,5,0c2.8,1.8,8,1.1,7.3,6.3c1.4,0.1,2.7,0.3,4.1,0.4
		c5.2,0.4,10.4,1.2,15.6,0.9c3.5-0.2,2,3.7,5.5,3.7c4.7,0.1,9.4,2,14.1,3.2c-0.1,4.6,3.7,2.8,6.2,3.1c7.5,0.1,15.1,0.1,22.6,0.2
		c0.9,2.3,2.5,1.9,4.2,1c1.3-0.7,2.3-1.8,1.7-3.1c-1.2-2.4-3.7-1-5.7-1.5c-0.4-1.1-2.2-1.3-2-3c3.7,0,7.2,0,10.8,0
		c1.3,0,3,0.3,3.6-1c0.9-1.9-1.2-1.7-2.3-2.3c-1-0.5-2.3-1.3-1.7-2.5c0.3-0.7,1.5-1.7,2.1-1.6c4.5,0.9,7.8-2.8,12.1-2.5
		c1,0.1,1.9,0.2,2.9,0.2c1.4,0,3.2,0.5,3.3-1.8c0.1-2.3-1.3-2.6-3.3-2.5c-1,0.1-1.9,0.1-2.9,0.1c-3.9,0.6-4.3-3.3-7-4.5
		c6.9,1.7,12.7-3.2,19.2-2c4.5,0.9,7.4-0.4,9.8-3.9c1.6-2.3,4.9-5.3,7.6-3c3.4,2.9,7.1,3,11,3.8c3.4,0.6,6.4,0.1,7.3-3.4
		c1.1-4.3-2.5-4-5.4-4.2c-4.2-0.3-8.3-0.3-12.5-0.5c0-1.7,0-3.3,0-5c2.6-0.1,5.1-0.4,7.7-0.3c4.6,0.1,2.6-3.2,3.1-5
		c0.7-2.3-1-2.6-3.1-2.6c-8.1,0-16.2,0.3-24.2-1.3c-0.1-1.4-0.2-2.6,2-3.1c2.3-0.5-0.1-1.4-0.2-2.1c0.4-1.4,1.9-0.8,2.7-1.3
		c5,0,10,0.1,15,0.1c1.9,0,4.9,0.5,4.8-1.7c-0.1-2.1-3.1-1.5-5-1.6c-4.8-0.2-9-2.1-13.2-3.8c5.5-0.5,10.9-0.5,16.2-0.5
		c1.8,0,4.8,0.5,5.2-0.3c3.2-5.6,8.6-2.2,12.9-3c1.9-0.3,4,0.5,5.8,0.2c1.9-0.3,5.1,1.1,5-2.9
		C1193.5,439.8,1190.9,440.8,1188.7,440.4z M864.8,215.4c0.5-0.7,0.6-1.2,0.6-1.7C865.4,214.2,865.3,214.7,864.8,215.4
		c0,0.3,0,0.6,0,0.9C864.8,216.1,864.8,215.7,864.8,215.4z M31.2,329c-0.2-0.1-0.4-0.3-0.5-0.5c0.8-0.7,0.9-1.4,0.2-2.1
		c2.4-0.2,3.8-3.7,6.6-1.6c1.4,1,2.9,1,4.5,1.1c1.3,1.2,2.2,3.1,4.5,3c1.7-0.1,3.8,0.3,3.7,1.7c-0.2,1.9-2.7,1.6-4.4,1.9
		c-2,0-4.1,0-6.1,0C35.5,334,35,328.2,31.2,329z M47,344.3c-1.2,0-2.3,0-3.5,0c-5-0.1-6.5-2.2-4.8-6.5c3-0.2,6.5-3.8,8.5,1.6
		c0.4,1.2,1.9,0,2.8-0.7c2.4-2,3.2,0.7,3.8,1.5c1.3,1.7-0.5,2.3-1.9,2C49.5,341.8,49.3,345.1,47,344.3z M79.1,357.5
		c12.9-0.5,25.9-1,38.8-1.2c4.6-0.1,4.8,0.4,3.4,4.5c-4.8,0.6-10.2-2.1-14.5,1.7c-8.7,1-17.7-1.1-26.3,1.5c-0.6-0.1-1.2-0.1-1.8-0.2
		c-2.2-0.6-6.1,1.7-6.2-1.8C72.5,360.8,75.7,357.6,79.1,357.5z M86.7,323.4c9.6-3.1,20.2-0.5,29.8-4.1c1.4-0.5,3.1-0.1,4.7,0
		c0.1,3.2,0.1,6.4,0.2,9.6c0.1,1.5,0.1,2.9,0.2,4.4c-0.1,2.2-0.2,4.3-0.4,6.5c-5.7,0-11.4,0-17.2,0.2c-1.5,0.1-4.4-1.3-4.2,2
		c-2,3-4.8,1.7-7.5,1.2c-6.5-2.3-13.2-0.8-19.8-0.7c-0.2,0-0.3,1.2-0.5,1.9c-2.4,3.7-5.8-0.3-8.5,1c-3-7.5-2.2-8.7,5.6-8.8
		c6.3-0.1,13.5,0.4,18.8-1.6c9.8-3.7,19.8-1.9,29.5-3.2c-0.1-1-0.1-1.4-0.1-1.4c-12.6-0.7-25.3-1.4-37.7,0.7
		c-5.2,0.9-10.3,0.7-15.4,1c-1.7,0.1-1.7-1.1-1.9-2.1c4.1-2.3,8.1-4.9,13-5.4c0.2,0,0.3-0.6,0.4-0.9l-0.1-0.3
		C79.3,320.7,82.9,324.6,86.7,323.4z M94.9,369.6c-3.7,0.5-8-2.4-10.9,1.9c-4.7,0-9.3,0-14.4,0c2-6.1,7.2-3.7,10.8-4.6
		c6.2-2.2,12.5-3.8,19.3-3.1c2.3,0.2,4.7-0.1,7-0.2c4.8-0.3,9.6-0.6,14.4-0.9c2.6,2.2-0.1,4.4,0,6.6
		C112.5,369.4,103.7,369.5,94.9,369.6z M16.1,461c0.4-2.7,2.2-3.4,4.9-3.1c7.4,0.6,15.5-1.8,22,3.8c-1.4,1.7-3.1,2.8-5.3,2.9
		c-5.8,0.1-11.6,0.2-17.3-0.2C18.8,464.2,15.6,464.1,16.1,461z M16.8,448.7c-0.1-2.1,1.6-1.7,2.9-1.7c6.8-0.2,13.1,1.9,19.9,2.6
		c-3.1,3.9-9.2,5.5-14.2,3.4c-2-0.9-3.8-1.6-6-1.5C17.1,451.5,16.8,450.3,16.8,448.7z M14.6,483c-0.3-4,3.4-1.7,5.2-2.1
		c3.8-0.7,7.9,1.2,11.5-1.3c0-1.7,0-3.4,0-5.1c-5-0.1-10.2,0.2-14.9-4.2c6.5-0.1,11.8-4,18-0.9c0.5,0.3,1.4,0.5,1.7,0.3
		c2.1-1.4,4.4-0.6,5.6,0.5c2,2-3.2,1.8-2,4c2.4,0.1,2.9,1.6,2.4,3.3c-0.4,1.5-1.6,0.7-2.7,0.5c-1.8-0.4-3.2,0.6-4.4,1.8
		c2.6,1.3,3.2,3.9,4.6,5.9c0.9,1.2,0.1,2.8-2.2,2.7c-5.8-0.1-11.6,0.2-17.3-0.2C16.8,488.2,14.8,485.6,14.6,483z M22.9,495.3
		c-1.4-0.5-3.8,0.6-3.7-2.3c0.2-2.6,2.1-2.2,3.8-2.2c6.1,0,12.3,0,18.5,0c0.5,1.5-2,0.7-1.9,1.9C34.7,497.3,28.4,494.1,22.9,495.3z
		 M43.7,441.6c-2,1.1-4.2,1-7.9,0.7c-3.2-1.8-9.8,0.1-12.9-5.4c-0.8-1.4-2.5-0.7-3.8-0.7c-2-0.1-2.1-1.1-2.1-2.5
		c0-1.9,1.3-2.2,2.7-1.9c8,1.7,16.2,0.7,24.3,1.2c1.6,0.1,2.7,0.3,2.6,2.1C46.5,437.5,46.4,440.1,43.7,441.6z M290.5,536.8
		c-0.1,0.7,0.1,1.5-0.2,2.2c-0.1,0.3-0.3,0.5-0.6,0.7c0.3-0.2,0.5-0.4,0.6-0.7C290.6,538.3,290.4,537.5,290.5,536.8
		c1.1,0,2.3,0.1,3.4,0.1C292.8,536.9,291.6,536.9,290.5,536.8z M557.8,442.1c0.1,0.3,0.2,0.6,0.2,1
		C558,442.8,557.9,442.4,557.8,442.1z M339.6,332.2c-1.2,0-2.4,0-3.7-0.1c0,0,0,0,0,0C337.1,332.1,338.4,332.2,339.6,332.2
		c0.8-0.2,1.7-0.1,2.6,0C341.3,332.1,340.4,332,339.6,332.2z M318.7,330.8c-0.3-0.1-0.7-0.3-1-0.4
		C318,330.5,318.4,330.7,318.7,330.8C318.7,330.8,318.7,330.8,318.7,330.8z M182.3,533.2C182.3,533.2,182.3,533.1,182.3,533.2
		C182.3,533.1,182.3,533.2,182.3,533.2z M201.6,533.2c1.6,0.1,3.3-0.2,4.8,0.1C204.9,533.1,203.2,533.3,201.6,533.2
		C201.6,533.2,201.6,533.2,201.6,533.2z M206.9,533.5c0.3,0.1,0.7,0.3,1,0.5C207.6,533.7,207.3,533.6,206.9,533.5z M201.1,343.6
		c5.7-4.2,11.8-3.2,17.3-4c2-0.2,3.8,2.1,6,0.5c0.3,0.6,0.6,1.3,0.9,1.9h0c-0.1,0.6-0.3,1.3-0.4,1.9
		C217.3,349,209.8,344.6,201.1,343.6z M399,311.1c-0.3-0.1-0.7-0.3-1-0.4C398.4,310.8,398.7,311,399,311.1
		C399,311.1,399,311.1,399,311.1z M313.3,311c0-0.2,0-0.5,0-0.7c0.7,0,1.4-0.1,2.1-0.1c-0.7,0.1-1.4,0.1-2.1,0.1
		C313.3,310.6,313.3,310.8,313.3,311z M298.8,314.6C298.8,314.6,298.8,314.6,298.8,314.6L298.8,314.6
		C298.8,314.6,298.8,314.6,298.8,314.6z M296.4,312.5c-0.8-0.1-1.7-0.1-2.5-0.2c-1.3,0.1-2.6,0.2-3.9,0.3c1.3-0.1,2.6-0.2,3.9-0.3
		c0.2-0.4,0.2-0.8,0.2-1.2c0,0.4,0,0.7-0.2,1.2C294.7,312.4,295.5,312.4,296.4,312.5C296.4,312.5,296.4,312.5,296.4,312.5
		C296.4,312.5,296.4,312.5,296.4,312.5z M243.4,327.6c0.1,0.5,0.2,1,0.2,1.5c0.8,0,1.5,0.2,2.3,0.4c-0.8-0.2-1.5-0.4-2.3-0.4
		C243.6,328.5,243.5,328,243.4,327.6z M243.3,312.8c-0.5,0-0.9,0-1.3-0.1C242.4,312.8,242.8,312.8,243.3,312.8
		C243.3,312.8,243.3,312.8,243.3,312.8z M249.3,310.3c0.3,0,0.6,0,0.9,0.1C249.9,310.3,249.6,310.3,249.3,310.3z M247.7,329.8
		c-0.3,0-0.6-0.1-0.9-0.2C247.1,329.7,247.4,329.8,247.7,329.8z M294.4,293.1c0.3,0.1,0.7,0.4,1,0.4
		C295.2,293.5,294.8,293.2,294.4,293.1C294.4,293.1,294.4,293.1,294.4,293.1z M313,292.2c0,0.9,1.2,1.6,3.6,1.8
		c0.8,0.8,0.9,1.6,0.5,2.3c0.4-0.8,0.3-1.5-0.5-2.3C314.3,293.8,313,293.1,313,292.2z M273.6,289.5c0,1.4,0,2.8,0,4.2
		C273.6,292.3,273.6,290.9,273.6,289.5c0-0.8,0-1.5,0-2.3c0,0,0,0,0,0C273.6,288,273.6,288.8,273.6,289.5z M271.3,294
		c0.2-1.1,0.2-2,0-2.5C271.4,292.1,271.4,292.9,271.3,294L271.3,294z M273.6,293.7C273.6,293.7,273.6,293.7,273.6,293.7
		c0.5,0,1,0.1,1.5,0.1C274.6,293.8,274.1,293.8,273.6,293.7z M276,300.4C276,300.4,276,300.4,276,300.4c-0.7-0.1-1.3-0.2-2-0.3
		C274.7,300.2,275.3,300.3,276,300.4z M318,310c-0.5,0-0.9,0-1.4,0.1C317.1,310.1,317.6,310,318,310z M346.8,314.7
		c-0.1,1-0.4,1.8-1,2.4C346.4,316.5,346.7,315.8,346.8,314.7c1.2-1.7,3.3-3.3,3.2-5C350.1,311.4,348,313.1,346.8,314.7z
		 M417.6,283.3c-0.3,0.3-0.7,0.6-1,0.8l0,0C416.9,283.8,417.3,283.5,417.6,283.3c0.8-0.1,1.6-0.1,2.4-0.2
		C419.2,283.2,418.4,283.2,417.6,283.3z M385.2,337.6c-0.3,0-0.5,0-0.8,0C384.6,337.7,384.9,337.7,385.2,337.6L385.2,337.6z
		 M381.6,325.6L381.6,325.6c0.1-0.2,0.2-0.4,0.2-0.6C381.7,325.2,381.6,325.4,381.6,325.6z M381.4,335.9c-0.1-0.3-0.2-0.6-0.3-0.9
		c-0.1-0.3-0.2-0.7-0.3-1c0.1,0.4,0.2,0.7,0.3,1C381.2,335.3,381.3,335.6,381.4,335.9z M380.7,321.3c0,0.1-0.1,0.1-0.1,0.2
		C380.6,321.5,380.7,321.4,380.7,321.3z M380.7,333.2c-0.1-0.4-0.2-0.7-0.3-1c-0.8-0.1-1.7,0-2.6,0c0.9,0,1.8-0.1,2.6,0
		C380.5,332.5,380.6,332.9,380.7,333.2z M350.9,325.7C350.9,325.8,350.9,325.8,350.9,325.7C350.9,325.8,350.9,325.8,350.9,325.7z
		 M342.6,322.6c0.3-0.2,0.6-0.3,0.8-0.4C343.1,322.2,342.8,322.4,342.6,322.6z M341.2,323.8c-0.5,0.5-1,1.2-1.5,2h0
		C340.2,325.1,340.7,324.4,341.2,323.8z M344.8,332.1c-0.3,0.1-0.7,0.1-1,0.1c-0.3,0-0.7,0-1,0c0.4,0,0.7,0,1,0
		C344.2,332.2,344.5,332.2,344.8,332.1z M345.7,442.9c-0.2-0.1-0.5-0.2-0.8-0.2C345.1,442.8,345.4,442.8,345.7,442.9z M430.8,264.5
		C430.8,264.5,430.8,264.5,430.8,264.5c-1.2-0.1-2.4-0.1-3.7-0.2C428.3,264.3,429.5,264.4,430.8,264.5c0.2-0.4,0.3-0.8,0.5-1.1
		c0,0,0,0,0,0C431.1,263.7,430.9,264.1,430.8,264.5z M409,276.6c0.1,0.3,0.1,0.6,0.2,1C409.1,277.2,409,276.9,409,276.6
		C409,276.6,409,276.6,409,276.6z M360,309.3c0,0,0.1,0,0.1,0C360.1,309.4,360,309.4,360,309.3z M346.8,323.4c0,0.7,0,1.3,0,2
		c-0.2,0.1-0.3,0.2-0.5,0.2c0.2-0.1,0.4-0.1,0.5-0.2C346.8,324.7,346.8,324.1,346.8,323.4c-1.1-1.1-2-1.5-3-1.4
		C344.8,321.9,345.7,322.4,346.8,323.4c1.2,0,2.4,0,3.6,0C349.2,323.4,348,323.4,346.8,323.4z M313.3,273.2L313.3,273.2
		c1.2,0,2.4,0.1,3.6,0.1C315.7,273.2,314.5,273.2,313.3,273.2z M259.3,282.9C259.3,282.9,259.3,282.9,259.3,282.9
		c-2.2,0.2-3.3-0.5-3.6-1.9C256,282.4,257.1,283.1,259.3,282.9z M247.2,310.3L247.2,310.3c0.3,0,0.6-0.1,0.8-0.1c0.3,0,0.6,0,0.9,0
		c-0.3,0-0.6,0-0.9,0C247.7,310.2,247.4,310.2,247.2,310.3c-1.2,0.1-2.3,0.2-3.5,0.2c-0.1,0.7-0.2,1.5-0.3,2.2l0,0
		c0.1-0.7,0.2-1.5,0.3-2.2C244.8,310.4,246,310.4,247.2,310.3z M240.9,311.5c0,0.2,0,0.3,0.1,0.5c0.1,0.3,0.3,0.5,0.6,0.6
		c-0.3-0.1-0.5-0.3-0.6-0.6C240.9,311.8,240.9,311.7,240.9,311.5z M289.6,312.6L289.6,312.6c-1.3-0.3-2.6-0.6-3.9-0.7
		C287,312.1,288.3,312.3,289.6,312.6z M298.8,314.6c0.1-0.7,0.1-1.3,0.2-2l0,0C298.9,313.3,298.8,314,298.8,314.6
		C298.8,314.6,298.8,314.6,298.8,314.6z M304.9,306.7c0.4,1.2,1.7,1.6,3.4,1.5c0,0.6,0,1.3,0,1.9c0-0.6,0-1.3,0-1.9
		C306.6,308.3,305.3,307.9,304.9,306.7z M309.4,317.4c0.2,0.2,0.5,0.4,0.9,0.5C309.9,317.7,309.6,317.6,309.4,317.4z M335.2,330
		c-0.1-1.5-0.2-2.9-0.4-4.4C334.9,327,335,328.5,335.2,330c1.5,0,2.9,0,4.4,0l0,0C338.1,330,336.6,330,335.2,330
		c0.2,0.7,0.5,1.4,0.7,2.1c0,0,0,0,0,0C335.6,331.4,335.4,330.7,335.2,330z M403.3,307.7c0.1-0.2,0.2-0.4,0.2-0.6
		C403.4,307.3,403.4,307.5,403.3,307.7c-0.4,0.2-0.9,0.4-1.3,0.6C402.4,308.1,402.8,307.9,403.3,307.7z M364.9,310.3
		c-1.3-0.3-2.9-0.5-4.2-0.8C362,309.9,363.6,310,364.9,310.3L364.9,310.3z M359.6,309.2c-0.1,0-0.2-0.1-0.2-0.1
		C359.5,309.1,359.5,309.2,359.6,309.2z M362.3,293.6c0-0.4,0.1-0.7,0.2-0.9C362.4,292.9,362.3,293.2,362.3,293.6
		c-0.9,0.2-1.8,0.1-2.6-0.1C360.5,293.7,361.4,293.8,362.3,293.6z M359.8,282.8L359.8,282.8c0.2,0.2,0.4,0.4,0.6,0.5
		C360.2,283.2,360,283,359.8,282.8z M359.1,293.3c-0.4-0.1-0.8-0.3-1.2-0.5C358.2,293,358.6,293.2,359.1,293.3z M354.6,291.7
		c0.1,0,0.1,0,0.2,0C354.8,291.7,354.7,291.7,354.6,291.7z M350,291.7C350,291.7,350,291.7,350,291.7C350,291.7,350,291.7,350,291.7
		z M247.9,298.3c0.7,0,1.3-0.1,1.8-0.3c0.3-0.1,0.6-0.4,0.8-0.7c-0.2,0.3-0.5,0.5-0.8,0.7C249.2,298.2,248.5,298.2,247.9,298.3
		c-0.2,0-0.4,0-0.7,0l0,0C247.4,298.3,247.7,298.3,247.9,298.3z M190.8,308.2c0.1,0.7,0.2,1.4,0.3,2c5.5-1.2,10.9,0.8,16.4,0
		c1.9-0.3,3.9,0.5,6.3-0.5c-1.6-2.8-3.3-5.2-7.3-4.9c-3.1,0.3-2.2-1.8-2.5-3.2c3.1,0.5,6.3,0.7,9.2,1.5c2.9,0.7,2.9-0.6,2.9-2.4
		c3.8-0.3,8.3-1.2,4.5,4.6c-0.3,0.5,0,1.9,0.2,2c7.2,1.6,2.1,9.1,7.1,12.1c1.6,1,0.4,4.5-3.4,4.3c0,1.7,0,3.5,0,5.2
		c0.4,0.4,0.8,0.8,1.2,1.2c-0.1,2.1,0.3,4.4-1.2,6.3c-2,0.1-3.9,0.2-5.9,0.4c-8.3-0.9-16.7,1-25-1.2c-1.4-0.4-3.3,0.8-4.9,1.3
		c-3.2,0-6.4,0-9.7,0c-1.1,0-2.3,0-3.4,0c-4.8-0.1-9.5-0.2-14.3-0.3c0.4-2,2.3-0.6,3.3-1.3c2.4-0.4,6.5,2.2,6.2-2.9
		c1.8-0.3,4.4,0.6,4.5-2.4l0,0c1.6-0.1,3.3-0.3,4.9-0.4c-0.1-1.3-0.1-2.6-0.2-3.9c1.4,0,2.8,0,4.1,0c-1.4-2.3-2.8-2.3-4.2,0
		c-2.4,0.1-4.7,0.2-7.1,0.3c-3.9,1-7.3,3.8-11.8,2.9c-1.5-0.3-2.6-0.7-4.1-1.7c-5.7-4.2-0.4-5.6,1.6-7.9c1.6-0.4,3.6,0.5,4.9-1.1
		c1.7-0.8,4.7,0.9,5.2-1.7c0.2-0.9,0-2.9-1.8-3.6c-2.2-0.8-2.2,1.6-3.6,2c-3.6,0-6.3-2.1-10.9-3.2
		C165.8,307.5,178.3,308.1,190.8,308.2z M183.5,533.3c0.2,0,0.5,0.1,0.7,0.1c0.2,0,0.5,0.1,0.7,0.1c-0.2,0-0.5-0.1-0.7-0.1
		C184,533.4,183.7,533.3,183.5,533.3z M190.7,533.2C190.7,533.2,190.7,533.2,190.7,533.2c1.6,0.2,2.1,0.9,2.3,1.8
		C192.9,534.1,192.3,533.4,190.7,533.2z M211.1,537.3c0.1,0,0.2,0,0.2,0C211.2,537.3,211.1,537.3,211.1,537.3z M211.5,537.3
		c0.4-0.1,0.7-0.4,0.8-1.1C212.2,536.9,211.9,537.2,211.5,537.3z M223.5,415.2c0.7,0,1.4-0.1,2-0.2v0
		C224.9,415.1,224.2,415.1,223.5,415.2z M243.7,533.7c0-1.2,0.1-2.4,0.1-3.7c0,0,0,0,0,0C243.7,531.2,243.7,532.5,243.7,533.7z
		 M248.4,333.5c0.1,1.1,0.7,1.9,2.4,1.9c0,0.3,0,0.5,0,0.8c0-0.3,0-0.5,0-0.8C249.1,335.4,248.5,334.6,248.4,333.5z M250.8,336.3
		c0,0.3,0,0.5,0,0.8C250.8,336.8,250.8,336.6,250.8,336.3z M259.4,504.9c0.4,0,0.7,0,1.1-0.1C260.2,504.9,259.8,504.9,259.4,504.9z
		 M260.5,504.8c0.7-0.2,1.3-0.6,1.7-1.4c-0.3-1.1-1-1.6-2.1-1.7c1,0,1.8,0.6,2.1,1.7C261.8,504.2,261.2,504.6,260.5,504.8z
		 M301.2,314.7c-0.8,0-1.6,0-2.5,0c0,1.1,0,2.2,0,3.3c0-1.1,0-2.2,0-3.3h0l0,0C299.6,314.7,300.4,314.7,301.2,314.7
		c1.6,0,3.2,0,4.8,0C304.4,314.7,302.8,314.7,301.2,314.7z M339.2,469.4c0-0.1,0-0.2,0-0.4C339.2,469.2,339.2,469.3,339.2,469.4
		c0,0.2,0.1,0.5,0.2,0.8C339.3,469.9,339.3,469.7,339.2,469.4z M339.6,471.3c0-0.2-0.1-0.5-0.1-0.7
		C339.5,470.8,339.6,471.1,339.6,471.3z M387.6,458.4c-0.1,0.2-0.2,0.4-0.3,0.5c-0.1,0.2-0.3,0.3-0.4,0.5c0.2-0.2,0.3-0.3,0.4-0.5
		C387.4,458.8,387.5,458.6,387.6,458.4c0.1-0.3,0.2-0.6,0.2-1C387.8,457.8,387.7,458.1,387.6,458.4z M387.7,457.1L387.7,457.1
		c0.3-0.2,0.7-0.3,1-0.4C388.4,456.8,388,456.9,387.7,457.1z M546.5,427.3c-1.1,2.5-2.3,2.3-4.2,2.2c-0.2-1.9-1.4-3.7-0.9-5.8
		c0.2-0.9-0.1-1.8-1.5-1.8c-0.9,0-1.7,0-2.5,0.9c-3.7,4.1-8.3,6.8-14.4,6.9c-1.5-0.7-4.4,1-4.3-2.1c0.1-2.2,1.9-2.4,3.7-2.3
		c3.6,0.3,4.4-1,3.4-4.1c-0.4-1.2-0.9-2.8,0.8-3.8c2.8,0.1,5.6,0.1,8.4,0.2c0.3,0.7,0.7,2.5,1.3,1.7c1.5-1.9,5.5-1.6,4.9-5.4
		c-0.4-2.7-2.3-1.9-3.8-2.3c0-0.9,0-1.7,0-2.6l0,0c1.6-0.1,3.1-0.2,4.7-0.3c2-0.1,4.1-0.2,6.1-0.2c-0.2-3.7,2.2-4.5,5.6-4.1
		c4.6,0.6,7.5,2.4,6.4,7.2c4,0.8,7.9,1.9,11.9,0.2c2,0.1,3.9,0.2,5.9,0.3c0,0.7,0.3,2,0,2.1c-4.7,2-6.1,6.7-9.4,9.7
		c-1.5,1-2.5,2.9-4.9,1.9c-1.2-1.1-2.7-0.8-4.1-0.7c-3.5,1-1.3-3.5-4.8-3.8C549.3,421,547.7,424.4,546.5,427.3z M814.1,460.1
		c-1,0.3-1.4,0.7-1.8,1.6c-3.5,7.9-5.1,8.2-12.1,2.6c0-0.3,0-0.5,0-0.8c1.7-1.5,2.5-3.6,0.9-4.9c-1.9-1.5-4.6-0.8-6.8,0.4
		c-2-0.1-4.6,0.6-5-2.4c0-1,0.1-2,0.1-3c0.8-0.1,1.6-0.1,2.4-0.2c0.8,0.2,1.6,0.4,2.4,0.6c0.1,0.9-0.3,2.4,1.3,2.4
		c1.6,0,1.1-1.5,1.2-2.4c1.5-0.2,3-0.3,4.6-0.5c1.8,0.6,1,3.5,3.6,3.4c1.1,0.9,2.4,1.5,3.5,0.2c2.5-3.2,7.3-5.6,11-5.4
		C819.8,455.6,818.5,458.7,814.1,460.1z M1041.3,293.7c0.6,0.1,1.1,0.2,1.6,0.4C1042.4,293.9,1041.9,293.7,1041.3,293.7
		c-0.9-2.3-2.3-2.2-3.7-1.8c-0.6,0.2-1.1,0.4-1.7,0.5c0.6-0.2,1.1-0.4,1.7-0.5C1039,291.5,1040.4,291.4,1041.3,293.7z M956.4,225.3
		c0,0,0-0.1,0-0.1c0,0,0,0,0,0L956.4,225.3c0,3.8-3.8,3.2-6.1,4.3c0,2.7-1.6,3.1-3.4,3.1c1.9,0,3.5-0.4,3.4-3.1
		C952.6,228.5,956.3,229.1,956.4,225.3z M934.4,218.6c-1.6,0-3.2-0.1-4.8-0.1C931.3,218.5,932.9,218.5,934.4,218.6
		c0.2,0.5,0,1.3,0.1,1.9C934.5,219.9,934.6,219.1,934.4,218.6z M992.1,261.3c-1.3-0.4-2.6-0.5-3.9-0.5c-0.7,0-1.3,0-2,0.1
		c-1,0.1-2,0.2-3,0.3c1-0.1,2-0.2,3-0.3c0.7-0.1,1.3-0.1,2-0.1C989.5,260.8,990.8,260.9,992.1,261.3c0.3-0.3,0.5-0.6,0.8-0.9
		C992.7,260.7,992.4,261,992.1,261.3z M993.3,256.7c0,0,0.2,0.1,0.3,0.2L993.3,256.7c-2-0.4-3.6-1.1-4.7-2.3
		C989.6,255.6,991.3,256.3,993.3,256.7z M987.1,249.5c0,0,0,0.1,0,0.2L987.1,249.5L987.1,249.5z M987.1,249.8L987.1,249.8
		L987.1,249.8c-1.1,0-2.3,0-3.4,0C984.8,249.8,986,249.8,987.1,249.8z M1017.9,274.9c0.2-0.3,0.3-0.7,0.4-1.1c0.1-0.4,0.1-1,0.2-1.6
		c0,0.6-0.1,1.1-0.2,1.6C1018.2,274.2,1018.1,274.6,1017.9,274.9c-0.8,1.5-3,1.5-8.9,1.6c0.1,0.1,0.2,0.3,0.3,0.4
		c-0.1-0.1-0.2-0.3-0.3-0.4l0,0C1014.9,276.4,1017.1,276.4,1017.9,274.9z M892.6,249.1c-0.2,2.6-0.7,4.9-2.5,6
		c-0.4,0.2-0.8,0.4-1.2,0.5c0.5-0.1,0.9-0.3,1.2-0.5C891.9,254,892.4,251.7,892.6,249.1c1.5,0,2.1-0.6,2.3-1.5
		C894.7,248.5,894.1,249.1,892.6,249.1z M907,220.8c-0.1,0.7-0.2,1.5-0.3,2.2C906.9,222.2,906.9,221.5,907,220.8L907,220.8z
		 M924.4,271.2c1.4,0.2,1.7,1,1.7,2C926,272.2,925.7,271.4,924.4,271.2C924.4,271.2,924.4,271.2,924.4,271.2z M879,221.3
		c-0.5,0.3-1.1,0.3-1.7-0.3C877.9,221.6,878.5,221.6,879,221.3z M876.6,241.3c-0.3,0-0.6,0.1-0.9,0.2v0
		C876,241.4,876.3,241.4,876.6,241.3z M834.8,269.7c-0.1,0-0.1,0-0.2,0C834.6,269.8,834.7,269.7,834.8,269.7z M835,255.6
		c0.1,1.5,0.1,3.1,0.2,4.6c0,0,0,0,0,0C835.1,258.7,835,257.1,835,255.6L835,255.6c0.7-0.1,1.3-0.1,2-0.2
		C836.3,255.5,835.6,255.6,835,255.6z M852.9,263.3c0,0.4,0.1,0.9,0.1,1.3C853,264.2,852.9,263.7,852.9,263.3z M859.8,250.2
		c0.8,0,1.5,0.1,1.9,0.3C861.3,250.4,860.7,250.3,859.8,250.2z M862.2,250.8c0.2,0.2,0.4,0.4,0.5,0.6
		C862.6,251.2,862.4,251,862.2,250.8z M859.7,258.6c-0.3-0.1-0.7-0.4-1-0.3C859,258.2,859.4,258.5,859.7,258.6
		C859.7,258.6,859.7,258.6,859.7,258.6z M858.9,250.3L858.9,250.3c-1.6,0-3.2,0-4.8,0C855.7,250.3,857.3,250.3,858.9,250.3z
		 M841,249.2c0.4-0.1,0.8-0.2,1.2-0.2c2.1,0,4.2-0.1,6.3,0c-2.1-0.1-4.2,0-6.3,0C841.8,249.1,841.4,249.1,841,249.2
		c0.2,0.4,0.4,0.7,0.5,1.1C841.4,250,841.3,249.6,841,249.2c-0.7-0.4-1-0.9-1.1-1.5C840.1,248.3,840.3,248.8,841,249.2z
		 M839.8,246.7c0-0.2,0-0.3,0-0.5C839.8,246.4,839.8,246.6,839.8,246.7z M784.5,422.9C784.5,422.9,784.5,422.9,784.5,422.9
		c-0.8,0.5-1.6,1-2.3,1.5C783,423.9,783.8,423.4,784.5,422.9z M693.4,446.8c-0.6,0.4-1.1,0.9-1.2,1.5
		C692.3,447.6,692.8,447.2,693.4,446.8c0-0.3,0-0.6,0.1-0.9C693.4,446.2,693.4,446.5,693.4,446.8z M693.4,445.9L693.4,445.9
		c0-1-0.1-2-0.1-3.1C693.4,443.8,693.4,444.8,693.4,445.9z M724.1,450.5c-0.1,0.1-0.2,0.3-0.4,0.4
		C723.9,450.8,724,450.7,724.1,450.5z M721,451.3L721,451.3L721,451.3C721,451.4,721,451.3,721,451.3z M734.2,456.7L734.2,456.7
		c-0.4,0.2-0.8,0.3-1.3,0.6C733.3,457.1,733.8,456.9,734.2,456.7z M743.8,456.8L743.8,456.8L743.8,456.8c0-1.1,0-2.2,0-3.3
		C743.8,454.6,743.8,455.7,743.8,456.8c0.2,0,0.4-0.1,0.6-0.1C744.2,456.7,744,456.8,743.8,456.8z M746.5,456.8c-0.1,0-0.2,0-0.3,0
		C746.2,456.8,746.4,456.8,746.5,456.8z M705.3,269.2c-0.7-0.1-1.4-0.2-2.1-0.3l0,0C703.9,268.9,704.6,269,705.3,269.2z
		 M681.6,398.9c-0.2-0.1-0.5-0.2-0.8-0.2C681.1,398.7,681.4,398.8,681.6,398.9z M691.1,401.1L691.1,401.1c-2.8,0.3-5.6,0.7-8.5,1
		c0,0,0,0,0,0C685.4,401.8,688.2,401.4,691.1,401.1z M684.3,405.2c-0.2,0-0.5-0.1-0.6-0.2C683.8,405.1,684,405.2,684.3,405.2z
		 M690.7,404.5c-1.5,0.1-3.1,0-4.5,0.4C687.6,404.5,689.2,404.7,690.7,404.5c0,0,0.2,0,0.2,0L690.7,404.5z M684.5,267.5
		c-0.2,0-0.5,0.1-0.7,0.2l0,0C684,267.6,684.2,267.6,684.5,267.5z M682,399.1c-0.1-0.1-0.1-0.1-0.2-0.1
		C681.9,399,681.9,399.1,682,399.1z M681.5,267.3c0-0.2,0-0.4,0-0.6c-0.8-1.5-1.7-3-2.5-4.4l0,0c0.8,1.5,1.7,3,2.5,4.4
		C681.5,266.9,681.5,267.1,681.5,267.3z M679.7,403.4c-0.3,0.3-0.7,0.5-1,0.7C679.1,403.9,679.4,403.6,679.7,403.4
		c0.8-0.6,1.6-1.4,2.8-1.3c0,0,0,0,0,0C681.3,402,680.5,402.7,679.7,403.4z M683.1,404.6c-0.1-0.1-0.2-0.2-0.2-0.4
		C683,404.4,683,404.5,683.1,404.6z M682.4,262.4c0,0,0.1-0.1,0.2-0.2L682.4,262.4C682.4,262.4,682.4,262.4,682.4,262.4
		c-1.2-0.1-2.3-0.1-3.5-0.2h0C680.1,262.3,681.3,262.3,682.4,262.4z M621.7,276.6c-0.3,0-0.5-0.1-0.8-0.1
		C621.2,276.6,621.5,276.6,621.7,276.6c0.2,0,0.4,0,0.6,0C622.2,276.6,621.9,276.6,621.7,276.6z M645.7,429.5c0-2.2-0.5-3.5-3.6-3.4
		c-6.1,0.3-12.1,0.1-18.2,0.1c0.5-1.4-0.7-3.3,1.7-3.9c2.3-0.6,2.6,0.9,3.3,2.4c0.5,1,2.1,0.4,3.2,0.3c3.4-0.8,8.2,2.6,9.8-3
		c2.1-0.6,5.3,1.4,6-2.3c4.2-0.7,8.3-4,7.6-6.5c-1.2-4.3,2.3-1.3,2.7-2.3c3.2,0.1,3.7,3.4,4.1,4.6c1.7,5,5.5,4.2,9.4,3.9
		c-0.1,2.9,0.3,3.2,1,2.6c2.9-2.6,5.7-0.4,8.5-0.2c0.7,6,5.6,2.3,8.5,3c2.4-1,7.5,3.3,7.2-3.1c0.3-0.7,0.4-1.4-0.2-2
		c3.5-0.4,7.1-0.8,7.3,4c0.1,1.5,1.5,1.4,2.7,1.5c4.7,0.3,9.1,0.6,14.1-0.4c3.4-0.7,8.8,0.3,13.3,0.9c2.4,0.3,4.7,0.7,7,0.3
		c5-0.9,7.3,0.6,6.5,5.3c-0.1,0-0.1,0.1-0.2,0.1c0,0.1-0.1,0.1-0.1,0.1c-14.3,0-28.6-0.1-42.9-0.1c0.2-2.1-1.3-1.9-3-1.9
		c-8.8,0-17.5-0.1-26.3-0.3c-2.3,0-4.8,0.4-6.8-1.1c-4.8-3.1-7.9-2.8-9.7,1c-0.8,0.1-1.5,0.2-2.3,0.3c-2-0.4-3.8-5.6-6-0.2
		c-0.1,0.2-1.5,0-2.2,0.1C647.2,429.5,646.5,429.5,645.7,429.5z M689.2,488.1c0.1-0.1,0.2-0.2,0.3-0.3
		C689.4,487.9,689.3,488,689.2,488.1z M689.5,487.7c0.2-0.3,0.3-0.7,0.3-1.2c0.1-1.5-0.8-2.1-1.9-2.2c1.1,0.1,2,0.7,1.9,2.2
		C689.8,487,689.7,487.4,689.5,487.7z M765.8,453.7c0,0.2,0,0.4,0,0.6C765.7,454.1,765.7,453.9,765.8,453.7c0.5,0,1.1-0.1,1.6-0.1
		C766.8,453.7,766.3,453.7,765.8,453.7z M784.6,422.9C784.6,422.9,784.6,422.9,784.6,422.9c1.4,0.2,2.7,0.4,3.6,1.2
		C787.3,423.4,785.9,423.1,784.6,422.9z M791.8,426c-0.8,0-1.6,0-2.3,0C790.3,426,791,426,791.8,426c0.6-0.8,1.4-0.9,2.3-0.8
		C793.2,425.1,792.4,425.2,791.8,426z M814.6,429.3L814.6,429.3c0.4-0.1,0.8-0.1,1,0C815.4,429.2,815,429.2,814.6,429.3z
		 M815.9,429.4c0.2,0.1,0.3,0.2,0.4,0.3C816.2,429.7,816.1,429.5,815.9,429.4z M817.1,431c0.1,0.2,0.2,0.3,0.3,0.4
		C817.3,431.3,817.2,431.1,817.1,431z M977.1,451.6c0.8,0,1.2,0.4,1.4,0.9C978.3,451.9,977.9,451.6,977.1,451.6z M987.3,280.7
		c-1.3-3.6-4.7-1.5-7.1-2.2c-2.4-0.4-4.8-0.7-7.1-1.1c-0.4-1.6,2.8-1.2,2-3.1c-0.6-1.8-2.2-0.8-3.3-1.3c0-1,0-2,0.1-3
		c1.6-0.7,0.9-2.1,1.2-3.2c4.7,0,9.4-0.1,14.1-0.1c-0.4,5,3.8,2.6,6.1,3.1c2.3,1.3,4.5,1.9,6-0.9c4.9,3.3,10.9,1.1,16.9,2.8
		c-2.5,2-5.1,1.1-7.3,1.6c-0.8,0-1.6-0.1-2.4-0.1c-2.6,0-5.2,0.1-7.7,0c-2.9-0.1-3.3,1.4-3,3.5C993.4,278.6,991.9,282.5,987.3,280.7
		z M1006.5,284.1c0-0.2,0-0.5,0-0.7C1006.5,283.6,1006.5,283.8,1006.5,284.1z M1006.5,282c0,0.4,0,0.9,0,1.3
		C1006.5,282.9,1006.5,282.5,1006.5,282c2.3,0.3,4.6,0.6,6.9,0.8C1011.1,282.6,1008.8,282.3,1006.5,282z M1063.9,300.5
		c0.4,0,0.9,0,1.3,0C1064.8,300.5,1064.4,300.5,1063.9,300.5z M1053.9,295.5c0-0.2-0.1-0.3-0.1-0.5
		C1053.8,295.2,1053.9,295.4,1053.9,295.5z M1051.4,293c0.6,0,1.1,0.2,1.5,0.5C1052.5,293.2,1052,293,1051.4,293
		c-1.3,0.2-2.3,0.7-2.5,1.8C1049.1,293.7,1050,293.2,1051.4,293z M1111.9,445.7c-0.8,0-1.8,0.2-2.6,0.2
		C1110.1,445.9,1111.1,445.7,1111.9,445.7c0.2,0,0.3,0,0.5,0c0.7,0,1.5,0,2.2,0c-0.7,0-1.5,0-2.2,0
		C1112.2,445.7,1112.1,445.7,1111.9,445.7z M1116.8,445.7C1116.8,445.7,1116.8,445.7,1116.8,445.7
		C1116.8,445.7,1116.8,445.7,1116.8,445.7L1116.8,445.7z"/>
	<path class="st0" d="M151.1,224.7c1,1.7,1.3,4.2,4.8,4.9c2.1,0.4,2.4,5.3,0.1,5.8c-6.2,1.3-2.9,4.5-2.8,7.4
		c0.2,4.1,4.9,8.5,3.9,10.7c-2.5,5.5,2.3,6.5,4.7,8.3c1.7,1.3,3.6,3.2,6.7,3.1c-2.4,3.1-5.3,3.3-7.2,1.4c-3.6-3.6-4.2-0.2-4.8,1.6
		c-0.6,1.8-0.1,4-0.2,5.9c-0.3,3.6,1.1,4.8,4.8,3c2.7-1.3,3.6-0.5,3.5,2.1c-0.1,2.3-0.2,4.5,3.6,4.1c1.2-0.1,2.4,0.2,2.4,1.7
		c0,1.3-1,2-1.6,2.9c-1.2,1.7-5.4,0.7-4.1,4c0.7,2.3-2.9,6.6,3.4,6.3c2.9-0.6,6.9,0.5,7.1-4c1.6-0.2,3.3-0.3,4.9-0.5
		c5.1,0.6,5,0.6,3.9-3.4c-0.7-2.7-1.1-5.5,2.6-7c0.7-1.4,1.4-2.8,2-4.3c2.6-0.4,5.3-0.8,7.9-1.2c1.5-0.2,2.8-0.9,2.6-2.3
		c-0.2-1.7-1.6-2.3-3.4-1.9c-3.2-0.1-6.3-0.2-9.5-0.4c-0.2-3.3,2.7-1.4,4.1-2.1c3.9-2.1,10.3,1.6,12.5-4.4c3.7,0.1,7.5,0.6,11.2-0.9
		c-3.6-1.5-7.4-1-11.2-0.9c-1.6,0-3.2,0-4.8,0c-0.8,0-1.6,0-2.4,0c-1.6-0.8-4.8,1-4.7-2.5c0-3.3,2.7-1.8,4.3-2
		c1.7-0.2,3.2,0,3.1-2.2c1.6-0.3,3-0.4,3-2.6c0-2.2-1.4-2.7-3.2-3c0,0,0-0.1,0-0.1c0,0,0,0,0,0c0.2-0.9,0.3-1.8,0.5-2.8
		c1.5-0.2,2.9-0.4,4.4-0.6c1.8,0.5,3.4,0,4.7-1.1c3.7,1.1,7.6,3.1,10.6-1.1c0.7-1.8,0.8-3-2-3c-9.7,0.1-19.3,0-29,0.1
		c-1.8-0.1-3.6-0.2-5.4-0.2c-2.7,0.1-4.5-3-4-3.4c2.3-1.8-0.2-3.9,1-5.5c3.9-0.1,9.6,2.1,7.5-5.2c6.7-0.1,13.4-0.2,20.1-0.3
		c0-1.4,0-2.8,0-4.2c-0.3-0.4-0.7-0.8-1-1.1l0,0c0.3,0.4,0.7,0.8,1,1.1c0,1.4,0,2.8,0,4.2c4.1,1.3,8.1,0.3,12.1-0.1
		c4.1,1,8.1-0.8,12.3-0.5c1,0.1,3.3,0.4,3.1-1.5c-0.1-1.6-1.8-2.1-3.6-2.1c-4,0.1-7.9,0.1-11.9,0.2c-0.8,0-1.6,0-2.4,0
		c-0.5-0.4-1-0.8-1.5-1.3c0.4-0.6,1.2-1.2,1.2-1.8c0-1.7,3.6-0.9,2.4-3c-0.9-1.5-2.9-0.5-4.4-0.7c-5.2-0.6-10.6,1-15.7-1.1
		c0.2-1.1,0.4-2.6-1.1-2.6c-4,0.1-7-2.7-10.8-2.9c-1-5.1-4.1-3.6-7.3-2.1c-2.3,0.6-4-0.8-5.9-1.7c-4.6-2.3-7.2-6.3-9.6-10.4
		c-1-3.4-3.8-4.4-7.3-4.6c-0.3-2.2-2.1-1.8-3.7-1.9c-0.7-0.3-1.4-0.6-2.2-0.8c-1.6-0.3-1.7-3.1-4.1-1.9c-2.1,1.1-1.3,2.7-1.2,4.3
		c0.1,0.7-0.9,1.5-1.5,2.3c1.9,0.2,3.6,0.3,5.4,0.5c0,0.9,0.2,1.7,1.2,2.1c-1.5,4.4,2.4,11.4-6.9,11.9c-0.4,0-0.7-0.1-1.1-0.2
		c-1.4-3.1-0.7-5.4,3.7-6.3c-2.3-0.8-4.2-2.2-5.6,0.3c-1.6,2.8-2.5,5.4-0.7,8.9C142,217.6,148.1,219.8,151.1,224.7z M181.8,220
		C181.8,220,181.8,220,181.8,220C181.8,220,181.8,220,181.8,220z M181.5,220.2c-0.4,0.2-1.3,0.3-2.6,0.5c0,0,0,0,0,0
		C180.2,220.5,181,220.4,181.5,220.2z M211.7,224c-1.3-0.2-2.7-0.6-4-0.6C209,223.4,210.4,223.8,211.7,224z"/>
	<path class="st0" d="M778.4,553.8c-6.4,2-7.3,1.5-9.4-4.6c-3.2-9.2-4.2-10-14.7-10.2c-6.6-0.2-13.1-0.1-19.7-0.1
		c-3.9,0-6.9,1.2-7.4,5c-0.2,1.9-1.1,3.2-2.8,3.5c-4.1,0.9-3,7-8.3,6.6c0,0-0.6,1.5-0.3,2c1.7,3.2-0.8,5.8-2.4,7.4
		c-4.3,4.5-6,8.8-2,14c2.3,2.9,1.8,7.2,5.2,9.4c3.7,2.3,6.6,7.5,12.7,2.8c1.3-1,5-1.2,7.7,0.6c2.9,1.9,5.6,1.9,5.7-2.4
		c0.1-1.6,1.4-2.1,2.6-3.1c3.2-2.6,5.7,0.2,8.5,0.1c4.5-0.1,3.8,2.1,2,4.4c-2.4,3.2-1.9,5.8,1.7,7.6c3.6,1.9,7,2.1,9.2-2
		c2.2-4.1,1.5-7.3-3.6-9c-2.5-0.8-1.3-2.7-1.5-4.1c-0.2-1.9,0.9-2.4,2.9-2.4c2.3-0.1,5.8,1.2,6.5-0.8c1.4-4,4.6-3.4,7.6-3.7
		c4.2-0.4,4.5-1.1,2.2-4.3c-2.2-2.9-2.9-6.4-2-9.6c0.8-2.9,4.7-0.3,6.6-1.9C783.9,553.4,782.7,552.4,778.4,553.8z"/>
	<path class="st0" d="M550.2,489.1c9.3-3.6-0.9-5-1.3-7.3c-0.3-1.8-4.5-1.7-6.1,1.2c-0.3,0.6-1.1,1.1-1.7,1.5
		c-4.9,3.1-4.9,3.3-0.4,6.4c1,0.7,1.7,1.5,1.6,2.7c-0.1,1.7-1.4,1.3-2.6,1.5c-10,1-14,4.5-14.5,13.6c-0.1,1.6-0.9,2.4-1.5,3.8
		c4-1.3,7.9-1.1,11.8-1c5,0.1,8.5-1.6,11.6-5.4c1.2-1.5,0.6-3.9,3.1-4.8c5.6-2.1,3.6-5.7,0.4-7.6
		C547.4,491.8,548.6,489.7,550.2,489.1z"/>
	<path class="st0" d="M652.5,608.8c0-6.7-1.8-7.8-9-6.6c-2.4,0.4-3.1,2.8-5.2,3.3c-2.3,0.5-5.1,0.8-4.4,3.7c0.7,3.3,1.2,7.7,3.6,9.2
		c2.9,1.8,7.1,2.4,10.4,4.5c3,0.8,4-0.5,3.7-3C653.9,616.3,652.5,612.5,652.5,608.8z"/>
	<path class="st0" d="M462.6,155.1c6.5-1.1,5.2-5.4,5.4-10.2c2.5-4.5-2.1-6.7-6-8.7c-2.5-1.3-5.1-2.5-7.9,1.6
		c-2.4,3.5-1.7,6.6-2,9.9C451.5,154.3,453.8,156.6,462.6,155.1z"/>
	<path class="st0" d="M395.5,161.6c6.5,0.2,6.6-3.9,6.6-7.8c0.4-6.8-2-10.5-6.9-10.8c-3.8-0.2-6.6,3.4-6.9,9.2
		C387.9,158,390.5,161.4,395.5,161.6z"/>
	<path class="st0" d="M796.6,505.9c-2.4,0.3-4.2-4.4-3-6.6c1.8-3.3,0.4-4.6-3.6-4.1c-3.2-0.7-4.6,0.6-4.2,3.7c0.4,3,1.1,6,0.7,8.9
		c-0.2,1.9-2.1,4.1,1,4.6c2.1,0.3,3.8,2.2,6.1,1.3c0.9-0.4,1.8-0.9,2.7-0.9c2.1-0.2,5.1,0.3,4.8-2.5
		C800.9,508.3,800.7,505.4,796.6,505.9z"/>
	<path class="st0" d="M903.7,520.4c-2.2-0.1-5.9,1.6-6.1-0.9c-0.2-2.7,3.9-0.6,5.8-1.6c2.4,0.2,4.3-0.5,6.4-2.5
		c-2.2-0.2-3.7-0.4-5.2-0.6c-1.1-4.6-4.9-1.3-7.3-2.1c-6.7-1.8-3.8,3.1-4.5,5.4l-0.1,0c-1.5,0.2-2.9-1.8-4.3-0.2
		c-0.4,0.5-0.6,1.4-0.4,1.9c2.5,4.9,10.7,8.3,16.4,6.4c2.8-0.9,6.1-2.6,5.7-5.3C909.8,519.3,905.9,520.5,903.7,520.4z"/>
	<path class="st0" d="M649.2,478.6c-4-0.3-4.8,1.8-4.8,4.5c0.1,3.4,2.3,7.9,5.2,7c4.4-1.4,7,0.9,10.9,1.6
		C661.7,484.3,657,479.2,649.2,478.6z"/>
	<path class="st0" d="M546.2,241.2c1.4-1.1,1.7,0.5,2.4,1.3c2.4,2.6,3.8-0.7,5.8-1c0.8-0.1,1.7-0.3,1.3-1.3c-1-2.2-3.2-1-4.7-1
		c-2.6,0.1-5.3,1.4-5.4-3c0-1.5-4-1-4.7-0.2c-3.5,3.8-8.8,2.3-13.7,4.4c1.5,0.3,2.4,0.3,3,0.7C535.6,244.9,540.8,245.1,546.2,241.2z
		"/>
	<path class="st0" d="M439.2,524.6c-0.7-0.5,0.9-2.6-1.4-2.4c-1.5,0.2-2.7,0.3-4.1,2c-3,3.6-0.5,8.1-3.2,11.4
		c-4.1,5,1.1,3.6,2.9,4.3c3-0.3,6.7,0.1,3.4-3.7c-1.3-1.5-0.3-2,0.5-3C439.6,530.8,445.6,528.8,439.2,524.6z"/>
	<path class="st0" d="M536.3,457c5.1-5.2-4.1-2.1-3.3-5.1c1.2-1.1,5-0.1,4.5-3.4c-0.1-0.7,0.1-1.6-1-1.6c-2.9,0.1-4.9,1.8-5.6,3.9
		c-1.3,3.6-2.5,3.3-5.5,1.3c-2.1-1.4-5.9-4.2-6.8,1.4c0.5,3.5,3.7,5.1,6.3,7.2C527.4,456.6,527.4,456.6,536.3,457z"/>
	<path class="st0" d="M358.7,245.9c3.3,0.3,5.4-1.6,5.7-3.9c0.4-2.4,2.4-5.4-1.6-7.7c-1.6-0.9-3.2-2.4-4.1-1
		c-1.7,2.4-6.6,3.5-4.7,7.8c1.1,2.6-2.3,2.2-3.6,4.7C353.5,245.8,356.1,245.7,358.7,245.9z"/>
	<path class="st0" d="M434.5,509.9c0.3-4.4-2.6-4.7-6.2-5c-4.9-0.5-6.5,1.5-6.1,5.6c0.2,1.8,0.4,3.6,0.6,5.4
		c-0.1,2.5-2.2,2.1-3.9,2.1c-4.2,0-2.5,2.8-2.7,4.6c-0.3,2.6,1.1,3.2,3.8,3.3c3.1,0.1,3.7-1.1,3.5-3.5c-0.1-2.1,0-4.3,0-6.5
		c1.6,0,3.2-0.1,4.8,0.1C434,516.9,434.2,513.6,434.5,509.9z"/>
	<path class="st0" d="M1116.9,263.2c0,0-0.2-0.1-0.2-0.1c0,0,0,0,0,0l0,0c0,0,0,0,0,0.1c0,0.1-0.1,0.1-0.1,0.1l0.1,0
		c0,0.3,0,0.7,0.2,0.8c0.4,0.2,0.7,0.4,1,0.6C1117.9,264.1,1117.6,263.6,1116.9,263.2z"/>
	<path class="st0" d="M609.1,250.1c3.9-0.2,8.8,0.1,7.5-6c-0.5-2.1,1.6-5.5-2.8-5.9c-2.8-0.3-10.3,6-10.4,8.2
		C603.3,250.3,606.6,250.2,609.1,250.1z"/>
	<path class="st0" d="M1088.1,228.4c-1.3-0.6-5.2,0.5-5.6,1.6c-1.8,5-6.3,4.6-10.6,5.3c7.5,1.5,14.9-0.2,22.4-0.4
		c1.4,0,2.3-0.3,2.3-1.7c0-2.7,0.6-5.5-1.4-9.7C1094.1,228.5,1092.7,230.7,1088.1,228.4z"/>
	<path class="st0" d="M796.7,100.5c3.6,1.8,3.4-2,4.4-3.9c1.1-2.1-0.8-5.5,3.5-6.4c0.4-0.1,0.6-2.5,0.1-3.4c-0.6-1.1-2-0.4-3.1-0.1
		c-4.4,1.1-6.9,4.5-9.2,7.4C789.7,97.1,791.9,100.5,796.7,100.5z"/>
	<path class="st0" d="M699.2,581.5c-2,0.9-5.2,3-5.4,5.6c-0.2,2.6,3.3,5.1,6.4,5.1c3.6,0,6.9-1.8,8.8-4.9
		C709.7,586.1,702.6,581.4,699.2,581.5z"/>
	<path class="st0" d="M616.7,579.5c-4.2,0.4-4.7,1.8-2.6,7.5c0.6,1.5,2.1,2.5,2.9,3.9c1.5,2.6,7.2,2.1,7.7-0.5
		c0.6-3.3,1-7.2-0.3-10.2C623.4,578,619.4,579.5,616.7,579.5z"/>
	<path class="st0" d="M88.2,172.7c2.4,0.4,4-1.3,4-4.6c0-4.3-3.7-5.9-7.1-6.3c-3.1-0.4-4.7,2.1-4.7,5.2
		C80.5,170.8,82.8,172.5,88.2,172.7z"/>
	<path class="st0" d="M461.2,539.1c-2.8,0.3-7.5-0.6-6.4,4.1c-0.1,3.7,2.1,6.8,4.5,6.3c3-0.6,6.4-1.3,6.5-5.4
		C465.8,541.1,464.9,538.7,461.2,539.1z"/>
	<path class="st0" d="M23.7,294.5c2.4-4.8-2.8-7-4.3-10.5c-0.5-1.2,0.6-2.8-1.9-3.3c-2.7-0.6-3.1,1.6-4.5,2.4
		c-1.5,0.9-1.4,3.1-0.3,3.8C16.5,289.4,18.5,293.9,23.7,294.5z"/>
	<path class="st0" d="M635.6,531.2c0.4-2.2-2.2-4.8-4.9-4.1c-2.5,0.7-6.4,1-6,5.3c0.3,2.6-0.5,5.4,3.9,4.3
		C633.7,537.5,635,533.9,635.6,531.2z"/>
	<path class="st0" d="M796.5,536.5c-4.3-0.4-7.1,1-7.2,5c0,1.9,1.6,6,2.8,4.6c2.4-2.7,7.9-1.2,8.1-6
		C800.4,537.2,799.4,536.1,796.5,536.5z"/>
	<path class="st0" d="M1254.9,401.2c-1.9-0.1-3.9,0-5.8-0.2c-3.2-0.3-2.9,1.5-2.5,3.4c-0.4,7-0.4,6.9,7,6.5c1.8-0.1,4,0.2,3.7-2.2
		C1256.9,406.1,1259.5,402.7,1254.9,401.2z"/>
	<path class="st0" d="M1205.2,440.3c-3.7-0.5-7.4,0.7-7.3,3.8c0,2.8,4.6,2,6.4,2.8c3.7,0.4,4.8-0.7,5-3.6
		C1209.4,440.2,1207.5,440.6,1205.2,440.3z"/>
	<path class="st0" d="M1076.1,225.1c-5.3,0-10.6-0.1-16-0.1c-1.8,0-3,0.8-3.2,2.5c-0.2,2.4,2,1.6,3.3,1.7c5.3,0.4,10.6-0.2,15.8-1.1
		c4.2,1.9,5.8-3.1,9-2.9c4,0.2,5.1-1.6,5.6-4.5c2.6-0.2,3.2-1.8,3.1-3.8c-0.1-1.4-1.2-1.7-2.5-1.7c-2.7-0.1-1.9,1.8-2.1,3.1
		C1084.8,220.7,1081.3,224.3,1076.1,225.1z"/>
	<path class="st0" d="M636.8,594.7c0.7-1.3-1.2-4.1-4.4-3.4c-3-0.6-4.3,0.5-4,3.4c0.3,2.8,0.2,5.3,4.6,5.4
		C637.6,600.2,635.8,596.5,636.8,594.7z"/>
	<path class="st0" d="M860.8,451.9c0.4,5.2-4.2,4.6-7,6.1l0.2,0.2c0.3,2.2,2.1,2,3.8,1.9c5.3,1,6.9-3.9,10.6-5.4
		c0-1.1,0-2.1-0.1-3.2C865.7,451.7,860.7,451,860.8,451.9z"/>
	<path class="st0" d="M654.7,244.9c6.6,1.9,7.8,1.1,8.7-5.7c1.3-4.6-2.1-3.4-4.7-3.2c-3.5-0.3-2.6,1.7-2.1,3.5
		C657.2,241.7,657.3,243.7,654.7,244.9z"/>
	<path class="st0" d="M674.4,575.1c-1.8-0.8-2.8,1.2-4.2,2.2c-3.1,2.2-2.1,6.2-6.3,8.7c6.2-0.3,7.9-4,10.4-6.5
		C675.3,578.7,677,576.2,674.4,575.1z"/>
	<path class="st0" d="M1267.7,387.9c-3.9,0.4-1.6,3.1-2.1,4.7c-0.3,1.1,0.6,2.8,1.7,1.9c3.7-3.2,8.5-1.3,12.7-3.1
		C1275.7,390.4,1272.3,387.4,1267.7,387.9z"/>
	<path class="st0" d="M202.6,100.7c2.5,0.2,4.7-0.7,3.8-3.8c-0.4-1.5,1-4.8-2.6-3.8c-2.2,0.6-5.6,1.1-5.8,4.7
		C197.7,101.4,200.8,100.5,202.6,100.7z"/>
	<path class="st0" d="M927.3,181.2c-0.1,0-0.1-0.1-0.2-0.1c-0.2,0-0.4,0.1-0.6,0.1c0.2,0.1,0.4,0.1,0.6,0.2
		C927.2,181.3,927.2,181.3,927.3,181.2z"/>
	<path class="st0" d="M940.8,182.5c3.7,0.5,5.1-1,4.7-4.3c0.2,0,0.5-0.1,0.7-0.1c-0.1,2.7,2.1,2.1,3.8,2.3c0,1.4,0,2.7,0,4.1
		l0.1,0.2c-2.4,0.1-5.7-1.4-7,0.7c-0.9,1.4,0.9,4,2.9,5.2c0.7,0.4,1.9,0.2,2.9,0.3c11.3,0.3,22.1-3.2,33.1-4.6
		c3.9-0.5,7,0.5,10.4,0.7c7.7,0.5,14-4,21.2-4.7c0-0.4-0.2-0.8-0.4-1.1c-0.4-0.5-1.1-0.8-1.8-1.2c0.6,0.4,1.3,0.7,1.8,1.2
		c0.3,0.3,0.4,0.6,0.4,1.1c0.8,0,1.6-0.1,2.3-0.1c2.2-0.4,5.3,1.8,6.5-1.7c2.6,0.7,5.2-1.4,7.9-0.1c-0.1,1.8,2.9,2.2,2.3,4.2
		c-3.5-0.3-6.6,2-9.5,1.9c-7.6,0-14,3.2-21,4.5c-2.2,0.3-4.9-0.8-7.7,2.6c5-1.1,9.2,2.2,12.2-2.2c5.2-0.1,10.3-0.1,15.1,2
		c2.5,0.9,6.4-1.7,7.6,2.5c-1.8,3.9-5.9,0.4-8.4,2.2c-4.2-2-7.4,2.4-11.6,1.4c-1.5-0.3-0.3,1.6-0.4,2.6c-0.2,1.5,0.5,1.8,2.1,1.5
		c2.5-0.5,5-0.9,7.4-1.4c12.4,0.2,24.7-0.8,35.6-6.7c4.7-2.5,8.9-2.4,13.5-1.2c0,2.3,0,4.5,0.1,6.8c-2.3,0.8-5.1-1.1-7.2,1.1
		c-4.9,1.7-9.9,2.6-15.1,2.2c-1.7-0.1-1.7,1.1-1.9,2.1c-0.9,0.2-1.8,0.4-2.2,1.3c-2.8,0.1-5.6-0.5-8.6,0.4c2.4,5.4,6.9,3.8,10.8,3.7
		c2.4-1.1,7.3,3.1,7.5-2.9c0.8-0.1,1.5-0.3,2.3-0.4c0,1.9,0,3.8,0,5.7l0,0c-1.5,0.3-3.1,0.5-4.6,0.8c-1.5,0.3-2.7,1.1-2.4,2.5
		c0.3,1.5,1.9,0.9,2.9,0.9c2.6,0.1,5.1,0,7.7-0.1c0.8,0.1,1.9,0.5,2.3,0.1c4.1-3,8.5-3.1,13.6-2.9c8.4,0.3,9.7-1.9,10.7-9.8
		c0.3-2.4-1.4-3.7-1.6-5.7c-0.5-7.2-0.6-7.2-8.2-6.7c-2,0-4-0.1-6.1-0.1c0-0.7,0-1.4-0.1-2.1c1.5,0.3,2.4-0.8,3.6-1.3
		c5.2-0.4,6.2-3.2,3.3-10.2c-0.5,2.4-3.8,2.1-3.6,4.6c-5.1-0.1-3,3.4-3.4,5.7c-2.1-2.2-2.8-5.8-7.1-5.7c-0.1-3.5-2.9-1.8-4.7-2
		c-0.1-1.8-0.3-3.6-0.4-5.3c0.4-2.8-2-4-3.7-5.6c0.1-0.3,0.2-0.6,0.4-0.9c0.6-0.1,1.1-0.3,0.8-0.9c-0.1-0.1-0.6-0.1-0.9-0.1
		c-1.4-1.4-1.9-2.4,0.5-3.6c1.5-0.7,1.3-2.7,0.4-3.7c-1-1.1-3.6-1-4.1,0c-2.4,4.2-3.3-0.8-5-0.5c-3.4-0.1-2.5-3.1-3.8-4.6
		c-1.1-2.6-2.8-4.8-5.6-5.9c-0.2-0.1-1,0.7-1.1,1.1c-0.3,1.6-0.5,3.6-2.8,3c-2.1-0.5-0.6-2.6-1-4c-0.2-0.9-0.1-1.8-0.2-2.7
		c-0.5-2,2.3-4,0.1-6c-0.8-0.7-2-1-2.7-0.3c-1.9,1.8-0.6,4-0.9,6.1c-4.9,1.2-10.8,0.9-12.4,7.1c-0.1,0.5-2,0.5-3.1,0.8
		c-3.7-0.4-7.3-0.9-8.4,3.7c-0.2,0.7-0.8,1.8-1.4,1.4c-3.3-2.7-6.2,1-9.3,0.4c-2.8-0.6-4,0.6-4.1,3c0.6,1.5-0.7,4.4,2.2,4.1
		c2.9-0.2,1.8-2.9,1.8-4.8c4.8,0.5,11.1-3.4,13.3,4.1c-0.4,0.4-0.8,0.7-1.2,1.1c-1.8,0.3-4.4-0.7-4.9,1.7c-0.6,2.6,2.9,0.8,3.6,2.3
		c0.2,0.4,0,1,0,1.6c2.8,0.7,0.6-1.7,1.5-2.1c2.6-0.4,5.9,0.9,7.1-2.7c2,0.2,3.9,0.4,5.9,0.6c0,2,3.2,2.7,2.4,5.1
		c-2.8,0.5-5.6,1-8.3,1.5c-7.4,5.2-15.9,2.4-24,2.9c-1.6,0-3.2,0-4.9,0c-5.3,1-10.7,0.3-16.1,0.6c-3.1-4.5-3.1-4.5-6.8-3.6
		c-0.4,0-0.7-0.1-1-0.2c0-1.3,0-2.7,0-4c1.6-0.1,3.2-0.3,4.8-0.3c1.9,0.1,3-1.1,2.2-2.2c-1-1.4-0.7-5.1-2.4-4
		c-3.7,2.4-9.4,1.8-11.7,6.3c-0.1,0-0.1,0-0.2,0c0,0,0,0.1,0,0.1c-2.4-1.2-4.9-3-7.4-2c-4.1,1.6-7.9,2-12.3,1
		c-1.7-0.4-4.2,0.5-4.2,3.2c-0.1,2.7,2.1,2,3.7,2.2c0.8,0.1,1.6,0.1,2.4,0.2c0,1,0,1.9,0,2.9c-1.5,0.7-3.7-0.6-4.8,1.2
		C931.6,183.5,936.3,181.9,940.8,182.5z M1061.8,207.4C1061.8,207.4,1061.8,207.4,1061.8,207.4
		C1061.8,207.4,1061.8,207.4,1061.8,207.4z M1061.6,207.5c-0.5,0.2-1.3,0.1-1.9,0.2c0,0,0,0,0,0
		C1060.3,207.6,1061.1,207.7,1061.6,207.5z M1059.2,214.1c0-0.1,0-0.2-0.1-0.4v0C1059.1,213.8,1059.1,213.9,1059.2,214.1z
		 M1055.6,207.6c-0.1,0-0.3,0-0.4,0C1055.3,207.6,1055.5,207.6,1055.6,207.6z M1054.8,214.8c0.2,0,0.5-0.1,0.7-0.2
		C1055.3,214.7,1055,214.8,1054.8,214.8z M1048.7,184.7c-0.3,0-0.5,0-0.8,0C1048.2,184.7,1048.4,184.7,1048.7,184.7L1048.7,184.7z
		 M1048.6,190L1048.6,190c-0.5,0.1-1,0.1-1.5,0.1C1047.5,190,1048.1,190,1048.6,190z M1033.9,179.2c0.8-0.6,1.5-1.2,2.4-1.4
		c1.4-0.8,3.2-1.3,4.6-1.2c0.3,0,0.6,0.1,0.9,0.2c-0.3-0.1-0.6-0.2-0.9-0.2c-1.4-0.1-3.2,0.4-4.6,1.2
		C1035.4,178,1034.6,178.7,1033.9,179.2c-0.2,0.2-0.4,0.3-0.7,0.5C1033.4,179.5,1033.7,179.4,1033.9,179.2z M1032.9,179.9
		c-0.2,0.1-0.5,0.2-0.7,0.3C1032.4,180.1,1032.6,180,1032.9,179.9z"/>
	<path class="st0" d="M109.1,420.4c2,1.7,4.2,2.1,6.5,0.7c2.1-1.3,4.4-1.6,6.8-1.4l0.1-0.1c-0.1,0-0.1,0.1-0.1,0.1
		c1.4,3.2,3.1,1.4,6.2,0.2c-2.9-0.2-4.5-0.3-6-0.3c-0.1-1.2,0.3-3.3-1.1-3.3c-3.2,0.1-6.3,0.2-9.5-0.5c-0.2,0-0.9,1-0.9,1
		C114.6,420,109.1,418.9,109.1,420.4z"/>
	<path class="st0" d="M454.7,241.5c2.7-0.4,5.6-1.9,5.8-3.7c0.4-3.1-3.6-1.9-5-2.9c-3-0.1-4.6,1.2-4.1,3.1
		C451.6,239.2,451.7,241.9,454.7,241.5z"/>
	<path class="st0" d="M31.3,297.2c4.8,0.1,9.5,0.1,14.3,0.1c1.8-0.1,3.7,0.2,5.3-0.3c2.2-0.7,5.5,2.6,6-0.4c0.3-2.1-4-2-6.4-2.3
		c-1.6-0.2-3.5-1-5.1,0.4c-4.7-0.3-9.4-0.5-14.1-0.8c-1.3-0.1-2.7,0.2-2.8,1.4C28.3,297,29.9,297.2,31.3,297.2z"/>
	<path class="st0" d="M713.8,545.7c0.2-3.5-2.6-2.2-4.7-2.6c-1.2,0.6-3.9-1.1-3.9,2.2c0,3,2.6,3.9,4.4,4.1
		C711.1,549.6,713.6,548.2,713.8,545.7z"/>
	<path class="st0" d="M931.3,149.5c3.3,0.5,4.2-1.5,3.8-3c-0.3-1.2,0.4-4-3-3.6c-2.7,0.3-4.7,1-4.8,3.7
		C927.2,149.5,930.2,148.8,931.3,149.5z"/>
	<path class="st0" d="M476,574c-0.9,1.2-3.8,0.3-3.5,3.2c0.2,2.3,1.7,4,3.7,3.8c1.1-0.1,3.6-1.3,3.8-3.7
		C480.3,574.6,477.9,574.9,476,574z"/>
	<path class="st0" d="M796.3,240.2c1.9,1.3,2.6,1.6,4.1,0.1c-0.4-6-3-7.1-10.8-4.4C793,235.7,794.2,238.8,796.3,240.2z"/>
	<path class="st0" d="M820.5,213.5c-1.8,0.3-3.3-1.1-3.2-2.1c0.4-6-4-3.7-7.3-3.9C815.2,214.2,815.2,214.2,820.5,213.5z"/>
	<path class="st0" d="M867.3,472.6c-2.1,0.3-3.9,1.6-4.4,3.6c-0.4,1.5,0.4,2.4,2.3,2.2c2.5-0.2,4.9-0.3,5-2.4
		C870.4,473,868.9,472.3,867.3,472.6z"/>
	<path class="st0" d="M920.9,574.9c-1.9-0.3-3.3,0-3.3,2.4c0,2.7,2.7,2,3.8,3.1c1-1.7,4.5,0.1,4.8-1.7
		C926,574.4,923,575.2,920.9,574.9z"/>
	<path class="st0" d="M680.5,251.9c3.1,0.5,0.9,5,3.4,4.6c2.2-0.3,5.2,0.1,7-2.6c-2.1-1.2-4.1-2.6-6.4-3.5
		C683,249.7,681.6,250.8,680.5,251.9z"/>
	<path class="st0" d="M61.4,294.1c-0.8,0-1.5,1-2.3,1.5c0.8,0.5,1.5,1.5,2.3,1.5c3.6,0.1,7.2,0,10.7-0.1c0-1,0-1.9,0-2.9
		C68.5,294.1,65,293.9,61.4,294.1z"/>
	<path class="st0" d="M386.3,280.8c2.5-3.1,3.7-6.3,0.8-9.4c-1.2-1.2-1.4,0.8-2.2,1.2C378.7,276.5,386.5,277.9,386.3,280.8z"/>
	<path class="st0" d="M103.5,276.7c-1.7,0.6-5.4,0-4.7,2.7c0.7,2.6,4.1,1.1,6.3,1.4c0.9,0.1,1.9-0.1,3.1-0.2
		C107.3,278.2,107.3,275.3,103.5,276.7z"/>
	<path class="st0" d="M423.1,490.9c3,0.4,4-0.5,4.1-3.2c0.2-3.4-2.9-2.8-4.3-3c-1.5-0.2-3.2,1.1-3.1,3.5
		C419.9,490.8,421.5,490.9,423.1,490.9z"/>
	<path class="st0" d="M727,241.4c0,0-0.1,0-0.1,0c0,0,0,0,0,0.1C726.9,241.5,727,241.4,727,241.4z"/>
	<path class="st0" d="M1181.2,467.3c-2,1.6-4.6,3.1-4.3,3.7c0.7,1.8,2.4,3.3,4.9,3.4c1.9,0.1,3.2,0.2,3.6-2.2
		C1186,468.4,1180.5,471.1,1181.2,467.3z"/>
	<path class="st0" d="M535.1,529c-3.5,0-1.7,3-3.1,4.1c1.3,1-0.6,3.8,2.9,3.7c3.3-0.1,2.5-2,2.7-4.1
		C536.5,531.9,539.4,528.9,535.1,529z"/>
	<path class="st0" d="M959.1,194.3c-0.5-0.3-3.4,1-2.7,2.6c0.7,1.7,0.8,4.6,4.2,3.9c1.7,0.2,3.4-0.2,2.6-1.8
		C962.3,197.2,960.7,195.6,959.1,194.3z"/>
	<path class="st0" d="M817,229.4c-0.4,4.6,3.5,2.9,5.9,3.4c0.4,0,0.9,0,1.3,0c1.1-0.4,2.3-0.9,3.4-1.3c0.1-0.7,0.1-1.3,0.2-2
		c4.7-0.1,9.5-0.1,14.2-0.2c4.5,0.5,3.4-5.5,7.8-5.2c-4.2-2.2-8.5-1-12.6-1.2c0-0.7,0-1.5,0.1-2.2c-1.6,0-2.4,0.7-2.4,2.1
		c-3,0.7-5.6,2.7-9.1,2.3c-2.6-0.3-1.4,1.9-1.4,3.2C822.2,229.9,819.5,229.2,817,229.4z"/>
	<path class="st0" d="M728.2,245.8c-2,4.6-7,2.4-10.7,3.6c2.1,1.9,4,3.5,7,3.1c1.5,3.5-2.6,2.6-4.9,4.7c3.6-0.8,6.4,1,8.4-1.5
		c-0.5-3,1.8-3.6,4.2-3.4c2.7,0.2,4.9-0.2,6.8-2c3.5,0,7,0,11.2,0c-2.9-1.5-3.2-5.5-6.9-4.2c-2.8,1-5.3,0.1-8,0
		c-1.1-0.1-2.2-0.3-3.3-0.4c-0.7-2,0.9-2,2.3-2c1.8,0,4.1,0.1,3.6-2.2c-0.5-2.1-2.2,0.2-3.4-0.1c-2.4-0.4-4.9,0-7.4,0.1
		C728.2,242.7,728.3,244.2,728.2,245.8z"/>
	<path class="st0" d="M727,241.4c0,0-0.1,0.1-0.1,0.1C726.9,241.5,727,241.5,727,241.4C727,241.5,727,241.4,727,241.4z"/>
	<path class="st0" d="M718.8,594.4c-2.4-0.1-3.4,1.3-4.5,2.6c1.9,0.4,1.4,3.1,3.9,3.1c3.5,0,3-2.2,2.7-4
		C720.7,595.5,720.3,594,718.8,594.4z"/>
	<path class="st0" d="M131.5,595.7c-1.5-0.2-2.9-0.1-2.9,2.3c0,2.4,1.7,2.6,3.5,2.4c1.5-0.2,3.7,0.5,3.7-2.2
		C135.8,595.4,133.9,595.7,131.5,595.7z"/>
	<path class="st0" d="M909.1,184.4c-6.3-4.4-11.4-0.9-16.4-1C897.7,184.9,902.7,184.6,909.1,184.4z"/>
	<path class="st0" d="M117.5,520.2c0.4-2.6-2.4-2.8-3.7-4.1c-2.3,3.4-6.2,1.2-9.2,2.1c-2.1-0.5-5.7,1.6-5.9-2.3
		c-0.1-2.4-0.9-4.2-3.6-3.1c-2.3,0.9-2.7,3.2-1.2,5.2c0.6,0.8,1.1,1.3,0.9,2.3c-2.3,1.3-7.6-2.8-7.1,3.4c3.4-2,7.7-0.1,11.1-2
		c1.8-0.7,3.6-1.5,5.4-2.2C108.5,521.5,113.1,519.7,117.5,520.2z"/>
	<path class="st0" d="M371.7,255.7c2.1-0.1,5.5,0.7,5.6-1.5c0.2-2.4-3.2-1.8-5.2-1.7c-2.1,0-5.5-0.8-5.6,1.5
		C366.4,256.3,369.7,255.4,371.7,255.7z"/>
	<path class="st0" d="M479.1,479.7c0.4-0.1,0.7-0.7,0.3-0.3c-0.8-2.7-1.1-4.8-2-6.7c-0.5-1.1-2.1-0.6-3.3-0.6
		c-1.4,0-1.4,0.9-1.5,1.8C472.4,475.9,477.1,480.2,479.1,479.7z"/>
	<path class="st0" d="M926.6,181.2c-5-1.4-10-1.7-14.8,0.2C916.8,183.4,921.6,182.1,926.6,181.2z"/>
	<path class="st0" d="M817,509.3c-4-0.4-2.1,3.4-4,4.7c-1,0.7,1.1,1.4,2.4,2c2.5-0.5,2.4-3.3,3.9-4.7
		C820.4,510.2,818.5,509.4,817,509.3z"/>
	<path class="st0" d="M7.1,254.4c-0.1-2.7-2.4-1.7-3.7-2.1c-1.7-0.1-3.4-0.4-3.4,1.9c0,2.4,1.8,2.6,3.6,2.6
		C5.2,256.8,7.3,257,7.1,254.4z"/>
	<path class="st0" d="M382.2,469.8c-0.9,0.2-3.2-0.5-2.8,1.3c0.4,1.6,0.8,4.2,3.5,4.2c1.5,0,2.9-1.3,4.3-2.1
		C385.5,472.2,385.3,469.4,382.2,469.8z"/>
	<path class="st0" d="M1037.6,216.5c-0.5,2.9,2.2,1.7,3.5,2.4c2.5,1.3,3-1,3.1-1.9c0.3-1.6-1.4-1.7-3-1.8
		C1040.1,215.5,1038,214.1,1037.6,216.5z"/>
	<path class="st0" d="M138.1,303.9c1.6-0.3,4.2,0.7,4.3-1.5c0.1-1.8-2.3-2.2-4.1-2c-1.7,0.2-4.6-0.9-4.5,1.9
		C133.8,304.5,136.5,303.5,138.1,303.9z"/>
	<path class="st0" d="M473.2,491.9c-2.1,0.2-3.5,1.5-4,3.3c-0.6,2.2,1.2,2.1,2.8,2.1c1.9,0,3.6-0.1,2.9-3.2
		C474.7,493.7,475.9,491.6,473.2,491.9z"/>
	<path class="st0" d="M945.1,195.5c-2.5,0-3.5,1.9-4.7,3.3c-0.4,0.6-0.1,1.8,1.2,2c2.3,0.5,3.6-0.3,4.2-2.4c0.3-1.1,3,0.1,2.8-2.4
		C947.8,195.2,946.4,195.5,945.1,195.5z"/>
	<path class="st0" d="M171.8,540c-2.2,0.2-1.2,1.8-1.4,2.9c-2.3,0.2-4.7,0.3-7,0.5c-2,0-3.9,0.1-5.9,0.1c-2.4-0.2-4.8-0.7-5.2,2.7
		c-0.1,1.4-1.1,2.9,1,3.5c1.7,0.5,3.4,0.8,5.1,1.2c-0.3,3-3.2,3.6-5,2.9c-4.7-1.7-3.2,1.3-3.4,3.1c-0.3,2.4,0.2,3.9,3.5,2.8
		c1.6-0.5,3.6,0.2,5.3-0.2c3.1-0.7,7-1.1,8.9-3c2.7-2.8-2.7-3.1-3.4-5.2c-0.2-0.6-0.7-1.2-1.1-1.7c0-0.6,0-1.3,0-1.9
		c0.1-0.4,0.1-0.7,0.2-1.1c0,0,0,0.2,0,0.2c2.3-0.2,4.6-0.3,6.9-0.5c2.8,1.1,2.4-1.6,3.5-2.5c1-0.7,2.5-1.4,1.6-2.8
		C174.7,539.7,173.1,539.9,171.8,540z"/>
	<path class="st0" d="M145.9,300.9c-0.6,0.1-1.4,0.9-0.8,1.7c1.5,2,3.9,1.1,6,1.3c0.8,0.1,1.5-0.1,3.1-0.2c-0.7-0.8-1-1.2-1.3-1.6
		C150.9,299.7,148.3,300.4,145.9,300.9z"/>
	<path class="st0" d="M488.6,460c-3.8-0.7-4.1,1.6-4.7,4.8c2.4-1.1,5.5,0.9,6.7-2.4C491.1,461.2,490.5,460.4,488.6,460z"/>
	<path class="st0" d="M678.3,239.3c1.7,0,3.2,0,3.2,2c0.1,1.5,0.4,2.9,2.3,3.4c6.2,2.4,12.1,1.6,17.9-1.2c0-0.2,0.1-0.3,0.1-0.5
		c0,0.1,0,0.3-0.1,0.5c1.3,0,2.5,0.1,3.8,0.1c1.4,0,3,0.8,3.8-1c1.1,0,2.1,0,3.2,0c5.1,2.5,9.8,0.7,14.5-1.2c0-0.7,0.1-1.5,0.1-2.2
		c0.5-6.2-4.4-2.4-6.9-3.1c-2.1,0-4.3-0.1-6.4-0.1c-4.3,0.5-8.9-1.4-13.1,1c-1.2,0.3-1.9,1-2.4,2c-0.4,0.1-0.8,0.1-1.2,0
		c0.5-2.6-0.7-3.6-3.5-3c-3.3,0.3-6.5,0.7-9.8,1c-1.4-1.2-3.1-1.4-4.9-1.2c-1.3,0.2-3.4-0.7-3.5,1.7
		C675.4,239.6,677,239.3,678.3,239.3z"/>
	<path class="st0" d="M931.9,197.5c-1.8,0.2-4.5-0.3-4.6,2.1c-0.1,2.1,2.4,1,3.6,1.5c1.4-0.3,3.4,0.6,3.6-1.6
		C934.7,197.7,933.4,197.3,931.9,197.5z"/>
	<path class="st0" d="M194.4,191.4c1.2,0.2,2.4-0.3,1.4-1.9c0.1-1.7,0-3.2-2.8-2.8c-1.3,0.2-2.2,0.3-2.2,1.8
		C190.9,190.7,192.7,191.1,194.4,191.4z"/>
	<path class="st0" d="M740.2,601.8c-1.5,0.3-3.7-0.2-3.7,2.4c0,1.9,0.8,2.5,2.8,2.4c1.9-0.1,3.7,0.1,3.6-2.3
		C743.1,602.5,742.3,601.4,740.2,601.8z"/>
	<path class="st0" d="M869.2,186.5c3.8,0.1,7.8,1.2,11.9-0.9c-2.3-1.9-4.5-0.7-6.5-1.2c0-0.7-0.1-1.4-0.1-2.2c0-2.1-0.6-4.7-3-4.6
		c-3.3,0.2-1.2,3.1-1.6,4.7c-0.2,0.7-0.1,1.4-0.2,2.2C868.5,185,868.5,186.4,869.2,186.5z"/>
	<path class="st0" d="M90.2,105c1.6,0,2.6-0.2,2.6-1.9c0.1-2.3-1.6-3.4-3.3-4.6c-1.6,0.7-2.1,1.8-1.9,3.4
		C87.7,103.4,87.5,105.1,90.2,105z"/>
	<path class="st0" d="M739.6,629.6c-1.7-0.1-3.1-0.2-3.1,2c0,1.9,0.8,2.7,2.8,2.3c1.6,0,3.2,0.2,3.3-2.1
		C742.7,629.6,741.3,629.6,739.6,629.6z"/>
	<path class="st0" d="M328.6,246.8c0.2-0.7-0.2-1-0.9-0.9c-1.2-0.5-2.4-0.5-3.7-0.1c-4-3.2-8.4-2.1-14.4-1.8c3.9,2.6,7.3,1,9.7,2.9
		C321.4,250,326.7,250,328.6,246.8z"/>
	<path class="st0" d="M566.9,138.4c2.9,0.3,4.4,0.3,4.2-1.9c-0.1-1.3-0.9-2.1-2.2-1.7c-1.4,0.4-3.8-0.2-3.7,2.3
		C565.2,139.2,566.9,138.4,566.9,138.4z"/>
	<path class="st0" d="M1112.1,276.4c0.1,0.4,0.2,0.7,0.3,1.1l-0.2-0.2l-0.3,0.1c-1.9,0.1-3.4,0.5-3.4,2.7c0,1.1-0.1,2.2,1.3,2.6
		c1.5,0.3,2.1-0.5,2.2-1.7c2.6-0.7,7.3,1.9,7-3.5c0.9-4.4,4.1-9.1-1.1-12.8c0.1,0.7-0.2,1.3-0.9,1.3c-5,0-6.7,5.5-11.7,5.2
		c-0.1,0-0.3,1.2-0.5,1.8C1105,278.2,1109.4,275.8,1112.1,276.4z"/>
	<path class="st0" d="M393.3,467.6c-0.7,1.6-4.7,2.1-2.3,4.3c1.1,1,4.4,0.6,6.3-0.1c2.5-0.9-1.4-2.6-0.1-4c2.4-0.1,2.3-1.7,2.5-3.2
		c-2.1-0.4-4.3-0.7-6.4-1.1C393.3,464.9,393.3,466.3,393.3,467.6z"/>
	<path class="st0" d="M1026.1,208.6c-1.4,0-3.5-0.6-3.7,1.5c-0.2,2.3,2.1,1.5,3.4,1.8c1.5-0.1,3.4,0.5,3.6-1.7
		C1029.6,207.8,1027.4,208.5,1026.1,208.6z"/>
	<path class="st0" d="M980.1,175.7c0-2.9,0.6-6.3-4.7-5.3C974.7,173.8,974.3,177,980.1,175.7z"/>
	<path class="st0" d="M801.2,491c-1.3-1.1-1.9-3.2-4.5-2.3c-1.1,0.4-1.7,0.8-2,1.7c-1.2,3.7,4.6,9.5,8.9,8.9c1.5-0.2,1.3-1,1.2-1.9
		C803.7,495.2,808.6,490.3,801.2,491z"/>
	<path class="st0" d="M105.6,268.9c-3.1-2.7-5.8-3-8.9-0.6C99.6,270.2,102.3,270.5,105.6,268.9z"/>
	<path class="st0" d="M981.6,169.1c3.5,0.1,1.5-3.2,3.2-4.2c-2.1-0.9-4.4-3-5.3,1C980.2,167,979.1,169.1,981.6,169.1z"/>
	<path class="st0" d="M683.7,170.4c1.5,0,2.8-0.1,2.5-1.9c0.1-1.4,0-2.6-2-2.5c-1.3,0.1-2.8-0.4-2.9,1.6
		C681.3,169.2,681.4,170.4,683.7,170.4z"/>
	<path class="st0" d="M455.2,559.6c-1.4,0.1-2.7-0.1-2.9,1.9c-0.1,1.9,0.7,2.5,2.6,2.7c2,0.2,2.4-0.7,2.4-2.2
		C457.3,560.7,457.3,559.4,455.2,559.6z"/>
	<path class="st0" d="M245.4,613.5c-1.5-0.1-1.7,1.2-1.7,2.2c0,1.2-0.1,2.7,1.7,2.7c1.5,0.1,1.8-1.1,1.8-2.2
		C247.1,615.1,247.3,613.6,245.4,613.5z"/>
	<path class="st0" d="M816.9,235.9c-1.2,0.4-2.4,0.7-3.5,1.1c0,2.2,1.7,2.3,3.5,2.3c2.3,0,4.5,0,6.8,0
		C823.6,234.5,819.7,236.1,816.9,235.9z"/>
	<path class="st0" d="M521.1,269.9c2.7,0.1,1.9-1.7,2-2.9c-0.1-1.2,0.3-2.7-1.9-2.5c-2.5,0.2-1.5,2.1-1.7,3.3
		C519.3,268.7,519.4,269.8,521.1,269.9z"/>
	<path class="st0" d="M847.8,504.9c-1.8,0.1-2.1,1.4-2.1,2.7c-0.1,1.1,0.5,1.7,1.6,1.8c1.5,0.1,2.3-0.5,2.1-1.8
		c-0.3-2.2,2.7-0.8,3.1-2.7C850.9,504.9,849.3,504.9,847.8,504.9z"/>
	<path class="st0" d="M831.5,505.9c-3.3-1.1-6.8-2.7-8.4,1.9c-0.4,1.2-0.9,3.1,0.8,4c2.4,1.2,5.1,1.8,7.5-0.2
		c2.7,0.1,3.5-1.2,3.6-3.5C835.1,505.4,833,506.1,831.5,505.9z"/>
	<path class="st0" d="M285.8,175.8c1.3-0.2,3.4,0.8,3.4-1.7c0-2-1.7-1.4-2.9-1.6c-1.2,0.1-2.9-0.6-3,1.5
		C283,175.9,284.4,176,285.8,175.8z"/>
	<path class="st0" d="M750.9,525.7c0.4-0.8,0-2.7-0.6-3c-3.6-1.6-2.4,3.4-3.8,3.7C747.5,526.6,749.7,528.1,750.9,525.7z"/>
	<path class="st0" d="M746,526.3c0.2,0,0.3,0,0.4,0C746.3,526.3,746.1,526.3,746,526.3z"/>
	<path class="st0" d="M976.1,533.4c-1.2,0.1-3-0.7-3.1,1.4c-0.2,2.4,1.9,1.8,3.2,2c1.3,0.1,2.9,0.3,2.8-1.7
		C979,533,977.4,533.3,976.1,533.4z"/>
	<path class="st0" d="M890,627.4c-1.8-0.3-2.5,0.6-2.5,2.1c0.1,1.3-0.7,3,0.3,3.1c3.5,0.4,3.6-0.9,3.4-2.2
		C891.2,629.4,892.2,627.8,890,627.4z"/>
	<path class="st0" d="M117.6,560.8c-2.2-0.2-4.7-1.3-4.8,2.4c-0.1,3.8,2.2,3.4,4.9,3c1.6-0.1,3.7,0.9,3.7-2
		C121.3,561.7,120.7,560.2,117.6,560.8z"/>
	<path class="st0" d="M784.7,252c2.2-2.5,5.4-0.6,7-2.8c-3.1,0-6.3,0-9.4-0.1C782,251.1,783,254,784.7,252z"/>
	<path class="st0" d="M83.1,300.6c4.9-3.5,10.8-3,16.5-3.4c2.7-0.6,6.9,2.2,7.5-2.9c1.1,0,2.3-0.1,3.4-0.1c0.1,1-0.2,2.5,1.3,2.4
		c0.7,0,2-1.7,1.8-2.2c-0.4-1.2-0.6-3.5-3.2-2.4c-7.5-0.5-15.3,1.1-22.5-2.4c0-2.7-2-2.2-3.8-1.9c-0.3-0.1-0.7-0.2-1-0.2
		c-0.1-1.1-0.1-2.2-0.2-3.3c2.2,0,4.3,0,6.5,0.1c4.1,0.1,6.1-3.6,5.8-5.4c-0.8-5.8-3.1-11.4-7.5-16c2.3-1.1,4.7-0.1,7-0.7
		c1.4,0.1,3,0.6,3.9-0.9c4.6,0.4,8.2-0.1,6.9-5.6c-0.6-4.6-4.3-2.9-7.2-3c-6,0.3-11.6-1.2-17.1-3.3c-3.1-1.2-5.3-4.4-9.2-3.7
		c0.2-1.5,1.5-2.5,2.8-2.5c3.7,0.2,3.9-2.2,5.7-5.4c-6.7,3.1-11.7,3.5-14.6-2.8c-0.3-0.7-1.2-1-2-0.5c-0.6,0.4-1.3,1.3-1.2,1.7
		c0.8,1.8,0.2,4.1,2.1,5.5c0.2,1.8-1.2,3.9,1,5.5c0.8,1,1.6,2,2.4,3.1c-2,0-3.7,0-3.5,2.8c0.2,2.6,1.5,2.9,3.6,2.8
		c6.4,2.4,10.5,8.2,9,12.9c-1.8,5.8,0.2,7.2,4.7,9.1c0.6,0.2,0.4,2,0.6,3c-1.6,0-2.9,0.2-2.4,2.2c-1.2,0.3-2.9-0.5-3.6,1.2
		c-7.3,1.9,0.2,3.6,0.1,5.4c1.2,0.1,2.4,0.1,3.6,0.2c1.6,3.4-2.8,2.6-3.7,4.4c-1.6,0.1-3.2,0.1-4.8,0.2c0,1,0,1.9,0,2.9
		c2.7,1.5,8.1-2.5,8.6,3.5c0,1.1,0,2.2-0.1,3.3c0.8,0,1.6-0.1,2.4-0.1C83.1,302.6,83.1,301.6,83.1,300.6z"/>
	<path class="st0" d="M845.7,214.1c-1.3,0-2.8-0.3-3.6,1C843.5,215.1,844.9,215.4,845.7,214.1z"/>
	<path class="st0" d="M823.6,234.2c0.2-0.4,0.4-0.9,0.7-1.3c-0.4,0-0.9,0-1.3,0C823.1,233.3,823.3,233.7,823.6,234.2z"/>
	<path class="st0" d="M851.6,236c-2.2,0.1-2.2,1.6-2.2,3c-1.5,0.3-3.7,0.6-1.6,2.4c0.9,0.8,2,2.6,3.8,1.9c1.8-0.7,3-2,2.7-4.1
		C854.1,237.6,854.1,236,851.6,236z"/>
	<path class="st0" d="M852.9,220.7L852.9,220.7c3.7-0.3,6.7-1.2,6-5.5c-2.6,0-5.1,0-7.7-0.1c-3.9-0.1-4,1.4-1.9,3.8
		C849.6,221,851.3,220.7,852.9,220.7z"/>
	<path class="st0" d="M366.3,297.9c2.8,0.1,5.8,1.4,7.7-1.4c0.3-0.4,0.1-1.7-0.3-1.9C369.4,291.8,369.4,298,366.3,297.9z"/>
	<path class="st0" d="M837.3,216.2c0,1.5,0.1,3,0.1,4.4c2.9-0.9,5.1-2.3,4.7-5.5c-1.6-0.3-3.2-0.7-4.7-1c0,0,0,0,0,0
		c-0.9,0.2-2,0.1-1.8,1.3C835.6,215.7,836.7,215.9,837.3,216.2z"/>
	<path class="st0" d="M812.8,441.4c0.2,0,0.4-0.3,0.8-0.6c-0.8-0.1-1.3-0.3-1.8-0.3c-0.3,0-0.7,0.3-1,0.4
		C811.3,441.7,812.1,441.5,812.8,441.4z"/>
	<path class="st0" d="M183.4,318c3.3,2.4,6.5,0.6,9.7-0.2c0.4-2.6-1.4-4.1-3.5-5.5c-1.2,0.1-2.4,0.1-3.6,0.2
		c-2.1,0.6-5.4-1.4-5.9,2.3C179.8,317,180.9,318.2,183.4,318z"/>
</g>
</svg>
