<?xml version="1.0" encoding="utf-8"?>
<!-- Generator: Adobe Illustrator 26.0.2, SVG Export Plug-In . SVG Version: 6.00 Build 0)  -->
<svg version="1.1" id="Layer_1" xmlns="http://www.w3.org/2000/svg" xmlns:xlink="http://www.w3.org/1999/xlink" x="0px" y="0px"
	 viewBox="0 0 1280 150" style="enable-background:new 0 0 1280 150;" xml:space="preserve">
<style type="text/css">
	.st0{fill:url(#SVGID_1_);}
	.st1{fill:url(#SVGID_00000090294754410157411120000000691516413503003067_);}
	.st2{fill:url(#SVGID_00000041281835667722770950000014395098627068105635_);}
	.st3{fill:url(#SVGID_00000117653011294365374610000009838796307881156232_);}
	.st4{fill:url(#SVGID_00000050647706514236926850000012679136498093014413_);}
	.st5{fill:url(#SVGID_00000084500987725404066240000017357295997903936678_);}
	.st6{fill:url(#SVGID_00000075841168639725972790000004788630103433029306_);}
	.st7{fill:url(#SVGID_00000108992613810541365240000006341351455323425717_);}
	.st8{fill:url(#SVGID_00000147185763137116641420000003204735023147106955_);}
	.st9{fill:url(#SVGID_00000064339272662179510970000003167633235770053786_);}
	.st10{fill:url(#SVGID_00000045614278811053020370000003737996087424710539_);}
	.st11{fill:url(#SVGID_00000042712760574502352960000001349182877899226281_);}
	.st12{fill:url(#SVGID_00000074403889497472974280000015040879855493702042_);}
	.st13{fill:url(#SVGID_00000121979455543501118570000009782003052957855142_);}
	.st14{fill:url(#SVGID_00000138571183722095366940000013551050417023760311_);}
	.st15{fill:url(#SVGID_00000090269447453396626790000009115372016933093015_);}
	.st16{fill:url(#SVGID_00000090295753896761656620000003206316905226303376_);}
	.st17{fill:url(#SVGID_00000065769273008109814340000012573105936302357692_);}
	.st18{fill:url(#SVGID_00000076562386966407399830000009348378620181244547_);}
	.st19{fill:url(#SVGID_00000016057525663384498480000008332617724324074662_);}
	.st20{fill:url(#SVGID_00000092434382724204287740000013577475224274925464_);}
	.st21{fill:url(#SVGID_00000089531924178800665240000011184477281329261481_);}
</style>
<g>
	
		<linearGradient id="SVGID_1_" gradientUnits="userSpaceOnUse" x1="1164.5" y1="660.7042" x2="1164.5" y2="661.1584" gradientTransform="matrix(1 0 0 1 0 -620.9366)">
		<stop  offset="0" style="stop-color:#FFC180"/>
		<stop  offset="1" style="stop-color:#D1E8EE"/>
	</linearGradient>
	<path class="st0" d="M1164.4,39.8c0.1,0.2,0.1,0.2,0.2,0.3c-0.1,0-0.1,0.2-0.2,0.2C1164.4,40.1,1164.4,39.9,1164.4,39.8z"/>
	
		<linearGradient id="SVGID_00000010303579267267874730000012695671585329217443_" gradientUnits="userSpaceOnUse" x1="1007.7" y1="660.8556" x2="1007.7" y2="662.067" gradientTransform="matrix(1 0 0 1 0 -620.9366)">
		<stop  offset="0" style="stop-color:#FFC180"/>
		<stop  offset="1" style="stop-color:#D1E8EE"/>
	</linearGradient>
	<path style="fill:url(#SVGID_00000010303579267267874730000012695671585329217443_);" d="M1007.1,40.2c0.5-0.2,0.8-0.2,1.2-0.3
		c0,0.5,0,0.8,0,1.2C1007.8,40.5,1007.4,40.4,1007.1,40.2z"/>
	
		<linearGradient id="SVGID_00000083085681301222147540000007541987972530798984_" gradientUnits="userSpaceOnUse" x1="1085.05" y1="658.2814" x2="1085.05" y2="666.7091" gradientTransform="matrix(1 0 0 1 0 -620.9366)">
		<stop  offset="0" style="stop-color:#FFC180"/>
		<stop  offset="1" style="stop-color:#D1E8EE"/>
	</linearGradient>
	<path style="fill:url(#SVGID_00000083085681301222147540000007541987972530798984_);" d="M1081.9,38.9c0.4,0,0.8,0,1.3,0.2
		c0.2,0.2,0.4,0.5,0.6,0.6c0.3-1.4,0.6-2.1,1-2.3c1.4,1.8,2.8,4.2,4,6.8c0,0-0.1,0-0.1,0.2c-0.4,0.6-0.6,1.8-1.4,1.4
		c-0.7-0.5-0.7-1.4-0.7-2.4c-0.7,0.8-1.5,1.5-2.2,2.3c-0.4-2.4-1.4-4.5-3.1-5.5c0-0.2,0.1-0.3,0.1-0.5
		C1081.3,39,1081.4,38.7,1081.9,38.9z"/>
	
		<linearGradient id="SVGID_00000011726802079268596470000007205048483567985545_" gradientUnits="userSpaceOnUse" x1="411.05" y1="624.8543" x2="411.05" y2="625.7695" gradientTransform="matrix(1 0 0 1 0 -620.9366)">
		<stop  offset="0" style="stop-color:#FFC180"/>
		<stop  offset="1" style="stop-color:#D1E8EE"/>
	</linearGradient>
	<path style="fill:url(#SVGID_00000011726802079268596470000007205048483567985545_);" d="M410.1,3.9l1.9,0.9c0,0-0.1,0-0.1,0.1
		C411.4,4.5,410.8,4.2,410.1,3.9z"/>
	
		<linearGradient id="SVGID_00000140006334499767952370000002806612857117244303_" gradientUnits="userSpaceOnUse" x1="1078.15" y1="658.4329" x2="1078.15" y2="660.2499" gradientTransform="matrix(1 0 0 1 0 -620.9366)">
		<stop  offset="0" style="stop-color:#FFC180"/>
		<stop  offset="1" style="stop-color:#D1E8EE"/>
	</linearGradient>
	<path style="fill:url(#SVGID_00000140006334499767952370000002806612857117244303_);" d="M1078.9,39.2c-0.4,0.2-1,0.2-1.5,0.2
		c0.2-0.8,0.4-1.4,0.7-1.8c0.1,0,0.1,0.2,0.2,0.2C1078.9,37.6,1078.9,38.4,1078.9,39.2z"/>
	
		<linearGradient id="SVGID_00000037653973034284804920000017804560072685222322_" gradientUnits="userSpaceOnUse" x1="186.05" y1="643.3378" x2="186.05" y2="646.7377" gradientTransform="matrix(1 0 0 1 0 -620.9366)">
		<stop  offset="0" style="stop-color:#FFC180"/>
		<stop  offset="1" style="stop-color:#D1E8EE"/>
	</linearGradient>
	<path style="fill:url(#SVGID_00000037653973034284804920000017804560072685222322_);" d="M185.4,22.8c0.8-1.2,0.6,0.6,0.8,1.2
		c0.2,0.3,0.4,0.6,0.5,0.9c0.2,0.3,0.5,0.6,0.7,0.9c-1-0.6-1.9-1.4-2.7-2.3C184.9,23.4,185.1,23.2,185.4,22.8z"/>
	
		<linearGradient id="SVGID_00000075866424721180696670000011683883102877782698_" gradientUnits="userSpaceOnUse" x1="378.15" y1="638.6771" x2="378.15" y2="642.873" gradientTransform="matrix(1 0 0 1 0 -620.9366)">
		<stop  offset="0" style="stop-color:#FFC180"/>
		<stop  offset="1" style="stop-color:#D1E8EE"/>
	</linearGradient>
	<path style="fill:url(#SVGID_00000075866424721180696670000011683883102877782698_);" d="M376.8,21.9c-0.2-1-0.7-2-1.1-3
		c0.4-0.2,0.7-0.4,1.1-0.6c1.1-0.7,2.6-0.6,3.8-0.2C379.4,18.5,378.2,19.7,376.8,21.9z"/>
	
		<linearGradient id="SVGID_00000107580191015631523980000007066385552481785534_" gradientUnits="userSpaceOnUse" x1="255.1278" y1="652.5822" x2="255.1278" y2="654.3957" gradientTransform="matrix(1 0 0 1 0 -620.9366)">
		<stop  offset="0" style="stop-color:#FFC180"/>
		<stop  offset="1" style="stop-color:#D1E8EE"/>
	</linearGradient>
	<path style="fill:url(#SVGID_00000107580191015631523980000007066385552481785534_);" d="M252.8,31.7
		C252.8,31.7,252.7,31.7,252.8,31.7c1.7,0.4,3.3,0.5,4.7,0.4C255.6,34,254.1,33.9,252.8,31.7z"/>
	
		<linearGradient id="SVGID_00000096760762068592388780000002332859361225799859_" gradientUnits="userSpaceOnUse" x1="219.15" y1="641.9928" x2="219.15" y2="654.3446" gradientTransform="matrix(1 0 0 1 0 -620.9366)">
		<stop  offset="0" style="stop-color:#FFC180"/>
		<stop  offset="1" style="stop-color:#D1E8EE"/>
	</linearGradient>
	<path style="fill:url(#SVGID_00000096760762068592388780000002332859361225799859_);" d="M187.8,25.8c0.9-0.6,1.9-0.9,2.4-2.4
		c0-0.3-0.1-0.6-0.1-0.8c0-0.2,0.1-0.3,0.2-0.3c0.1-0.1,0.1-0.2,0.2-0.3c4.8,1.7,9.8,5.5,8.9-0.4c0.2-0.1,0.3-0.2,0.5-0.4
		c0-0.1,0-0.2,0-0.2c7.7,14.6,17.3-5.6,29.3,9.8l-0.7-5.6c1.6,0.1,3.2,0.2,4.8,0.2c1.5,1,3.2,1.7,4.7,1.6l-0.8-1.4
		c1.6,0.1,3.2,0.2,4.8,0.3c0.2-0.9,0.5-1.1,0.8,0c2.2,1.2,4.5,1.3,6.7,1.1c-0.4,0.9-1,1.8-2,2.6c1.2,0.6,2.3,1,3.4,1.4
		c-0.3,0-0.5,0.1-0.8,0.1c-6.6,0.3-13.3-1.5-19.9,1.1c-1.8,0.6-4-2.6-5.5,1.2c-3.1-3.2-6.4-0.3-9.6-0.9c-0.7-0.2-1.4-0.2-2.2-0.2
		c-5.1-5.4-16.9-0.8-25.5-6.4C187.5,25.7,187.7,25.7,187.8,25.8z"/>
	
		<linearGradient id="SVGID_00000135652153149822849780000010404471224074619825_" gradientUnits="userSpaceOnUse" x1="21.6" y1="654.3808" x2="21.6" y2="663.0092" gradientTransform="matrix(1 0 0 1 0 -620.9366)">
		<stop  offset="0" style="stop-color:#FFC180"/>
		<stop  offset="1" style="stop-color:#D1E8EE"/>
	</linearGradient>
	<path style="fill:url(#SVGID_00000135652153149822849780000010404471224074619825_);" d="M24.8,34.5L24,33.4
		c2.1,2.1,4.5,3.6,7.1,4.7c-1.3,0.2,0,2.2-0.5,3c-0.2,0-0.5,0.2-0.7,0.2l-0.2-0.2c-0.2-0.2-0.3-0.5-0.5-0.8l-0.1-0.2
		c-0.4-0.6-0.7-1.7-1.1,0c-0.9,0.5-1.7,0.9-2.5,1.4c-0.3-0.2-0.6-0.3-0.9-0.5c-1,1.8-1.9,0.6-2.8-0.3c0.8-4.7-1.8-4.5-3.4-6.2
		c-0.8,2.4,0.2,4.4,0.3,6.5c-2.2-0.5-4.6,0.3-6.3-2.9c0.3-1.5,0.1-2.8-0.3-3.9C15.3,33.7,19.2,33.6,24.8,34.5z"/>
	
		<linearGradient id="SVGID_00000179633233396328267180000010722665148659740049_" gradientUnits="userSpaceOnUse" x1="834.7294" y1="656.0102" x2="834.7294" y2="659.4928" gradientTransform="matrix(1 0 0 1 0 -620.9366)">
		<stop  offset="0" style="stop-color:#FFC180"/>
		<stop  offset="1" style="stop-color:#D1E8EE"/>
	</linearGradient>
	<path style="fill:url(#SVGID_00000179633233396328267180000010722665148659740049_);" d="M835,35.1c0.8,1.5,1.6,0.2,2.4,0.2
		c0.3,0.5,0.4,1.1,0.4,1.8c-2,0.5-4,1.1-6,1.5c0-0.6-0.1-1.2-0.1-1.8c-0.1-0.3,0-0.5,0.1-0.6C833,36.3,834.1,36.3,835,35.1z"/>
	
		<linearGradient id="SVGID_00000093897664486460943270000007091164494390730676_" gradientUnits="userSpaceOnUse" x1="544.1" y1="625.9137" x2="544.1" y2="626.7345" gradientTransform="matrix(1 0 0 1 0 -620.9366)">
		<stop  offset="0" style="stop-color:#FFC180"/>
		<stop  offset="1" style="stop-color:#D1E8EE"/>
	</linearGradient>
	<path style="fill:url(#SVGID_00000093897664486460943270000007091164494390730676_);" d="M543.6,5.8c0.1-0.3,0.3-0.6,0.5-0.8
		c0.2,0.1,0.3,0.2,0.5,0.3C544.3,5.4,543.9,5.6,543.6,5.8z"/>
	
		<linearGradient id="SVGID_00000137089988659426166020000002231533042451217554_" gradientUnits="userSpaceOnUse" x1="1193.7998" y1="657.0701" x2="1193.7998" y2="675.4063" gradientTransform="matrix(1 0 0 1 0 -620.9366)">
		<stop  offset="0" style="stop-color:#FFC180"/>
		<stop  offset="1" style="stop-color:#D1E8EE"/>
	</linearGradient>
	<path style="fill:url(#SVGID_00000137089988659426166020000002231533042451217554_);" d="M1175.2,36.7c1-0.2,2,0,3,0.6
		c0.2,0.2,0.4,0.3,0.5,0.3c0.2,0.2,0.4,0.2,0.7,0.3c0.2,0,0.4,0.2,0.6,0.2c5.7-2,11.4-0.5,17.1-0.3c5.2,0.2,10.5,1.7,15.7,2.3
		c2.7,4.3,5.7,8,10,9.3c-0.4,0.2-0.8,0.5-1.1,1.1c-1.2,1.8-3.2,2.3-4.6,3.6c-0.8,0.8-1.3,0-1.4-0.6c-0.5-4.1-2.5-3.2-4.3-3.3
		c-5.7-0.6-11.4-0.5-17-2c-2.9-0.8-5.5-2.1-8.3-0.2c-0.2,0.2-0.8-0.2-0.8-0.3c-0.5-5.6-3.2-3.2-5.2-3.3c-0.3,0.6,0,3-1.2,0.9
		c-0.5-0.2-0.9-0.3-1.4-0.6c-0.2-0.2-0.4-0.2-0.6-0.3c-0.4-0.2-0.8-0.3-1.2-0.5c-0.2-0.2-0.5-0.3-0.7-0.5c-0.3,0.6-0.5,1.2-0.8,1.8
		c-0.3,1.2-0.6,1.1-0.8,0c-0.1-0.8-0.1-1.5-0.2-2.3c-0.9,0-1.2,0.8-1.2,2c0,0.9-0.6,2.7-1,1.5c-0.5-1.7-2.7,1.7-2-1.8
		c0.2-1.2-0.6-1.5-0.7-2.3c-1,0-0.2,2.7-1.3,2.3c-1-0.5-0.6-2-0.7-3.2c-0.5-0.5-0.8-1.2-1.5-1.1c0.1-0.9,0.2-1.8,0.4-2.6
		c0,1.2,0.5,1.2,1.2,0.8c0.1-0.9-0.5-2.6,0.5-2.6s0.6,1.5,0.6,2.6v0.2c0.5,0.3,0.9,0.6,1.3-0.3c-0.1-0.3-0.1-0.6,0-0.8
		c0-0.2-0.1-0.6-0.1-0.6c0.4-0.3,0.7-0.2,0.8,0.5c0.6,0.2,1.2,0.2,1.8,0.3c0.4-0.2,0.5,0.3,0.6,0.8C1173,37.6,1174.1,37,1175.2,36.7
		C1175.2,36.8,1175.2,36.8,1175.2,36.7C1175.2,36.8,1175.2,36.7,1175.2,36.7z"/>
	
		<linearGradient id="SVGID_00000039124109643771354480000018095245803101072803_" gradientUnits="userSpaceOnUse" x1="473.2" y1="626.6423" x2="473.2" y2="628.034" gradientTransform="matrix(1 0 0 1 0 -620.9366)">
		<stop  offset="0" style="stop-color:#FFC180"/>
		<stop  offset="1" style="stop-color:#D1E8EE"/>
	</linearGradient>
	<path style="fill:url(#SVGID_00000039124109643771354480000018095245803101072803_);" d="M473.5,5.7c0,0.5,0.1,0.9,0.1,1.4
		l-0.8-1.3C473.1,5.8,473.3,5.7,473.5,5.7z"/>
	
		<linearGradient id="SVGID_00000152954034541236815820000003915424910445279878_" gradientUnits="userSpaceOnUse" x1="640.05" y1="621.0366" x2="640.05" y2="770.9366" gradientTransform="matrix(1 0 0 1 0 -620.9366)">
		<stop  offset="0" style="stop-color:#FACB35"/>
		<stop  offset="1" style="stop-color:#D1E8EE"/>
	</linearGradient>
	<path style="fill:url(#SVGID_00000152954034541236815820000003915424910445279878_);" d="M1280.1,150V83.4v-23V40.7
		c-0.6,0.3-1.2,0.8-1.9,1.1c-0.1,0.6-0.3,0.9-0.4,0.9c-0.2-0.2-0.3-0.3-0.5-0.6c-0.1-0.2-0.1-0.3-0.2-0.5l-0.1-0.2
		c-0.2-0.3-0.3-0.6-0.5-0.8l-0.2-0.2c0,0,0,0-0.1,0c-0.7-1.7-1-3.6-0.4-6.5c-0.6,2.3-1.3,4.2-2.1,5.9c-2-2.7-6.4-4.1-8.7-2.4
		c-0.6,0.5-1.3,0.9-1.7,0c-1.7-3.8-4-3.5-6.6-2.7c-0.8,0.2-1.5,0.1-2.3-0.2c2.8,4.5,5.7,9.3,8.6,14.3c7,12.3,13.5,25,17.1,33.6v1.1
		l-11.4-7.1l-3.3,6.5c-5.4-3.1-10.5-10.3-15.1-18.8c-0.1,0.4-0.3,0.8-0.4,1.2c-0.5,0.2-1,0.5-1.5,0.9c-0.2,0.2-0.7,0.2-0.9-0.2
		c-1.6-2.6-3.4-2-5.2-1.4c0.2-0.6,0.5-1.2,0.8-1.7c-1.1,0.2-2.2,0.3-3.3,0.5c0-0.3,0.1-0.8,0.3-1.2c0.5-1.1,0.2-1.7-0.3-2.3
		c-0.5-0.8-1.5,1.5-1.8-0.6c-0.2,0-0.4,0-0.6,0c-0.2,0.2-0.3,0.2-0.5,0.3c-1.2,1.1,0.2,3-0.9,4.4c-0.6-1.7-3.1,0.3-2.9-3.5
		c-0.9-0.6-1.5,2.1-2.5,0.5l-0.1-0.2c-0.2,0.9-0.5,1.2-1.1,0.6c-0.4,0.8-1.2,0.6-1.9,0.8c-5.7,1.2-11.3-0.8-16.9-1.7
		c-2.9-0.5-5.5,0.9-8.3,0.6c-3-0.2-5.7,3.2-9,0.5c-1.4-1.2-4.3-3.3-5.3-2c-1.8,2.4-3,0.6-4.4,0c-0.6-0.2-1.2,0-1.8,0
		c-5.3-0.6-10.5,2-15.9,0.9c-2.8-0.6-5.5-2.3-8-2.6c-7.2-1.1-14.6-1.2-21.9,0.8c-0.8,0-1.7,0.2-2.5,0.2c-0.4,0-0.8,0-1.2,0
		c-0.5,0-0.9,0-1.3,0c-1.1-3-2.9,0.3-4.2-0.8c-0.2-0.5-0.5-0.7-0.8-0.7c-0.3,5.6-0.4,10.6,0.3,14.3c-2.6-4.7-5.1-9.3-7.7-14
		c-1.9,0.2-3.8,0.5-5.7,0.2c-0.5-0.2-0.9-0.5-1.1,0.6c-1,1.7-1.9,2.3-3.8,2c-2.4-0.5-4.5-2.1-6.7-2.9c-2.8-0.9-5.9-0.5-8.7,0.5
		c-3.8,1.4-7.6-0.8-11.5,1.7c-1.8,1.2-4.7-0.5-7.1-0.6c-4.4-0.5-8.4,1.8-12.4,2.7c-4.8,1.1-9-0.2-13.6-1.1c2.6-1.2,1.6-5.1,2.7-7.4
		c0.6-1.1,1.7,1.7,2.2-0.6c0.3-1.2,1-0.9,1.5-1.2c0.4,0,0.9,0,1.3,0c0.2,0.3,0.3,0.5,0.4,0.6c0.1-0.5,0.2-0.8,0.3-1.2
		c0.1-0.3,0.3-0.8,0.5-1.1c0.9,0.2,1.8,0.9,2.7-0.9c0.5-0.9,1.9-2.4,2.7-0.9c1.4,2.7,3.3,1.8,5,1.8c1.3,0,2.5-0.2,3.7-0.6l1.2-8.3
		c-0.4,0-0.8,0.3-1.3,0.5c-2.1,1.1-4.3-0.6-5.7-2.9c-0.6-1.1-0.9-1.4-1.8-1.8c-2-0.9-4-1.1-5.9-0.9c-6.9,1.1-13.8,2.7-20.7,4.4
		c-1.3,0.8-2.6,1.1-3.9,1.1c-5.3,1.4-10.6,2.7-16,4.2c-5.8,1.5-11.6,3-17.4,4.4c0.4-0.6,1-0.9,1.4-1.1c1.6-1.2,3.5-1.8,5.2-3.5
		c-1-1.1-1.7-0.2-2.5,0c-1,0.2-0.8-1.1-0.7-2c1.4,0.3,2.1-2,3.2-2.9c-3.3,0.5-6.5,0.6-9.7,0.3c-2.7-0.3-5.4,0.2-8.1,0.4
		c0,3.8,0.8,7.6,3.5,12c-1.4-0.3-2.7-0.7-4.1-1.2c-0.6,0.1-1.2,0.2-1.8,0.4c0-0.2,0-0.2,0.1-0.3c0-0.2,0.1-0.4,0.1-0.6
		c-6-2.2-11.4-5.4-16.3-9.2c0.1,0.5,0.2,1,0.2,1.7c-1.9,0.3-2.7-0.5-2.8-2c-3.8,0-7.5,0.6-11.1,3c0,0.5-0.2,1.1-0.5,1.5
		c-0.1-0.3-0.2-0.6-0.3-0.9c-0.3,0.2-0.7,0.5-1,0.8c-0.5,0.5-1.4,0.6-1.8,0.3c-2.2-1.8-4.3-3-6.1,0.9c-4.8-1.2-9.4,2.7-14.3,1.1
		c-2.5-0.9-5.1-2.3-7.5,0.8c-1.2-2.1-1.4,0.2-2,0.9c-1.7,0-3.3-0.2-4.9-0.2c-0.3-0.8-0.5-1.7-1.3-0.9c-0.7,0.9-1.5,1-2.4,1.2
		c0.2,0.3,0.4,0.6,0.5,1c-0.5,0.9-1.1,1.8-1.6,2.7c-0.9-0.8-1.9-1.7-2.8-2.5c-0.5,1.1-1.7,0.8-2.8,0.1c-0.9-0.6-1.7-0.2-2.6-0.3
		c-0.8,0-1.7,0.2-2.5,0.2c-1.5-0.5-3-0.6-4.4,0c-0.3-0.3-0.5,0-0.7,0.5c-1.9,2.1-4.2-0.5-5.9,0.9c-3,2.3-6.1,2.7-9.3,2.9
		s-6.4,0.2-9.6,0.3c-1.5-0.3-3,0-4.4,0.6c-5.1,1.4-10.3,0.9-15.5,1.4c-1.1-0.3-2.1-0.3-3.1,0.6c-0.8,0.6-1.6,0.9-2.6,0.9
		c-3.4-0.2-6.7,0.3-10.1,0.6c-5.7,0.6-11.3,0.3-17,0.3c-0.8,0-1.7-0.3-1.9-1.7c-0.1-1.4,0.7-2,1.4-2c1,0,2-1.5,1.9-2
		c-0.6-2.7,0.7-4.7,1.2-7.1c-0.2,0-0.3,0.2-0.4,0.2c-0.1-1.8-1.1-3-2.3-4.4c2.2,1.4,1.4-3.6,3.1-3c0.1-0.2,0.1-0.2,0.2-0.3
		c-0.2-0.9-0.3-1.8-0.4-2.6c-2.4-2.9-7.3-3.3-9.4-0.9c-1.3,2.4-0.8-2.3-1.8-1.1c-0.2,0.3-0.4,0.6-0.6,0.9c-0.1,0.3-0.1,0.6-0.2,0.9
		c-0.3,1.8-0.7-0.2-1,0c-1.9-0.5-3.8-0.6-5.7-1.5c-1.2-0.6-1.7,0.2-2.4,1.2c0,0,0,0,0,0.2c-5.5,0-11.1-0.3-16.5,0.3
		c-3.4,0.3-6.7,0.8-10.1,0.6c-1,0-1.8,0.3-2.6,0.9c-1,0.9-2,0.9-3.1,0.6c-5.2,0.5-10.4,0-15.5,1.4c-1.4,0.6-2.9,0.9-4.4,0.6
		c-3.2,0.2-6.4,0.2-9.6,0.3c-3.2,0.2-6.3,0.6-9.3,2.9c-1.7,1.4-4-1.2-5.9,0.9c-0.2,0.5-0.4,0.8-0.7,0.5c-1.4,0.6-2.9,0.5-4.4,0
		c-0.8,0-1.7,0.2-2.5,0.2c-0.9-0.2-1.7,0.3-2.6-0.3c-1.8-1.1-3.6-1.4-2.9,3.3c-1.4-0.5-1.9-2.4-3.1-2.1c-0.2,0-0.4,0-0.6,0
		c-0.9,0.2-1.8,0.3-2.5,1.2c-0.8,0.8-1-0.2-1.3-0.9c-1.6,0-3.2-0.2-4.9-0.2c-0.6,0.8-0.8,3-2,0.9c-2.4,3-5,1.7-7.5,0.8
		c-4.9-1.7-9.5,2.3-14.3,1.1c-1.8,3.9-3.9,2.7-6.1,0.9c-0.4-0.3-1.3-0.2-1.8,0.3c-4.9,4.2-10.2,4.5-15.6,4.2
		c-2.3-0.2-4.5,0.9-6.7,1.1c-4.1-2.6-8-5-10.7-7.6c0,2.4-0.4,5-1.5,7.6c-6.8-21-16.3-7.7-24.7,1.2c-0.2,0-0.3,0-0.5,0
		c-4.4-0.5-8.8-0.5-13.1-0.6c-1.6-5.9,0.1-13,1.9-20C584.5,62,560.8,12,556.6,22.3c-5.3,1.5-5.3,8.6-4.9,16.8
		c-1.5,0.3-2.9,0.6-4.4,0.5c-0.7,0-1.5-0.3-2.3-0.5c-0.6-12.6,0.7-24.7-10.1-10.3c2.2,2.4,6.2,4.2,4.8,7.6c-0.8,0.6-1.6,1.8-2.4,3.8
		c-2.9,0.6-5.8-0.5-8.7,0.5c-2.8,0.9-5.9,1.4-8.7,0.5c-2.2-0.8-4.3-2.4-6.7-2.9c-1.9-0.3-2.8,0.3-3.8,2c-0.2,1.1-0.6,0.8-1.1,0.6
		c-1.4-0.2-2.7-0.2-4.1,0c0-0.2,0-0.5,0.1-0.6c0-2.3,0.1-4.4,0.1-6.7c-0.3,0-0.6-0.2-1-0.2c-0.5,0.5-0.5,0-0.6-0.6
		c-0.1-0.3-0.2-0.8-0.3-1.1c-1.5-2.9-1.3-4.7,1.4-4.7c6,0,11.8-2.4,18-1.5c2.8,0.3,6-1.2,9.1-2.4c1.6-0.7,3.3-1.5,4.9-2.2
		c-0.2-0.1-0.4-0.1-0.6-0.2c-16.6-4.2-3.4-15.3-5.8-20.6l-0.1,0.1c-1.7,1.5-3.5,1.3-5.2,1.1l-5.8,10.5C502.8,1.3,492,11,479.4,13
		c-2.9-1.1-4.4-2.6-5.2-4.1c0.1,0,0.3,0,0.4-0.2l-1-1.7c0.1,0.6,0.3,1.2,0.5,1.7c-5.6,2.6-11.6,0.6-17.5-2.2
		c-1.2,0.3-2.2,1.5-3.2,3.4c-0.4-0.2-1.2,1.1-1.3-0.6c-0.3,0-0.5-0.2-0.8-0.2c-0.8,0.9-1.2,0.9-1.1-0.8c-1.2-0.9-2.1-0.8-2.4,1.5
		c0.2,0.5,0.4,0.8,0.5,1.2c-0.5,2.3-1.6,1.4-2.5,0.9c-0.1,0.6,0.4,1.8-0.6,1.8c-2.9-0.2-5.7,0.9-8.5,1.8c-1,0.3-2.4,1.1-3.4-0.6
		c-1,1.7-2.3,1.5-3.6,1.2c-1.7,0-3.3,0.2-5,0.2c-0.2,0-0.4,0-0.6,0c-0.6,0-1.2-0.2-1.8-0.2c-0.2,0-0.4,0-0.6,0
		c-0.2,0.2-0.4,0.2-0.6,0.3c-0.8,1.1-1.5,1.3-2.3,0.3c0.4,2.1,0.8,4.3,1.3,6.5c-5.4-0.7-8.2-4.6-11.9-6c-0.2,0-0.3,0-0.5,0
		c2.4,2.8,4.7,5.6,1.8,9.1L396.7,18c-0.4,0.3-0.9,0.7-1.5,0.2c-0.9,0.3-1.7,0.2-2.5-0.3c-0.6,0.8-1.2,0.8-1.9,0.3
		c-0.4,0-0.8,0-1.2,0c-1.9,0.3-3.8,0.6-5.7,0.5c1.9,1.6,3.6,4.8,5.1,7.7c-13.3-1.2-3.2,2.1-9.4,7.9c-8.5-0.1-12.7-8.9-11.9-15.6
		c-1-0.2-1.9-0.3-2.9-0.2c-0.3,0-1.1,0.1-1.2-0.5c-1.9,0.6-3.6,1-5.2,1.3c-1.6,0.6-3.1,1.1-3.9,0.2c0-0.1-0.1-0.1-0.1-0.1
		c-1.5-0.2-3.1-0.7-4.8-1.6c-0.5,0.1-1,0.3-1.5,0.5c-1.2,0.5-2.4,0.6-3.6,0.7l1.3,5.9l-9.8-3.3l8.5,13.3
		c-14.7,5.9-8.9-8.9-15.8-12.6c-1.2,0.2-2.3,0.7-3.5,0.6c-2-0.1-3.9,0-5.8,0.1l0.1,4.9c0.3-0.3,0.7-0.2,1-0.1
		c0.7,0.2,0.7,1.4,0.5,2.3c-0.4,1.5-0.8,3-1.2,5c-1.3-1.1-1.5-2.3-1.3-3.4c-2.9-1.7-5.2-4.9-7.2-7.6c-2,0.3-4,0.7-6,1
		c-0.4,0-0.9,0-1.3,0c-0.2,0-0.4,0-0.6,0c-0.2,0.2-0.5,0.3-0.7,0.5c-0.6,0.3-1.2-0.9-1.8,0c-0.6,0.3-1.3,0.8-2,0.8
		c-3.3-0.3-6.6-0.3-9.9-0.8c-2.5-0.3-4.9,1.7-7.4-0.2c-5.7-4.1-11-1.2-16.1,2.9c-0.2-0.6-0.4-1-0.6-1.4c-1.8,2.8-3.9,4.9-7,5.4
		c-0.5,2.1-1.1,3.3-0.8,4.7c0.6,0,1.6,0.8,1.7-0.8c0.2-4.5,1.9-2.6,3.3-1.8c3.8-0.5,7.5-2.6,11.3-2.6c3.4-0.2,6.8-0.6,10.4,1.1
		c2.7,1.2,6,0.2,8.7-2.4c1.3-1.2,2.2-0.8,3.2,0.6c0.2,0.3-0.2,1.7,0.5,1.1c3-2.7,6.3-2,9.5-2.4c0.8-0.2,2-0.9,2.3,1.1
		c0.4,2.1-0.9,2.7-1.7,3.3c-1.7,1.2-3.6,1.8-5.2,3.5c1,1.1,1.7,0.2,2.5,0c1-0.2,0.8,1.1,0.7,2c-2.1-0.6-2.7,5.5-5.5,2.1
		c0.1,1.8,0,3.6,0.2,3.8c1.8,0.8,3.6,1.1,5.7,1.7c-2.8,4.4-6,6.5-6.4,4.5c-0.1-2.1,1.9-0.5,1.7-3c-1.1,1.2-3.2-1.2-3.2,3
		c0,0.2-0.7,0.6-1,0.6c-1.6-0.2-3.4,0.2-4.8-0.2c-3.2-0.8-6.1,0.8-9.1,0.6c-1.2,0-2.1,0.2-2.5,2.4c-0.3,2.1-1.8,1.8-2.9,2
		c-1.3,0.2-1.4-1.4-1.3-2.9c0-0.9-0.4-1.8-0.9-1.5c-2.8,1.8-6.6-2-8.7,3.8c-0.3,0.9-1.6,0-1.8-1.4c-0.3-2.9-2.2-1.1-3-2.6
		c-0.3-0.5-1.3,0.8-1.1,1.7c0.9,3.9-0.9,2.9-2.1,2.9c-4.1,0-8.1-0.3-12.2,0.6c-2.8,0.6-5.6,1.7-8.5,1.8c-2.7,0.3-5.2-2.6-7.7-0.9
		c-1.5,1.1-2.8,0.8-4-0.2c-1.5-1.1-2.7-1.1-4.3-0.2c-1.1,0.6-2.8,1.7-3.4-1.7c-0.2-1.2-0.8-1.4-1.6-0.6s-2.1,1.8-2.8,1.2
		c-2.6-2-5,1.2-7.5,0.2c-0.5-0.2-1-0.5-1.1,0.8c-0.2,2.3-0.7,1.5-0.7,0c0-1.2-0.3-1.4-0.8-1.2c-1.9,0.8-3.9,1.7-4.2-2.9
		c-0.1,0.3-0.3,0.8-0.4,0.6c-1.3-0.9-3.3,3.3-4.2-1.2c0,0-1,0-1.1,0.3c-1.1,3.3-2.7,3.9-4.8,2.9c-1.7-0.9-2.8,1.8-4.5,1.5
		c-2.2-0.5-2.9,0.9-1.4,4.1c-1.8-0.6-3.3-1.1-4.7-1.5c0.3-2.1,2-1.1,2.6-2.7c-3.6-0.5-7.1-1.5-10.6-0.9c-0.7,0.2-1.8-0.6-1.1,1.7
		c0.5,0,0.8,0.5,0.7,1.2c-0.2,1.1-0.8,0.5-1.3,0.6c1.5,2.1,1.3,4.8,1.3,7.6c3.1,0.8,6.2,1.7,9.4,1.1c2.2-0.3,4.4,0.5,6.7,1.4
		s4.9,0.8,7.3,0.2c1.7-0.5,3.4-0.8,5.1-0.8c1.1-1.7,1.7-0.3,2.4,0.8c0.9,0.2,1.8,0.5,2.7,0.6c0.5-0.2,0.7,1.4,1.3,0.8
		c0.4-1.8,1.1-1.1,1.8-0.8c0.8-0.3,1.6,0.6,2.4-0.8c0.8-1.2,0.6,0.6,0.8,1.2c0.2,0.3,0.4,0.6,0.5,0.9c0.2,0.3,0.5,0.6,0.7,0.9
		c0.1-0.2,0.3-0.2,0.4,0c0.9-0.6,1.9-0.9,2.4-2.4c0-0.3-0.1-0.6-0.1-0.8c0-0.2,0.1-0.3,0.2-0.3c1.1-1.8,2.2-0.6,3.4-0.2
		c2.1,0.2,4.2,0.8,6.2-0.9c0.2-1.5-0.2-2.7-0.9-3.5c-0.4-0.5-1-0.6-0.4-1.5c0.4-0.6,0.9-2,1.4-1.2c1.5,2,3.1,4.1,3.5,7.3
		c0.6,1.5,1.6,0.6,2.4,0.8c0-0.5,0.1-0.9,0.1-1.4c0.1-1.2,0.6-2.3,1.3-2.1c1,0.3-0.4,1.7,0.2,2.4c0.2,0.3,0.3,0.8,0.5,1.1
		c0.8,0.3,1.6,0.8,2.4,1.1c0.4-0.5,0.5-1.5,1.2-1.1c1.9,0.8,3.7,1.4,5.7,0c1.5-1.1,2.9,0.5,4.3,1.4c0.3,0.2,0.5,0.3,0.8,0.5
		c0.2,0,0.4,0,0.6,0c-1.5,0.2-3,0.2-4.5,0.3c-16.5,0.9-30.8,2.1-36.4,16.1c-3,12.1-11.5-7.4-16.6-7.9l0.9,14.7
		c-13.2-23.6-11.9-12.7-23.9-29.4c-0.6-0.5-0.5-0.9-0.4-1.4c-0.9-0.9-1.2-1.7,0.1-2.3c0.9-0.3,1-1.2,0.8-2.4
		c-0.6-0.3-1.5,0.3-1.6-1.5c0.8-0.9,2.6,0.5,2.3-2.4c-0.3-2.4-1.7-0.9-2.3-0.8c-2.6,0.8-4.8-1.4-7.3-1.1c-2.1,0.3-2.5-1.5-2.2-4.1
		c0.2-2.1,0.7-4.1,1.9-5.3c2-2,1-3-0.3-4.5c-1.5-1.8-3.8-0.8-5.2-3.5c4.6-5.3,9.8-6.5,15.4-7.1c4.2-0.5,7.3,4.1,11.4,3.3
		c3.9-0.8,7.9,0.9,11.9,0.5c0.6-0.1,1.1-0.2,1.7-0.4c-2.6-5-7.2,1.3-11.2-8.5c-8.3,8.5-15.2-3.8-22,1.5c1.8-0.2,2,1.5,3.8,1.4
		c-18.3-0.8-23,24.9-30.3,25.4c-7.2,2.1-21-6.5-16.2-13.2c-6-4.4,24.6,4.5,13.7-15.7c-10.1,23.8-21.8-8.8-44.5,7.6
		c10.2,8.3-5.7,13.3,3.4,19.7C77.4,50.1,77,46.5,72,39.8l-3.2,7.4c-10.3-11.6-8-14.2-13.1-17.8c-0.8,0.4-1.6,0.5-2.6,0.5
		c-3-0.1-6-0.1-9-0.1c-2.4,3.3-7.3,6.5-3.8,9.7c-2.7,0.2-5.4-0.1-7.9-0.9c0.4,0.7-0.8,2-0.4,2.6c1.8,3.2,6.7,4.8,9.1,3
		c0.6-0.5,1.3-0.9,1.7,0c1.7,3.8,4,3.5,6.6,2.7c1.9-0.5,4,0.9,5.7,1.8c1.6,0.8,3.2,1.4,4.9,1.7c-0.1,0.3-0.3,0.5-0.4,0.8
		c-0.6,0-1.3,0-1.7,0.2c0.3,0.5,0.6,0.9,1,0.9c-3,4.1-6,6.2-10.1,0.2c-4.2,6.8-8.7,7.7-13.2,6.1c-4.5-1.7-9.1-6.2-13.7-10.3
		c-5.9-5.3-11.8-10-17.8-8v-2.9C2.9,37.6,1.6,38,0,38.3v21.8V150H1280.1z M101.7,55.8c-5.3,24.1-13.3-10.1-17.1,17.4
		c-1.7-4.2-3.9-7.9-6.2-10.8c0.6-3.2,1.2-6.5,1.5-9.5c0.2,0.3,0.4,0.5,0.6,0.6c0.2-0.3,0.3-0.5,0.5,0c0.6,0.2,1.3,0.3,1.9,0.3
		c0.2,0.2,0.5,0.3,0.7,0.5c4.3,2.4,8.8-1.2,13.1,0.5C98.3,55.4,100.2,54.5,101.7,55.8z M157.4,98.4L145.6,68l-2.2,22.6
		c-4.8-8.8-10-5.3-15.3-1.8c-2.2-11.4-7.1-17-12.2-21c-4.1-3.3-8.3-5.8-11-9.5c0.4,0.2,0.7,0.2,1,0.2c5.5,0.9,10.8,3.5,16.2,5.1
		c0.2,0,0.4,0.2,0.6,0.2c0-0.2,0.1-0.3,0.3-0.5c0.5-0.2,1-0.2,1.4-0.3c0.5-2.1,2.4-1.7,3.1-3.5c0.8,1.4,1,2.9,0.6,4.7
		c1.8,2.4,4.4-0.9,6.2,1.7c1.7-1.5,3.4,0,5.2,0.2c0.4-1.1,1.1-0.9,1.7-1.1c0.2-1.2,0.7-1.2,1.3-0.9c0.2-0.2,0.5-0.3,0.7-0.6
		c0.4-0.5,0.9-0.9,1.3-1.2c0.1-1.4,0.7-0.9,1.2-0.8c1.7-0.8,3.3-1.4,5-2.1c1.7-1.1,2.2-0.3,2.4,3.8c0.4,3.3,1.5,4.5,3.8,3.8
		c1.8-0.6,3.6-1.5,5.5-0.2c0.1,0.2,0.3,0.2,0.5,0.3C166.3,79.3,163.4,86.9,157.4,98.4z M176.7,60.1c-2.2,0.3-2.6,3.8-4.4,2.6
		c-0.5-0.3-0.7-2-1-3C172.9,58.5,174.4,58.5,176.7,60.1z M293.1,71.9c-1,1.2-1.8,1.8-2.4,1.4C291.6,72.6,292.3,72.2,293.1,71.9z
		 M308.4,51c-0.6,0.3-0.5-0.9-0.5-0.9c0.1,0,0.1-0.2,0.2-0.2C308.2,50.4,308.4,50.7,308.4,51z M310.2,47.2c0,0.5,0,0.8,0,1.1
		c-0.5-0.3-1.1-0.5-1.8-0.8c0-0.8,0.1-1.4,0.8-1.7S310.3,46.4,310.2,47.2z M337.7,41c-0.4-0.9-0.7-1.8-0.6-3c0.1,0.2,0.3,0.2,0.4,0
		C337.4,39,337.5,40.1,337.7,41z M339.8,39.9c-0.5-0.6-0.9-1.2-1.3-1.8C339.3,38.3,339.7,38.9,339.8,39.9z M359.4,39
		c-0.5,2-1.2,5.1-3.2,4.4c-1-0.3-2-0.3-2.9-0.2c-0.7-2.4-1.5-4.5-2.3-6.5c0.1-0.5,0.2-0.9,0.5-1.4c0.6,1.8,0.8,4.2,2.5,3.3
		c0.2-0.2,1.1-0.3,1.1,0.9c0,0.6-0.5,1.7,0.5,1.5c0.6-0.2,0.5-0.9,0.5-1.5c-0.2-1.7-0.1-3.3,1.5-2.6C358.3,37.3,360,37,359.4,39z
		 M380.2,70.1c-2.9,1.1-5.2,2-6.5,2.3c8.9,2.9,6.1,11.8,3.6,20.9c-0.5,0-0.9,0-1.4,0c-5.9-17-9.7-18.2-16.9-4.5
		c-0.5-7-1-14.1-1.7-20.9c4.2-3.2,9-1.1,13.3-2.7c0.5-0.2,1-0.3,1.4-0.5v0.2c1.3,0,1.5,2,2.3,2.9c0.2-0.2,0.4-0.5,0.6-0.6
		c0.1-0.6,0.1-1.1,0.2-1.7c1.1,0.3,1.4,1.7,1.7,3c0.4,0,0.8,0.2,1.2,0.2l0.1-0.2l0.2,0.2c0.4-0.8,0.8-1.1,1.1,0.2
		C379.7,69.1,379.9,69.6,380.2,70.1z M457.2,57.9v-0.2l0.1-0.2c0,0.2,0,0.2,0,0.3c0.1,0,0.1,0,0.2,0c-0.1,0.9-0.2,1.8-0.4,2.6
		c0-1.2-0.5-1.2-1.2-0.8c-0.1,0.9,0.5,2.6-0.5,2.6s-0.6-1.5-0.6-2.6v-0.2c-0.5-0.3-0.9-0.6-1.3,0.3c0.1,0.3,0.1,0.6,0,0.8
		c0,0.2,0.1,0.6,0.1,0.6c-0.4,0.3-0.7,0.2-0.8-0.5c-0.6-0.2-1.2-0.2-1.8-0.3c-0.4,0.2-0.5-0.3-0.6-0.8c-2,2-4.1,2.7-6.3,1.4
		c-0.2-0.2-0.4-0.3-0.5-0.3c-0.2-0.2-0.4-0.2-0.7-0.3c-0.2,0-0.4-0.2-0.6-0.2c-5.7,2-11.4,0.5-17.1,0.3c-8.1-0.3-16.2-3.6-24.3-2.4
		c-2.5,0.3-5.1-1.5-7.4,0.6c0.2,1.5,0.4,2.9,0.6,5c-2.3-2-4.7-0.5-6.5-2.9h-0.1c-0.9,1.2-1.6,1.4-1.6-0.9l-0.1,0.2
		c-0.2,0.9-0.8,0.8-1.3,0.9c-0.1,0.2-0.2,0.3-0.3,0.5c0-0.9,0.1-1.7,0.2-2.4c-1.2-2.1,1.1-2.1,0.9-3.6c0.6,1.1,2.1-0.8,2.2,1.7
		c0.4-1.1,0.6-2.6,1.1-2.9c1.2-0.5,0.6,2,1.3,2.4c0.2,0.2,0.4,0.3,0.7,0.5c2.2-0.9,3.2-4.5,5.4-5.6c0.1,0,0.2-0.5,0.3-0.8
		c2.3,2.1,4.7-1.2,7,0.3c1.7,1.1,2.4-1.2,3.7-1.5c0.3-0.8,0.5-0.8,0.7,0c0.1,0.3,0.3,0.6,0.4,0.9c1.4,0.6,1.8-2.3,3.1-1.8
		c0.7,0.3,1.3,0.6,1.9,1.8c1.3,2.4,0.1,5.5,1.2,7.6c0.2-1.7,0.8-0.8,1.3-0.6c-0.2-2,0.4-4.1-0.6-6.1c1.4-0.2,2.7-0.8,3.3,0.5
		c0.8,1.5-1.2,2.4-1,3.2c0.4,1.4-0.7,1.8-0.5,2.9c1.8,2.4,2.8-1.5,4.3-1.1c-1.1-6.2-0.1-7.9,3.8-6.4c1-0.6,1.6,1.1,2.5,0.9
		c1.1,0.5,2.1,0.3,2.9-0.3c2,0.6,3.9,0.8,5.9-0.6c0.2-0.2,0.8,0.2,0.8,0.3c0.1,0.9,0.2,1.5,0.4,2c0,0.2,0,0.3,0,0.5
		c0.1,0.2,0.2,0.2,0.3,0.3c1,1.8,3,0.5,4.5,0.6c0.1-0.2,0.1-0.5,0.2-0.8c0.3-0.2,0.6-0.3,0.9-0.5l0.1,0.2c0.5,0.2,0.9,0.3,1.4,0.6
		c0.2,0.2,0.4,0.2,0.6,0.3c0.4,0.2,0.8,0.3,1.2,0.5c0.2,0.2,0.5,0.3,0.7,0.5c0.3-0.6,0.5-1.2,0.8-1.8c0.3-1.2,0.6-1.1,0.8,0
		c0.1,0.8,0.1,1.5,0.2,2.3c0.9,0,1.2-0.8,1.2-2c0,0,0,0,0-0.2c0.4,0.3,0.8,0.6,1.3,0.5c0.8,0,1.4-0.6,1.8-1.2c0,0.3,0,0.6-0.1,1.2
		c-0.2,1.2,0.6,1.5,0.7,2.3c1,0,0.2-2.7,1.3-2.3c1,0.5,0.6,2,0.7,3.2C456.4,57.3,456.7,57.9,457.2,57.9z M484.6,32.2
		c-0.6,3,0.5,4.7,2.2,6.4c-1.3-0.9-1.6,0.6-1.9,1.8c-3.4,0.8-6.7,1.2-10.1,1.2c0.1-0.8,0.4-1.5,1-2.1c0-1.4-0.7-2.1-1.3-2.3
		c-2.7-0.6-5.5-1.5-8.2-0.2c-3.1,1.7-6-1.1-9-0.2c2.3-4.1,5.5-3,8.2-3.5c5.9-0.9,11.6-3.5,17.6-3.2
		C484.6,30.2,484.9,30.8,484.6,32.2z M499.7,29.2c-0.3,2,0.2,5.6-2.6,5.8c-3.1,0-6-3.9-8.8-0.9c-1.3-0.8-2.9,0.5-3.2-1.8
		c-0.4-2.9,1.5-1.5,2.3-2.3c3-3,6.6-0.9,9.8-2.6C497.8,27,500.2,25.8,499.7,29.2z M503.7,92.9c-3.3,4.7-6.3,9.7-8.8,11.5
		c-0.2-0.3-0.5-0.6-0.8-1.1c-1.1-1.4-2.6-1.1-3.9-2c-0.2-0.6-0.4-1.5-0.6-2.3C493.9,94.7,498.6,93.4,503.7,92.9z M533.9,53.4
		c-0.5,1.5-0.9,3.2-1.4,4.8c-1.9,0.6-2.8,2.6-2,7.3c0,0,0,0,0,0.2c-1.3-2.1-1.8-4.7-3.3-2.9c-0.8-1.5-2.1-0.6-3.1-1.5
		c-1.5-1.4-3.4-2.7-2.6-5.1c0.6-2.4,3.6-3.9,4.8-2.4c2.1,2.7,4.5,0.9,6.5,2.6c-0.1-0.9-0.1-1.7,0.6-2
		C533.6,54,533.7,53.7,533.9,53.4z M552.8,56.9c-2.5-0.9-4.1-3.2-5.1-6.1c1.8-0.8,3.6-1.5,5.5-1.8C553.3,51.7,553.2,54.5,552.8,56.9
		z M758.9,64.9c-0.1,1.7-0.5,3.2-1.7,4.7c-0.6-1.4-1.1-2.7-1.7-4.1C756.6,65.4,757.7,65.2,758.9,64.9z M802.2,54.9
		c-0.7,0-1.4,0-2,0.2c0-0.3-0.1-0.6-0.2-1.1c-1-4.2,2.1-7,1.2-10.8c-0.1-0.3,0.2-0.8,0.6-1.2c0,2.1-0.1,4.2-0.1,6.4
		c0.3,0,0.6,0.2,1,0.2c0.5-0.5,0.5,0,0.6,0.6c0.1,0.3,0.2,0.8,0.3,1.1C805.1,53.1,804.9,54.9,802.2,54.9z M813.1,54.2
		c-1.2,0-2.3,0.2-3.4,0.8c-0.6,0.3-3,1.5-2.5-1.8c0.5-2,0-5.8,2.7-5.8c3.1,0,6,3.9,8.8,0.9c0.9,0.5,1.9,0,2.5,0.5
		C818.3,50.5,815.6,52.3,813.1,54.2z M926,111.7c2.7-3.6,2.1-8.5,0.7-13.5c0.1,0,0.2,0,0.2,0c0.9,0.2,1.7-0.3,2.6,0.3
		c1.8,1.1,3.6,1.4,2.9-3.3c1.4,0.5,1.9,2.4,3.1,2.1c0.2,0,0.4,0,0.6,0c0.9-0.2,1.8-0.3,2.5-1.2c0.5-0.6,0.8-0.3,1,0.2
		C938.3,104.1,931.3,114.1,926,111.7z M944.2,68.2c-0.2,0.3-0.4,0.6-0.7,0.9c-1.2,0.5-2.4,0.9-3.5,1.7c-0.6-0.2-1.3-0.5-1.9-0.9
		c-1.4-1.2-2,0.9-3,1.1c-2.7,0.5-5.3,1.2-7.9,1.7c1-0.6,2.2-1.1,3.6-1.5l-8-8.2c1.1,0,2.1,0.3,3.2,0.8c1.1,0.6,2.7,0.8,3.8,0
		c4-2.9,7.9,0,11.9-0.3c0.5,0,2.1-0.2,0.6,2.1C941.6,66.7,944,66.4,944.2,68.2z M1248.9,88.5c-2.6,0.8-4.4-0.2-5.7-2
		c0.2,0,0.4,0,0.5,0c1.7-0.3,3.4,0.5,5.1,0.5C1248.8,87.5,1248.9,88.1,1248.9,88.5z"/>
	
		<linearGradient id="SVGID_00000049944632978413793720000004981510953101677192_" gradientUnits="userSpaceOnUse" x1="849.3793" y1="648.6578" x2="849.3793" y2="657.373" gradientTransform="matrix(1 0 0 1 0 -620.9366)">
		<stop  offset="0" style="stop-color:#FFC180"/>
		<stop  offset="1" style="stop-color:#D1E8EE"/>
	</linearGradient>
	<path style="fill:url(#SVGID_00000049944632978413793720000004981510953101677192_);" d="M840.5,36.4c-0.1-0.6,0-1.2,0.1-1.7
		c0-0.2,0-0.3,0-0.5c1.9-0.5,3.8-0.9,5.2-3.9c-0.2,2.9,0.7,5.1,2.2,4.2c1.6-0.9,4.6,1.2,4.7-4.1c0-1.5,1-2.7,2.2-2.7
		c1.1-0.5,1.6,1.1,2.5,1.4c-0.6,1.8-1.3,3.8,0.6,4.8c0.1,0.2,0.2,0.2,0.3,0.2c-2,0.5-3.9,0.8-5.9,0.8
		C848.4,34.9,844.4,35.5,840.5,36.4z"/>
	
		<linearGradient id="SVGID_00000071552179669099745240000009560582739582058679_" gradientUnits="userSpaceOnUse" x1="544.4585" y1="635.4173" x2="544.4585" y2="639.428" gradientTransform="matrix(1 0 0 1 0 -620.9366)">
		<stop  offset="0" style="stop-color:#FFC180"/>
		<stop  offset="1" style="stop-color:#D1E8EE"/>
	</linearGradient>
	<path style="fill:url(#SVGID_00000071552179669099745240000009560582739582058679_);" d="M543.2,18.5c0.3-1,0.3-2.1,0.3-3.3
		c0.5,0,0.9-0.3,1.3-0.7c0.2,0.5,1.4,0.2,0.7,1.2C544.8,16.8,544.1,17.9,543.2,18.5z"/>
	
		<linearGradient id="SVGID_00000062154209852353076040000005616152425275172279_" gradientUnits="userSpaceOnUse" x1="1235.8" y1="655.5559" x2="1235.8" y2="677.7365" gradientTransform="matrix(1 0 0 1 0 -620.9366)">
		<stop  offset="0" style="stop-color:#FFC180"/>
		<stop  offset="1" style="stop-color:#D1E8EE"/>
	</linearGradient>
	<path style="fill:url(#SVGID_00000062154209852353076040000005616152425275172279_);" d="M1226.5,50c0.3,0,0.6,0,0.9,0
		c-0.7-1.5-1.4-5.1-1.8-9.3c1.1,0.1,2.2-0.1,3.3-1c-0.2-1.5-0.4-2.9-0.6-5c2.3,2,4.7,0.5,6.5,2.9h0.1c0.9-1.2,1.6-1.4,1.6,0.9
		l0.1-0.2c0.2-0.9,0.8-0.8,1.3-0.9c0.2-0.3,0.4-0.5,0.5-0.5c1.8,4.7,3.8,9.9,6,14.9c0.5,1.2,1.1,2.5,1.6,3.7c-1-1.3-2-0.9-3.2,0.8
		c-0.8,1.2-1.7,0-2.5-0.3c-0.3-0.6-0.7-0.8-1.2-0.6c-2.1-0.3-4.2-0.8-6.3,0.3c-0.2,0-0.3,0-0.5,0c0.7-0.5,0.4-2.1,0.7-2.9
		c-0.8-4.2-3.4-2.4-5-2.7C1227.5,50,1227,50,1226.5,50z"/>
	
		<linearGradient id="SVGID_00000156568151514477501970000018432271009256966582_" gradientUnits="userSpaceOnUse" x1="1228.25" y1="678.8744" x2="1228.25" y2="679.3286" gradientTransform="matrix(1 0 0 1 0 -620.9366)">
		<stop  offset="0" style="stop-color:#FFC180"/>
		<stop  offset="1" style="stop-color:#D1E8EE"/>
	</linearGradient>
	<path style="fill:url(#SVGID_00000156568151514477501970000018432271009256966582_);" d="M1228.1,58.4c0-0.3,0.2-0.5,0.3-0.5
		C1228.3,58.1,1228.2,58.2,1228.1,58.4z"/>
	
		<linearGradient id="SVGID_00000022559318979797846680000011649569871891740802_" gradientUnits="userSpaceOnUse" x1="896.5" y1="647.2942" x2="896.5" y2="648.3666" gradientTransform="matrix(1 0 0 1 0 -620.9366)">
		<stop  offset="0" style="stop-color:#FFC180"/>
		<stop  offset="1" style="stop-color:#D1E8EE"/>
	</linearGradient>
	<path style="fill:url(#SVGID_00000022559318979797846680000011649569871891740802_);" d="M896.3,26.6c0.5-0.1,1-0.2,1.5-0.2
		c-0.1,0.2-0.2,0.4-0.3,0.6c-0.1,0-0.3,0-0.4,0.1c-0.6,0-1.3,0.2-1.9,0.4L896.3,26.6z"/>
	
		<linearGradient id="SVGID_00000177481872566358505490000018264356884122924207_" gradientUnits="userSpaceOnUse" x1="864.45" y1="648.1775" x2="864.45" y2="654.9503" gradientTransform="matrix(1 0 0 1 0 -620.9366)">
		<stop  offset="0" style="stop-color:#FFC180"/>
		<stop  offset="1" style="stop-color:#D1E8EE"/>
	</linearGradient>
	<path style="fill:url(#SVGID_00000177481872566358505490000018264356884122924207_);" d="M859.2,34c0.1-0.3,0.2-0.6,0.2-1.1
		c1.7-0.5,1.1-4.2,1.6-4.1c2.8,0.8,5.4-3.6,8.2-0.5c0,2.1,0,2.9,0.5,3.2c-0.7,0.5-1.4,0.8-2.2,0.9C864.7,32.8,861.9,33.4,859.2,34z"
		/>
	
		<linearGradient id="SVGID_00000092441258727484454950000006172756438844295066_" gradientUnits="userSpaceOnUse" x1="1098.6028" y1="657.6758" x2="1098.6028" y2="665.5496" gradientTransform="matrix(1 0 0 1 0 -620.9366)">
		<stop  offset="0" style="stop-color:#FFC180"/>
		<stop  offset="1" style="stop-color:#D1E8EE"/>
	</linearGradient>
	<path style="fill:url(#SVGID_00000092441258727484454950000006172756438844295066_);" d="M1099.4,44.6c-0.6-2.7-1.8-5.5-3.2-7.9
		c0.7,0.2,1.4,0,2,0.6c0.2,0.5,0.3,1,0.4,1.6c0-0.3,0-0.7-0.1-1.3c1.4,1.3,3.1,2.6,2.3,4.9C1100.5,43.3,1100,44,1099.4,44.6z"/>
</g>
</svg>
