<?xml version="1.0" encoding="utf-8"?>
<!-- Generator: Adobe Illustrator 26.0.2, SVG Export Plug-In . SVG Version: 6.00 Build 0)  -->
<svg version="1.1" id="Layer_1" xmlns="http://www.w3.org/2000/svg" xmlns:xlink="http://www.w3.org/1999/xlink" x="0px" y="0px"
	 viewBox="0 0 1280 150" style="enable-background:new 0 0 1280 150;" xml:space="preserve">
<style type="text/css">
	.st0{fill:url(#SVGID_1_);}
	.st1{fill:url(#SVGID_00000034076792246012345620000001971002969969024910_);}
	.st2{fill:url(#SVGID_00000047755697685460720910000000308606457022310821_);}
	.st3{fill:url(#SVGID_00000160879185579741928530000015468814372844641422_);}
	.st4{fill:url(#SVGID_00000018221417774416290900000001373877823213480591_);}
	.st5{fill:url(#SVGID_00000095314941394891989170000004797806155294288519_);}
	.st6{fill:url(#SVGID_00000091712090686393517940000006897019522028533655_);}
	.st7{fill:url(#SVGID_00000070090797608913506660000012383494690977140872_);}
	.st8{fill:url(#SVGID_00000070802412586667711290000003452817370710822807_);}
	.st9{fill:url(#SVGID_00000065770377909454832330000003640376413113875332_);}
	.st10{fill:url(#SVGID_00000076594242555275434350000003397339691309993868_);}
	.st11{fill:url(#SVGID_00000060715098716466373750000008202913208259421364_);}
	.st12{fill:url(#SVGID_00000054227983280638475740000005072144616346760632_);}
	.st13{fill:url(#SVGID_00000002357411083245806360000009026358002046064313_);}
	.st14{fill:url(#SVGID_00000132061428590392741660000013616761855043879862_);}
	.st15{fill:url(#SVGID_00000145023350054586593840000009975879126327516033_);}
	.st16{fill:url(#SVGID_00000110457741099410364700000003165692915723315119_);}
	.st17{fill:url(#SVGID_00000183938767532124686000000011815294480720487334_);}
	.st18{fill:url(#SVGID_00000100382615602839897450000015136433032333564342_);}
	.st19{fill:url(#SVGID_00000157987319743300888680000013299970160429087368_);}
</style>
<g>
	<linearGradient id="SVGID_1_" gradientUnits="userSpaceOnUse" x1="733.05" y1="65.762" x2="733.05" y2="65.612">
		<stop  offset="0" style="stop-color:#FFFFFF;stop-opacity:0"/>
		<stop  offset="0.45" style="stop-color:#FFE0A4"/>
		<stop  offset="0.9" style="stop-color:#FFD380"/>
	</linearGradient>
	<path class="st0" d="M734.4,65.7c-0.9-0.1-1.8-0.1-2.7,0C732.6,65.8,733.5,65.8,734.4,65.7z"/>
	
		<linearGradient id="SVGID_00000103986836494209635440000016792822736402630047_" gradientUnits="userSpaceOnUse" x1="19.3" y1="127.387" x2="19.3" y2="30">
		<stop  offset="0" style="stop-color:#FFFFFF;stop-opacity:0"/>
		<stop  offset="0.45" style="stop-color:#FFE0A4"/>
		<stop  offset="0.9" style="stop-color:#FFD380"/>
	</linearGradient>
	<path style="fill:url(#SVGID_00000103986836494209635440000016792822736402630047_);" d="M28.5,92.8c3.7-3.8,7.2-7.1,10.1-9.4
		c-7.2-3.4-2.1-5.1-12.7-4.7c-3.9-4,5.5-6.2,8.6-6.4c-8.3-0.9-16.6-1.7-24.9-2.5c0.9,4.8-4.6,7-9.5,9.3V30c0,0-0.1,0-0.1,0v97.4
		c3.6-5.7,10.1-14.1,17.1-22.2C20.9,100.8,24.8,96.6,28.5,92.8z"/>
	
		<linearGradient id="SVGID_00000130620823280024843350000007924401830564800940_" gradientUnits="userSpaceOnUse" x1="161.3001" y1="82.687" x2="161.3001" y2="82.187">
		<stop  offset="0" style="stop-color:#FFFFFF;stop-opacity:0"/>
		<stop  offset="0.45" style="stop-color:#FFE0A4"/>
		<stop  offset="0.9" style="stop-color:#FFD380"/>
	</linearGradient>
	<path style="fill:url(#SVGID_00000130620823280024843350000007924401830564800940_);" d="M161.5,82.2c-0.2,0.1-0.3,0.2-0.5,0.3
		c0.2,0.1,0.4,0.1,0.6,0.2L161.5,82.2z"/>
	
		<linearGradient id="SVGID_00000158728890849507057110000013836312552745607079_" gradientUnits="userSpaceOnUse" x1="126.1501" y1="83.187" x2="126.1501" y2="82.787">
		<stop  offset="0" style="stop-color:#FFFFFF;stop-opacity:0"/>
		<stop  offset="0.45" style="stop-color:#FFE0A4"/>
		<stop  offset="0.9" style="stop-color:#FFD380"/>
	</linearGradient>
	<path style="fill:url(#SVGID_00000158728890849507057110000013836312552745607079_);" d="M125.9,82.8c0.1,0.2,0.3,0.3,0.5,0.4
		C126.3,83,126.1,82.9,125.9,82.8z"/>
	
		<linearGradient id="SVGID_00000178889608516806547630000011297266857849239471_" gradientUnits="userSpaceOnUse" x1="120.4502" y1="83.287" x2="120.4502" y2="83.087">
		<stop  offset="0" style="stop-color:#FFFFFF;stop-opacity:0"/>
		<stop  offset="0.45" style="stop-color:#FFE0A4"/>
		<stop  offset="0.9" style="stop-color:#FFD380"/>
	</linearGradient>
	<path style="fill:url(#SVGID_00000178889608516806547630000011297266857849239471_);" d="M120.3,83.3c0.1,0,0.2-0.1,0.3-0.2
		C120.5,83.1,120.4,83.2,120.3,83.3z"/>
	
		<linearGradient id="SVGID_00000135664790293904161920000010945453423248414364_" gradientUnits="userSpaceOnUse" x1="62.3652" y1="83.487" x2="62.3652" y2="72.617">
		<stop  offset="0" style="stop-color:#FFFFFF;stop-opacity:0"/>
		<stop  offset="0.45" style="stop-color:#FFE0A4"/>
		<stop  offset="0.9" style="stop-color:#FFD380"/>
	</linearGradient>
	<path style="fill:url(#SVGID_00000135664790293904161920000010945453423248414364_);" d="M68.9,73.2c-12.5-3.2-2.7,8.3-14,4.3
		c-2.8,3.1,9.2,3.2,6.3,6C68.6,80.1,72.5,82,68.9,73.2z"/>
	
		<linearGradient id="SVGID_00000023981934050915949260000016162740234580415107_" gradientUnits="userSpaceOnUse" x1="738.8048" y1="69.0181" x2="738.8048" y2="64.7266">
		<stop  offset="0" style="stop-color:#FFFFFF;stop-opacity:0"/>
		<stop  offset="0.45" style="stop-color:#FFE0A4"/>
		<stop  offset="0.9" style="stop-color:#FFD380"/>
	</linearGradient>
	<path style="fill:url(#SVGID_00000023981934050915949260000016162740234580415107_);" d="M743.2,64.8c-2.7-0.3-5.9,0.6-8.8,0.9
		C740.5,66.5,743.4,73.3,743.2,64.8z"/>
	
		<linearGradient id="SVGID_00000152264646944707014560000001123821475986845095_" gradientUnits="userSpaceOnUse" x1="551.8999" y1="70.987" x2="551.8999" y2="66.087">
		<stop  offset="0" style="stop-color:#FFFFFF;stop-opacity:0"/>
		<stop  offset="0.45" style="stop-color:#FFE0A4"/>
		<stop  offset="0.9" style="stop-color:#FFD380"/>
	</linearGradient>
	<path style="fill:url(#SVGID_00000152264646944707014560000001123821475986845095_);" d="M555.1,71l-5.6-4.9l-0.8,2.1
		C549.7,70.4,551.5,70.6,555.1,71z"/>
	
		<linearGradient id="SVGID_00000119082461142591400470000000958874049606697149_" gradientUnits="userSpaceOnUse" x1="59.3501" y1="85.587" x2="59.3501" y2="83.487">
		<stop  offset="0" style="stop-color:#FFFFFF;stop-opacity:0"/>
		<stop  offset="0.45" style="stop-color:#FFE0A4"/>
		<stop  offset="0.9" style="stop-color:#FFD380"/>
	</linearGradient>
	<path style="fill:url(#SVGID_00000119082461142591400470000000958874049606697149_);" d="M61.2,83.5c-1.1,0.6-2.4,1.2-3.7,2.1
		C59.6,84.7,60.6,84.1,61.2,83.5z"/>
	
		<linearGradient id="SVGID_00000062163375948824584950000003505295670888633772_" gradientUnits="userSpaceOnUse" x1="653.75" y1="81.287" x2="653.75" y2="73.487">
		<stop  offset="0" style="stop-color:#FFFFFF;stop-opacity:0"/>
		<stop  offset="0.45" style="stop-color:#FFE0A4"/>
		<stop  offset="0.9" style="stop-color:#FFD380"/>
	</linearGradient>
	<polygon style="fill:url(#SVGID_00000062163375948824584950000003505295670888633772_);" points="655.1,81.3 654.2,73.7 
		652.4,73.5 	"/>
	
		<linearGradient id="SVGID_00000031177168502478315000000007266689867696073128_" gradientUnits="userSpaceOnUse" x1="168.6001" y1="99.187" x2="168.6001" y2="77.987">
		<stop  offset="0" style="stop-color:#FFFFFF;stop-opacity:0"/>
		<stop  offset="0.45" style="stop-color:#FFE0A4"/>
		<stop  offset="0.9" style="stop-color:#FFD380"/>
	</linearGradient>
	<path style="fill:url(#SVGID_00000031177168502478315000000007266689867696073128_);" d="M175.6,78c-6.1,7.1-9.5,6.2-14,4.7
		l4.3,16.5L175.6,78z"/>
	
		<linearGradient id="SVGID_00000129917548831048974440000016878130520588085139_" gradientUnits="userSpaceOnUse" x1="991.25" y1="78.887" x2="991.25" y2="78.787">
		<stop  offset="0" style="stop-color:#FFFFFF;stop-opacity:0"/>
		<stop  offset="0.45" style="stop-color:#FFE0A4"/>
		<stop  offset="0.9" style="stop-color:#FFD380"/>
	</linearGradient>
	<path style="fill:url(#SVGID_00000129917548831048974440000016878130520588085139_);" d="M991.8,78.8c-0.4,0-0.8,0-1.1,0.1
		C991,78.9,991.4,78.8,991.8,78.8z"/>
	
		<linearGradient id="SVGID_00000023263066126069325880000003560521361385269130_" gradientUnits="userSpaceOnUse" x1="640" y1="150" x2="640" y2="63.087">
		<stop  offset="0" style="stop-color:#FFFFFF;stop-opacity:0"/>
		<stop  offset="0.45" style="stop-color:#FFE0A4"/>
		<stop  offset="0.9" style="stop-color:#FFD380"/>
	</linearGradient>
	<path style="fill:url(#SVGID_00000023263066126069325880000003560521361385269130_);" d="M1274.9,97.2c-4.3-1.2-8.7-2.7-19.7-1.5
		l0.8-0.7c-4.4,2.9-10.3,4.3-16.3,4c5.6-3.4-10.3-6.7-3-10.5c-21.8,5.8-10.8,4.6-25.4,15.6l-3.2-4.9c-5,4.4-5.4,6.8-16.4,8
		c9.1-4.2-6.8-7.5,3.4-13c-22.7-10.8-34.4,10.7-44.5-5c-10.9,13.4,19.7,7.5,13.7,10.4c4.8,4.4-9,10.1-16.2,8.7
		c-7.4-0.3-12.1-17.3-30.5-17.1c1.8,0.1,2-1,3.8-0.9c-6.8-3.5-13.7,4.6-22-1c-5,8.1-11-0.5-12.7,9.9l17-2.3
		c-9.6,2.7-19.1,14.9-34.7,8.9c1.3-2.1,6.1-4.9,9.4-6.4c-4.6-3.1-9,2-13.7-1.2c1.7-10.4,20.7-2.2,31.2-10.1
		c-4.8-4.4-19.7,7.5-14.1-3.8c-7.9,14.3-18.1-1.9-31,9l1.1-6.2c-2.1,0.9-6.3,3.9-9.9,3.7l6.9-8.1c-10.4,6.9-19.3-6.1-29.1-2.4
		c20.3,0,4.3,7.6,12.7,12.2c-25,8.1-14-15.8-40.7-13.7c4.4,0.1,12.4,4.2,6.9,6.8c-5.2-1.4-12.2-3.8-15.3-7.1
		c-18.6,1.2,2.6,6.4-5.5,10.2c-5.9-7.7-9.2,3-17.5,5.4l0.2-6.4c-21-4.2-6.3,13.2-25.1,8.2l8.5-8.8l-9.8,2.2l2.4-7.2
		c-11,5.3-14.3,3.9-24.8,1.8c2.2,4.5-2,11.6-11.4,11.7c-6.2-3.8,3.9-6-9.4-5.2c3.2-3.9,6.7-8.9,12.2-3c0.7-2.1,3.2-4,3.9-6
		c-6.6-4.4-17.2-1.1-22-1.1c1.8,0.2,4,0.6,5.1,1.5l-19.8,8.7c-2.9-2.4-0.4-4.3,2.1-6.2c-4,0.7-6.8,3.6-12.6,4.1
		c1.8-5.2,1.7-10.5,10-12.9l-18.7,5.6c-1.1-2.2-9-6.2-6.5-8.1c-10-3.1-25.6,9.8-38.8,5.7c0.2-0.3,0.4-0.7,0.5-1.1l-1,1.1
		c0.1,0.1,0.3,0.1,0.4,0.1c-0.8,1-2.3,2-5.2,2.7c-12.6-1.3-23.4-7.7-38.9-0.8l-7.8-9.3c-11.9,2,10.6,11.8-9.2,15.1
		c-14.1,2.8-4.5-8-9.2-10.6c-7.2,4.6-20,14-32.1,6.3c4.3-1.7,7.5-0.3,11.5-0.9l-9.3-5.2c11.9-8,19.9-5.5,13.1-11.8
		c-0.3-0.2-0.7-0.4-1-0.5c-3.2,17.4-37.6,1.3-40.5,19L671,79c1.8,0.2,2.2-0.9,4-0.7c-11.7-8.7-10.4,12.8-26.2,10.1
		c-5.4-1.5-9.1-4.1-5.1-6.2l-12.9,4.3c-2.9-0.3-2.7-2.4-0.6-3l-17.4,1.1l0.2-0.5c-3,2.7-9.5,7-12.7,8.8c-4.6-2.6,2.6-1.9,1.6-4.1
		L591,93c-3.9-4.7,5.3-9,12.5-8.3c-8.2-18-9.2,4.4-29.4-6.3l10.2-2.2c-5-9.4-12.3-7.1-21.8-11.8c0,0.1-0.1,0.2-0.1,0.3
		c-0.4-0.3-0.7-0.6-1-0.8c-0.4-0.2-0.9-0.5-1.3-0.8c2.3,3.3,21,16.2,9.1,20.5c-3.1-1.4-7.3-2.1-13.8,1.4c0.6-6.4-5.6-4.9-13.2-4.6
		l1.3-8.4c-8.4,2.4-8.1,6.7-13.3,10.4c-9-0.9-10.3-7.5-11.9-13c-14.4-1.5,9.1,10.6-8.3,12c-11.9-3.4-20.7-0.1-35.7,4.8
		c-8.2-3,2-5.2-0.8-7.6l-8.2,6.6c-1.8-0.2-1-2.3-0.6-3.3c-6.6,2.6-1.3,8.4-11.5,10.6c-3.6,9.2-19.3-13.8-32.6-3.4
		c-2.8-2.4,1.9-5.1,1.3-8.4c-17.6,6.7-15,4.8-29.7,14L380.8,89c8.2,6.4-3.6,13.8-13.8,19.8c-0.5-0.6-1.1-1.2-1.6-1.8
		c4.2-5,8.3-10.7,7.9-15.6c-1.1,0.9-3.1,1.8-5.3,2.2c1.2-1.4,1.9-2.7,1.5-3.5c-0.5-0.9-2.3,1-5,3.1l-2.8-9.4l-1.2,3.7l-20-6.1
		c-15.3,9.3-29,23.1-52.3,26.8c6.2-6.8,2-11.2,2.8-19.4c5.7,8.7,18.2-3.6,30.1-1.7c-6.2-1-4.6-4.9-2.9-6.2l-22,7.7
		c0.9-6.6-4.3-5-9.7-7.8c1.7,6.6-2.4,8.8-8.1,9.8s-12.9,0.9-17.4,2.9c-0.2-4.4,2.1-8.9,12.7-7.8c-11.2-10-16,15.4-27.1,6.9
		c2.6,0,4,0.6,5.1-1.6c-6.3,3.8-21,0.6-17.3-3.2l2.6-0.1c-8.6-0.8-21.7-0.9-33.1,0.6c-11.4,1.6-21,4.7-22.4,10.3
		c-0.1-1.5,2.7-13.5,3.8-15.8c-10.7,12.5-21.2,25.1-31.6,37.6c2.9-9.6-7.2-32.5,7.3-37.9c-4.1-1.4-9.2-3-18,0.4
		c2.8,1.4,6.8,13.9,3,14.8c-10.2-10.6-7.3-5.9-19.6-14.5c3.2,3.1-1.4,16.8-7.7,16.3c1-2.1-0.5-13.9,1.6-16.2
		c-5.2,4.6-10.4,9.3-15.5,13.9c2.8-3.4-0.4-12.1-3.9-16c1.8,2.9-14.4-0.3-18.8,1.2l7.1,3.4c-9.4-1.1-13.9,4.1-18.4,9.5
		c-4.5,5.4-8.9,11-18.1,10.6c2.1-3.1,4.9-18.9-4.6-20.7c-2,3.8-6.5,13-12.4,21.9c-5.8,8.9-13.1,17.6-21,20.6l-3.3-4.3L0,128.1V150
		h1280V98.2C1278,98,1276.5,97.6,1274.9,97.2z"/>
	
		<linearGradient id="SVGID_00000127039433504933036780000008201909000372564886_" gradientUnits="userSpaceOnUse" x1="645.8002" y1="82.187" x2="645.8002" y2="80.787">
		<stop  offset="0" style="stop-color:#FFFFFF;stop-opacity:0"/>
		<stop  offset="0.45" style="stop-color:#FFE0A4"/>
		<stop  offset="0.9" style="stop-color:#FFD380"/>
	</linearGradient>
	<path style="fill:url(#SVGID_00000127039433504933036780000008201909000372564886_);" d="M643.7,82.2l4.2-1.4
		C646,81.2,644.7,81.7,643.7,82.2z"/>
	
		<linearGradient id="SVGID_00000080890641651239198720000000991794371169665683_" gradientUnits="userSpaceOnUse" x1="1079.9712" y1="99.887" x2="1079.9712" y2="98.2492">
		<stop  offset="0" style="stop-color:#FFFFFF;stop-opacity:0"/>
		<stop  offset="0.45" style="stop-color:#FFE0A4"/>
		<stop  offset="0.9" style="stop-color:#FFD380"/>
	</linearGradient>
	<path style="fill:url(#SVGID_00000080890641651239198720000000991794371169665683_);" d="M1078.4,99.4c0.2,0.1,0.5,0.3,0.8,0.5
		C1083.2,97.6,1081.5,98,1078.4,99.4z"/>
	
		<linearGradient id="SVGID_00000107554537690130345400000000470687686232186773_" gradientUnits="userSpaceOnUse" x1="809.0001" y1="77.587" x2="809.0001" y2="71.787">
		<stop  offset="0" style="stop-color:#FFFFFF;stop-opacity:0"/>
		<stop  offset="0.45" style="stop-color:#FFE0A4"/>
		<stop  offset="0.9" style="stop-color:#FFD380"/>
	</linearGradient>
	<path style="fill:url(#SVGID_00000107554537690130345400000000470687686232186773_);" d="M806.4,77.6l5.2-5.8
		C804.1,71.8,807.2,74.8,806.4,77.6z"/>
	
		<linearGradient id="SVGID_00000158020460633443438010000004088601653203979160_" gradientUnits="userSpaceOnUse" x1="377" y1="88.9869" x2="377" y2="85.187">
		<stop  offset="0" style="stop-color:#FFFFFF;stop-opacity:0"/>
		<stop  offset="0.45" style="stop-color:#FFE0A4"/>
		<stop  offset="0.9" style="stop-color:#FFD380"/>
	</linearGradient>
	<path style="fill:url(#SVGID_00000158020460633443438010000004088601653203979160_);" d="M380.8,89c-1.6-1.3-4.1-2.6-7.6-3.8
		L380.8,89z"/>
	
		<linearGradient id="SVGID_00000105401638093949209270000001882869869898625979_" gradientUnits="userSpaceOnUse" x1="631.0502" y1="83.4869" x2="631.0502" y2="83.3456">
		<stop  offset="0" style="stop-color:#FFFFFF;stop-opacity:0"/>
		<stop  offset="0.45" style="stop-color:#FFE0A4"/>
		<stop  offset="0.9" style="stop-color:#FFD380"/>
	</linearGradient>
	<path style="fill:url(#SVGID_00000105401638093949209270000001882869869898625979_);" d="M630.2,83.5l1.7-0.1
		C631.3,83.3,630.7,83.4,630.2,83.5z"/>
	
		<linearGradient id="SVGID_00000036961928513992207770000016568505995958251418_" gradientUnits="userSpaceOnUse" x1="373.288" y1="91.387" x2="373.288" y2="87.887">
		<stop  offset="0" style="stop-color:#FFFFFF;stop-opacity:0"/>
		<stop  offset="0.45" style="stop-color:#FFE0A4"/>
		<stop  offset="0.9" style="stop-color:#FFD380"/>
	</linearGradient>
	<path style="fill:url(#SVGID_00000036961928513992207770000016568505995958251418_);" d="M372.4,87.9c0.7,1.1,0.8,2.3,0.9,3.5
		C374.5,90.3,374.7,89.1,372.4,87.9z"/>
	
		<linearGradient id="SVGID_00000170249415390409422800000016911222347098085012_" gradientUnits="userSpaceOnUse" x1="613.8046" y1="84.087" x2="613.8046" y2="81.4869">
		<stop  offset="0" style="stop-color:#FFFFFF;stop-opacity:0"/>
		<stop  offset="0.45" style="stop-color:#FFE0A4"/>
		<stop  offset="0.9" style="stop-color:#FFD380"/>
	</linearGradient>
	<path style="fill:url(#SVGID_00000170249415390409422800000016911222347098085012_);" d="M614,81.5l-1,2.6
		C614.5,82.7,615.2,81.6,614,81.5z"/>
</g>
</svg>
