<?xml version="1.0" encoding="utf-8"?>
<!-- Generator: Adobe Illustrator 26.0.2, SVG Export Plug-In . SVG Version: 6.00 Build 0)  -->
<svg version="1.1" id="Layer_1" xmlns="http://www.w3.org/2000/svg" xmlns:xlink="http://www.w3.org/1999/xlink" x="0px" y="0px"
	 viewBox="0 0 1280 150" style="enable-background:new 0 0 1280 150;" xml:space="preserve">
<style type="text/css">
	.st0{fill:url(#SVGID_1_);}
</style>
<linearGradient id="SVGID_1_" gradientUnits="userSpaceOnUse" x1="640.05" y1="150" x2="640.05" y2="24.6">
	<stop  offset="0" style="stop-color:#BCBCBC"/>
	<stop  offset="1" style="stop-color:#D1E8EE"/>
</linearGradient>
<path class="st0" d="M1270.5,73.4c-8.3-0.7-16.6-1.3-24.9-2.1c3.1-0.2,12.5-2,8.6-5.3c-10.6,0.3-5.5-1.1-12.7-3.9
	c2.9-1.9,6.4-4.7,10.1-7.9s7.6-6.7,11.4-10.4c7-6.8,13.5-13.8,17.1-18.6v-0.6l-11.4,3.9l-3.3-3.6c-7.9,2.5-15.2,9.8-21,17.2
	c-5.9,7.4-10.4,15.1-12.4,18.3c-9.5-1.5-6.7-14.7-4.6-17.3c-9.2-0.3-13.6,4.3-18.1,8.9s-9,8.9-18.4,7.9l7.1,2.8
	c-4.4,1.3-20.6-1.4-18.8,1c-3.5-3.3-6.7-10.5-3.9-13.4c-5.1,3.8-10.3,7.8-15.5,11.6c-0.1,0.1-0.2,0.2-0.3,0.2
	c0.1-0.1,0.2-0.2,0.3-0.2c2.1-1.9,0.6-11.8,1.6-13.5c-6.3-0.4-10.9,11-7.7,13.6c0.2,0.1,0.4,0.2,0.5,0.3c-0.2-0.1-0.4-0.2-0.5-0.3
	c-12.3-7.2-9.4-3.3-19.6-12.1c-3.8,0.8,0.2,11.2,3,12.4c-8.8,2.8-13.9,1.5-18,0.3c-0.2,0.1-0.3,0.2-0.5,0.3l-0.1-0.4
	c-4.5-1.3-7.9-2-14,3.9l9.7-17.7l4.3,13.8c0.2,0.1,0.4,0.1,0.6,0.2c14.5-4.5,4.4-23.7,7.3-31.7c-10.4,10.4-20.9,21-31.6,31.4
	c1.1-1.9,3.9-12,3.8-13.2c-1.4,4.7-11,7.3-22.4,8.6c-11.4,1.3-24.5,1.2-33.1,0.5l2.6-0.1c3.7-3.2-11-5.9-17.3-2.7
	c1.1-1.8,2.5-1.3,5.1-1.3c-11.1-7.1-15.9,14.1-27.1,5.8c10.6,0.9,12.9-2.8,12.7-6.5c-4.5,1.7-11.7,1.6-17.4,2.4
	c-5.7,0.8-9.8,2.7-8.1,8.2c-5.4-2.3-10.6-1-9.7-6.5l-22,6.4c1.7-1.1,3.3-4.3-2.9-5.2c11.9,1.6,24.4-8.7,30.1-1.4
	c0.8-6.9-3.4-10.5,2.8-16.2c-23.3,3.1-37,14.6-52.3,22.4l-20-5.1l-1.2,3.1l-2.8-7.9c-2.7,1.8-4.5,3.3-5,2.6
	c-0.4-0.7,0.3-1.8,1.5-2.9c-2.2,0.3-4.2,1.1-5.3,1.8c0.1,1,0.2,2,0.9,2.9c-2.3-1-2.1-2-0.9-2.9c-0.4-4.1,3.7-8.9,7.9-13
	c-0.5-0.5-1.1-1-1.6-1.5c-10.2,5-22,11.2-13.8,16.6l7.6,3.2c-3.5-1-6-2.1-7.6-3.2l-11.4-4.8c-14.7,7.7-12.1,6.1-29.7,11.7
	c-0.6-2.8,4.1-5,1.3-7c-13.3,8.7-29-10.5-32.6-2.8c-10.2,1.8-4.9,6.7-11.5,8.9c0.4-0.8,1.2-2.6-0.6-2.8l-8.2,5.5
	c-2.8-2,7.4-3.8-0.8-6.4c-15,4.1-23.8,6.9-35.7,4c-17.4,1.2,6.1,11.3-8.3,10c-1.6-4.6-2.9-10.1-11.9-10.9c-5.2,3.1-4.9,6.7-13.3,8.7
	l1.3-7c-7.6,0.3-13.8,1.5-13.2-3.8c-6.5,2.9-10.7,2.3-13.8,1.2c-11.9,3.6,6.8,14.4,9.1,17.1c-10.7-5.4-18.8-2.4-24.2-11l10.2-1.8
	c-20.2-8.9-21.2,9.8-29.4-5.3c7.2,0.6,16.4-3,12.5-6.9l-10.9,3.5c-1-1.8,6.2-1.3,1.6-3.4c-3.2,1.5-9.7,5.1-12.7,7.4l-1,2.2
	c-1.2-0.1-0.5-1,1-2.2l0.2-0.4l-17.5,1c-0.5,0.1-1.1,0.2-1.7,0.1l1.7-0.1c2.1-0.5,2.3-2.3-0.6-2.5l-12.9,3.6c-1,0.4-2.3,0.8-4.2,1.2
	l4.2-1.2c4-1.8,0.3-3.9-5.1-5.2c-15.8-2.3-14.5,15.7-26.2,8.4c1.8,0.2,2.2-0.8,4-0.6l-6.1-3.2c-2.9,14.9-37.8,1.2-40.6,16.1
	c-8.5-6.1-0.3-3.6,12.1-10.5l-9.3-4.3c4-0.5,7.2,0.7,11.5-0.8c-12.1-6.4-24.9,1.4-32.1,5.3c-4.7-2.2,4.9-11.2-9.2-8.9
	c-19.8,2.8,2.7,11-9.2,12.6l-7.8-7.8c-15.5,5.8-26.3,0.4-38.9-0.7c-2.9,0.6-4.4,1.4-5.2,2.3c0.1,0,0.3,0,0.4,0.1l-1,0.9
	c-0.8,2.3,2.3,4.8-5.2,4.8l5.2-4.8c0.1-0.3,0.3-0.7,0.5-0.9c-13.2-3.4-28.8,7.4-38.8,4.8c2.5-1.6-5.4-4.9-6.5-6.8l-18.7,4.7
	c8.3-2,8.2-6.4,10-10.8c-5.8,0.4-8.6,2.8-12.6,3.4c2.5-1.6,5-3.2,2.1-5.2l-19.8,7.3c1.1,0.8,3.3,1.1,5.1,1.3c-4.8,0-15.4,2.8-22-0.9
	c0.7-1.7,3.2-3.3,3.9-5c5.5,4.9,9,0.8,12.2-2.5c-13.3,0.7-3.2-1.2-9.4-4.3c-9.4,0.1-13.6,6-11.4,9.8c-10.5-1.8-13.8-2.9-24.8,1.5
	l2.4-6L336,59l8.5-7.4c-18.8-4.2-4.1,10.4-25.1,6.9l0.2-5.3c-8.3,2-11.6,11-17.5,4.5c-8.1,3.2,13.1,7.5-5.5,8.5
	c-3.1-2.8-10.1-4.8-15.3-5.9c-5.5,2.2,2.5,5.6,6.9,5.7c0.4,0,0.8-0.1,1.1-0.1c-0.3,0.1-0.7,0.1-1.1,0.1
	c-26.7,1.8-15.7-18.2-40.7-11.5c8.4,3.8-7.6,10.2,12.7,10.2c-9.8,3.1-18.7-7.8-29.1-2l6.9-6.8c-3.6-0.2-7.8,2.3-9.9,3.1l1.1-5.2
	c-12.9,9.1-23.1-4.4-31,7.5c5.6-9.4-9.3,0.5-14.1-3.2c10.5-6.6,29.5,0.3,31.2-8.4c-4.7-2.7-9.1,1.6-13.7-1c-3.1,1.2-4.8,1.5-0.8-0.4
	c0.3,0.2,0.6,0.3,0.8,0.4c3.3-1.3,8.1-3.6,9.4-5.3c-15.6-5-25.1,5.2-34.7,7.4l17-1.9c-1.7,8.7-7.7,1.5-12.7,8.3
	c-8.3-4.7-15.2,2.1-22-0.8c1.8,0.1,2-0.8,3.8-0.8c-18.4,0.2-23.1-14-30.5-14.3c-7.2-1.2-21,3.6-16.2,7.3c-6,2.4,24.6-2.5,13.7,8.7
	c-10-13.2-21.7,4.8-44.4-4.3c10.2-4.6-5.7-7.4,3.4-10.9c-11,1-11.4,3-16.4,6.7l-3.2-4.1c-14.6,9.2-3.6,8.2-25.4,13
	c7.3-3.2-8.6-5.9-3-8.8c-6-0.3-11.9,0.9-16.3,3.3l0.8-0.6c-11,1-15.4-0.3-19.7-1.3C3.6,50,2,49.6,0,49.5V150h1280V65.7
	C1275.1,67.6,1269.6,69.4,1270.5,73.4z M545.6,76.9c-2.9,0.3-6.1,1-8.8,0.8C536.6,70.5,539.5,76.2,545.6,76.9c0.9-0.1,1.8-0.1,2.7,0
	C547.5,76.9,546.5,76.9,545.6,76.9z M625.8,70.2l-0.9-6.4l2.7,6.5L625.8,70.2z M730.5,76.5l-5.6-4.1c3.6,0.3,5.4,0.5,6.4,2.3
	L730.5,76.5z M1225.2,67c-11.3-3.3-1.5,6.3-14,3.6c-3.6-7.4,0.3-5.8,7.7-8.6c0.6-0.5,1.6-1,3.7-1.8c-1.3,0.8-2.6,1.3-3.7,1.8
	C1216,64.3,1228,64.4,1225.2,67z"/>
</svg>
