<?xml version="1.0" encoding="utf-8"?>
<!-- Generator: Adobe Illustrator 26.0.2, SVG Export Plug-In . SVG Version: 6.00 Build 0)  -->
<svg version="1.1" id="Layer_1" xmlns="http://www.w3.org/2000/svg" xmlns:xlink="http://www.w3.org/1999/xlink" x="0px" y="0px"
	 viewBox="0 0 1280 150" style="enable-background:new 0 0 1280 150;" xml:space="preserve">
<style type="text/css">
	.st0{fill:#632467;}
</style>
<path class="st0" d="M1270.4,58.3c-8.3-0.8-16.6-1.6-24.9-2.5c3.1-0.2,12.5-2.4,8.6-6.4c-10.6,0.4-5.5-1.3-12.7-4.7
	c2.9-2.3,6.4-5.6,10.1-9.4c3.7-3.8,7.6-8,11.4-12.4c7-8.1,13.5-16.5,17.1-22.2V0l-11.4,4.7l-3.3-4.3c-7.9,3-15.2,11.7-21,20.6
	c-5.9,8.9-10.4,18.1-12.4,21.9c-9.5-1.8-6.7-17.6-4.6-20.7c-9.2-0.4-13.6,5.2-18.1,10.6c-4.5,5.4-9,10.6-18.4,9.5l7.1,3.4
	c-4.4,1.5-20.6-1.7-18.8,1.2c-3.5-3.9-6.7-12.6-3.9-16c-5.1,4.6-10.3,9.3-15.5,13.9c-0.1,0.1-0.2,0.2-0.3,0.2
	c0.1-0.1,0.2-0.2,0.3-0.2c2.1-2.3,0.6-14.1,1.6-16.2c-6.3-0.5-10.9,13.2-7.7,16.3c0.2,0.1,0.4,0.2,0.5,0.4c-0.2-0.1-0.4-0.2-0.5-0.4
	c-12.3-8.6-9.4-3.9-19.6-14.5c-3.8,0.9,0.2,13.4,3,14.8c-8.8,3.4-13.9,1.8-18,0.4c-0.2,0.1-0.3,0.2-0.5,0.3l-0.1-0.5
	c-4.5-1.5-7.9-2.4-14,4.7l9.7-21.2l4.3,16.5c0.2,0.1,0.4,0.1,0.6,0.2c14.5-5.4,4.4-28.3,7.3-37.9c-10.4,12.5-20.9,25.1-31.6,37.6
	c1.1-2.3,3.9-14.3,3.8-15.8c-1.4,5.6-11,8.7-22.4,10.3c-11.4,1.5-24.5,1.4-33.1,0.6l2.6-0.1c3.7-3.8-11-7-17.3-3.2
	c1.1-2.2,2.5-1.6,5.1-1.6c-11.1-8.5-15.9,16.9-27.1,6.9c10.6,1.1,12.9-3.4,12.7-7.8c-4.5,2-11.7,1.9-17.4,2.9
	c-5.7,1-9.8,3.2-8.1,9.8c-5.4-2.8-10.6-1.2-9.7-7.8l-22,7.7c1.7-1.3,3.3-5.2-2.9-6.2c11.9,1.9,24.4-10.4,30.1-1.7
	c0.8-8.2-3.4-12.6,2.8-19.4c-23.3,3.7-37,17.5-52.3,26.8l-20-6.1l-1.2,3.7l-2.8-9.4c-2.7,2.1-4.5,4-5,3.1c-0.4-0.8,0.3-2.1,1.5-3.5
	c-2.2,0.4-4.2,1.3-5.3,2.2c0.1,1.2,0.2,2.4,0.9,3.5c-2.3-1.2-2.1-2.4-0.9-3.5c-0.4-4.9,3.7-10.6,7.9-15.6c-0.5-0.6-1.1-1.2-1.6-1.8
	c-10.2,6-22,13.4-13.8,19.8l7.6,3.8c-3.5-1.2-6-2.5-7.6-3.8l-11.4-5.7c-14.7,9.2-12.1,7.3-29.7,14c-0.6-3.3,4.1-6,1.3-8.4
	c-13.3,10.4-29-12.6-32.6-3.4c-10.2,2.2-4.9,8-11.5,10.6c0.4-1,1.2-3.1-0.6-3.3l-8.2,6.6c-2.8-2.4,7.4-4.6-0.8-7.6
	c-15,4.9-23.8,8.2-35.7,4.8c-17.4,1.4,6.1,13.5-8.3,12c-1.6-5.5-2.9-12.1-11.9-13c-5.2,3.7-4.9,8-13.3,10.4l1.3-8.4
	c-7.6,0.3-13.8,1.8-13.2-4.6c-6.5,3.5-10.7,2.8-13.8,1.4c-11.9,4.3,6.8,17.2,9.1,20.5c-10.7-6.5-18.8-2.9-24.2-13.1l10.2-2.2
	c-20.2-10.7-21.2,11.7-29.4-6.3c7.2,0.7,16.4-3.6,12.5-8.3l-10.9,4.2c-1-2.2,6.2-1.5,1.6-4.1c-3.2,1.8-9.7,6.1-12.7,8.8l-1,2.6
	c-1.2-0.1-0.5-1.2,1-2.6l0.2-0.5l-17.4,1.1c-0.5,0.1-1.1,0.2-1.7,0.1l1.7-0.1c2.1-0.6,2.3-2.7-0.6-3l-12.9,4.3c-1,0.5-2.3,1-4.2,1.4
	l4.2-1.4c4-2.1,0.3-4.7-5.1-6.2c-15.8-2.7-14.5,18.8-26.2,10.1c1.8,0.2,2.2-0.9,4-0.7l-6.1-3.8c-2.9,17.8-37.8,1.4-40.6,19.3
	c-8.5-7.3-0.3-4.3,12.1-12.6l-9.3-5.2c4-0.6,7.2,0.8,11.5-0.9c-12.1-7.7-24.9,1.7-32.1,6.3c-4.7-2.6,4.9-13.4-9.2-10.6
	c-19.8,3.3,2.7,13.1-9.2,15.1l-7.8-9.3c-15.5,6.9-26.3,0.5-38.9-0.8c-2.9,0.7-4.4,1.7-5.2,2.7c0.1,0,0.3,0,0.4,0.1l-1,1.1
	c-0.8,2.8,2.3,5.8-5.2,5.8l5.2-5.8c0.1-0.4,0.3-0.8,0.5-1.1c-13.2-4.1-28.8,8.8-38.8,5.7c2.5-1.9-5.4-5.9-6.5-8.1l-18.7,5.6
	c8.3-2.4,8.2-7.7,10-12.9c-5.8,0.5-8.6,3.4-12.6,4.1c2.5-1.9,5-3.8,2.1-6.2l-19.8,8.7c1.1,0.9,3.3,1.3,5.1,1.5
	c-4.8,0-15.4,3.3-22-1.1c0.7-2,3.2-3.9,3.9-6c5.5,5.9,9,0.9,12.2-3c-13.3,0.8-3.2-1.4-9.4-5.2c-9.4,0.1-13.6,7.2-11.4,11.7
	c-10.5-2.1-13.8-3.5-24.8,1.8l2.4-7.2L336,41l8.5-8.8c-18.8-5-4.1,12.4-25.1,8.2l0.2-6.4c-8.3,2.4-11.6,13.1-17.5,5.4
	c-8.1,3.8,13.1,9-5.5,10.2c-3.1-3.3-10.1-5.7-15.3-7.1c-5.5,2.6,2.5,6.7,6.9,6.8c0.4,0,0.8-0.1,1.1-0.1c-0.3,0.1-0.7,0.1-1.1,0.1
	c-26.7,2.1-15.7-21.8-40.7-13.7c8.4,4.6-7.6,12.2,12.7,12.2c-9.8,3.7-18.7-9.3-29.1-2.4l6.9-8.1c-3.6-0.2-7.8,2.8-9.9,3.7l1.1-6.2
	c-12.9,10.9-23.1-5.3-31,9c5.6-11.3-9.3,0.6-14.1-3.8c10.5-7.9,29.5,0.3,31.2-10.1c-4.7-3.2-9.1,1.9-13.7-1.2
	c-3.1,1.4-4.8,1.8-0.8-0.5c0.3,0.2,0.6,0.4,0.8,0.5c3.3-1.5,8.1-4.3,9.4-6.4c-15.6-6-25.1,6.2-34.7,8.9l17-2.3
	c-1.7,10.4-7.7,1.8-12.7,9.9c-8.3-5.6-15.2,2.5-22-1c1.8,0.1,2-1,3.8-0.9c-18.4,0.2-23.1-16.8-30.5-17.1c-7.2-1.4-21,4.3-16.2,8.7
	c-6,2.9,24.6-3,13.7,10.4c-10.1-15.7-21.8,5.8-44.5-5c10.2-5.5-5.7-8.8,3.4-13c-11,1.2-11.4,3.6-16.4,8l-3.2-4.9
	C54.1,35,65.1,33.8,43.3,39.6c7.3-3.8-8.6-7.1-3-10.5c-6-0.3-11.9,1.1-16.3,4l0.8-0.7c-11,1.2-15.4-0.3-19.7-1.5
	c-1.6-0.4-3.2-0.8-5.2-1v120h1280V49C1275,51.3,1269.5,53.5,1270.4,58.3z M545.6,62.4c-2.9,0.3-6.1,1.2-8.8,0.9
	C536.6,54.8,539.5,61.6,545.6,62.4c0.9-0.1,1.8-0.1,2.7,0C547.4,62.5,546.5,62.5,545.6,62.4z M625.8,54.4l-0.9-7.6l2.7,7.8
	L625.8,54.4z M730.5,62l-5.6-4.9c3.6,0.4,5.4,0.6,6.4,2.8L730.5,62z M1225.1,50.6c-11.3-4-1.5,7.5-14,4.3c-3.6-8.8,0.3-6.9,7.7-10.3
	c0.6-0.6,1.6-1.2,3.7-2.1c-1.3,0.9-2.6,1.5-3.7,2.1C1215.9,47.4,1227.9,47.5,1225.1,50.6z"/>
</svg>
