<?xml version="1.0" encoding="utf-8"?>
<!-- Generator: Adobe Illustrator 26.0.2, SVG Export Plug-In . SVG Version: 6.00 Build 0)  -->
<svg version="1.1" id="Layer_1" xmlns="http://www.w3.org/2000/svg" xmlns:xlink="http://www.w3.org/1999/xlink" x="0px" y="0px"
	 viewBox="0 0 1280 150" style="enable-background:new 0 0 1280 150;" xml:space="preserve">
<style type="text/css">
	.st0{fill:#FFD380;}
</style>
<g>
	<path class="st0" d="M314.5,103.9c0.9,0,1.7,0,2.6-0.1c0.1-0.6-0.2-1.5-0.6-2.5C315.7,102.2,314.9,103,314.5,103.9z"/>
	<path class="st0" d="M393.7,95c0.7,0.2,1.4,0.5,2.1,0.7c0,0,0.1,0,0.1-0.1c0.2-0.3,0.2-0.6,0.1-0.8c-0.2,0-0.4,0.1-0.6,0.1
		C394.8,95,394.3,95,393.7,95z"/>
	<path class="st0" d="M285.8,96.5c-0.7-0.3-0.6,0.6-0.6,0.6c1.2,0.6-0.2,2.4,1.3,2.8c0.7,0.2,1.1-0.4,1-0.9
		c-0.2-1.6,0.9-1.7,2.3-1.7C288.5,95.4,287,97.1,285.8,96.5z"/>
	<path class="st0" d="M458.7,101.9c-0.5,0.1-1.1,0.5-1.7,0.4c-1.5-0.3-3-0.5-4.5-0.8c0,1,0.2,2,1.2,2.7c0,0.3-0.1,0.6-0.2,0.8
		c3,0.6,5.8,1.5,8.5,2.6c-0.2-0.7-0.3-1.5,0-2.4c0.3-0.9,0.1-1.7-0.5-2.3c-0.1,0-0.1,0-0.2,0.1c0-0.1,0-0.2,0-0.2
		C460.8,102,459.7,101.7,458.7,101.9z"/>
	<path class="st0" d="M445.2,102.8c1.5,0.1,1.2-1.2,1.3-2.3c-0.9-0.1-1.7-0.3-2.6-0.4C444.1,101.3,444.4,102.7,445.2,102.8z"/>
	<path class="st0" d="M398.3,94.6c-0.1,2.2,1.2,2.7,4.2,1.9c1,0.4,1.6-0.7,2.5-0.6c1.7-0.4,3.1,0.1,4.4,1.3c1.2-0.1,2.5,3.3,3.7,0
		c0.8-0.1,1.2-0.1,1.5-0.3c-1.4-0.5-2.6-1.2-3.8-1.2C406.6,95.7,402.5,94.4,398.3,94.6z"/>
	<path class="st0" d="M277.1,102.6c0.4,0.1,0.7,0.1,1.1,0.2C277.9,102.6,277.5,102.5,277.1,102.6z"/>
	<path class="st0" d="M426,98.6c-0.3,0-0.6-0.1-0.9-0.1C425.3,98.8,425.6,98.8,426,98.6z"/>
	<path class="st0" d="M57.4,115.4c1.3,1.3,2.9,0.4,4.3,0.4c0.3,0,2.3-0.6,1.1-2.1c-1-1.5-3-0.2-4.6-1.3c-0.9-0.6-0.2,1.7-1,2.4
		c-0.4,0-0.7-0.1-1-0.3c0.1,0.1,0.1,0.3-0.1,0.6c-0.3,0.4-1.6,0.1-1.3,1.1c0,0.1,0.1,0.2,0.2,0.3c0,0,0,0,0,0
		C55.8,116.2,56.9,116.3,57.4,115.4z"/>
	<path class="st0" d="M53.9,112.3c-0.6-0.7-1.1-1-1.5,0.1h-0.2v0.2c0,0-0.1,0-0.1,0c0.2,0.1,0.6,0.1,1.1,0c0.8-0.2,1.5,0.8,2.1,1.4
		c0.2,0.1,0.4,0.2,0.6,0.3c-0.4-0.5-0.8-1.1-1.3-1.3C54.4,112.7,54.2,112.5,53.9,112.3z"/>
	<path class="st0" d="M36.4,96.2c-0.3,0.2-0.5,0.5-0.6,0.7c0.4-0.1,0.8-0.2,1.3-0.3c0,0,0-0.1,0-0.1C36.8,96.5,36.6,96.3,36.4,96.2z
		"/>
	<path class="st0" d="M192.3,108.9c0.3,0,0.6-0.1,0.9-0.1c0.6-1.2,1.4-2.4,2.2-3.6c-0.6-0.2-0.6-0.7-0.5-1.2c-2,1.1-4.4-0.1-6.5,1.7
		c-0.8,0.7-2.4,0.5-3.6-0.2c-0.3,1-0.4,2.1-0.2,3.1C187.2,108.8,189.8,109.3,192.3,108.9z"/>
	<path class="st0" d="M203.6,103.4c0.2-0.9,1.3-0.7,1.7-1.4c-0.9,0.1-1.6,0.2-2.3,0.5C203.1,102.8,203.1,103.2,203.6,103.4z"/>
	<path class="st0" d="M199.9,106.1c-0.2,0.9-0.3,2-0.2,3c0.7-0.1,1.5-0.4,2.2-0.9c1.5,2.5,3.7,0.4,5.5,0.8c2,0.5,4.1,0.8,6.2,0.9
		l-0.3-1.5c-3-0.6-5.8-1.8-8.9-2.1C202.7,108.6,201.3,107.4,199.9,106.1z"/>
	<path class="st0" d="M1078.9,73.2C1078.9,73.2,1078.9,73.1,1078.9,73.2c-0.4-0.1-1-0.1-1.5-0.1c0.2,0.5,0.4,0.9,0.7,1.2
		c0.1,0,0.1-0.1,0.2-0.1C1078.9,74.2,1078.9,73.7,1078.9,73.2z"/>
	<path class="st0" d="M234.7,93c-4.1,0-8.1,0.2-12.2-0.4c-2.8-0.4-5.6-1.1-8.5-1.2c-2.7-0.2-5.2,1.7-7.7,0.6c-1.5-0.7-2.8-0.5-4,0.1
		c-1.5,0.7-2.7,0.7-4.3,0.1c-1.1-0.4-2.8-1.1-3.4,1.1c-0.2,0.5-0.4,0.8-0.9,0.7c-0.6,1.2-3.3,3.5-5.6,6.3c0.4-0.1,0.8-0.2,1.1-0.6
		c1.6,1.3,2-0.4,3.4-1.9c-1,3.7,0.4,4.9,3,5.1c0.1-0.6,0.1-1.3,0.1-1.9c-0.2-0.6,0.4-1.1,0.7-1.1c0.5,0,0.9,0.4,0.9,1.1
		c0,0.2,0.1,0.4,0.1,0.6c0.2,0.1,0.4,0.2,0.6,0.3c0.5-0.9,1-1.3,1.5-1.2c2.5-2,5-2.6,6.8,0.1c2.2-1.5,3-1.1,4.3,2.1
		c0.5-0.1,1,0,1.5,0.1l-1-4.6c5.2,0.2,10.5,0.6,15.8,1.2c2.6,0.1,5.3,0.6,7.9,0.7c0.2-0.2,0.5-0.3,0.7-0.4c0.6,0,1.2,0,1.8,0
		c0.3,0,0.5,0,0.7,0c0.4,0.1,0.8,0.1,1.2,0.1c0.5-0.1,1-0.4,1.2,0.4c0.2,0,0.5,0.1,0.7,0.1c0.9-0.4,1.6-0.3,2.7,0.3
		c1.1,0.7,2.5,1.3,3.8,1.7c1.3,0.2,2.6,0.4,3.9,0.7c0.2,0,0.3,0,0.5,0c6.1-0.3,12.3-0.2,18.4-0.6c1.8-0.1,3.4-0.6,5.4-0.2
		c0.1,0,0.2,0,0.3,0c0-0.9,0-1.6,0.2-1.7c1.8-0.5,3.6-0.7,5.7-1.1c-2.8-2.9-6-4.3-6.4-3c-0.1,1.4,1.9,0.3,1.7,2
		c-1.1-0.8-3.2,0.8-3.2-2c0-0.1-0.7-0.4-1-0.4c-1.6,0.1-3.4-0.1-4.8,0.1c-3.2,0.5-6.1-0.5-9.1-0.4c-1.2,0-2.1-0.1-2.5-1.6
		c-0.3-1.4-1.8-1.2-2.9-1.3c-1.3-0.1-1.4,0.9-1.3,1.9c0,0.6-0.4,1.2-0.9,1c-2.8-1.2-6.6,1.3-8.7-2.5c-0.3-0.6-1.6,0-1.8,0.9
		c-0.3,1.9-2.2,0.7-3,1.7c-0.3,0.3-1.3-0.5-1.1-1.1C237.7,92.3,235.9,93,234.7,93z"/>
	<path class="st0" d="M1164.4,72.5c0,0.1,0,0.2,0,0.3c0.1-0.1,0.1-0.1,0.2-0.2C1164.5,72.6,1164.5,72.5,1164.4,72.5z"/>
	<path class="st0" d="M1245.7,78.7c0.5-0.1,1.1-0.2,1.6-0.3c-0.1-0.4-0.1-0.6-0.2-1C1246.3,77.5,1245.9,78.1,1245.7,78.7z"/>
	<path class="st0" d="M435.3,106.6c0.6-0.3,1.1-0.5,1.7-0.7c-0.9,0.1-1.7,0.1-2.5,0C434.7,106.2,435,106.4,435.3,106.6z"/>
	<path class="st0" d="M840.6,76.1c0,0.1,0,0.2,0,0.3c1.9,0.3,3.8,0.6,5.2,2.6c-0.2-1.9,0.7-3.4,2.2-2.8c1.6,0.6,4.6-0.8,4.7,2.7
		c0,1,1,1.8,2.2,1.8c1.1,0.3,1.6-0.7,2.5-0.9c-0.6-1.2-1.3-2.5,0.6-3.2c0.1-0.1,0.2-0.1,0.3-0.1c-2-0.3-3.9-0.5-5.9-0.5
		c-4,0-8-0.4-11.9-1C840.4,75.4,840.5,75.8,840.6,76.1z"/>
	<path class="st0" d="M331.2,104.6c0.2,0.1,1.1,0.2,1.1-0.6c0-0.4-0.5-1.1,0.5-1c0.6,0.1,0.5,0.6,0.5,1c-0.1,1.2,0,2.2,1.6,1.7
		c0.7-0.2,2.4,0,1.8-1.3c-0.6-1.3-1.2-3.4-3.2-2.9c-2.7,0.7-5.4-0.6-8.1,0.1c-0.5,0.1-1.1-1.4-1.6,0c-0.3,1,0,1.9,1.2,2.1
		c1,0.2,2,0,3,0c0.3,0.7,0,1.4,0.2,2.1c0.3,0.1,0.5,0.2,0.8,0.4C329.4,105.1,329.8,104.1,331.2,104.6z"/>
	<path class="st0" d="M1099.4,69.6c-0.6,1.8-1.8,3.6-3.2,5.2c0.7-0.1,1.4,0,2-0.4c1.5-0.9,3.4-1.8,2.6-3.4
		C1100.5,70.5,1100,70,1099.4,69.6z"/>
	<path class="st0" d="M859.2,76.6c0.1,0.2,0.2,0.4,0.2,0.7c1.7,0.3,1.1,2.8,1.6,2.7c2.8-0.5,5.4,2.4,8.2,0.3c0-1.4,0-1.9,0.5-2.1
		c-0.7-0.3-1.4-0.5-2.2-0.6C864.7,77.4,861.9,77,859.2,76.6z"/>
	<path class="st0" d="M885.6,82.8c1.5-0.3,2.5,2.3,4.3,0.7c0.2-0.7-0.9-1-0.5-1.9c0.1-0.3-0.8-0.7-1.1-1.3c-0.8,0.1-1.5,0.2-2.3,0.2
		C885.9,81.2,885.8,81.9,885.6,82.8z"/>
	<path class="st0" d="M831.7,74.8c-0.1,0.2,0,0.3,0.1,0.4c1.2-0.1,2.3-0.1,3.2,0.7c0.8-1,1.6-0.1,2.4-0.1c0.3-0.3,0.4-0.7,0.4-1.2
		c-2-0.3-4-0.7-6-1C831.8,74,831.7,74.4,831.7,74.8z"/>
	<path class="st0" d="M1087.3,68.9c-0.7,0.3-0.7,0.9-0.7,1.6c-0.7-0.5-1.5-1-2.2-1.5c0,0,0,0,0,0c-0.4,1.6-1.4,3-3.1,3.6
		c0,0.1,0.1,0.2,0.1,0.3c-0.1,0.4,0,0.6,0.5,0.5c0.4,0,0.8,0,1.3-0.1c0.2-0.1,0.4-0.3,0.6-0.4c0.3,0.9,0.6,1.4,1,1.5
		c1.4-1.2,2.8-2.8,4-4.5c0,0-0.1,0-0.1-0.1C1088.3,69.4,1088.1,68.6,1087.3,68.9z"/>
	<path class="st0" d="M890.6,80.1c0.2,0.1,0.4,0.1,0.6,0.2c-0.2,0.9,0.1,1.9-0.1,2.8c0.5-0.1,1.1-0.7,1.3,0.4
		c0.7-0.8,0.6-1.8,0.6-2.7c2.7,0.8,5.4,1.1,7.8,0.7c-1.2-0.1-2.5-0.2-3.7-0.3C894.9,81.1,892.7,80.2,890.6,80.1z"/>
	<path class="st0" d="M0,104.6c0.1-0.3,0.1-0.7,0-1.2V104.6z"/>
	<path class="st0" d="M1008.3,72.7c0-0.3,0-0.5,0-0.8c-0.5,0.4-0.9,0.5-1.2,0.6C1007.6,72.6,1007.9,72.6,1008.3,72.7z"/>
	<path class="st0" d="M1228.4,60.8c-0.1-0.1-0.2-0.2-0.3-0.3C1228.1,60.7,1228.3,60.8,1228.4,60.8z"/>
	<path class="st0" d="M4.2,72.6c6,1.3,11.9-1.8,17.8-5.3c4.6-2.7,9.2-5.7,13.7-6.8c4.5-1.1,9-0.5,13.2,4c4.1-4,7.1-2.6,10.1,0.1
		c-0.4,0-0.7,0.3-1,0.6c0.4,0.1,1.1,0.1,1.7,0.1c0.1,0.2,0.3,0.3,0.4,0.5c-1.7,0.2-3.3,0.6-4.9,1.1c-1.7,0.6-3.8,1.5-5.7,1.2
		c-2.6-0.5-4.9-0.7-6.6,1.8c-0.4,0.6-1.1,0.3-1.7,0c-2.4-1.2-7.3-0.1-9.1,2c-0.6,0.5,1.6,1.8-0.5,2c-2,0.1-0.4-1.4-0.9-2
		c-0.2,0-0.5-0.1-0.7-0.1l-0.2,0.1c-0.2,0.1-0.3,0.3-0.5,0.5l-0.1,0.1c-0.4,0.4-0.7,1.1-1.1,0c-0.9-0.3-1.7-0.6-2.5-0.9
		c-0.3,0.1-0.6,0.2-0.9,0.3c-1-1.2-1.9-0.4-2.8,0.2c0.8,3.1-1.8,3-3.4,4.1c-0.8-1.6,0.2-2.9,0.3-4.3c-2.2,0.3-4.6-0.2-6.3,1.9
		c0.5,1.9-0.4,3.2-2,4.4c0.1-0.7,0.1-1.3,0.2-1.9c-1.6-0.5-1.9,0.8-2.4,1.8c0.2,1,0.5,2-1.2,1.6c-0.8-0.2-0.6,0.6-0.7,1
		c1.9,0.9,3.7,2,5.8,0.1c0.4-0.3,3.1-1.5,3.3,1.3c0,0.2,0.7,0.4,1.2-0.1c1.5-1.4,1.6-1.4,2.8,0.8c0.8-2.2,1.9-3.1,4.5-2.3
		c1.8,0.5,4.6,2,6.3-0.9c0.2-0.3,1-0.2,1.5-0.2c7.1,0,14.2,0,21.3-0.1c2.2,0,4,0.4,5,2.4c0.5,0.9,1.3,1.1,1.7,0.6
		c1.3-1.7,2.5-1.6,3.9-0.2c0.8,0.8,1.7,0,2.5-0.2c0.3-0.4,0.7-0.5,1.2-0.4c1.5-0.1,3-0.4,4.5-0.2c1,1.5,1.8,2.9,2.6,3.9
		c-0.3-0.2-0.6-0.4-0.9-0.2c0.2,2.5-2.3,1.2-2.9,2.3c-1.3-0.9,0.2-2.2-1-2.9c-0.2-0.1-0.3-0.1-0.5-0.2c-0.2,0-0.4,0-0.6,0
		c-0.3,1.4-1.3-0.1-1.8,0.4c-0.5,0.4-0.8,0.8-0.3,1.5c0.8,1.3-0.3,1.9-1.1,1.8c-2.2-0.4-4.4-1.5-6.4,0.6c-0.2,0.2-0.7,0.2-0.9,0.1
		c-2.9-1.8-5.5-0.3-8.1,0.6c-0.4,1.3,1.3,3.8-1.9,3.7c-2-0.2-3.6,1.2-5.5,1.3c-0.4,0.5-0.7,0.9-1.1,1.3c-0.3,0.8-0.7,0.6-1.1,0.1
		l-0.2,0.1l-0.1-0.1c-0.4,0-0.8,0.1-1.2,0.1c-0.1,0.2-0.2,0.5-0.3,0.7c4-0.6,8.1-0.8,11.9-2.1c2.3-0.7,3.1,1.4,4.8,0.7
		c0.2,0.1,0.4,0.1,0.6,0.2c0.3,0.8,0.7,0.8,1,0c0.3-0.2,0.6-0.4,0.9-0.6c0.2,0.2,0.3,0.3,0.5,0c0.6-0.1,1.3-0.2,1.9-0.2
		c0.2-0.1,0.5-0.2,0.7-0.3C65.2,92.7,69.7,95,74,94c2-0.5,4.2,0.5,6-1.5c0.6-0.7,2.1-0.6,3.2-0.7c5.5-0.6,10.8-2.3,16.2-3.4
		c0.2,0,0.4-0.1,0.6-0.1c0,0.1,0.1,0.2,0.3,0.3c0.5,0.1,1,0.1,1.4,0.2c0.5,1.4,2.4,1.1,3.1,2.3c0.8-0.9,1-1.9,0.6-3.1
		c1.8-1.6,4.4,0.6,6.2-1.1c1.7,1,3.4,0,5.2-0.1c0.4,0.7,1.1,0.6,1.7,0.7c0.2,0.8,0.7,0.8,1.3,0.6c0.2,0.1,0.5,0.2,0.7,0.4
		c0.4,0.3,0.9,0.6,1.3,0.8c0.1,0.9,0.7,0.6,1.2,0.5c1.7,0.5,3.3,0.9,5,1.4c1.7,0.7,2.2,0.2,2.4-2.5c0.4-2.2,1.5-3,3.8-2.5
		c1.8,0.4,3.6,1,5.5,0.1c0.8-0.4,2.4-0.6,2.8,1.2c-0.9,0.6-1.2,1.1,0.1,1.5c0.9,0.2,1,0.8,0.8,1.6c-0.6,0.2-1.5-0.2-1.6,1
		c0.8,0.6,2.6-0.3,2.3,1.6c-0.3,1.6-1.7,0.6-2.3,0.5c-2.6-0.5-4.8,0.9-7.3,0.7c-2.1-0.2-2.5,1-2.2,2.7c0.2,1.4,0.7,2.7,1.9,3.5
		c2,1.3,1,2-0.3,3c-1.5,1.2-3.8,0.5-5.2,2.3c4.6,3.5,9.8,4.3,15.4,4.7c1.6,0.1,3-0.3,4.4-0.7l-5.9-13.2l16.2,1.6
		c3.3-1.3,4.3-0.7,4.2,0.5c2.2,0.6,0.3,5.5,3.2,9.3c0.4,0,0.7,0,1.1,0c2,0.2,4.2,1,6.1,0.3c1.8-0.7,3.6-0.7,5.3-0.5
		c3-2.7,4.8-7.2,8.4-11.4l-1.7-2.1l6.7-1.2c-0.7-0.4-1.5-0.6-2-0.4c-2.6,1.3-5-0.8-7.5-0.1c-0.5,0.1-1,0.3-1.1-0.5
		c-0.2-1.5-0.7-1-0.7,0c0,0.8-0.3,0.9-0.8,0.8c-1.9-0.5-3.9-1.1-4.2,1.9c-0.1-0.2-0.3-0.5-0.4-0.4c-1.3,0.6-3.3-2.2-4.2,0.8
		c0,0-1,0-1.1-0.2c-1.1-2.2-2.7-2.6-4.8-1.9c-1.7,0.6-2.8-1.2-4.5-1c-2.2,0.3-2.9-0.6-1.4-2.7c-1.8,0.4-3.3,0.7-4.7,1
		c0.3,1.4,2,0.7,2.6,1.8c-3.6,0.3-7.1,1-10.6,0.6c-0.7-0.1-1.8,0.4-1.1-1.1c0.5,0,0.8-0.3,0.7-0.8c-0.2-0.7-0.8-0.3-1.3-0.4
		c1.5-1.4,1.3-3.2,1.3-5c3.1-0.5,6.2-1.1,9.4-0.7c2.2,0.2,4.4-0.3,6.7-0.9c2.3-0.6,4.9-0.5,7.3-0.1c1.7,0.3,3.4,0.5,5.1,0.5
		c1.1,1.1,1.7,0.2,2.4-0.5c0.9-0.1,1.8-0.3,2.7-0.4c0.5,0.1,0.7-0.9,1.3-0.5c0.4,1.2,1.1,0.7,1.8,0.5c0.8,0.2,1.6-0.4,2.4,0.5
		c0.8,0.8,0.6-0.4,0.8-0.8c0.2-0.2,0.4-0.4,0.5-0.6c0.2-0.2,0.5-0.4,0.7-0.6c0.1,0.1,0.3,0.1,0.4,0c0.9,0.4,1.9,0.6,2.4,1.6
		c0,0.2-0.1,0.4-0.1,0.5c0,0.1,0.1,0.2,0.2,0.2c1.1,1.2,2.2,0.4,3.4,0.1c2.1-0.1,4.2-0.5,6.2,0.6c0.2,1-0.2,1.8-0.9,2.3
		c-0.4,0.3-1,0.4-0.4,1c0.4,0.4,0.9,1.3,1.4,0.8c1.5-1.3,3.1-2.7,3.5-4.8c0.6-1,1.6-0.4,2.4-0.5c0,0.3,0.1,0.6,0.1,0.9
		c0.1,0.8,0.6,1.5,1.3,1.4c1-0.2-0.4-1.1,0.2-1.6c0.2-0.2,0.3-0.5,0.5-0.7c0.8-0.2,1.6-0.5,2.4-0.7c0.4,0.3,0.5,1,1.2,0.7
		c1.9-0.5,3.7-0.9,5.7,0c1.5,0.7,2.9-0.3,4.3-0.9c0.3-0.1,0.5-0.2,0.8-0.3c6.6-0.2,13.1-0.4,19.7-0.7c0.2,0.6,0.5,0.7,0.8,0
		c4.4-1.5,8.7-0.5,13,0.2c1.2,0.2,2.1,0.2,3-0.5c0.4,0,0.8-0.1,1.2-0.1c0.4,0.2,0.8,0.4,1.2,0.1c1.8,1.1,3.3,1,4.3-1.1
		c5.1,2.7,10.4,4.6,16.1,1.9c2.5-1.2,4.9,0.1,7.4-0.1c3.3-0.3,6.6-0.3,9.9-0.5c0.7,0,1.4,0.3,2,0.5c0.6,0.6,1.2-0.2,1.8,0
		c0.2,0.1,0.5,0.2,0.7,0.3c0.2,0,0.4,0,0.6,0c0.4,0,0.9,0,1.3,0c6.6,0.7,13.2,1.6,19.9,1.4c2.3-0.1,4.7,1.3,7-0.3
		c0.1-0.1,0.4,0.1,0.5,0.2c4.5,4.1,10.3,1.8,15.4,3.1c2,0.5,4.2,1,6.4-0.8c1.2-0.9,4.1,0.3,6.2,0.6c0.5,0.1,0.8,2.6,1.2,4.1
		c-1.2,1.4,1.1,1.4,0.9,2.4c0.6-0.7,2.1,0.5,2.2-1.1c0.4,0.7,0.6,1.7,1.1,1.9c1.2,0.3,0.6-1.3,1.3-1.6c0.2-0.1,0.4-0.2,0.7-0.3
		c2.2,0.6,3.2,3,5.4,3.7c0.1,0,0.2,0.3,0.3,0.5c1.2-0.7,2.4-0.5,3.7-0.2c1.8-1.5,3.8-2.3,5.9-2.6c-4-0.4-8-1.3-12-1.7
		c-1-0.1-1.6-1.5-3-0.7c-2.2,1.2-4.4,0.6-6.1-1.2c0.2-1.2,2.6-1,1.9-1.8c-1.5-1.5,0.1-1.4,0.6-1.4c4,0.2,7.9-1.7,11.9,0.2
		c1.1,0.5,2.7,0.4,3.9,0.1c3-0.7,5.9-0.4,8.9-0.1c0.4,0,0.8,0,1.2,0c0.7-0.3,1.3-0.3,1.9,0.2c0.8-0.3,1.6-0.4,2.5-0.2
		c1-0.5,1.6,0.5,2.4,0.4c0.6-0.8,1.3-0.9,2,0c3.4-0.5,6.9,0.1,10.4,0.2c1.3,0.1,2.7-0.7,3.9,0.4l0.1,0.1l-0.1,0.2
		c0.7,1,1.6,1.2,2.5,0.3c0.7-0.6,1.5-0.6,2.3-0.6c0.9-0.8,1.7-0.7,2.5,0.1c0.2,0.1,0.4,0.1,0.6,0.2c0.2,0,0.4,0,0.6,0
		c0.6,0,1.2-0.1,1.8-0.1c0.2,0,0.4,0,0.6,0c1.7,0,3.3,0.1,5,0.1c1.3-0.2,2.6-0.3,3.6,0.8c1-1.1,2.4-0.6,3.4-0.4
		c2.8,0.6,5.6,1.3,8.5,1.2c1,0,0.5,0.8,0.6,1.2c0.9-0.3,2-0.9,2.5,0.6c-0.1,0.3-0.3,0.5-0.5,0.8c0.3,1.5,1.2,1.6,2.4,1
		c-0.1-1.1,0.3-1.1,1.1-0.5c0.3,0,0.5-0.1,0.8-0.1c0.1-1.1,0.9-0.3,1.3-0.4c1.6,2.1,3.4,2.9,6,1.8c1-0.4,2.6-0.4,3.9,0.2
		c0.4,0.1,0.7,0.2,1.1,0.3c0.4-0.4,0.9-0.2,1.4-0.2c4-0.1,7.9,1.1,11.9,0.9c1.1,0,2.1-0.4,3.4-0.3c5.5,0.4,10.9,0.9,16.4,1.3
		c2.9,0.2,5.9,0.5,8.7,1c5.3,1,10.6,0,15.8,0.7c2.4,0.3,4.9-0.6,7.3,0.8c1.4,0.8,4.4,1,5.1-0.1c1.5-2.5,3.5-2,5.6-2.1
		c1.4-0.1,2.6-0.5,4.5-1.2c-1.8-0.7-3-1.1-4.7-1.7c1.9-0.4,2.1-1.8,2.9-2.7c0.1-0.6-1-1.1-0.2-1.8c0.8-0.6,1.5-0.3,2.2,0.1
		c0.2-0.3,1.4-0.1,0.7-0.8c-1.1-1.2-2.3-2.2-4.1-2.3c-3.6-0.2-6.9-1.6-10.3-2.5c-3.1-0.8-6.3-1.8-9.1-1.6c-6.2,0.6-12-1-18-1
		c-2.7,0-2.9-1.2-1.4-3.1c0.1-0.2,0.2-0.5,0.3-0.7c0.1-0.4,0.1-0.7,0.6-0.4c0.4,0,0.7-0.1,1-0.1c0-1.5-0.1-2.9-0.1-4.4
		c-0.1-0.1-0.1-0.3-0.1-0.4c1.4,0.1,2.7,0.1,4.1,0c0.5-0.1,0.9-0.3,1.1,0.4c1,1.1,1.9,1.5,3.8,1.3c2.4-0.3,4.5-1.4,6.7-1.9
		c2.8-0.6,5.9-0.3,8.7,0.3c2.9,0.6,5.8-0.1,8.7,0.3c0.8,1.3,1.6,2.1,2.4,2.5c1.4,2.2-2.6,3.4-4.8,5c10.8,9.5,9.5,1.5,10.1-6.8
		c0.8-0.1,1.6-0.3,2.3-0.3c1.5-0.1,2.9,0.1,4.4,0.3c-0.4,5.4-0.4,10.1,4.9,11.1c4.2,6.8,27.9-26.2,39.6-10.1
		c-1.8-4.6-3.5-9.3-1.9-13.2c4.3-0.1,8.7-0.1,13.1-0.4c0.2,0,0.3,0,0.5,0c8.4,5.9,17.9,14.7,24.7,0.8c1.1,1.7,1.5,3.4,1.5,5
		c2.7-1.7,6.6-3.3,10.7-5c2.2,0.1,4.4,0.8,6.7,0.7c5.4-0.2,10.7,0,15.6,2.8c0.5,0.3,1.4,0.4,1.8,0.2c2.2-1.2,4.3-2,6.1,0.6
		c4.8-0.8,9.4,1.8,14.3,0.7c2.5-0.6,5.1-1.5,7.5,0.5c1.2-1.4,1.4,0.1,2,0.6c1.7,0,3.3-0.1,4.9-0.1c0.3-0.5,0.5-1.1,1.3-0.6
		c0.7,0.6,1.6,0.7,2.5,0.8c0.2,0,0.4,0,0.6,0c1.2,0.2,1.7-1.1,3.1-1.4c-0.7,3.1,1.1,2.9,2.9,2.2c0.9-0.4,1.7-0.1,2.6-0.2
		c0.8,0,1.7,0.1,2.5,0.1c1.5-0.3,3-0.4,4.4,0c0.3-0.2,0.5,0,0.7,0.3c1.9,1.4,4.2-0.3,5.9,0.6c3,1.5,6.1,1.8,9.3,1.9
		c3.2,0.1,6.4,0.1,9.6,0.2c1.5-0.2,3,0,4.4,0.4c5.1,0.9,10.3,0.6,15.5,0.9c1.1-0.2,2.1-0.2,3.1,0.4c0.8,0.4,1.6,0.6,2.6,0.6
		c3.4-0.1,6.7,0.2,10.1,0.4c5.4,0.4,11,0.2,16.5,0.2c0,0.1,0,0.1,0,0.1c0.7,0.7,1.2,1.2,2.4,0.8c1.9-0.6,3.8-0.7,5.7-1
		c0.3,0.1,0.7-1.2,1,0c0.1,0.2,0.1,0.4,0.2,0.6c0.2,0.2,0.4,0.4,0.6,0.6c1,0.8,0.5-2.3,1.8-0.7c2.1,1.6,7,1.3,9.4-0.6
		c0.1-0.5,0.2-1.1,0.4-1.7c-0.1-0.1-0.1-0.1-0.2-0.2c-1.7,0.4-0.9-2.9-3.1-2c1.2-0.9,2.2-1.7,2.3-2.9c0.1,0,0.2,0.1,0.4,0.1
		c-0.5-1.6-1.8-2.9-1.2-4.7c0.1-0.3-0.9-1.3-1.9-1.3c-0.7,0-1.5-0.4-1.4-1.3c0.2-0.9,1.1-1.1,1.9-1.1c5.7,0,11.3-0.2,17,0.2
		c3.4,0.2,6.7,0.5,10.1,0.4c1,0,1.8,0.2,2.6,0.6c1,0.6,2,0.6,3.1,0.4c5.2,0.3,10.4,0,15.5,0.9c1.4,0.4,2.9,0.6,4.4,0.4
		c3.2,0.1,6.4,0.1,9.6,0.2c3.2,0.1,6.3,0.4,9.3,1.9c1.7,0.9,4-0.8,5.9,0.6c0.2,0.3,0.4,0.5,0.7,0.3c1.4,0.4,2.9,0.3,4.4,0
		c0.8,0,1.7,0.1,2.5,0.1c0.9-0.1,1.7,0.2,2.6-0.2c1.8-0.7,3.6-0.9,2.9,2.2c1.4-0.3,1.9-1.6,3.1-1.4c0.2,0,0.4,0,0.6,0
		c0.9,0.1,1.8,0.2,2.5,0.8c0.8,0.5,1-0.1,1.3-0.6c1.6,0,3.2-0.1,4.9-0.1c0.6,0.5,0.8,2,2,0.6c2.4,2,5,1.1,7.5,0.5
		c4.9-1.1,9.5,1.5,14.3,0.7c1.8,2.6,3.9,1.8,6.1,0.6c0.4-0.2,1.3-0.1,1.8,0.2c0.3,0.2,0.7,0.4,1,0.5c0.1-0.2,0.2-0.4,0.3-0.6
		c0.3,0.3,0.5,0.7,0.5,1c3.6,1.6,7.3,2,11.1,2c0.1-1,0.9-1.5,2.8-1.3c0,0.5-0.1,0.8-0.2,1.2c0,0,0.1,0,0.1,0c3-0.1,5.8,1.2,8.8,0.4
		c0.4,0,0.8,0,1.3,0c0.6,0,1.2,0,1.8,0s1.3,0.1,1.9,0.1c4.2-0.2,8.4,0.7,12.7,0.4c3.2-0.2,6.4-0.1,9.7,0.2c-1.1-0.6-1.8-2.1-3.2-1.9
		c-0.1-0.6-0.3-1.4,0.7-1.3c0.8,0.1,1.5,0.7,2.5,0c-1.7-1.1-3.6-1.5-5.2-2.3c-0.4-0.1-1-0.3-1.4-0.7c5.8,0.9,11.6,1.9,17.4,2.9
		c5.4,1,10.7,1.9,16,2.8c1.3,0,2.6,0.2,3.9,0.7c6.9,1.1,13.8,2.2,20.7,2.9c1.9,0.1,3.9,0,5.9-0.6c0.9-0.3,1.2-0.5,1.8-1.2
		c1.4-1.5,3.6-2.6,5.7-1.9c0.5,0.1,0.9,0.3,1.3,0.3l-1.2-5.5c-1.2-0.3-2.4-0.4-3.7-0.4c-1.7,0-3.6-0.6-5,1.2c-0.8,1-2.2,0-2.7-0.6
		c-0.9-1.2-1.8-0.7-2.7-0.6c-0.2-0.2-0.4-0.5-0.5-0.7c-0.1-0.3-0.2-0.5-0.3-0.8c-0.1,0.1-0.2,0.2-0.4,0.4c-0.4,0-0.9,0-1.3,0
		c-0.5-0.2-1.2,0-1.5-0.8c-0.5-1.5-1.6,0.3-2.2-0.4c-1.1-1.5-0.1-4.1-2.7-4.9c4.6-0.6,8.8-1.4,13.6-0.7c4,0.6,8,2.1,12.4,1.8
		c2.4-0.1,5.3-1.2,7.1-0.4c3.9,1.6,7.7,0.2,11.5,1.1c2.8,0.6,5.9,0.9,8.7,0.3c2.2-0.5,4.3-1.6,6.7-1.9c1.9-0.2,2.8,0.2,3.8,1.3
		c0.2,0.7,0.6,0.5,1.1,0.4c3.7-0.4,7.5,0.8,11.3-0.3c0.3-0.1,0.7,0.3,1.1,0.4c0.5,0.3,1,0.4,1.4-0.2c1.3-0.7,3.1,1.5,4.2-0.5
		c0.4,0,0.8,0,1.3,0c0.4,0,0.8,0,1.2,0c0.8,0,1.7,0.1,2.5,0.1c7.3,1.3,14.7,1.2,21.9,0.5c2.5-0.2,5.2-1.3,8-1.7
		c5.4-0.7,10.6,1,15.9,0.6c0.6,0,1.2,0.1,1.8,0c1.4-0.4,2.6-1.6,4.4,0c1,0.9,3.9-0.5,5.3-1.3c3.3-1.8,6,0.4,9,0.3
		c2.8-0.2,5.4,0.7,8.3,0.4c5.6-0.6,11.2-1.9,16.9-1.1c0.7,0.1,1.5,0,1.9,0.5c0.6-0.4,0.9-0.2,1.1,0.4l0.1-0.1c1-1.1,1.6,0.7,2.5,0.3
		c-0.2-2.5,2.3-1.2,2.9-2.3c1.1,0.9-0.3,2.2,0.9,2.9c0.2,0.1,0.3,0.1,0.5,0.2c0.2,0,0.4,0,0.6,0c0.3-1.4,1.3,0.1,1.8-0.4
		c0.5-0.4,0.8-0.8,0.3-1.5c-0.2-0.3-0.3-0.6-0.3-0.8c1.1,0.1,2.2,0.2,3.3,0.3c-0.3-0.3-0.6-0.7-0.8-1.1c1.8,0.4,3.6,0.8,5.2-0.9
		c0.2-0.2,0.7-0.2,0.9-0.1c0.5,0.3,1,0.5,1.5,0.6c2.4,5.7,7.8,6.6,13.3,8.7c-3.3,0-6.5,0.1-9.8,0.1c-2.2,0-4-0.4-5-2.4
		c-0.5-0.9-1.3-1.1-1.7-0.6c-1.3,1.7-2.5,1.6-3.9,0.2c-0.8-0.8-1.7,0-2.5,0.2c-0.3,0.4-0.7,0.5-1.2,0.4c-2.1,0.2-4.2,0.5-6.3-0.2
		c-0.2,0-0.3,0-0.5,0c0.7,0.3,0.4,1.4,0.7,1.9c-0.8,2.8-3.4,1.6-5,1.8c-1,0.1-2.2,0-3.3,0.3c-0.9,0.2-1.9,0.5-3-0.6
		c-1.2-1.2-3.2-1.5-4.6-2.4c-0.8-0.5-1.3,0-1.4,0.4c-0.5,2.7-2.5,2.1-4.3,2.2c-5.7,0.4-11.4,0.3-17,1.3c-2.9,0.5-5.5,1.4-8.3,0.1
		c-0.2-0.1-0.8,0.1-0.8,0.2c-0.5,3.7-3.2,2.1-5.2,2.2c-0.3-0.4,0-2-1.2-0.6c-0.5,0.1-0.9,0.2-1.4,0.4c-0.2,0.1-0.4,0.1-0.6,0.2
		c-0.4,0.1-0.8,0.2-1.2,0.3c-0.2,0.1-0.5,0.2-0.7,0.3c-0.3-0.4-0.5-0.8-0.8-1.2c-0.3-0.8-0.6-0.7-0.8,0c-0.1,0.5-0.1,1-0.2,1.5
		c-0.9,0-1.2-0.5-1.2-1.3c0-0.6-0.6-1.8-1-1c-0.5,1.1-2.7-1.1-2,1.2c0.2,0.8-0.6,1-0.7,1.5c-1,0-0.2-1.8-1.3-1.5
		c-1,0.3-0.6,1.3-0.7,2.1c-0.5,0.3-0.8,0.8-1.5,0.7c0.1,0.6,0.2,1.2,0.4,1.7c0-0.8,0.5-0.8,1.2-0.5c0.1,0.6-0.5,1.7,0.5,1.7
		s0.6-1,0.6-1.7v-0.1c0.5-0.2,0.9-0.4,1.3,0.2c-0.1,0.2-0.1,0.4,0,0.5c0,0.1-0.1,0.4-0.1,0.4c0.4,0.2,0.7,0.1,0.8-0.3
		c0.6-0.1,1.2-0.1,1.8-0.2c0.4,0.1,0.5-0.2,0.6-0.5c2,1.3,4.1,1.8,6.3,0.9c0.2-0.1,0.4-0.2,0.5-0.2c0.2-0.1,0.4-0.1,0.7-0.2
		c0.2,0,0.4-0.1,0.6-0.1c5.7,1.3,11.4,0.3,17.1,0.2c8.1-0.2,16.2-2.4,24.3-1.6c2.5,0.2,5.1-1,7.4,0.4c-0.2,1-0.4,1.9-0.6,3.3
		c2.3-1.3,4.7-0.3,6.5-1.9h0.1c0.9,0.8,1.6,0.9,1.6-0.6l0.1,0.1c0.2,0.6,0.8,0.5,1.3,0.6c0.6,0.8,1.4,0,2,0.3
		c0.3,0.3,0.5,0.6,0.8,0.9c0,0.8,0.3,0.6,0.7,0.3c0.2,0,0.5,0,0.7-0.1c0.4,0.3,0.8,0.5,1.3,0.2c-0.2-0.1-0.4-0.2-0.5-0.4
		c1.6-0.8,3-1.8,4.7-2.3c1.2-0.3,1.3,0.4,1.7,1.1c0,0.6,0.1,1,0.8,1.2c0.1,0.4,0.2,0.8,0.3,1.2c-0.9,0-1.3,0.6-1.7,1.2
		c0.8-0.2,1.6-0.4,2.4-0.7c1.7-0.6,3.8-1.5,5.7-1.2c2.6,0.5,4.9,0.7,6.6-1.8c0.4-0.6,1.1-0.3,1.7,0c2.3,1.1,6.7,0.2,8.7-1.6
		c0.8,1.1,1.5,2.4,2.1,3.9c-0.6-1.9-0.3-3.2,0.4-4.3c0.1,0,0.1,0,0.1,0l0.2-0.1c0.2-0.1,0.3-0.3,0.5-0.5l0.1-0.1
		c0.1-0.1,0.1-0.2,0.2-0.3c0.2-0.2,0.3-0.3,0.5-0.4c0.1,0,0.3,0.2,0.4,0.6c0.7,0.2,1.3,0.5,1.9,0.7v-13V44V0H0v59.4V103
		c0.9-0.6,1.7-1.3,2.7-0.2c0.3-0.1,0.6-0.2,0.9-0.3c0.2,0.1,0.4,0.1,0.6,0.2V72.6z M1248.9,40.6c0,0.3-0.1,0.7-0.1,1
		c-1.7,0-3.4,0.5-5.1,0.3c-0.1,0-0.3,0-0.5,0C1244.5,40.7,1246.3,40.1,1248.9,40.6z M988.2,64.6c0.3,1.1,0.8,2.2-1,3.2
		c-0.4-1.2-0.9-2.2-1.1-3.3c-0.1-0.1-0.1-0.1-0.1-0.2C986.7,64.4,987.5,64.5,988.2,64.6z M939.6,35.5c-0.2,0.3-0.5,0.5-1,0.1
		c-0.7-0.6-1.6-0.7-2.5-0.8c-0.2,0-0.4,0-0.6,0c-1.2-0.2-1.7,1.1-3.1,1.4c0.7-3.1-1.1-2.9-2.9-2.2c-0.9,0.4-1.7,0.1-2.6,0.2
		c0,0-0.1,0-0.2,0c1.4-3.3,2-6.5-0.7-8.9C931.3,23.7,938.3,30.3,939.6,35.5z M930.8,52.1c-1.4-0.3-2.6-0.6-3.6-1
		c2.6,0.3,5.2,0.8,7.9,1.1c1,0.1,1.6,1.5,3,0.7c0.6-0.3,1.3-0.5,1.9-0.6c1.1,0.5,2.3,0.8,3.5,1.1c0.3,0.2,0.5,0.4,0.7,0.6
		c-0.2,1.2-2.6,1-1.9,1.8c1.5,1.5-0.1,1.4-0.6,1.4c-4-0.2-7.9,1.7-11.9-0.2c-1.1-0.5-2.7-0.4-3.8,0c-1.1,0.3-2.1,0.5-3.2,0.5
		L930.8,52.1z M809.7,62.8c1.1,0.4,2.2,0.5,3.4,0.5c2.5,1.2,5.2,2.4,8.1,3.6c-0.6,0.3-1.6,0-2.5,0.3c-2.8-2-5.7,0.6-8.8,0.6
		c-2.7,0-2.2-2.5-2.7-3.8C806.7,61.8,809.1,62.6,809.7,62.8z M800,63.4c0.1-0.3,0.2-0.5,0.2-0.7c0.6,0.1,1.3,0.1,2,0.1
		c2.7,0,2.9,1.2,1.4,3.1c-0.1,0.2-0.2,0.5-0.3,0.7c-0.1,0.4-0.1,0.7-0.6,0.4c-0.4,0-0.7,0.1-1,0.1c0,1.4,0.1,2.8,0.1,4.2
		c-0.4-0.3-0.7-0.6-0.6-0.8C802.1,68,799,66.2,800,63.4z M757.2,53.1c1.2,1,1.6,2,1.7,3.1c-1.2-0.2-2.3-0.3-3.4-0.4
		C756.1,54.9,756.6,54,757.2,53.1z M552.8,61.5c0.4,1.6,0.5,3.4,0.4,5.2c-1.9-0.2-3.7-0.7-5.5-1.2C548.7,63.6,550.3,62.1,552.8,61.5
		z M524.1,58.6c1-0.6,2.3,0,3.1-1c1.5,1.2,2-0.5,3.3-1.9c0,0.1,0,0.1,0,0.1c-0.8,3.1,0.1,4.4,2,4.8c0.5,1.1,0.9,2.2,1.4,3.2
		c-0.2-0.2-0.3-0.4-0.5-0.6c-0.7-0.2-0.7-0.7-0.6-1.3c-2,1.1-4.4-0.1-6.5,1.7c-1.2,1-4.2,0-4.8-1.6
		C520.7,60.4,522.6,59.5,524.1,58.6z M490.2,32.1c1.3-0.6,2.8-0.4,3.9-1.3c0.3-0.3,0.6-0.5,0.8-0.7c2.5,1.2,5.5,4.5,8.8,7.6
		c-5.1-0.3-9.8-1.2-14.1-4.1C489.8,33.1,490,32.5,490.2,32.1z M497.1,76c2.8,0.1,2.3,2.5,2.6,3.8c0.5,2.2-1.9,1.4-2.5,1.2
		c-3.2-1.1-6.8,0.3-9.8-1.7c-0.8-0.5-2.7,0.4-2.3-1.5c0.3-1.5,1.9-0.7,3.2-1.2C491.1,78.6,494,76,497.1,76z M466.3,74.6
		c2.7,0.9,5.5,0.3,8.2-0.1c0.6-0.1,1.3-0.6,1.3-1.5c-0.6-0.4-0.9-0.9-1-1.4c3.4,0,6.7,0.3,10.1,0.8c0.3,0.8,0.6,1.8,1.9,1.2
		c-1.7,1.1-2.8,2.2-2.2,4.2c0.3,0.9,0,1.3-1.5,1.3c-6,0.2-11.7-1.5-17.6-2.1c-2.7-0.3-5.9,0.4-8.2-2.3
		C460.3,75.3,463.2,73.5,466.3,74.6z M384.2,58.4c0.1,0.1,0.2,0.2,0.3,0.3c0.5,0.1,1.1,0,1.3,0.6l0.1,0.1c0-1.5,0.7-1.4,1.6-0.6h0.1
		c1.8-1.6,4.2-0.6,6.5-1.9c-0.2,1.4-0.4,2.3-0.6,3.3c2.3,1.4,4.9,0.2,7.4,0.4c8.1,0.8,16.2-1.4,24.3-1.6c5.7-0.1,11.4-1.1,17.1,0.2
		c0.2,0,0.4-0.1,0.6-0.1c0.3-0.1,0.5-0.1,0.7-0.2c0.1,0,0.3-0.1,0.5-0.2c2.2-0.9,4.3-0.4,6.3,0.9c0.1-0.3,0.2-0.6,0.6-0.5
		c0.6-0.1,1.2-0.1,1.8-0.2c0.1-0.4,0.4-0.5,0.8-0.3c0,0-0.1,0.3-0.1,0.4c0.1,0.1,0.1,0.3,0,0.5c0.4,0.6,0.8,0.4,1.3,0.2v-0.1
		c0-0.7-0.4-1.7,0.6-1.7s0.4,1.1,0.5,1.7c0.7,0.3,1.2,0.3,1.2-0.5c0.2,0.5,0.3,1.1,0.4,1.7c-0.1,0-0.1,0-0.2,0c0,0.1,0,0.1,0,0.2
		l-0.1-0.1c0,0,0-0.1,0-0.1c-0.5,0-0.8,0.4-1.2,0.7c-0.1,0.8,0.3,1.8-0.7,2.1c-1.1,0.3-0.3-1.5-1.3-1.5c-0.1,0.5-0.9,0.7-0.7,1.5
		c0.1,0.4,0.1,0.6,0.1,0.8c-0.4-0.4-1-0.8-1.8-0.8c-0.5-0.1-0.9,0.1-1.3,0.3c0-0.1,0-0.1,0-0.1c0-0.8-0.3-1.3-1.2-1.3
		c-0.1,0.5-0.1,1-0.2,1.5c-0.2,0.7-0.5,0.8-0.8,0c-0.3-0.4-0.5-0.8-0.8-1.2c-0.2,0.1-0.5,0.2-0.7,0.3c-0.4,0.1-0.8,0.2-1.2,0.3
		c-0.2,0.1-0.4,0.1-0.6,0.2c-0.5,0.2-0.9,0.3-1.4,0.4l-0.1,0.1c-0.3-0.1-0.6-0.2-0.9-0.3c-0.1-0.2-0.1-0.4-0.2-0.5
		c-1.5,0.1-3.5-0.8-4.5,0.4c-0.1,0.1-0.2,0.1-0.3,0.2c0,0.1,0,0.2,0,0.3c-0.2,0.3-0.3,0.7-0.4,1.3c0,0.1-0.6,0.3-0.8,0.2
		c-2-0.9-3.9-0.8-5.9-0.4c-0.8-0.4-1.8-0.5-2.9-0.2c-0.9-0.1-1.5,1-2.5,0.6c-3.9,1-4.9-0.1-3.8-4.2c-1.5,0.3-2.5-2.3-4.3-0.7
		c-0.2,0.7,0.9,1,0.5,1.9c-0.2,0.5,1.8,1.1,1,2.1c-0.6,0.8-1.9,0.4-3.3,0.3c1-1.3,0.4-2.7,0.6-4c-0.5,0.1-1.1,0.7-1.3-0.4
		c-1.1,1.4,0.1,3.4-1.2,5c-0.6,0.8-1.2,1-1.9,1.2c-1.3,0.3-1.7-1.6-3.1-1.2c-0.1,0.2-0.3,0.4-0.4,0.6c-0.2,0.5-0.4,0.5-0.7,0
		c-1.3-0.2-2-1.7-3.7-1c-2.3,1-4.7-1.2-7,0.2c-0.1-0.2-0.2-0.5-0.3-0.5c-2.2-0.7-3.2-3.1-5.4-3.7c-0.3,0.1-0.5,0.2-0.7,0.3
		c-0.7,0.3-0.1,1.9-1.3,1.6c-0.5-0.2-0.7-1.2-1.1-1.9c-0.1,1.6-1.6,0.4-2.2,1.1c0.2-1-2.1-1-0.9-2.4C384.3,59.5,384.2,59,384.2,58.4
		z M359,40.5c7.2,9,11,8.2,16.9-3c0.5,0,0.9,0,1.4,0c2.5,6,5.3,11.9-3.6,13.8c1.3,0.2,3.6,0.8,6.5,1.5c-0.3,0.3-0.5,0.6-0.8,0.9
		c-0.3,0.8-0.7,0.6-1.1,0.1l-0.2,0.1l-0.1-0.1c-0.4,0-0.8,0.1-1.2,0.1c-0.3,0.9-0.6,1.8-1.7,2c-0.1-0.4-0.1-0.7-0.2-1.1
		c-0.2-0.1-0.4-0.3-0.6-0.4c-0.8,0.6-1,1.9-2.3,1.9v0.1c-0.4-0.1-0.9-0.2-1.4-0.3c-4.3-1.1-9.1,0.3-13.3-1.8
		C358,49.8,358.5,45.1,359,40.5z M353.3,70.5c0.9,0.1,1.9,0.1,2.9-0.1c2-0.5,2.7,1.6,3.2,2.9c0.6,1.3-1.1,1.1-1.8,1.3
		c-1.6,0.5-1.7-0.6-1.5-1.7c0-0.4,0.1-0.9-0.5-1c-1-0.1-0.5,0.6-0.5,1c0,0.8-0.9,0.7-1.1,0.6c-1.7-0.6-1.9,1-2.5,2.2
		c-0.3-0.3-0.4-0.6-0.5-0.9C351.8,73.5,352.6,72.1,353.3,70.5z M339.8,72.7c-0.1,0.7-0.5,1.1-1.3,1.2
		C338.9,73.5,339.3,73.1,339.8,72.7z M337.7,72c-0.2,0.6-0.3,1.3-0.2,2c-0.1-0.1-0.3-0.1-0.4,0C337,73.2,337.3,72.6,337.7,72z
		 M319.9,76c0.4,1.3,0.8,2.3,1.2,3.3c0.2,0.6,0.2,1.4-0.5,1.5c-0.5,0.1-1.3,0.1-1.5-0.7C318.8,78.8,317.6,77.3,319.9,76z
		 M309.2,68.8c-0.7-0.2-0.8-0.6-0.8-1.1c0.7-0.2,1.3-0.3,1.8-0.5c0,0.2,0,0.4,0,0.7C310.3,68.4,309.9,69,309.2,68.8z M308.4,65.4
		c0,0.2-0.2,0.4-0.3,0.7c-0.1,0-0.1-0.1-0.2-0.1C307.9,66,307.8,65.2,308.4,65.4z M293.1,51.6c-0.8-0.2-1.5-0.5-2.4-0.9
		C291.3,50.4,292.1,50.8,293.1,51.6z M165.2,56.2c-0.1-0.3-0.2-0.6,0.4-0.9c12-11,10.7-3.8,23.9-19.4l-0.9,9.7
		c5.1-0.3,13.6-13.2,16.6-5.2c5.6,9.2,19.9,10,36.4,10.6c1.5,0.1,3,0.1,4.5,0.2c-0.2,0-0.4,0-0.6,0c-0.3,0.1-0.5,0.2-0.8,0.3
		c-1.4,0.6-2.8,1.6-4.3,0.9c-2-0.9-3.8-0.5-5.7,0c-0.7,0.3-0.8-0.4-1.2-0.7c-0.8,0.2-1.6,0.5-2.4,0.7c-0.2,0.2-0.3,0.5-0.5,0.7
		c-0.6,0.5,0.8,1.4-0.2,1.6c-0.7,0.1-1.2-0.6-1.3-1.4c0-0.3-0.1-0.6-0.1-0.9c-0.8,0.1-1.8-0.5-2.4,0.5c-0.4,2.1-2,3.5-3.5,4.8
		c-0.5,0.5-1-0.4-1.4-0.8c-0.6-0.6,0-0.7,0.4-1c0.7-0.5,1.1-1.3,0.9-2.3c-2-1.1-4.1-0.7-6.2-0.6c-1.2,0.3-2.3,1.1-3.4-0.1
		c-0.1,0-0.2-0.1-0.2-0.2s0.1-0.3,0.1-0.5c-0.5-1-1.5-1.2-2.4-1.6c-0.1,0.1-0.3,0.1-0.4,0c-0.2,0.2-0.5,0.4-0.7,0.6
		c-0.1,0.2-0.3,0.4-0.5,0.6c-0.2,0.4,0,1.6-0.8,0.8c-0.8-0.9-1.6-0.3-2.4-0.5c-0.7,0.2-1.4,0.7-1.8-0.5c-0.6-0.4-0.8,0.6-1.3,0.5
		c-0.9,0.1-1.8,0.3-2.7,0.4c-0.7,0.7-1.3,1.6-2.4,0.5c-1.7,0-3.4-0.2-5.1-0.5c-2.4-0.4-5-0.5-7.3,0.1c-2.3,0.6-4.5,1.1-6.7,0.9
		c-3.2-0.4-6.3,0.2-9.4,0.7c0,1.8,0.2,3.6-1.3,5c0.5,0.1,1.1-0.3,1.3,0.4c0.1,0.5-0.2,0.8-0.7,0.8c-0.7,1.5,0.4,1,1.1,1.1
		c3.5,0.4,7-0.3,10.6-0.6c-0.6-1.1-2.3-0.4-2.6-1.8c1.4-0.3,2.9-0.6,4.7-1c-1.5,2.1-0.8,3,1.4,2.7c1.7-0.2,2.8,1.6,4.5,1
		c2.1-0.7,3.7-0.3,4.8,1.9c0.1,0.2,1.1,0.2,1.1,0.2c0.9-3,2.9-0.2,4.2-0.8c0.1-0.1,0.3,0.2,0.4,0.4c0.3-3,2.3-2.4,4.2-1.9
		c0.5,0.1,0.8,0,0.8-0.8c0-1,0.5-1.5,0.7,0c0.1,0.8,0.6,0.6,1.1,0.5c2.5-0.7,4.9,1.4,7.5,0.1c0.7-0.4,2,0.3,2.8,0.8
		c0.8,0.5,1.4,0.4,1.6-0.4c0.6-2.2,2.3-1.5,3.4-1.1c1.6,0.6,2.8,0.6,4.3-0.1c1.2-0.6,2.5-0.8,4-0.1c2.5,1.1,5-0.8,7.7-0.6
		c2.9,0.1,5.7,0.8,8.5,1.2c4.1,0.6,8.1,0.4,12.2,0.4c1.2,0,3-0.7,2.1,1.9c-0.2,0.6,0.8,1.4,1.1,1.1c0.8-1,2.7,0.2,3-1.7
		c0.2-0.9,1.5-1.5,1.8-0.9c2.1,3.8,5.9,1.3,8.7,2.5c0.5,0.2,0.9-0.4,0.9-1c-0.1-1,0-2,1.3-1.9c1.1,0.1,2.6-0.1,2.9,1.3
		c0.4,1.5,1.3,1.6,2.5,1.6c3-0.1,5.9,0.9,9.1,0.4c1.4-0.2,3.2,0,4.8-0.1c0.3,0,1,0.3,1,0.4c0,2.8,2.1,1.2,3.2,2
		c0.2-1.7-1.8-0.6-1.7-2c0.4-1.3,3.6,0.1,6.4,3c-2.1,0.4-3.9,0.6-5.7,1.1c-0.2,0.1-0.1,1.3-0.2,2.5c2.8-2.2,3.4,1.8,5.5,1.4
		c0.1,0.6,0.3,1.4-0.7,1.3c-0.8-0.1-1.5-0.7-2.5,0c1.6,1.1,3.5,1.5,5.2,2.3c0.8,0.4,2.1,0.8,1.7,2.2c-0.3,1.3-1.5,0.8-2.3,0.7
		c-3.2-0.3-6.5,0.2-9.5-1.6c-0.7-0.4-0.3,0.5-0.5,0.7c-1,0.9-1.9,1.2-3.2,0.4c-2.7-1.7-6-2.4-8.7-1.6c-3.6,1.1-7,0.8-10.4,0.7
		c-3.8,0-7.5-1.4-11.3-1.7c-1.4,0.5-3.1,1.8-3.3-1.2c-0.1-1-1.1-0.5-1.7-0.5c-0.4,1,0.4,1.8,0.9,3.5c-2.2-1.7-3.8-1.8-5.3-0.2
		c-0.7,0.7-1.8,0.4-2.7,0.4c-6.6-0.2-13.3,1-19.9-0.7c-1.8-0.4-4,1.7-5.5-0.8c-3.1,2.1-6.4,0.2-9.6,0.6c-2.6,0.4-5.3-0.1-7.9-0.3
		c-3.6-0.2-7.3-1.6-11-0.2c-1.9,0.7-4.1-0.1-6.1-0.3c-4-0.3-8,0.8-11.9,0.3c-4.1-0.5-7.2,2.5-11.4,2.2c-5.6-0.4-10.8-1.2-15.4-4.7
		c1.4-1.8,3.7-1.1,5.2-2.3c1.3-1,2.3-1.7,0.3-3c-1.2-0.8-1.7-2.1-1.9-3.5c-0.3-1.7,0.1-2.9,2.2-2.7c2.5,0.2,4.7-1.2,7.3-0.7
		c0.6,0.1,2,1.1,2.3-0.5c0.3-1.9-1.5-1-2.3-1.6c0.1-1.2,1-0.8,1.6-1c0.2-0.8,0.1-1.4-0.8-1.6C164,57.3,164.3,56.8,165.2,56.2z
		 M176.7,59.4c-2.3,1-3.8,1-5.4,0.3c0.3-0.7,0.5-1.8,1-2C174.1,56.9,174.5,59.2,176.7,59.4z M115.9,54.4c5.1-2.7,10-6.4,12.2-13.9
		c5.3,2.3,10.5,4.6,15.3-1.2l2.2,14.9l11.8-20.1c6,7.6,8.9,12.6,5.5,20.8c-0.2,0.1-0.4,0.1-0.5,0.2c-1.9,0.9-3.7,0.3-5.5-0.1
		c-2.3-0.5-3.4,0.3-3.8,2.5c-0.2,2.7-0.7,3.2-2.4,2.5c-1.7-0.5-3.3-0.9-5-1.4c-0.5,0.1-1.1,0.4-1.2-0.5c-0.4-0.2-0.9-0.5-1.3-0.8
		c-0.2-0.2-0.5-0.3-0.7-0.4c-0.6,0.2-1.1,0.2-1.3-0.6c-0.6-0.1-1.3,0-1.7-0.7c-1.8,0.1-3.5,1.1-5.2,0.1c-1.8,1.7-4.4-0.5-6.2,1.1
		c0.4,1.2,0.2,2.2-0.6,3.1c-0.7-1.2-2.6-0.9-3.1-2.3c-0.4-0.1-0.9-0.1-1.4-0.2c-0.2-0.1-0.3-0.2-0.3-0.3c-0.2,0-0.4,0.1-0.6,0.1
		c-5.4,1.1-10.7,2.8-16.2,3.4c-0.3,0-0.6,0-1,0.1C107.6,58.2,111.8,56.6,115.9,54.4z M84.6,50.7c3.8,18.2,11.8-4.4,17.1,11.5
		c-1.5,0.9-3.4,0.3-5,0.7c-4.3,1.1-8.8-1.3-13.1,0.3c-0.2,0.1-0.5,0.2-0.7,0.3c-0.6,0-1.3,0.1-1.9,0.2c-0.2,0.3-0.3,0.2-0.5,0
		c-0.2,0.1-0.4,0.2-0.6,0.4c-0.3-2-0.9-4.2-1.5-6.3C80.7,55.9,82.9,53.5,84.6,50.7z M79.9,83.6c0.8-0.7,0.1-3,1-2.4
		c1.6,1.1,3.7-0.2,4.9,1.4c1.2,1.5-0.8,2.1-1.1,2.1c-1.4,0-3,0.9-4.3-0.4c-0.5,0.9-1.5,0.9-2.3,1.1c0.1-0.6,0.1-1.4,0-2.4L78,82.3
		C78.5,82.9,78.9,83.7,79.9,83.6z"/>
	<path class="st0" d="M149.5,88.8c-0.5,0.2-0.7,1.3-1,2c1.6,0.7,3.1,0.7,5.4-0.3C151.8,90.3,151.4,88,149.5,88.8z"/>
</g>
</svg>
