<?xml version="1.0" encoding="utf-8"?>
<!-- Generator: Adobe Illustrator 26.0.2, SVG Export Plug-In . SVG Version: 6.00 Build 0)  -->
<svg version="1.1" id="Layer_1" xmlns="http://www.w3.org/2000/svg" xmlns:xlink="http://www.w3.org/1999/xlink" x="0px" y="0px"
	 viewBox="0 0 1280 150" style="enable-background:new 0 0 1280 150;" xml:space="preserve">
<style type="text/css">
	.st0{fill:#FFD380;}
</style>
<g>
	<path class="st0" d="M527.1,122c0.6-0.9,1.1-1.8,1.7-2.7c-1.1-0.1-2.2-0.2-3.4-0.4C525.5,120,525.9,121,527.1,122z"/>
	<path class="st0" d="M474.4,107.3c-3.1,0-6,2.6-8.8,0.6c-0.9,0.3-1.9,0-2.5,0.3c2.9,1.2,5.6,2.4,8.1,3.6c1.2,0,2.3,0.1,3.4,0.5
		c0.6,0.2,3,1,2.5-1.2C476.6,109.8,477.1,107.3,474.4,107.3z"/>
	<path class="st0" d="M483.1,104.6c0.1-0.2-0.2-0.5-0.6-0.8c0,1.4,0.1,2.8,0.1,4.2c-0.3,0-0.6,0.1-1,0.1c-0.5-0.3-0.5,0-0.6,0.4
		c-0.1,0.2-0.2,0.5-0.3,0.7c-1.5,1.9-1.3,3.1,1.4,3.1c0.7,0,1.4,0,2,0.1c0-0.2,0.1-0.4,0.2-0.7C485.3,108.9,482.2,107.1,483.1,104.6
		z"/>
	<path class="st0" d="M731.5,113.6c2.5-0.6,4.1-2.1,5.1-4c-1.8-0.5-3.6-1-5.5-1.2C731,110.2,731.1,112,731.5,113.6z"/>
	<path class="st0" d="M789.4,145c0.2-0.2,0.5-0.4,0.8-0.7c1.1-0.9,2.6-0.7,3.9-1.3c0.2-0.4,0.4-1,0.6-1.5c-4.3-2.9-9-3.8-14.1-4.1
		C783.9,140.5,786.9,143.8,789.4,145z"/>
	<path class="st0" d="M758,111.5c-2.1,1.8-4.5,0.6-6.5,1.7c0.1-0.6,0.1-1.1-0.6-1.3c-0.2-0.2-0.3-0.4-0.5-0.6c0.5,1,0.9,2.1,1.4,3.2
		c1.9,0.4,2.8,1.7,2,4.8c0,0,0,0,0,0.1c1.3-1.4,1.8-3.1,3.3-1.9c0.8-1,2.1-0.4,3.1-1c1.5-0.9,3.4-1.8,2.6-3.4
		C762.2,111.5,759.2,110.5,758,111.5z"/>
	<path class="st0" d="M434.5,105.9c0.2,0.3,0.5,0.5,0.8,0.7c0.6-0.3,1.1-0.5,1.7-0.7C436.1,106,435.3,106,434.5,105.9z"/>
	<path class="st0" d="M808.5,102.1c0-0.9,0.7-1.4,1.3-1.5c2.7-0.4,5.5-1,8.2-0.1c3.1,1.1,6-0.7,9-0.1c-2.3-2.7-5.5-2-8.2-2.3
		c-5.9-0.6-11.6-2.3-17.6-2.1c-1.5,0-1.8,0.4-1.5,1.3c0.6,2-0.5,3.1-2.2,4.2c1.3-0.6,1.6,0.4,1.9,1.2c3.4,0.5,6.7,0.8,10.1,0.8
		C809.4,103,809.1,102.5,808.5,102.1z"/>
	<path class="st0" d="M799.2,97.3c0.4-1.9-1.5-1-2.3-1.5c-3-2-6.6-0.6-9.8-1.7c-0.6-0.2-3-1-2.5,1.2c0.3,1.3-0.2,3.7,2.6,3.8
		c3.1,0,6-2.6,8.8-0.6C797.3,98,798.9,98.8,799.2,97.3z"/>
	<path class="st0" d="M314.3,105.1c3,0.4,3.3-1.1,2.2-3.8C315.4,102.6,314.2,103.5,314.3,105.1z"/>
	<path class="st0" d="M58.2,112.4c-0.9-0.6-0.2,1.7-1,2.4c-1.4,0.1-1.7-1.4-2.6-1.9c-0.2-0.2-0.4-0.4-0.7-0.6
		c-0.6-0.7-1.1-1-1.5,0.1l-0.2,0c0,0,0,0.2,0,0.2c-0.2,0-0.4,0-0.6,0c-2.1-0.7-4.2-0.4-6.3-0.2c-0.5-0.1-0.9,0-1.2,0.4
		c-0.8,0.2-1.7,1-2.5,0.2c-1.4-1.4-2.6-1.5-3.9,0.2c-0.4,0.5-1.2,0.3-1.7-0.6c-1-2-2.8-2.4-5-2.4c-3.3,0-6.5,0.1-9.8,0.1
		c5.5,2.1,10.9,3,13.3,8.7c0.5,0.1,1,0.3,1.5,0.6c0.2,0.1,0.7,0.1,0.9-0.1c1.6-1.7,3.4-1.3,5.2-0.9c-0.2-0.4-0.5-0.8-0.8-1.1
		c1.1,0.1,2.2,0.2,3.3,0.3c0-0.2-0.1-0.5-0.3-0.8c-0.5-0.7-0.2-1.1,0.3-1.5c0.5-0.5,1.5,1,1.8-0.4l0,0c0.2,0,0.4,0,0.6,0
		c0.2,0.1,0.3,0.1,0.5,0.2c1.2,0.7-0.2,2,0.9,2.9c0,0,0,0,0,0c0.6-1.1,3.1,0.2,2.9-2.3c0.9-0.4,1.5,1.4,2.5,0.3c0,0,0.1-0.1,0.1-0.1
		c0.2,0.6,0.5,0.8,1.1,0.4c0.8-0.3,1.9-0.2,2.4-1.1c1.3,1.3,2.9,0.4,4.3,0.4c0.3,0,2.3-0.6,1.1-2.1
		C61.8,112.2,59.8,113.5,58.2,112.4z"/>
	<path class="st0" d="M278.2,105.9c1-0.7,1.7-0.1,2.5,0c1,0.1,0.8-0.7,0.7-1.3c-2.1,0.4-2.7-3.6-5.5-1.4c0.1-1.2,0-2.4,0.2-2.5
		c1.8-0.5,3.6-0.7,5.7-1.1c-2.8-2.9-6-4.3-6.4-3c-0.1,1.4,1.9,0.3,1.7,2c-1.1-0.8-3.2,0.8-3.2-2c0-0.1-0.7-0.4-1-0.4
		c-1.6,0.1-3.4-0.1-4.8,0.1c-3.2,0.5-6.1-0.5-9.1-0.4c-1.2,0-2.1-0.1-2.5-1.6c-0.3-1.4-1.8-1.2-2.9-1.3c-1.3-0.1-1.4,0.9-1.3,1.9
		c0,0.6-0.4,1.2-0.9,1c-2.8-1.2-6.6,1.3-8.7-2.5c-0.3-0.6-1.6,0-1.8,0.9c-0.3,1.9-2.2,0.7-3,1.7c-0.3,0.3-1.3-0.5-1.1-1.1
		c0.9-2.6-0.9-1.9-2.1-1.9c-4.1,0-8.1,0.2-12.2-0.4c-2.8-0.4-5.6-1.1-8.5-1.2c-2.7-0.2-5.2,1.7-7.7,0.6c-1.5-0.7-2.8-0.5-4,0.1
		c-1.5,0.7-2.7,0.7-4.3,0.1c-1.1-0.4-2.8-1.1-3.4,1.1c-0.2,0.5-0.4,0.8-0.9,0.7c-1.1,2.4-10.3,8.9-9,14.6c2.5,0.2,5.1,0.7,7.6,0.3
		c0.3,0,0.6-0.1,0.9-0.1c3.5-6.3,10.3-14.3,13.7-6.8c-5.8-0.5-7.6,3.2-7.2,7.1c0.7-0.1,1.5-0.4,2.2-0.9c1.5,2.5,3.7,0.4,5.5,0.8
		c2,0.5,4.1,0.8,6.2,0.9L211,98.4c18.5,0.7,37.3,4.2,56.4,7.6c5.8,1,11.6,2,17.4,2.9c-0.4-0.4-1-0.6-1.4-0.7
		C281.8,107.4,279.9,107,278.2,105.9z"/>
	<path class="st0" d="M285.8,96.5c-0.7-0.3-0.6,0.6-0.6,0.6c1.2,0.6-0.2,2.4,1.3,2.8c0.7,0.2,1.1-0.4,1-0.9
		c-0.2-1.6,0.9-1.7,2.3-1.7C288.5,95.4,287,97.1,285.8,96.5z"/>
	<path class="st0" d="M354.5,118.1c-4-1.9-7.9,0-11.9-0.2c-0.5,0-2.1-0.1-0.6,1.4c0.7,0.8-1.7,0.6-1.9,1.8c0.2,0.2,0.4,0.4,0.7,0.6
		c1.2,0.3,2.4,0.6,3.5,1.1c0.6-0.1,1.3-0.3,1.9-0.6c1.4-0.8,2,0.6,3,0.7c2.7,0.3,5.3,0.8,7.9,1.1c-1-0.4-2.2-0.7-3.6-1l8-5.4
		c-1.1,0-2.1,0.2-3.2,0.5C357.2,118.5,355.6,118.6,354.5,118.1z"/>
	<path class="st0" d="M35.5,133.5c0,0.3-0.1,0.7-0.1,1c2.6,0.5,4.4-0.1,5.7-1.3c-0.2,0-0.4,0-0.5,0C38.9,133,37.2,133.5,35.5,133.5z
		"/>
	<path class="st0" d="M333.5,101.5c-2.7,0.7-5.4-0.6-8.1,0.1c-0.5,0.1-1.1-1.4-1.6,0c-0.3,1,0,1.9,1.2,2.1c1,0.2,2,0,3,0
		c0.4,1-0.3,2,0.7,3.1c0.6-1.2,0.8-2.8,2.5-2.2c0.2,0.1,1.1,0.2,1.1-0.6c0-0.4-0.5-1.1,0.5-1c0.6,0.1,0.5,0.6,0.5,1
		c-0.1,1.2,0,2.2,1.6,1.7c0.7-0.2,2.4,0,1.8-1.3C336.1,103.1,335.5,101,333.5,101.5z"/>
	<path class="st0" d="M357.6,140.9c-0.1,0-0.2,0-0.2,0c-0.9,0.1-1.7-0.2-2.6,0.2c-1.8,0.7-3.6,0.9-2.9-2.2c-1.4,0.3-1.9,1.6-3.1,1.4
		c-0.2,0-0.4,0-0.6,0c-0.9-0.1-1.8-0.2-2.5-0.8c-0.5-0.4-0.8-0.2-1,0.1c1.3,5.2,8.3,11.8,13.6,10.2
		C355.6,147.4,356.2,144.2,357.6,140.9z"/>
	<path class="st0" d="M297.1,107.3c-1.8,1-1.3,2.1-1,3.2c0.7,0.1,1.5,0.2,2.2,0.3c0-0.1,0-0.1-0.1-0.2
		C298,109.5,297.5,108.5,297.1,107.3z"/>
	<path class="st0" d="M0,104.6c0.1-0.3,0.1-0.7,0-1.2V104.6z"/>
	<path class="st0" d="M913.7,119c-0.5-0.1-1-0.2-1.4-0.3c0,0,0,0.1,0,0.1c-1.3,0-1.5,1.3-2.3,1.9c-0.2-0.1-0.4-0.3-0.6-0.4
		c-0.1-0.4-0.1-0.7-0.2-1.1c-1.1,0.2-1.4,1.1-1.7,2c-0.4,0-0.8,0.1-1.2,0.1c0,0-0.1-0.1-0.1-0.1l-0.2,0.1c-0.4-0.5-0.8-0.7-1.1,0.1
		c-0.3,0.3-0.5,0.6-0.8,0.9c2.9,0.7,5.2,1.3,6.5,1.5c-8.9,1.9-6.1,7.8-3.6,13.8c0.5,0,0.9,0,1.4,0c5.9-11.2,9.7-12,16.9-3
		c0.5-4.6,1-9.3,1.7-13.8C922.8,118.7,918,120.1,913.7,119z"/>
	<path class="st0" d="M1178.4,114.5c-5.5,0.6-10.8,2.3-16.2,3.4c-0.2,0-0.4,0.1-0.6,0.1c0-0.1-0.1-0.2-0.3-0.3c0,0,0,0,0,0
		c0,0,0,0,0,0c-0.5-0.1-1-0.1-1.4-0.2c-0.5-1.4-2.4-1.1-3.1-2.3c-0.8,0.9-1,1.9-0.6,3.1c-1.8,1.6-4.4-0.6-6.2,1.1c0,0,0,0,0,0
		c-1.7-1-3.4,0-5.2,0.1c-0.4-0.7-1.1-0.6-1.7-0.7c-0.2-0.8-0.7-0.8-1.3-0.6c-0.2-0.1-0.5-0.2-0.7-0.4c-0.4-0.3-0.9-0.6-1.3-0.8
		c-0.1-0.9-0.7-0.6-1.2-0.5c-1.7-0.5-3.3-0.9-5-1.4c-1.7-0.7-2.2-0.2-2.4,2.5c-0.4,2.2-1.5,3-3.8,2.5c-1.8-0.4-3.6-1-5.5-0.1
		c-0.1,0.1-0.3,0.1-0.5,0.2c-3.4,8.2-0.5,13.2,5.5,20.8l11.8-20.1l2.2,14.9c4.8-5.8,10-3.5,15.3-1.2c2.2-7.5,7.1-11.2,12.2-13.9
		c4.1-2.2,8.3-3.8,11-6.3C1179,114.5,1178.7,114.5,1178.4,114.5z"/>
	<path class="st0" d="M1203.8,111.4c-0.2-0.2-0.3-0.3-0.5,0c-0.6,0.1-1.3,0.2-1.9,0.2c-0.2,0.1-0.5,0.2-0.7,0.3
		c-4.3,1.6-8.8-0.8-13.1,0.3c-1.6,0.4-3.5-0.2-5,0.7c5.3,15.9,13.3-6.7,17.1,11.5c1.7-2.8,3.9-5.2,6.2-7.1c-0.6-2.1-1.2-4.3-1.5-6.3
		C1204.2,111.2,1204,111.3,1203.8,111.4z"/>
	<path class="st0" d="M1119.1,118.9c0.9-0.6,1.2-1.1-0.1-1.5c-0.9-0.2-1-0.8-0.8-1.6c0.6-0.2,1.5,0.2,1.6-1
		c-0.8-0.6-2.6,0.3-2.3-1.6c0.3-1.6,1.7-0.6,2.3-0.5c2.6,0.5,4.8-0.9,7.3-0.7c2.1,0.2,2.5-1,2.2-2.7c-0.2-1.4-0.7-2.7-1.9-3.5
		c-2-1.3-1-2,0.3-3c1.5-1.2,3.8-0.5,5.2-2.3c-4.6-3.5-9.8-4.3-15.4-4.7c-4.2-0.3-7.3,2.7-11.4,2.2c-3.9-0.5-7.9,0.6-11.9,0.3
		c-2-0.2-4.2-1-6.1-0.3c-3.7,1.4-7.4,0-11-0.2c-2.6-0.2-5.3-0.7-7.9-0.3c-3.2,0.4-6.5-1.5-9.6,0.6c-1.5-2.5-3.7-0.4-5.5-0.8
		c-6.6-1.7-13.3-0.5-19.9-0.7c-0.9,0-2-0.3-2.7,0.4c-1.5,1.6-3.1,1.5-5.3-0.2c0.5,1.7,1.3,2.5,0.9,3.5c-0.6,0-1.6,0.5-1.7-0.5
		c-0.2-3-1.9-1.7-3.3-1.2c-3.8-0.3-7.5-1.7-11.3-1.7c-3.4-0.1-6.8-0.4-10.4,0.7c-2.7,0.8-6,0.1-8.7-1.6c-1.3-0.8-2.2-0.5-3.2,0.4
		c-0.2,0.2,0.2,1.1-0.5,0.7c-3-1.8-6.3-1.3-9.5-1.6c-0.8-0.1-2-0.6-2.3,0.7c-0.4,1.4,0.9,1.8,1.7,2.2c1.7,0.8,3.6,1.2,5.2,2.3
		c-1,0.7-1.7,0.1-2.5,0c-1-0.1-0.8,0.7-0.7,1.3c2.1-0.4,2.7,3.6,5.5,1.4c-0.1,1.2,0,2.4-0.2,2.5c-1.8,0.5-3.6,0.7-5.7,1.1
		c2.8,2.9,6,4.3,6.4,3c0.1-1.4-1.9-0.3-1.7-2c1.1,0.8,3.2-0.8,3.2,2c0,0.1,0.7,0.4,1,0.4c1.6-0.1,3.4,0.1,4.8-0.1
		c3.2-0.5,6.1,0.5,9.1,0.4c1.2,0,2.1,0.1,2.5,1.6c0.3,1.4,1.8,1.2,2.9,1.3c1.3,0.1,1.4-0.9,1.3-1.9c0-0.6,0.4-1.2,0.9-1
		c2.8,1.2,6.6-1.3,8.7,2.5c0.3,0.6,1.6,0,1.8-0.9c0.3-1.9,2.2-0.7,3-1.7c0.3-0.3,1.3,0.5,1.1,1.1c-0.9,2.6,0.9,1.9,2.1,1.9
		c4.1,0,8.1-0.2,12.2,0.4c2.8,0.4,5.6,1.1,8.5,1.2c2.7,0.2,5.2-1.7,7.7-0.6c1.5,0.7,2.8,0.5,4-0.1c1.5-0.7,2.7-0.7,4.3-0.1
		c1.1,0.4,2.8,1.1,3.4-1.1c0.2-0.8,0.8-0.9,1.6-0.4c0.8,0.5,2.1,1.2,2.8,0.8c2.6-1.3,5,0.8,7.5,0.1c0.5-0.1,1-0.3,1.1,0.5
		c0.2,1.5,0.7,1,0.7,0c0-0.8,0.3-0.9,0.8-0.8c1.9,0.5,3.9,1.1,4.2-1.9c0.1,0.2,0.3,0.5,0.4,0.4c1.3-0.6,3.3,2.2,4.2-0.8
		c0,0,1,0,1.1,0.2c1.1,2.2,2.7,2.6,4.8,1.9c1.7-0.6,2.8,1.2,4.5,1c2.2-0.3,2.9,0.6,1.4,2.7c1.8-0.4,3.3-0.7,4.7-1
		c-0.3-1.4-2-0.7-2.6-1.8c3.6-0.3,7.1-1,10.6-0.6c0.7,0.1,1.8-0.4,1.1,1.1c-0.5,0-0.8,0.3-0.7,0.8c0.2,0.7,0.8,0.3,1.3,0.4l0,0
		c-1.5,1.4-1.3,3.2-1.3,5c-3.1,0.5-6.2,1.1-9.4,0.7c-2.2-0.2-4.4,0.3-6.7,0.9c-2.3,0.6-4.9,0.5-7.3,0.1c-1.7-0.3-3.4-0.5-5.1-0.5
		c-1.1-1.1-1.7-0.2-2.4,0.5c-0.9,0.1-1.8,0.3-2.7,0.4c-0.5-0.1-0.7,0.9-1.3,0.5c-0.4-1.2-1.1-0.7-1.8-0.5c-0.8-0.2-1.6,0.4-2.4-0.5
		c-0.8-0.8-0.6,0.4-0.8,0.8c-0.2,0.2-0.4,0.4-0.5,0.6c-0.2,0.2-0.5,0.4-0.7,0.6c-0.1-0.1-0.3-0.1-0.4,0c-0.9-0.4-1.9-0.6-2.4-1.6
		c0-0.2,0.1-0.4,0.1-0.5c0-0.1-0.1-0.2-0.2-0.2c-1.1-1.2-2.2-0.4-3.4-0.1c-2.1,0.1-4.2,0.5-6.2-0.6c-0.2-1,0.2-1.8,0.9-2.3
		c0.4-0.3,1-0.4,0.4-1c-0.4-0.4-0.9-1.3-1.4-0.8c-1.5,1.3-3.1,2.7-3.5,4.8c-0.6,1-1.6,0.4-2.4,0.5c0-0.3-0.1-0.6-0.1-0.9
		c-0.1-0.8-0.6-1.5-1.3-1.4c-1,0.2,0.4,1.1-0.2,1.6c-0.2,0.2-0.3,0.5-0.5,0.7c-0.8,0.2-1.6,0.5-2.4,0.7c-0.4-0.3-0.5-1-1.2-0.7
		c-1.9,0.5-3.7,0.9-5.7,0c-1.5-0.7-2.9,0.3-4.3,0.9c-0.3,0.1-0.5,0.2-0.8,0.3c-0.2,0-0.4,0-0.6,0c1.5,0.1,3,0.1,4.5,0.2
		c16.5,0.6,30.8,1.4,36.4,10.6c3,8,11.5-4.9,16.6-5.2l-0.9,9.7c13.2-15.6,11.9-8.4,23.9-19.4
		C1119.3,119.5,1119.2,119.2,1119.1,118.9z"/>
	<path class="st0" d="M1112,117.4c0.5-0.2,0.7-1.3,1-2c-1.6-0.7-3.1-0.7-5.4,0.3C1109.8,115.9,1110.2,118.2,1112,117.4z"/>
	<path class="st0" d="M1203.9,90.8c-1.3-1.3-2.9-0.4-4.3-0.4c-0.3,0-2.3,0.6-1.1,2.1c1.2,1.6,3.3,0.3,4.9,1.4c0.9,0.6,0.2-1.7,1-2.4
		c1-0.1,1.4,0.7,1.9,1.3l-0.1-0.7c-0.1-1-0.1-1.8,0-2.4C1205.4,89.9,1204.4,89.9,1203.9,90.8z"/>
	<path class="st0" d="M827.1,114.2c0,0-0.1-0.1-0.1-0.1c0,0.1,0,0.2,0,0.3C827,114.3,827.1,114.3,827.1,114.2z"/>
	<path class="st0" d="M1164.4,72.5c0,0.1,0,0.2,0,0.3c0.1-0.1,0.1-0.1,0.2-0.2C1164.5,72.6,1164.5,72.5,1164.4,72.5z"/>
	<path class="st0" d="M0,0v59.4V103c0.9-0.6,1.7-1.3,2.7-0.2c0.3-0.1,0.6-0.2,0.9-0.3c0.8,0.3,1.6,0.6,2.5,0.9l0,0
		c0.1,0.4,0.3,0.6,0.4,0.6c0.2-0.1,0.3-0.2,0.5-0.4c0.1-0.1,0.1-0.2,0.2-0.3l0.1-0.1c0.2-0.2,0.3-0.4,0.5-0.5c0,0,0.2-0.1,0.2-0.1
		c0,0,0,0,0.1,0c0.7-1.1,1-2.4,0.4-4.3c0.6,1.5,1.3,2.8,2.1,3.9c2-1.8,6.4-2.7,8.7-1.6c0.6,0.3,1.3,0.6,1.7,0c1.7-2.5,4-2.3,6.6-1.8
		c1.9,0.3,4-0.6,5.7-1.2c5.7-1.9,11.7-1.5,17.2-3.3c2.3-0.7,3.1,1.4,4.8,0.7c0.2,0.1,0.4,0.1,0.6,0.2l0,0c0.3,0.8,0.7,0.8,1,0
		c0.3-0.2,0.6-0.4,0.9-0.6c0.2,0.2,0.3,0.3,0.5,0c0.6-0.1,1.3-0.2,1.9-0.2c0.2-0.1,0.5-0.2,0.7-0.3C65.2,92.7,69.7,95,74,94
		c2-0.5,4.2,0.5,6-1.5c0.6-0.7,2.1-0.6,3.2-0.7c5.5-0.6,10.8-2.3,16.2-3.4c0.2,0,0.4-0.1,0.6-0.1c0,0.1,0.1,0.2,0.3,0.3c0,0,0,0,0,0
		c0,0,0,0,0,0c0.5,0.1,1,0.1,1.4,0.2c0.5,1.4,2.4,1.1,3.1,2.3c0.8-0.9,1-1.9,0.6-3.1c1.8-1.6,4.4,0.6,6.2-1.1c0,0,0,0,0,0
		c1.7,1,3.4,0,5.2-0.1c0.4,0.7,1.1,0.6,1.7,0.7c0.2,0.8,0.7,0.8,1.3,0.6c0.2,0.1,0.5,0.2,0.7,0.4c0.4,0.3,0.9,0.6,1.3,0.8
		c0.1,0.9,0.7,0.6,1.2,0.5c1.7,0.5,3.3,0.9,5,1.4c1.7,0.7,2.2,0.2,2.4-2.5c0.4-2.2,1.5-3,3.8-2.5c1.8,0.4,3.6,1,5.5,0.1
		c0.8-0.4,2.4-0.6,2.8,1.2c-0.9,0.6-1.2,1.1,0.1,1.5c0.9,0.2,1,0.8,0.8,1.6c-0.6,0.2-1.5-0.2-1.6,1c0.8,0.6,2.6-0.3,2.3,1.6
		c-0.3,1.6-1.7,0.6-2.3,0.5c-2.6-0.5-4.8,0.9-7.3,0.7c-2.1-0.2-2.5,1-2.2,2.7c0.2,1.4,0.7,2.7,1.9,3.5c2,1.3,1,2-0.3,3
		c-1.5,1.2-3.8,0.5-5.2,2.3c4.6,3.5,9.8,4.3,15.4,4.7c1.6,0.1,3-0.3,4.4-0.7l-5.9-13.2l16.2,1.6c3.3-1.3,4.3-0.7,4.2,0.5
		c2.2,0.6,0.3,5.5,3.2,9.3c0.4,0,0.7,0,1.1,0c2,0.2,4.2,1,6.1,0.3c1.8-0.7,3.6-0.7,5.3-0.5c3-2.7,4.8-7.2,8.4-11.4l-1.7-2.1l6.7-1.2
		c-0.7-0.4-1.5-0.6-2-0.4c-2.6,1.3-5-0.8-7.5-0.1c-0.5,0.1-1,0.3-1.1-0.5c-0.2-1.5-0.7-1-0.7,0c0,0.8-0.3,0.9-0.8,0.8
		c-1.9-0.5-3.9-1.1-4.2,1.9c-0.1-0.2-0.3-0.5-0.4-0.4c-1.3,0.6-3.3-2.2-4.2,0.8c0,0-1,0-1.1-0.2c-1.1-2.2-2.7-2.6-4.8-1.9
		c-1.7,0.6-2.8-1.2-4.5-1c-2.2,0.3-2.9-0.6-1.4-2.7c-1.8,0.4-3.3,0.7-4.7,1c0.3,1.4,2,0.7,2.6,1.8c-3.6,0.3-7.1,1-10.6,0.6
		c-0.7-0.1-1.8,0.4-1.1-1.1c0.5,0,0.8-0.3,0.7-0.8c-0.2-0.7-0.8-0.3-1.3-0.4l0,0c1.5-1.4,1.3-3.2,1.3-5c3.1-0.5,6.2-1.1,9.4-0.7
		c2.2,0.2,4.4-0.3,6.7-0.9c2.3-0.6,4.9-0.5,7.3-0.1c1.7,0.3,3.4,0.5,5.1,0.5c1.1,1.1,1.7,0.2,2.4-0.5c0.9-0.1,1.8-0.3,2.7-0.4
		c0.5,0.1,0.7-0.9,1.3-0.5c0.4,1.2,1.1,0.7,1.8,0.5c0.8,0.2,1.6-0.4,2.4,0.5c0.8,0.8,0.6-0.4,0.8-0.8c0.2-0.2,0.4-0.4,0.5-0.6
		c0.2-0.2,0.5-0.4,0.7-0.6c0.1,0.1,0.3,0.1,0.4,0c0.9,0.4,1.9,0.6,2.4,1.6c0,0.2-0.1,0.4-0.1,0.5c0,0.1,0.1,0.2,0.2,0.2
		c1.1,1.2,2.2,0.4,3.4,0.1c2.1-0.1,4.2-0.5,6.2,0.6c0.2,1-0.2,1.8-0.9,2.3c-0.4,0.3-1,0.4-0.4,1c0.4,0.4,0.9,1.3,1.4,0.8
		c1.5-1.3,3.1-2.7,3.5-4.8c0.6-1,1.6-0.4,2.4-0.5c0,0.3,0.1,0.6,0.1,0.9c0.1,0.8,0.6,1.5,1.3,1.4c1-0.2-0.4-1.1,0.2-1.6
		c0.2-0.2,0.3-0.5,0.5-0.7c0.8-0.2,1.6-0.5,2.4-0.7c0.4,0.3,0.5,1,1.2,0.7c1.9-0.5,3.7-0.9,5.7,0c1.5,0.7,2.9-0.3,4.3-0.9
		c0.3-0.1,0.5-0.2,0.8-0.3c6.6-0.2,13.1-0.4,19.7-0.7c0.2,0.6,0.5,0.7,0.8,0c4.4-1.5,8.7-0.5,13,0.2c1.2,0.2,2.1,0.2,3-0.5
		c0.4,0,0.8-0.1,1.2-0.1c0.4,0.2,0.8,0.4,1.2,0.1c1.8,1.1,3.3,1,4.3-1.1c5.1,2.7,10.4,4.6,16.1,1.9c2.5-1.2,4.9,0.1,7.4-0.1
		c3.3-0.3,6.6-0.3,9.9-0.5c0.7,0,1.4,0.3,2,0.5c0.6,0.6,1.2-0.2,1.8,0c0,0,0,0,0,0c0.2,0.1,0.5,0.2,0.7,0.3c0.2,0,0.4,0,0.6,0
		c0.4,0,0.9,0,1.3,0c6.6,0.7,13.2,1.6,19.9,1.4c2.3-0.1,4.7,1.3,7-0.3c0.1-0.1,0.4,0.1,0.5,0.2c4.5,4.1,10.3,1.8,15.4,3.1
		c2,0.5,4.2,1,6.4-0.8c1.2-0.9,4.1,0.3,6.2,0.6c0.5,0.1,0.8,2.6,1.2,4.1c-1.2,1.4,1.1,1.4,0.9,2.4c0.6-0.7,2.1,0.5,2.2-1.1
		c0.4,0.7,0.6,1.7,1.1,1.9c1.2,0.3,0.6-1.3,1.3-1.6c0.2-0.1,0.4-0.2,0.7-0.3c2.2,0.6,3.2,3,5.4,3.7c0.1,0,0.2,0.3,0.3,0.5
		c1.2-0.7,2.4-0.5,3.7-0.2c3.9-3.2,8.6-3.3,13.7-1.9c0-0.9-0.1-1.9,0.6-2.7c0.2,1.1,0.8,0.5,1.3,0.4c-0.2,0.9,0.1,1.9-0.1,2.8
		c0.9,0.3,1.8,0.6,2.7,0.9c0,0,0.1,0,0.1-0.1c0.8-1-1.2-1.6-1-2.1c0.4-0.9-0.7-1.2-0.5-1.9c1.8-1.6,2.8,1,4.3,0.7
		c-1.1,4.1-0.1,5.2,3.8,4.2c1,0.4,1.6-0.7,2.5-0.6c1.7-0.4,3.1,0.1,4.4,1.3c1.2-0.1,2.5,3.3,3.7,0c2-0.2,2-0.2,2-2.4
		c2.8-2.1,5.4,0.8,8.2,0.3c0.5-0.1-0.1,2.4,1.6,2.7c0.1,1,0.5,1.2,1.4,0.7c1.9-0.7,1.2-2,0.6-3.2c0.9-0.2,1.4-1.2,2.5-0.9
		c1.2,0,2.2,0.8,2.2,1.8c0.1,3.5,3.1,2.1,4.7,2.7c1.5,0.6,2.4-0.9,2.2-2.8c1.4,2,3.3,2.3,5.2,2.6c0,0.1,0,0.2,0,0.3
		c0.3,1.4,0.5,3.7,1.5,3.8c2.1,0.1,0.7-2.5,1.7-3.5c0.8,0,1.6,0.9,2.4-0.1c0.9,0.8,2,0.8,3.2,0.7c0.1,0.1,0.2,0.2,0.1,0.4
		c-0.2,1.5-0.3,2.9,1.1,3.9c0,0.3-0.1,0.6-0.2,0.8c3.1,0.6,6.1,1.6,8.9,2.7c0.1-1.2,1.1-2,2.3-2.9c-2.3,1-1.3-2.7-3.3-1.9
		c0.1-0.6,0.3-1.3,0.4-1.9c2.4-1.9,7.3-2.2,9.4-0.6c1.3,1.6,0.8-1.5,1.8-0.7l0,0c0.2,0.2,0.4,0.4,0.6,0.6c0.1,0.2,0.1,0.4,0.2,0.6
		c0.3,1.2,0.7-0.1,1,0c1.9-0.3,3.8-0.4,5.7-1c1.2-0.4,1.7,0.1,2.4,0.8c0,0,0,0,0,0.1c5.5,0,11.1-0.2,16.5,0.2
		c3.4,0.2,6.7,0.5,10.1,0.4c1,0,1.8,0.2,2.6,0.6c1,0.6,2,0.6,3.1,0.4c5.2,0.3,10.4,0,15.5,0.9c1.4,0.4,2.9,0.6,4.4,0.4
		c3.2,0.1,6.4,0.1,9.6,0.2c3.2,0.1,6.3,0.4,9.3,1.9c1.7,0.9,4-0.8,5.9,0.6c0.2,0.3,0.4,0.5,0.7,0.3c1.4,0.4,2.9,0.3,4.4,0
		c0.8,0,1.7,0.1,2.5,0.1c0.9-0.1,1.7,0.2,2.6-0.2c1.8-0.7,3.6-0.9,2.9,2.2c1.4-0.3,1.9-1.6,3.1-1.4c0.2,0,0.4,0,0.6,0
		c0.9,0.1,1.8,0.2,2.5,0.8c0.8,0.5,1-0.1,1.3-0.6c1.6,0,3.2-0.1,4.9-0.1c0.6,0.5,0.8,2,2,0.6c2.4,2,5,1.1,7.5,0.5
		c4.9-1.1,9.5,1.5,14.3,0.7c1.8,2.6,3.9,1.8,6.1,0.6c0.4-0.2,1.3-0.1,1.8,0.2c4.9,2.8,10.2,3,15.6,2.8c2.3-0.1,4.5,0.6,6.7,0.7
		c4.1-1.7,8-3.3,10.7-5c0,1.6,0.4,3.3,1.5,5c6.8-13.9,16.3-5.1,24.7,0.8c0.2,0,0.3,0,0.5,0c4.4-0.3,8.8-0.3,13.1-0.4
		c1.6-3.9-0.1-8.6-1.9-13.2c11.7,16.1,35.4-16.9,39.6-10.1c5.3,1,5.3,5.7,4.9,11.1c1.5,0.2,2.9,0.4,4.4,0.3c0.7,0,1.5-0.2,2.3-0.3
		c0.6-8.3-0.7-16.3,10.1-6.8c-2.2,1.6-6.2,2.8-4.8,5c0.8,0.4,1.6,1.2,2.4,2.5c2.9,0.4,5.8-0.3,8.7,0.3c2.8,0.6,5.9,0.9,8.7,0.3
		c2.2-0.5,4.3-1.6,6.7-1.9c1.9-0.2,2.8,0.2,3.8,1.3c0.2,0.7,0.6,0.5,1.1,0.4c1.4-0.1,2.7-0.1,4.1,0c0-0.1,0-0.3-0.1-0.4
		c0-1.5-0.1-2.9-0.1-4.4c0.3,0,0.6-0.1,1-0.1c0.5,0.3,0.5,0,0.6-0.4c0.1-0.2,0.2-0.5,0.3-0.7c1.5-1.9,1.3-3.1-1.4-3.1
		c-6,0-11.8-1.6-18-1c-2.8,0.2-6-0.8-9.1-1.6c-3.4-0.9-6.7-2.3-10.3-2.5c-1.8-0.1-3-1.1-4.1-2.3c-0.7-0.7,0.5-0.5,0.7-0.8
		c0.7,0.4,1.4,0.7,2.2,0.1c0.8-0.7-0.3-1.2-0.2-1.8c0.8-0.9,1-2.3,2.9-2.7c-1.7-0.6-2.9-1-4.7-1.7c1.9-0.7,3.1-1.1,4.5-1.2
		c2.1-0.1,4.1,0.4,5.6-2.1c0.7-1.1,3.7-0.9,5.1-0.1c2.4,1.4,4.9,0.5,7.3,0.8c5.2,0.7,10.5-0.3,15.8,0.7c2.8,0.5,5.8,0.8,8.7,1
		c5.5,0.4,10.9,0.9,16.4,1.3c1.3,0.1,2.3-0.3,3.4-0.3c4-0.2,7.9,1,11.9,0.9c0.5,0,1,0.2,1.4-0.2c0.4,0.1,0.7,0.2,1.1,0.3
		c1.3,0.6,2.9,0.6,3.9,0.2c2.6-1.1,4.4-0.3,6,1.8c0.4-0.1,1.2,0.7,1.3-0.4c0.3,0,0.5-0.1,0.8-0.1c0.8,0.6,1.2,0.6,1.1-0.5
		c1.2-0.6,2.1-0.5,2.4,1c-0.2,0.3-0.4,0.5-0.5,0.8c0.5,1.5,1.6,0.9,2.5,0.6c0.1,0.4-0.4,1.2,0.6,1.2c2.9-0.1,5.7,0.6,8.5,1.2
		c1,0.2,2.4,0.7,3.4-0.4c1,1.1,2.3,1,3.6,0.8c1.7,0,3.3,0.1,5,0.1c0.2,0,0.4,0,0.6,0c0.6,0,1.2-0.1,1.8-0.1c0.2,0,0.4,0,0.6,0
		c0.2,0.1,0.4,0.1,0.6,0.2c0.8,0.8,1.6,0.9,2.5,0.1c0.8,0,1.6,0,2.3-0.6c0.9-0.9,1.8-0.7,2.5,0.3c0,0,0,0,0,0l-0.1,0.2
		c0,0,0.1,0.1,0.1,0.1c1.2,1.1,2.6,0.3,3.9,0.4c3.5,0.1,7,0.7,10.4,0.2c0.7,0.9,1.4,0.8,2,0c0.8-0.1,1.4,0.9,2.4,0.4
		c0.9,0.2,1.7,0.1,2.5-0.2c0.6,0.5,1.2,0.5,1.9,0.2c0.4,0,0.8,0,1.2,0c3,0.3,5.9,0.6,8.9-0.1c1.2-0.3,2.8-0.4,3.9,0.1
		c4,1.9,7.9,0,11.9,0.2c0.5,0,2.1,0.1,0.6-1.4c-0.7-0.8,1.7-0.6,1.9-1.8c-1.7-1.8-3.9-2.4-6.1-1.2c-1.4,0.8-2-0.6-3-0.7
		c-5.3-0.6-10.5-1.8-15.7-2c-2.8-0.1-5.5-1.6-8.2-1c-5.2,1.1-10.2-0.8-15.4-0.8c-1.8,0-3.7-1.6-6-1.8c-5.1-0.3-10.1-1.6-15.2-1.6
		c-8.5-0.1-16.7-1.7-25-3.2c-0.6-0.1-1.2,0.3-1.7,0.4c-2.1,0.4-4.1-1.3-3.4-3.3c1.1-2.8-2-4.5-1.2-7.1c0.1-0.3-0.9-1.3-1.9-1.3
		c-0.7,0-1.5-0.4-1.4-1.3c0.2-0.9,1.1-1.1,1.9-1.1c5.7,0,11.3-0.2,17,0.2c3.4,0.2,6.7,0.5,10.1,0.4c1,0,1.8,0.2,2.6,0.6
		c1,0.6,2,0.6,3.1,0.4c5.2,0.3,10.4,0,15.5,0.9c1.4,0.4,2.9,0.6,4.4,0.4c3.2,0.1,6.4,0.1,9.6,0.2c3.2,0.1,6.3,0.4,9.3,1.9
		c1.7,0.9,4-0.8,5.9,0.6c0.2,0.3,0.4,0.5,0.7,0.3c1.4,0.4,2.9,0.3,4.4,0c0.8,0,1.7,0.1,2.5,0.1c0.9-0.1,1.7,0.2,2.6-0.2
		c1.8-0.7,3.6-0.9,2.9,2.2c1.4-0.3,1.9-1.6,3.1-1.4c0.2,0,0.4,0,0.6,0c0.9,0.1,1.8,0.2,2.5,0.8c0.8,0.5,1-0.1,1.3-0.6
		c1.6,0,3.2-0.1,4.9-0.1c0.6,0.5,0.8,2,2,0.6c2.4,2,5,1.1,7.5,0.5c4.9-1.1,9.5,1.5,14.3,0.7c1.8,2.6,3.9,1.8,6.1,0.6
		c0.4-0.2,1.3-0.1,1.8,0.2c4.9,2.8,10.2,3,15.6,2.8c3-0.1,5.8,1.2,8.8,0.4c0.4,0,0.8,0,1.3,0c0.6,0,1.2,0,1.8,0
		c0.6,0,1.3,0.1,1.9,0.1c4.2-0.2,8.4,0.7,12.7,0.4c4-0.2,8.2-0.1,12.2,0.6c2,0.4,3.6-0.1,5.4-0.2c6.1-0.4,12.3-0.3,18.4-0.6
		c2.7-0.1,5.8,0.9,8.2,2.4c1.1,0.6,1.8,0.7,2.7,0.3c0.2,0,0.5,0.1,0.7,0.1c0,0,0,0,0,0c0.2,0.8,0.7,0.5,1.2,0.4c0.4,0,0.8,0,1.2,0.1
		c0.2,0,0.4,0,0.7,0c0.6,0,1.2,0,1.8,0c0.2-0.1,0.5-0.2,0.7-0.4c4.6,0.1,9.1,1.5,13.8,0.1c0.9-0.3,1.2-0.5,1.8-1.2
		c1.4-1.5,3.6-2.6,5.7-1.9c1,0.3,1.9,0.5,2.8,0.4c1.4,3.3,2.2,3.6,4.5,2c0.7,0,0.7-0.5,0.7-1c0.4-0.8,1.6-0.6,1.8-1.5
		c0.6,0.2,0.4,0.8,0.7,1.2c-0.1,0.4,0,0.6,0.5,0.5c0.4,0,0.8,0,1.3-0.1c0.2-0.1,0.4-0.3,0.6-0.4c0.6,2,1.5,1.9,2.5,0.3
		c0.2,0.1,0.4,0.2,0.6,0.3c0,0.2,0.1,0.4,0.1,0.6c0,0.7,0.4,1.1,0.9,1.1c0.3,0,0.9-0.5,0.7-1.1c0-0.6,0-1.3,0.1-1.9
		c2.6,0.2,4,1.4,3,5.1c1.4-1.5,1.8-3.2,3.4-1.9c0.8-1,2.1-0.4,3.1-1c1.5-0.9,3.4-1.8,2.6-3.4c-0.8-1.6-3.8-2.7-5-1.6
		c-2.1,1.8-4.5,0.6-6.5,1.7c0.1-0.6,0.1-1.1-0.6-1.3c-0.4-0.4-0.6-1.2-1.4-0.9c-0.7,0.3-0.7,0.9-0.7,1.6c-0.7-0.5-1.5-1-2.2-1.5
		c-1.4-1.3-2.8-2.5-4.5-0.3c-4.3-0.4-8.2-2.5-12.6-2.5c-1.7,0-3.6-0.6-5,1.2c-0.8,1-2.2,0-2.7-0.6c-0.9-1.2-1.8-0.7-2.7-0.6
		c-0.2-0.2-0.4-0.5-0.5-0.7c-0.1-0.3-0.2-0.5-0.3-0.8c-0.1,0.1-0.2,0.2-0.4,0.4c-0.4,0-0.9,0-1.3,0c-0.5-0.2-1.2,0-1.5-0.8
		c-0.5-1.5-1.6,0.3-2.2-0.4c-1.1-1.5-0.1-4.1-2.7-4.9c4.6-0.6,8.8-1.4,13.6-0.7c4,0.6,8,2.1,12.4,1.8c2.4-0.1,5.3-1.2,7.1-0.4
		c3.9,1.6,7.7,0.2,11.5,1.1c2.8,0.6,5.9,0.9,8.7,0.3c2.2-0.5,4.3-1.6,6.7-1.9c1.9-0.2,2.8,0.2,3.8,1.3c0.2,0.7,0.6,0.5,1.1,0.4
		c3.7-0.4,7.5,0.8,11.3-0.3c0.3-0.1,0.7,0.3,1.1,0.4c0.5,0.3,1,0.4,1.4-0.2c1.3-0.7,3.1,1.5,4.2-0.5c0.4,0,0.8,0,1.3,0
		c0.4,0,0.8,0,1.2,0c0.8,0,1.7,0.1,2.5,0.1c7.3,1.3,14.7,1.2,21.9,0.5c2.5-0.2,5.2-1.3,8-1.7c5.4-0.7,10.6,1,15.9,0.6
		c0.6,0,1.2,0.1,1.8,0c1.4-0.4,2.6-1.6,4.4,0c1,0.9,3.9-0.5,5.3-1.3c3.3-1.8,6,0.4,9,0.3c2.8-0.2,5.4,0.7,8.3,0.4
		c5.6-0.6,11.2-1.9,16.9-1.1c0.8,0.1,1.9,0,2.1,0.8c0.3,1-1,0.7-1.3,1.1c-0.6,0.7,0.4,0.9,0.8,1.1c0.6,0.6,1.3,1.6,2.1,1.4
		c2-0.5,1.3,1.2,1.8,1.9c-0.8,2.8-3.4,1.6-5,1.8c-1,0.1-2.2,0-3.3,0.3c-0.9,0.2-1.9,0.5-3-0.6c-1.2-1.2-3.2-1.5-4.6-2.4
		c-0.8-0.5-1.3,0-1.4,0.4c-0.5,2.7-2.5,2.1-4.3,2.2c-5.7,0.4-11.4,0.3-17,1.3c-2.9,0.5-5.5,1.4-8.3,0.1c-0.2-0.1-0.8,0.1-0.8,0.2
		c-0.5,3.7-3.2,2.1-5.2,2.2c-0.3-0.4,0-2-1.2-0.6c-0.5,0.1-0.9,0.2-1.4,0.4c-0.2,0.1-0.4,0.1-0.6,0.2c-0.4,0.1-0.8,0.2-1.2,0.3
		c-0.2,0.1-0.5,0.2-0.7,0.3c-0.3-0.4-0.5-0.8-0.8-1.2c-0.3-0.8-0.6-0.7-0.8,0c-0.1,0.5-0.1,1-0.2,1.5c-0.9,0-1.2-0.5-1.2-1.3
		c0-0.6-0.6-1.8-1-1c-0.5,1.1-2.7-1.1-2,1.2c0.2,0.8-0.6,1-0.7,1.5l0,0c-1,0-0.2-1.8-1.3-1.5c-1,0.3-0.6,1.3-0.7,2.1
		c-0.5,0.3-0.8,0.8-1.5,0.7c0.1,0.6,0.2,1.2,0.4,1.7c0-0.8,0.5-0.8,1.2-0.5c0.1,0.6-0.5,1.7,0.5,1.7c1,0,0.6-1,0.6-1.7
		c0,0,0-0.1,0-0.1c0.5-0.2,0.9-0.4,1.3,0.2c-0.1,0.2-0.1,0.4,0,0.5c0,0.1-0.1,0.4-0.1,0.4c0.4,0.2,0.7,0.1,0.8-0.3
		c0.6-0.1,1.2-0.1,1.8-0.2c0.4,0.1,0.5-0.2,0.6-0.5c2,1.3,4.1,1.8,6.3,0.9c0.2-0.1,0.4-0.2,0.5-0.2c0.2-0.1,0.4-0.1,0.7-0.2
		c0.2,0,0.4-0.1,0.6-0.1c5.7,1.3,11.4,0.3,17.1,0.2c8.1-0.2,16.2-2.4,24.3-1.6c2.5,0.2,5.1-1,7.4,0.4c-0.2,1-0.4,1.9-0.6,3.3
		c2.3-1.3,4.7-0.3,6.5-1.9c0,0,0,0,0,0l0.1,0c0,0,0,0,0,0c0.9,0.8,1.6,0.9,1.6-0.6l0.1,0.1c0.2,0.6,0.8,0.5,1.3,0.6
		c0.6,0.8,1.4,0,2,0.3c0.3,0.3,0.5,0.6,0.8,0.9c0,0.8,0.3,0.6,0.7,0.3c0.2,0,0.5,0,0.7-0.1c0.4,0.3,0.8,0.5,1.3,0.2
		c-0.2-0.1-0.4-0.2-0.5-0.4c1.6-0.8,3-1.8,4.7-2.3c1.2-0.3,1.3,0.4,1.7,1.1c0,0.6,0.1,1,0.8,1.2c0.1,0.4,0.2,0.8,0.3,1.2
		c-1.3,0-1.5,1.3-2.3,1.9c-0.2-0.1-0.4-0.3-0.6-0.4c-0.1-0.4-0.1-0.7-0.2-1.1c-1.1,0.2-1.4,1.1-1.7,2c-0.4,0-0.8,0.1-1.2,0.1
		l-0.1-0.1l-0.2,0.1c-0.4-0.5-0.8-0.7-1.1,0.1c-0.4,0.4-0.7,0.8-1.1,1.3c-1.9,0.1-3.5,1.5-5.5,1.3c-3.2-0.1-1.5,2.4-1.9,3.7
		c-2.6,0.9-5.2,2.4-8.1,0.6c-0.2-0.1-0.7-0.1-0.9,0.1c-2,2.1-4.2,1-6.4,0.6c-0.8-0.1-1.9,0.5-1.1,1.8c0.5,0.7,0.2,1.1-0.3,1.5
		c-0.5,0.5-1.5-1-1.8,0.4l0,0c-0.2,0-0.4,0-0.6,0c-0.2-0.1-0.3-0.1-0.5-0.2c-1.2-0.7,0.3-2-1-2.9c-0.6,1.1-3.1-0.2-2.9,2.3
		c-0.3,0.2-0.6,0-0.9-0.2c0.8,1,1.6,2.4,2.6,3.9c1.5,0.2,3-0.1,4.5-0.2c0.5,0.1,0.9,0,1.2-0.4c0.8-0.2,1.7-1,2.5-0.2
		c1.4,1.4,2.6,1.5,3.9-0.2c0.4-0.5,1.2-0.3,1.7,0.6c1,2,2.8,2.4,5,2.4c7.1-0.1,14.2-0.1,21.3-0.1c0.5,0,1.3,0.1,1.5-0.2
		c1.7-2.9,4.5-1.4,6.3-0.9c2.6,0.8,3.7-0.1,4.5-2.3c1.2,2.2,1.3,2.2,2.8,0.8c0.5-0.5,1.2-0.3,1.2-0.1c0.2,2.8,2.9,1.6,3.3,1.3
		c2.1-1.9,3.9-0.8,5.8,0.1c-0.1,0.4,0.1,1.2-0.7,1c-1.7-0.4-1.4,0.6-1.2,1.6c-0.5,1-0.8,2.3-2.4,1.8c0.1-0.6,0.1-1.2,0.2-1.9
		c-1.6,1.2-2.5,2.5-2,4.4c-1.7,2.1-4.1,1.6-6.3,1.9c0.1-1.4,1.1-2.7,0.3-4.3c-1.6,1.1-4.2,1-3.4,4.1c-0.9,0.6-1.8,1.4-2.8,0.2
		c-0.3,0.1-0.6,0.2-0.9,0.3c-0.8-0.3-1.6-0.6-2.5-0.9l0,0c-0.4-1.1-0.7-0.4-1.1,0l-0.1,0.1c-0.2,0.2-0.3,0.4-0.5,0.5
		c0,0-0.2,0.1-0.2,0.1c-0.2,0-0.5-0.1-0.7-0.1l0,0c-0.5-0.6,1.1-2.1-0.9-2c-2.1,0.2,0.1,1.5-0.5,2c-1.8,2.1-6.7,3.2-9.1,2
		c-0.6-0.3-1.3-0.6-1.7,0c-1.7,2.5-4,2.3-6.6,1.8c-1.9-0.3-4,0.6-5.7,1.2c-1.6,0.5-3.2,0.9-4.9,1.1c0.1,0.2,0.3,0.3,0.4,0.5
		c0.6,0,1.3,0,1.7,0.1c-0.3,0.3-0.6,0.6-1,0.6c3,2.7,6,4.1,10.1,0.1c4.2,4.5,8.7,5.1,13.2,4c4.5-1.1,9.1-4.1,13.7-6.8
		c5.9-3.5,11.8-6.6,17.8-5.3V59.4V44V0H0z"/>
	<path class="st0" d="M149.5,88.8c-0.5,0.2-0.7,1.3-1,2c1.6,0.7,3.1,0.7,5.4-0.3C151.8,90.3,151.4,88,149.5,88.8z"/>
	<path class="st0" d="M926.7,100.5c-0.7,0.2-2.4,0-1.8,1.3c0.5,1.3,1.2,3.4,3.2,2.9c1-0.2,2-0.2,2.9-0.1c0.7-1.6,1.5-3,2.3-4.3
		c-0.1-0.3-0.2-0.6-0.5-0.9c-0.6,1.2-0.8,2.8-2.5,2.2c-0.2-0.1-1.1-0.2-1.1,0.6c0,0.4,0.5,1.1-0.5,1c-0.6-0.1-0.5-0.6-0.5-1
		C928.4,101.1,928.3,100,926.7,100.5z"/>
	<path class="st0" d="M965.2,95c-0.2-0.8-1-0.8-1.5-0.7c-0.7,0.1-0.7,0.9-0.5,1.5c0.4,1,0.8,2,1.2,3.3
		C966.7,97.8,965.5,96.3,965.2,95z"/>
	<path class="st0" d="M975.9,107.4c0-0.5-0.1-0.9-0.8-1.1c-0.7-0.2-1.1,0.4-1,0.9c0,0.3,0,0.5,0,0.7
		C974.6,107.7,975.2,107.6,975.9,107.4z"/>
	<path class="st0" d="M899.9,115.1c1.2-1.4-1.1-1.4-0.9-2.4c-0.6,0.7-2.1-0.5-2.2,1.1c-0.4-0.7-0.6-1.7-1.1-1.9
		c-1.2-0.3-0.6,1.3-1.3,1.6c-0.2,0.1-0.4,0.2-0.7,0.3c-2.2-0.6-3.2-3-5.4-3.7c-0.1,0-0.2-0.3-0.3-0.5c-2.3,1.4-4.7-0.8-7,0.2
		c-1.7,0.7-2.4-0.8-3.7-1c-0.3-0.5-0.5-0.5-0.7,0c-0.1,0.2-0.3,0.4-0.4,0.6c-1.4,0.4-1.8-1.5-3.1-1.2c-0.7,0.2-1.3,0.4-1.9,1.2
		c-1.3,1.6-0.1,3.6-1.2,5c-0.2-1.1-0.8-0.5-1.3-0.4c0.2-1.3-0.4-2.7,0.6-4c-1.4-0.1-2.7-0.5-3.3,0.3c-0.8,1,1.2,1.6,1,2.1
		c-0.4,0.9,0.7,1.2,0.5,1.9c-1.8,1.6-2.8-1-4.3-0.7c1.1-4.1,0.1-5.2-3.8-4.2c-1-0.4-1.6,0.7-2.5,0.6c-1.1,0.3-2.1,0.2-2.9-0.2
		c-2,0.4-3.9,0.5-5.9-0.4c-0.2-0.1-0.8,0.1-0.8,0.2c-0.1,0.6-0.2,1-0.4,1.3c0,0.1,0,0.2,0,0.3c-0.1,0.1-0.2,0.1-0.3,0.2
		c-1,1.2-3,0.3-4.5,0.4c-0.1-0.1-0.1-0.3-0.2-0.5c-0.3-0.1-0.6-0.2-0.9-0.3c0,0-0.1,0.1-0.1,0.1c-0.5,0.1-0.9,0.2-1.4,0.4
		c-0.2,0.1-0.4,0.1-0.6,0.2c-0.4,0.1-0.8,0.2-1.2,0.3c-0.2,0.1-0.5,0.2-0.7,0.3c-0.3-0.4-0.5-0.8-0.8-1.2c-0.3-0.8-0.6-0.7-0.8,0
		c-0.1,0.5-0.1,1-0.2,1.5c-0.9,0-1.2-0.5-1.2-1.3c0,0,0,0,0-0.1c-0.4,0.2-0.8,0.4-1.3,0.3c-0.8,0-1.4-0.4-1.8-0.8
		c0,0.2,0,0.4,0.1,0.8c0.2,0.8-0.6,1-0.7,1.5c0,0,0,0,0,0c-1,0-0.2-1.8-1.3-1.5c-1,0.3-0.6,1.3-0.7,2.1c-0.5,0.3-0.8,0.8-1.5,0.7
		c0.1,0.6,0.2,1.2,0.4,1.7c0-0.8,0.5-0.8,1.2-0.5c0.1,0.6-0.5,1.7,0.5,1.7c1,0,0.6-1,0.6-1.7c0,0,0-0.1,0-0.1
		c0.5-0.2,0.9-0.4,1.3,0.2c-0.1,0.2-0.1,0.4,0,0.5c0,0.1-0.1,0.4-0.1,0.4c0.4,0.2,0.7,0.1,0.8-0.3c0.6-0.1,1.2-0.1,1.8-0.2
		c0.4,0.1,0.5-0.2,0.6-0.5c2,1.3,4.1,1.8,6.3,0.9c0.2-0.1,0.4-0.2,0.5-0.2c0.2-0.1,0.4-0.1,0.7-0.2c0.2,0,0.4-0.1,0.6-0.1
		c5.7,1.3,11.4,0.3,17.1,0.2c8.1-0.2,16.2-2.4,24.3-1.6c2.5,0.2,5.1-1,7.4,0.4c-0.2,1-0.4,1.9-0.6,3.3c2.3-1.3,4.7-0.3,6.5-1.9
		c0,0,0,0,0,0l0.1,0c0,0,0,0,0,0c0.9,0.8,1.6,0.9,1.6-0.6l0.1,0.1c0.2,0.6,0.8,0.5,1.3,0.6c0.1,0.1,0.2,0.2,0.3,0.3
		C900.1,116.1,900,115.6,899.9,115.1z"/>
	<path class="st0" d="M944.5,102.4c0.5-0.4,0.9-0.8,1.3-1.2C945,101.3,944.6,101.7,944.5,102.4z"/>
	<path class="st0" d="M991.2,123.5c1,0.8,1.8,1.2,2.4,0.9C992.7,124,992,123.7,991.2,123.5z"/>
	<path class="st0" d="M946.8,101.1c0.1,0.7,0,1.4-0.2,2c0.4-0.6,0.7-1.2,0.6-2C947.1,101.2,946.9,101.2,946.8,101.1z"/>
	<path class="st0" d="M976.4,109.1c-0.1,0-0.1-0.1-0.2-0.1c-0.1,0.3-0.3,0.5-0.3,0.7C976.5,109.9,976.4,109.1,976.4,109.1z"/>
</g>
</svg>
