<?xml version="1.0" encoding="utf-8"?>
<!-- Generator: Adobe Illustrator 26.0.2, SVG Export Plug-In . SVG Version: 6.00 Build 0)  -->
<svg version="1.1" id="Layer_1" xmlns="http://www.w3.org/2000/svg" xmlns:xlink="http://www.w3.org/1999/xlink" x="0px" y="0px"
	 viewBox="0 0 1280 150" style="enable-background:new 0 0 1280 150;" xml:space="preserve">
<style type="text/css">
	.st0{fill:url(#SVGID_1_);}
</style>
<linearGradient id="SVGID_1_" gradientUnits="userSpaceOnUse" x1="640.05" y1="670.8" x2="640.05" y2="545.4" gradientTransform="matrix(1 0 0 1 0 -545.4)">
	<stop  offset="0" style="stop-color:#BCBCBC"/>
	<stop  offset="1" style="stop-color:#D1E8EE"/>
</linearGradient>
<path class="st0" d="M1280,84.3V0H0v100.5c2-0.1,3.6-0.5,5.2-0.8c4.3-1,8.7-2.3,19.7-1.3l-0.8-0.6c4.4,2.4,10.3,3.6,16.3,3.3
	c-5.6-2.9,10.3-5.6,3-8.8c21.8,4.8,10.8,3.8,25.4,13l3.2-4.1c5,3.7,5.4,5.7,16.4,6.7c-9.1-3.5,6.8-6.3-3.4-10.9
	c22.7-9.1,34.4,8.9,44.4-4.3c10.9,11.2-19.7,6.3-13.7,8.7c-4.8,3.7,9,8.5,16.2,7.3c7.4-0.3,12.1-14.5,30.5-14.3
	c-1.8,0-2-0.9-3.8-0.8c6.8-2.9,13.7,3.9,22-0.8c5,6.8,11-0.4,12.7,8.3l-17-1.9c9.6,2.2,19.1,12.4,34.7,7.4c-1.3-1.7-6.1-4-9.4-5.3
	c-0.2,0.1-0.5,0.2-0.8,0.4c-4-1.9-2.3-1.6,0.8-0.4c4.6-2.6,9,1.7,13.7-1c-1.7-8.7-20.7-1.8-31.2-8.4c4.8-3.7,19.7,6.2,14.1-3.2
	c7.9,11.9,18.1-1.6,31,7.5l-1.1-5.2c2.1,0.8,6.3,3.3,9.9,3.1l-6.9-6.8c10.4,5.8,19.3-5.1,29.1-2c-20.3,0-4.3,6.4-12.7,10.2
	c25,6.7,14-13.3,40.7-11.5c0.4,0,0.8,0,1.1,0.1c-0.3,0-0.7-0.1-1.1-0.1c-4.4,0.1-12.4,3.5-6.9,5.7c5.2-1.1,12.2-3.1,15.3-5.9
	c18.6,1-2.6,5.3,5.5,8.5c5.9-6.5,9.2,2.5,17.5,4.5l-0.2-5.3c21-3.5,6.3,11.1,25.1,6.9L336,91l9.8,1.8l-2.4-6
	c11,4.4,14.3,3.3,24.8,1.5c-2.2,3.8,2,9.7,11.4,9.8c6.2-3.1-3.9-5,9.4-4.3c-3.2-3.3-6.7-7.4-12.2-2.5c-0.7-1.7-3.2-3.3-3.9-5
	c6.6-3.7,17.2-0.9,22-0.9c-1.8,0.2-4,0.5-5.1,1.3l19.8,7.3c2.9-2,0.4-3.6-2.1-5.2c4,0.6,6.8,3,12.6,3.4c-1.8-4.4-1.7-8.8-10-10.8
	l18.7,4.7c1.1-1.9,9-5.2,6.5-6.8c10-2.6,25.6,8.2,38.8,4.8c-0.2-0.2-0.4-0.6-0.5-0.9l-5.2-4.8c7.5,0,4.4,2.5,5.2,4.8l1,0.9
	c-0.1,0.1-0.3,0.1-0.4,0.1c0.8,0.9,2.3,1.7,5.2,2.3c12.6-1.1,23.4-6.5,38.9-0.7l7.8-7.8c11.9,1.6-10.6,9.8,9.2,12.6
	c14.1,2.3,4.5-6.7,9.2-8.9c7.2,3.9,20,11.7,32.1,5.3c-4.3-1.5-7.5-0.3-11.5-0.8l9.3-4.3c-12.4-6.9-20.6-4.4-12.1-10.5
	c2.8,14.9,37.7,1.2,40.6,16.1l6.1-3.2c-1.8,0.2-2.2-0.8-4-0.6c11.7-7.3,10.4,10.7,26.2,8.4c5.4-1.3,9.1-3.4,5.1-5.2l-4.2-1.2
	c1.9,0.4,3.2,0.8,4.2,1.2l12.9,3.6c2.9-0.2,2.7-2,0.6-2.5l-1.7-0.1c0.6-0.1,1.2,0,1.7,0.1l17.5,1l-0.2-0.4c-1.5-1.2-2.2-2.1-1-2.2
	l1,2.2c3,2.3,9.5,5.9,12.7,7.4c4.6-2.1-2.6-1.6-1.6-3.4l10.9,3.5c3.9-3.9-5.3-7.5-12.5-6.9c8.2-15.1,9.2,3.6,29.4-5.3l-10.2-1.8
	c5.4-8.6,13.5-5.6,24.2-11c-2.3,2.7-21,13.5-9.1,17.1c3.1-1.1,7.3-1.7,13.8,1.2c-0.6-5.3,5.6-4.1,13.2-3.8l-1.3-7
	c8.4,2,8.1,5.6,13.3,8.7c9-0.8,10.3-6.3,11.9-10.9c14.4-1.3-9.1,8.8,8.3,10c11.9-2.9,20.7-0.1,35.7,4c8.2-2.6-2-4.4,0.8-6.4l8.2,5.5
	c1.8-0.2,1-2,0.6-2.8c6.6,2.2,1.3,7.1,11.5,8.9c3.6,7.7,19.3-11.5,32.6-2.8c2.8-2-1.9-4.2-1.3-7c17.6,5.6,15,4,29.7,11.7l11.4-4.8
	c1.6-1.1,4.1-2.2,7.6-3.2l-7.6,3.2c-8.2,5.4,3.6,11.6,13.8,16.6c0.5-0.5,1.1-1,1.6-1.5c-4.2-4.1-8.3-8.9-7.9-13
	c-1.2-0.9-1.4-1.9,0.9-2.9c-0.7,0.9-0.8,1.9-0.9,2.9c1.1,0.7,3.1,1.5,5.3,1.8c-1.2-1.1-1.9-2.2-1.5-2.9c0.5-0.7,2.3,0.8,5,2.6
	l2.8-7.9l1.2,3.1l20-5.1c15.3,7.8,29,19.3,52.3,22.4c-6.2-5.7-2-9.3-2.8-16.2c-5.7,7.3-18.2-3-30.1-1.4c6.2-0.9,4.6-4.1,2.9-5.2
	l22,6.4c-0.9-5.5,4.3-4.2,9.7-6.5c-1.7,5.5,2.4,7.4,8.1,8.2s12.9,0.7,17.4,2.4c0.2-3.7-2.1-7.4-12.7-6.5c11.2-8.3,16,12.9,27.1,5.8
	c-2.6,0-4,0.5-5.1-1.3c6.3,3.2,21,0.5,17.3-2.7l-2.6-0.1c8.6-0.7,21.7-0.8,33.1,0.5s21,3.9,22.4,8.6c0.1-1.2-2.7-11.3-3.8-13.2
	c10.7,10.4,21.2,21,31.6,31.4c-2.9-8,7.2-27.2-7.3-31.7c-0.2,0.1-0.4,0.1-0.6,0.2l-4.3,13.8l-9.7-17.7c6.1,5.9,9.5,5.2,14,3.9
	l0.1-0.4c0.2,0.1,0.3,0.2,0.5,0.3c4.1-1.2,9.2-2.5,18,0.3c-2.8,1.2-6.8,11.6-3,12.4c10.2-8.8,7.3-4.9,19.6-12.1
	c0.1-0.1,0.3-0.2,0.5-0.3c-0.1,0.1-0.3,0.2-0.5,0.3c-3.2,2.6,1.4,14,7.7,13.6c-1-1.7,0.5-11.6-1.6-13.5c-0.1,0-0.2-0.1-0.3-0.2
	c0.1,0,0.2,0.1,0.3,0.2c5.2,3.8,10.4,7.8,15.5,11.6c-2.8-2.9,0.4-10.1,3.9-13.4c-1.8,2.4,14.4-0.3,18.8,1l-7.1,2.8
	c9.4-1,13.9,3.3,18.4,7.9s8.9,9.2,18.1,8.9c-2.1-2.6-4.9-15.8,4.6-17.3c2,3.2,6.5,10.9,12.4,18.3c5.8,7.4,13.1,14.7,21,17.2l3.3-3.6
	l11.4,3.9v-0.6c-3.6-4.8-10.1-11.8-17.1-18.6c-3.8-3.7-7.7-7.2-11.4-10.4s-7.2-6-10.1-7.9c7.2-2.8,2.1-4.2,12.7-3.9
	c3.9-3.3-5.5-5.1-8.6-5.3c8.3-0.8,16.6-1.4,24.9-2.1C1269.6,80.6,1275.1,82.4,1280,84.3z M548.3,73.1c-0.9,0.1-1.8,0.1-2.7,0
	c-6.1,0.7-9,6.4-8.8-0.8c2.7-0.2,5.9,0.5,8.8,0.8C546.5,73.1,547.5,73.1,548.3,73.1z M627.6,79.7l-2.7,6.5l0.9-6.4L627.6,79.7z
	 M731.3,75.3c-1,1.8-2.8,2-6.4,2.3l5.6-4.1L731.3,75.3z M1218.9,88c1.1,0.5,2.4,1,3.7,1.8C1220.5,89,1219.5,88.5,1218.9,88
	c-7.4-2.8-11.3-1.2-7.7-8.6c12.5-2.7,2.7,6.9,14,3.6C1228,85.6,1216,85.7,1218.9,88z"/>
</svg>
