<?xml version="1.0" encoding="utf-8"?>
<!-- Generator: Adobe Illustrator 26.0.2, SVG Export Plug-In . SVG Version: 6.00 Build 0)  -->
<svg version="1.1" id="Layer_1" xmlns="http://www.w3.org/2000/svg" xmlns:xlink="http://www.w3.org/1999/xlink" x="0px" y="0px"
	 viewBox="0 0 1280 150" style="enable-background:new 0 0 1280 150;" xml:space="preserve">
<style type="text/css">
	.st0{fill:url(#SVGID_1_);}
	.st1{fill:url(#SVGID_00000050659575263641772060000018427692191564739981_);}
	.st2{fill:url(#SVGID_00000129207304927357948240000010484386329529240235_);}
	.st3{fill:url(#SVGID_00000133525050507244163460000001024951240874118318_);}
	.st4{fill:url(#SVGID_00000175322037332016762390000007378241163590291900_);}
	.st5{fill:url(#SVGID_00000088824832223408807370000005591429257591414719_);}
	.st6{fill:url(#SVGID_00000069355753952949081530000006140467413667373734_);}
	.st7{fill:url(#SVGID_00000170281054086764448000000002295240667107726735_);}
	.st8{fill:url(#SVGID_00000034055805917997104850000004031126010742910369_);}
	.st9{fill:url(#SVGID_00000106122183852049549230000000024770745809335709_);}
	.st10{fill:url(#SVGID_00000139998372741263934840000005421452866875979174_);}
	.st11{fill:url(#SVGID_00000054254126035236787000000012016634346232848788_);}
	.st12{fill:url(#SVGID_00000070111628190940670460000011317191886324935553_);}
	.st13{fill:url(#SVGID_00000119080602397663823210000006008195559196670364_);}
	.st14{fill:url(#SVGID_00000078024545715269407030000000560701538193850010_);}
	.st15{fill:url(#SVGID_00000122687582349024892730000007821612345465098171_);}
	.st16{fill:url(#SVGID_00000159471194700040974090000006374517250200875698_);}
	.st17{fill:url(#SVGID_00000176016851351550129910000013781649773718937484_);}
	.st18{fill:url(#SVGID_00000109013102800810942690000005339406198357515448_);}
	.st19{fill:url(#SVGID_00000042720243959476029670000009749631050732336272_);}
	.st20{fill:url(#SVGID_00000021117733660869421800000010580983833352351917_);}
	.st21{fill:url(#SVGID_00000133498965488990009860000006692486366102945715_);}
</style>
<g>
	
		<linearGradient id="SVGID_1_" gradientUnits="userSpaceOnUse" x1="1164.5" y1="110.2105" x2="1164.5" y2="109.7565" gradientTransform="matrix(1 0 0 1 0 3.662109e-02)">
		<stop  offset="0" style="stop-color:#FFC180"/>
		<stop  offset="1" style="stop-color:#4C7515"/>
	</linearGradient>
	<path class="st0" d="M1164.4,109.7c0.1,0,0.1,0.2,0.2,0.2c-0.1,0.2-0.1,0.2-0.2,0.3C1164.4,110,1164.4,109.9,1164.4,109.7z"/>
	
		<linearGradient id="SVGID_00000141449515165599209390000016961689919002310028_" gradientUnits="userSpaceOnUse" x1="1007.7" y1="110.0591" x2="1007.7" y2="108.8483" gradientTransform="matrix(1 0 0 1 0 3.662109e-02)">
		<stop  offset="0" style="stop-color:#FFC180"/>
		<stop  offset="1" style="stop-color:#4C7515"/>
	</linearGradient>
	<path style="fill:url(#SVGID_00000141449515165599209390000016961689919002310028_);" d="M1008.3,108.8c0,0.5,0,0.8,0,1.2
		c-0.4-0.2-0.7-0.2-1.2-0.3C1007.4,109.6,1007.8,109.4,1008.3,108.8z"/>
	
		<linearGradient id="SVGID_00000159436076574839694580000007141985729344829848_" gradientUnits="userSpaceOnUse" x1="1085.05" y1="112.6323" x2="1085.05" y2="104.2078" gradientTransform="matrix(1 0 0 1 0 3.662109e-02)">
		<stop  offset="0" style="stop-color:#FFC180"/>
		<stop  offset="1" style="stop-color:#4C7515"/>
	</linearGradient>
	<path style="fill:url(#SVGID_00000159436076574839694580000007141985729344829848_);" d="M1081.4,110.3c0-0.2-0.1-0.3-0.1-0.5
		c1.7-0.9,2.7-3,3.1-5.4c0.7,0.8,1.5,1.5,2.2,2.3c0-1.1,0-2,0.7-2.4c0.8-0.5,1,0.8,1.4,1.4c0,0.2,0.1,0.2,0.1,0.2
		c-1.2,2.6-2.6,5-4,6.8c-0.4-0.2-0.7-0.9-1-2.3c-0.2,0.2-0.4,0.5-0.6,0.6c-0.5,0.2-0.9,0.2-1.3,0.2
		C1081.4,111.3,1081.3,110.9,1081.4,110.3z"/>
	
		<linearGradient id="SVGID_00000106121821147629448530000014451312989561239183_" gradientUnits="userSpaceOnUse" x1="411.05" y1="146.0472" x2="411.05" y2="145.1322" gradientTransform="matrix(1 0 0 1 0 3.662109e-02)">
		<stop  offset="0" style="stop-color:#FFC180"/>
		<stop  offset="1" style="stop-color:#4C7515"/>
	</linearGradient>
	<path style="fill:url(#SVGID_00000106121821147629448530000014451312989561239183_);" d="M411.9,145.2h0.1l-1.9,0.9
		C410.8,145.8,411.4,145.5,411.9,145.2z"/>
	
		<linearGradient id="SVGID_00000072272359763876041040000013244206352932033708_" gradientUnits="userSpaceOnUse" x1="1078.1501" y1="112.481" x2="1078.1501" y2="110.6646" gradientTransform="matrix(1 0 0 1 0 3.662109e-02)">
		<stop  offset="0" style="stop-color:#FFC180"/>
		<stop  offset="1" style="stop-color:#4C7515"/>
	</linearGradient>
	<path style="fill:url(#SVGID_00000072272359763876041040000013244206352932033708_);" d="M1078.3,112.3c-0.1,0-0.1,0.2-0.2,0.2
		c-0.3-0.5-0.5-1.1-0.7-1.8c0.5,0,1.1,0,1.5,0.2C1078.9,111.6,1078.9,112.3,1078.3,112.3z"/>
	
		<linearGradient id="SVGID_00000001665155603424698240000006726766244734121150_" gradientUnits="userSpaceOnUse" x1="186.05" y1="127.5704" x2="186.05" y2="124.1717" gradientTransform="matrix(1 0 0 1 0 3.662109e-02)">
		<stop  offset="0" style="stop-color:#FFC180"/>
		<stop  offset="1" style="stop-color:#4C7515"/>
	</linearGradient>
	<path style="fill:url(#SVGID_00000001665155603424698240000006726766244734121150_);" d="M184.7,126.4c0.8-0.9,1.7-1.7,2.7-2.3
		c-0.2,0.3-0.5,0.6-0.7,0.9c-0.1,0.3-0.3,0.6-0.5,0.9c-0.2,0.6,0,2.4-0.8,1.2C185.1,126.8,184.9,126.5,184.7,126.4z"/>
	
		<linearGradient id="SVGID_00000023995534754251189610000007809730541832349885_" gradientUnits="userSpaceOnUse" x1="378.15" y1="132.2295" x2="378.15" y2="128.0351" gradientTransform="matrix(1 0 0 1 0 3.662109e-02)">
		<stop  offset="0" style="stop-color:#FFC180"/>
		<stop  offset="1" style="stop-color:#4C7515"/>
	</linearGradient>
	<path style="fill:url(#SVGID_00000023995534754251189610000007809730541832349885_);" d="M380.6,131.8c-1.2,0.5-2.7,0.6-3.8-0.2
		c-0.4-0.3-0.7-0.5-1.1-0.6c0.4-1.1,0.9-2,1.1-3C378.2,130.3,379.4,131.5,380.6,131.8z"/>
	
		<linearGradient id="SVGID_00000060012604458219653180000014399460862715404163_" gradientUnits="userSpaceOnUse" x1="255.1278" y1="118.3295" x2="255.1278" y2="116.5167" gradientTransform="matrix(1 0 0 1 0 3.662109e-02)">
		<stop  offset="0" style="stop-color:#FFC180"/>
		<stop  offset="1" style="stop-color:#4C7515"/>
	</linearGradient>
	<path style="fill:url(#SVGID_00000060012604458219653180000014399460862715404163_);" d="M257.5,117.8c-1.4,0-3,0-4.7,0.5
		c-0.1,0.2,0,0.2,0,0C254.1,116.1,255.6,115.9,257.5,117.8z"/>
	
		<linearGradient id="SVGID_00000169531824023869232160000010950333775022587022_" gradientUnits="userSpaceOnUse" x1="219.15" y1="128.9241" x2="219.15" y2="116.5768" gradientTransform="matrix(1 0 0 1 0 3.662109e-02)">
		<stop  offset="0" style="stop-color:#FFC180"/>
		<stop  offset="1" style="stop-color:#4C7515"/>
	</linearGradient>
	<path style="fill:url(#SVGID_00000169531824023869232160000010950333775022587022_);" d="M187.4,124.1c8.6-5.6,20.4-1.2,25.5-6.5
		c0.8,0,1.5,0,2.2-0.2c3.2-0.6,6.5,2.3,9.6-0.9c1.5,3.8,3.7,0.6,5.5,1.2c6.6,2.6,13.3,0.8,19.9,1.1c0.3,0,0.5,0,0.8,0
		c-1.1,0.3-2.2,0.8-3.4,1.4c1,0.8,1.6,1.7,2,2.6c-2.2-0.3-4.5-0.2-6.7,1.1c-0.3,1.1-0.6,0.9-0.8,0c-1.6,0.2-3.2,0.2-4.8,0.3l0.8-1.4
		c-1.5-0.2-3.2,0.6-4.7,1.7c-1.6,0.2-3.2,0.2-4.8,0.3l0.7-5.6c-12,15.4-21.6-4.8-29.3,9.8c0-0.2,0-0.2,0-0.3
		c-0.2-0.2-0.3-0.2-0.5-0.3c0.9-5.9-4.1-2.1-8.9-0.5c-0.1-0.2-0.1-0.2-0.2-0.3c-0.1,0-0.2-0.2-0.2-0.3c0-0.2,0.1-0.5,0.1-0.8
		c-0.5-1.5-1.5-1.8-2.4-2.4C187.7,124.3,187.5,124.3,187.4,124.1z"/>
	
		<linearGradient id="SVGID_00000151537449843350769570000001918518878588848536_" gradientUnits="userSpaceOnUse" x1="21.6" y1="116.5316" x2="21.6" y2="107.9063" gradientTransform="matrix(1 0 0 1 0 3.662109e-02)">
		<stop  offset="0" style="stop-color:#FFC180"/>
		<stop  offset="1" style="stop-color:#4C7515"/>
	</linearGradient>
	<path style="fill:url(#SVGID_00000151537449843350769570000001918518878588848536_);" d="M12.1,115.6c0.4-1.2,0.6-2.4,0.3-3.9
		c1.7-3.2,4.1-2.4,6.3-2.9c-0.1,2.1-1.1,4.1-0.3,6.5c1.6-1.7,4.2-1.5,3.4-6.2c0.9-0.9,1.8-2.1,2.8-0.3c0.3-0.2,0.6-0.3,0.9-0.5
		c0.8,0.5,1.6,0.9,2.5,1.4c0.4,1.7,0.7,0.6,1.1,0l0.1-0.2c0.2-0.3,0.3-0.6,0.5-0.8l0.2-0.2c0.2,0,0.5,0.2,0.7,0.2
		c0.5,0.9-0.8,2.9,0.5,3c-2.6,1.1-5,2.6-7.1,4.7l0.8-1.1C19.2,116.4,15.3,116.2,12.1,115.6z"/>
	
		<linearGradient id="SVGID_00000026863790682756508710000012838701655232123554_" gradientUnits="userSpaceOnUse" x1="834.7293" y1="114.9028" x2="834.7293" y2="111.4214" gradientTransform="matrix(1 0 0 1 0 3.662109e-02)">
		<stop  offset="0" style="stop-color:#FFC180"/>
		<stop  offset="1" style="stop-color:#4C7515"/>
	</linearGradient>
	<path style="fill:url(#SVGID_00000026863790682756508710000012838701655232123554_);" d="M831.8,113.8c-0.1-0.2-0.2-0.3-0.1-0.6
		c0-0.6,0.1-1.2,0.1-1.8c2,0.5,4,1.1,6,1.5c0,0.8-0.1,1.4-0.4,1.8c-0.8,0-1.6-1.4-2.4,0.2C834.1,113.7,833,113.7,831.8,113.8z"/>
	
		<linearGradient id="SVGID_00000087381565014558829620000001909183990648327315_" gradientUnits="userSpaceOnUse" x1="544.1" y1="144.9881" x2="544.1" y2="144.1676" gradientTransform="matrix(1 0 0 1 0 3.662109e-02)">
		<stop  offset="0" style="stop-color:#FFC180"/>
		<stop  offset="1" style="stop-color:#4C7515"/>
	</linearGradient>
	<path style="fill:url(#SVGID_00000087381565014558829620000001909183990648327315_);" d="M544.6,144.7c-0.2,0.2-0.3,0.2-0.5,0.3
		c-0.2-0.2-0.4-0.5-0.5-0.8C543.9,144.4,544.3,144.6,544.6,144.7z"/>
	
		<linearGradient id="SVGID_00000179608962641777647380000013906976409379614616_" gradientUnits="userSpaceOnUse" x1="1193.7998" y1="113.8432" x2="1193.7998" y2="95.5137" gradientTransform="matrix(1 0 0 1 0 3.662109e-02)">
		<stop  offset="0" style="stop-color:#FFC180"/>
		<stop  offset="1" style="stop-color:#4C7515"/>
	</linearGradient>
	<path style="fill:url(#SVGID_00000179608962641777647380000013906976409379614616_);" d="M1175.2,113.2L1175.2,113.2
		c-1.1-0.2-2.2-0.9-3.3-1.8c-0.1,0.5-0.2,0.9-0.6,0.8c-0.6,0.2-1.2,0.2-1.8,0.3c-0.1,0.6-0.4,0.8-0.8,0.5c0,0,0.1-0.5,0.1-0.6
		c-0.1-0.2-0.1-0.5,0-0.8c-0.4-0.9-0.8-0.6-1.3-0.3v0.2c0,1.1,0.4,2.6-0.6,2.6s-0.4-1.7-0.5-2.6c-0.7-0.5-1.2-0.5-1.2,0.8
		c-0.2-0.8-0.3-1.7-0.4-2.6c0.7,0.2,1-0.6,1.5-1.1c0.1-1.2-0.3-2.7,0.7-3.2c1.1-0.5,0.3,2.3,1.3,2.3c0.1-0.8,0.9-1.1,0.7-2.3
		c-0.7-3.5,1.5-0.2,2-1.8c0.4-1.2,1,0.6,1,1.5c0,1.2,0.3,2,1.2,2c0.1-0.8,0.1-1.5,0.2-2.3c0.2-1.1,0.5-1.2,0.8,0
		c0.3,0.6,0.5,1.2,0.8,1.8c0.2-0.2,0.5-0.3,0.7-0.5c0.4-0.2,0.8-0.3,1.2-0.5c0.2-0.2,0.4-0.2,0.6-0.3c0.5-0.3,0.9-0.5,1.4-0.6
		c1.2-2.1,0.9,0.3,1.2,0.9c2-0.2,4.7,2.3,5.2-3.3c0-0.2,0.6-0.5,0.8-0.3c2.8,2,5.4,0.6,8.3-0.2c5.6-1.5,11.3-1.4,17-2
		c1.8-0.2,3.8,0.8,4.3-3.3c0.1-0.6,0.6-1.4,1.4-0.6c1.4,1.4,3.4,1.8,4.6,3.6c0.3,0.6,0.7,0.9,1.1,1.1c-4.3,1.2-7.3,4.8-10,9.2
		c-5.2,0.6-10.5,2.1-15.7,2.3c-5.7,0.2-11.4,1.7-17.1-0.3c-0.2,0-0.4,0.2-0.6,0.2c-0.3,0.2-0.5,0.2-0.7,0.3c-0.1,0-0.3,0.2-0.5,0.3
		C1177.2,113.2,1176.2,113.4,1175.2,113.2L1175.2,113.2z"/>
	
		<linearGradient id="SVGID_00000155869196579222490750000015921396978507144367_" gradientUnits="userSpaceOnUse" x1="473.2" y1="144.2598" x2="473.2" y2="142.8686" gradientTransform="matrix(1 0 0 1 0 3.662109e-02)">
		<stop  offset="0" style="stop-color:#FFC180"/>
		<stop  offset="1" style="stop-color:#4C7515"/>
	</linearGradient>
	<path style="fill:url(#SVGID_00000155869196579222490750000015921396978507144367_);" d="M472.8,144.1l0.8-1.2
		c0,0.5-0.1,0.9-0.1,1.4C473.3,144.2,473.1,144.2,472.8,144.1z"/>
	
		<linearGradient id="SVGID_00000082369163036991613890000013423765116154731922_" gradientUnits="userSpaceOnUse" x1="640" y1="149.8634" x2="640" y2="-3.662109e-02" gradientTransform="matrix(1 0 0 1 0 3.662109e-02)">
		<stop  offset="0" style="stop-color:#FFC180"/>
		<stop  offset="1" style="stop-color:#4C7515"/>
	</linearGradient>
	<path style="fill:url(#SVGID_00000082369163036991613890000013423765116154731922_);" d="M-0.1,0v89.9v21.8
		c1.6,0.3,2.9,0.8,4.2,1.2V110c6,2,11.9-2.7,17.8-8c4.6-4.1,9.2-8.6,13.7-10.3c4.5-1.7,9-0.8,13.2,6.1c4.1-6.1,7.1-3.9,10.1,0.2
		c-0.4,0-0.7,0.5-1,0.9C58.3,99,59,99,59.6,99c0.1,0.3,0.3,0.5,0.4,0.8c-1.7,0.3-3.3,0.9-4.9,1.7c-1.7,0.9-3.8,2.3-5.7,1.8
		c-2.6-0.8-4.9-1.1-6.6,2.7c-0.4,0.9-1.1,0.5-1.7,0c-2.4-1.8-7.3-0.2-9.1,3c-0.4,0.6,0.8,1.8,0.4,2.6c2.5-0.8,5.2-1.1,7.9-0.9
		c-3.5,3.2,1.4,6.4,3.8,9.7c3,0,6-0.2,9-0.2c1,0,1.8,0.2,2.6,0.5c5.2-3.6,2.9-6.2,13.1-17.9l3.2,7.4c5-6.7,5.4-10.3,16.4-12.1
		c-9.1,6.4,6.8,11.4-3.4,19.7c22.7,16.3,34.4-16.2,44.5,7.6c10.9-20.3-19.7-11.4-13.7-15.7c-4.8-6.7,9-15.3,16.2-13.2
		c7.3,0.5,12,26.2,30.3,25.9c-1.8-0.2-2,1.5-3.8,1.4c6.8,5.3,13.7-7,22,1.5c4-9.7,8.6-3.5,11.2-8.5c-0.6-0.2-1.1-0.3-1.7-0.5
		c-4-0.5-8,1.2-11.9,0.5c-4.1-0.8-7.2,3.8-11.4,3.3c-5.6-0.6-10.8-1.8-15.4-7.1c1.4-2.7,3.7-1.7,5.2-3.5c1.3-1.5,2.3-2.6,0.3-4.5
		c-1.2-1.2-1.7-3.2-1.9-5.3c-0.3-2.6,0.1-4.4,2.2-4.1c2.5,0.3,4.7-1.8,7.3-1.1c0.6,0.2,2,1.7,2.3-0.8c0.3-2.9-1.5-1.5-2.3-2.4
		c0.1-1.8,1-1.2,1.6-1.5c0.2-1.2,0.1-2.1-0.8-2.4c-1.3-0.6-1-1.4-0.1-2.3c-0.1-0.5-0.2-0.9,0.4-1.4c12-16.6,10.7-5.8,23.9-29.4
		L188.5,69c5.1-0.5,13.6-20,16.6-7.9c5.6,13.9,19.9,15.1,36.4,16c1.5,0.2,3,0.2,4.5,0.3c-0.2,0-0.4,0-0.6,0
		c-0.3,0.2-0.5,0.3-0.8,0.5c-1.4,0.9-2.8,2.4-4.3,1.4c-2-1.4-3.8-0.8-5.7,0c-0.7,0.5-0.8-0.6-1.2-1.1c-0.8,0.3-1.6,0.8-2.4,1.1
		c-0.2,0.3-0.3,0.8-0.5,1.1c-0.6,0.8,0.8,2.1-0.2,2.4c-0.7,0.2-1.2-0.9-1.3-2.1c0-0.5-0.1-0.9-0.1-1.4c-0.8,0.2-1.8-0.8-2.4,0.8
		c-0.4,3.2-2,5.3-3.5,7.3c-0.5,0.8-1-0.6-1.4-1.2c-0.6-0.9,0-1.1,0.4-1.5c0.7-0.8,1.1-2,0.9-3.5c-2-1.7-4.1-1.1-6.2-0.9
		c-1.2,0.5-2.3,1.7-3.4-0.2c-0.1,0-0.2-0.2-0.2-0.3s0.1-0.5,0.1-0.8c-0.5-1.5-1.5-1.8-2.4-2.4c-0.1,0.2-0.3,0.2-0.4,0
		c-0.2,0.3-0.5,0.6-0.7,0.9c-0.1,0.3-0.3,0.6-0.5,0.9c-0.2,0.6,0,2.4-0.8,1.2c-0.8-1.4-1.6-0.5-2.4-0.8c-0.7,0.3-1.4,1.1-1.8-0.8
		c-0.6-0.6-0.8,0.9-1.3,0.8c-0.9,0.2-1.8,0.5-2.7,0.6c-0.7,1.1-1.3,2.4-2.4,0.8c-1.7,0-3.4-0.3-5.1-0.8c-2.4-0.6-5-0.8-7.3,0.2
		c-2.3,0.9-4.5,1.7-6.7,1.4c-3.2-0.6-6.3,0.3-9.4,1.1c0,2.7,0.2,5.4-1.3,7.6c0.5,0.2,1.1-0.5,1.3,0.6c0.1,0.8-0.2,1.2-0.7,1.2
		c-0.7,2.3,0.4,1.5,1.1,1.7c3.5,0.6,7-0.5,10.6-0.9c-0.6-1.7-2.3-0.6-2.6-2.7c1.4-0.5,2.9-0.9,4.7-1.5c-1.5,3.2-0.8,4.5,1.4,4.1
		c1.7-0.3,2.8,2.4,4.5,1.5c2.1-1.1,3.7-0.5,4.8,2.9c0.1,0.3,1.1,0.3,1.1,0.3c0.9-4.5,2.9-0.3,4.2-1.2c0.1-0.2,0.3,0.3,0.4,0.6
		c0.3-4.5,2.3-3.6,4.2-2.9c0.5,0.2,0.8,0,0.8-1.2c0-1.5,0.5-2.3,0.7,0c0.1,1.2,0.6,0.9,1.1,0.8c2.5-1.1,4.9,2.1,7.5,0.2
		c0.7-0.6,2,0.5,2.8,1.2s1.4,0.6,1.6-0.6c0.6-3.3,2.3-2.3,3.4-1.7c1.6,0.9,2.8,0.9,4.3-0.2c1.2-0.9,2.5-1.2,4-0.2
		c2.5,1.7,5-1.2,7.7-0.9c2.9,0.2,5.7,1.2,8.5,1.8c4.1,0.9,8.1,0.6,12.2,0.6c1.2,0,3-1.1,2.1,2.9c-0.2,0.9,0.8,2.1,1.1,1.7
		c0.8-1.5,2.7,0.3,3-2.6c0.2-1.4,1.5-2.3,1.8-1.4c2.1,5.8,5.9,2,8.7,3.8c0.5,0.3,0.9-0.6,0.9-1.5c-0.1-1.5,0-3,1.3-2.9
		c1.1,0.2,2.6-0.2,2.9,2c0.4,2.3,1.3,2.4,2.5,2.4c3-0.2,5.9,1.4,9.1,0.6c1.4-0.3,3.2,0,4.8-0.2c0.3,0,1,0.5,1,0.6
		c0,4.2,2.1,1.8,3.2,3c0.2-2.6-1.8-0.9-1.7-3c0.4-2,3.6,0.2,6.4,4.5c-2.1,0.6-3.9,0.9-5.7,1.7c-0.2,0.2-0.1,2-0.2,3.8
		c2.8-3.3,3.4,2.7,5.5,2.1c0.1,0.9,0.3,2.1-0.7,2c-0.8-0.2-1.5-1.1-2.5,0c1.6,1.7,3.5,2.3,5.2,3.5c0.8,0.6,2.1,1.2,1.7,3.3
		c-0.3,2-1.5,1.2-2.3,1.1c-3.2-0.5-6.5,0.3-9.5-2.4c-0.7-0.6-0.3,0.8-0.5,1.1c-1,1.4-1.9,1.8-3.2,0.6c-2.7-2.6-6-3.6-8.7-2.4
		c-3.6,1.7-7,1.2-10.4,1.1c-3.8,0-7.5-2.1-11.3-2.6c-1.4,0.8-3.1,2.7-3.3-1.8c-0.1-1.5-1.1-0.8-1.7-0.8c-0.3,1.4,0.3,2.6,0.8,4.7
		c3.1,0.5,5.2,2.6,7,5.3c0.2-0.3,0.4-0.8,0.6-1.4c5.1,4.1,10.4,7,16.1,2.9c2.5-1.8,4.9,0.2,7.4-0.2c3.3-0.5,6.6-0.5,9.9-0.8
		c0.7,0,1.4,0.5,2,0.8c0.6,0.9,1.2-0.3,1.8,0c0.2,0.2,0.5,0.3,0.7,0.5c0.2,0,0.4,0,0.6,0c0.4,0,0.9,0,1.3,0c2,0.3,4,0.6,6,0.9
		c2-2.6,4.3-5.9,7.2-7.6c-0.2-1.2,0-2.4,1.3-3.5c0.4,2,0.8,3.5,1.2,5c0.2,0.9,0.2,2.1-0.5,2.3c-0.3,0-0.7,0.2-1-0.2l-0.1,4.8
		c1.9,0.2,3.8,0.3,5.8,0.2c1.2-0.2,2.3,0.5,3.5,0.6c6.9-3.6,1.1-18.5,15.8-12.6l-8.5,13.3l9.8-3.3l-1.3,5.9c1.2,0,2.4,0.2,3.6,0.6
		c0.5,0.2,1,0.3,1.5,0.5c1.7-0.8,3.3-1.4,4.8-1.5l0.1-0.2c0.8-0.9,2.3-0.5,3.9,0.2c1.6,0.2,3.3,0.6,5.2,1.2c0.1-0.5,0.9-0.5,1.2-0.5
		c1,0.2,1.9,0,2.9-0.2c-0.8-6.8,3.4-15.4,11.9-15.6c6.2,5.8-3.9,9.1,9.4,7.9c-1.5,2.9-3.2,6.2-5.1,7.7c1.9-0.2,3.8,0.2,5.7,0.5
		c0.4,0,0.8,0,1.2,0c0.7-0.5,1.3-0.5,1.9,0.3c0.8-0.5,1.6-0.6,2.5-0.3c0.6-0.5,1.1,0,1.5,0.3l12.9-8.6c2.9,3.5,0.6,6.4-1.8,9.1
		c0.2,0,0.3,0,0.5,0c3.7-1.4,6.5-5.1,11.9-5.9c-0.5,2.3-0.9,4.4-1.3,6.5c0.8-1.1,1.5-0.9,2.3,0.3c0.2,0.2,0.4,0.2,0.6,0.3
		c0.2,0,0.4,0,0.6,0c0.6,0,1.2-0.2,1.8-0.2c0.2,0,0.4,0,0.6,0c1.7,0,3.3,0.2,5,0.2c1.3-0.3,2.6-0.5,3.6,1.2c1-1.7,2.4-0.9,3.4-0.6
		c2.8,0.9,5.6,2,8.5,1.8c1,0,0.5,1.2,0.6,1.8c0.9-0.5,2-1.4,2.5,0.9c-0.1,0.5-0.3,0.8-0.5,1.2c0.3,2.3,1.2,2.4,2.4,1.5
		c-0.1-1.7,0.3-1.7,1.1-0.8c0.3,0,0.5-0.2,0.8-0.2c0.1-1.7,0.9-0.5,1.3-0.6c1,1.8,2,3,3.2,3.3c5.9-2.7,11.9-4.7,17.5-2.1
		c-0.2,0.5-0.4,1.1-0.5,1.7l1-1.7c-0.1-0.2-0.3-0.2-0.4-0.2c0.8-1.5,2.3-3,5.2-4.1c12.6,2,23.4,11.7,38.9,1.2l5.8,10.6
		c1.7,0,3.5-0.3,5.2,1.2c0,0.2,0.1,0.2,0.1,0.2c2.4-5.3-10.8-16.3,5.8-20.6c0.2,0,0.4-0.2,0.6-0.2c-1.6-0.8-3.3-1.7-4.9-2.3
		c-3.1-1.2-6.3-2.7-9.1-2.4c-6.2,0.9-12-1.5-18-1.5c-2.7,0-2.9-1.8-1.4-4.7c0.1-0.3,0.2-0.8,0.3-1.1c0.1-0.6,0.1-1.1,0.6-0.6
		c0.4,0,0.7-0.2,1-0.2c0-2.3-0.1-4.4-0.1-6.7c-0.1-0.2-0.1-0.5-0.1-0.6c1.4,0.2,2.7,0.2,4.1,0c0.5-0.2,0.9-0.5,1.1,0.6
		c1,1.7,1.9,2.3,3.8,2c2.4-0.5,4.5-2.1,6.7-2.9c2.8-0.9,5.9-0.5,8.7,0.5c2.9,0.9,5.8-0.2,8.7,0.5c0.8,2,1.6,3.2,2.4,3.8
		c1.4,3.3-2.6,5.1-4.8,7.6c10.8,14.4,9.5,2.3,10.1-10.3c0.8-0.2,1.6-0.5,2.3-0.5c1.5-0.2,2.9,0.2,4.4,0.5
		c-0.4,8.2-0.4,15.3,4.9,16.8c4.2,10.3,27.9-39.7,39.6-15.3c-1.8-7-3.5-14.1-1.9-20c4.3-0.2,8.7-0.2,13.1-0.6c0.2,0,0.3,0,0.5,0
		c8.4,8.9,17.9,22.3,24.7,1.2c1.1,2.6,1.5,5.1,1.5,7.6c2.7-2.6,6.6-5,10.7-7.6c2.2,0.2,4.4,1.2,6.7,1.1c5.4-0.3,10.7,0,15.6,4.2
		c0.5,0.5,1.4,0.6,1.8,0.3c2.2-1.8,4.3-3,6.1,0.9c4.8-1.2,9.4,2.7,14.3,1.1c2.5-0.9,5.1-2.3,7.5,0.8c1.2-2.1,1.4,0.2,2,0.9
		c1.7,0,3.3-0.2,4.9-0.2c0.3-0.8,0.5-1.7,1.3-0.9c0.7,0.9,1.6,1.1,2.5,1.2c0.2,0,0.4,0,0.6,0c1.2,0.3,1.7-1.7,3.1-2.1
		c-0.7,4.7,1.1,4.4,2.9,3.3c0.9-0.6,1.7-0.2,2.6-0.3c0.8,0,1.7,0.2,2.5,0.2c1.5-0.5,3-0.6,4.4,0c0.3-0.3,0.5,0,0.7,0.5
		c1.9,2.1,4.2-0.5,5.9,0.9c3,2.3,6.1,2.7,9.3,2.9c3.2,0.2,6.4,0.2,9.6,0.3c1.5-0.3,3,0,4.4,0.6c5.1,1.4,10.3,0.9,15.5,1.4
		c1.1-0.3,2.1-0.3,3.1,0.6c0.8,0.6,1.6,0.9,2.6,0.9c3.4-0.2,6.7,0.3,10.1,0.6c5.4,0.6,11,0.3,16.5,0.3c0,0.2,0,0.2,0,0.2
		c0.7,1.1,1.2,1.8,2.4,1.2c1.9-0.9,3.8-1.1,5.7-1.5c0.3,0.2,0.7-1.8,1,0c0.1,0.3,0.1,0.6,0.2,0.9c0.2,0.3,0.4,0.6,0.6,0.9
		c1,1.2,0.5-3.5,1.8-1.1c2.1,2.4,7,2,9.4-0.9c0.1-0.8,0.2-1.7,0.4-2.6c-0.1-0.2-0.1-0.2-0.2-0.3c-1.7,0.6-0.9-4.4-3.1-3
		c1.2-1.4,2.2-2.6,2.3-4.4c0.1,0,0.2,0.2,0.4,0.2c-0.5-2.4-1.8-4.4-1.2-7.1c0.1-0.5-0.9-2-1.9-2c-0.7,0-1.5-0.6-1.4-2
		c0.2-1.4,1.1-1.7,1.9-1.7c5.7,0,11.3-0.3,17,0.3c3.4,0.3,6.7,0.8,10.1,0.6c1,0,1.8,0.3,2.6,0.9c1,0.9,2,0.9,3.1,0.6
		c5.2,0.5,10.4,0,15.5,1.4c1.4,0.6,2.9,0.9,4.4,0.6c3.2,0.2,6.4,0.2,9.6,0.3c3.2,0.2,6.3,0.6,9.3,2.9c1.7,1.4,4-1.2,5.9,0.9
		c0.2,0.5,0.4,0.8,0.7,0.5c1.4,0.6,2.9,0.5,4.4,0c0.8,0,1.7,0.2,2.5,0.2c0.9-0.2,1.7,0.3,2.6-0.3c1.1-0.6,2.3-1.1,2.8,0.2
		c0.9-0.9,1.9-1.8,2.8-2.6c0.5,0.9,1.1,1.8,1.6,2.7c-0.1,0.3-0.3,0.6-0.5,0.9c0.9,0.2,1.7,0.3,2.4,1.2c0.8,0.8,1-0.2,1.3-0.9
		c1.6,0,3.2-0.2,4.9-0.2c0.6,0.8,0.8,3,2,0.9c2.4,3,5,1.7,7.5,0.8c4.9-1.7,9.5,2.3,14.3,1.1c1.8,3.9,3.9,2.7,6.1,0.9
		c0.4-0.3,1.3-0.2,1.8,0.3c0.3,0.3,0.7,0.6,1,0.8c0.1-0.3,0.2-0.6,0.3-0.9c0.3,0.5,0.5,1.1,0.5,1.5c3.6,2.4,7.3,3,11.1,3
		c0.1-1.5,0.9-2.3,2.8-2c0,0.8-0.1,1.1-0.2,1.7c4.9-3.8,10.3-7,16.3-9.2c0-0.2-0.1-0.5-0.1-0.6c-0.1-0.2-0.1-0.2-0.1-0.3
		c0.6,0,1.2,0.2,1.8,0.3c1.4-0.5,2.7-0.9,4.1-1.2c-2.7,4.4-3.5,8.2-3.5,12c2.7,0.3,5.4,0.8,8.1,0.5c3.2-0.3,6.4-0.2,9.7,0.3
		c-1.1-0.9-1.8-3.2-3.2-2.9c-0.1-0.9-0.3-2.1,0.7-2c0.8,0.2,1.5,1.1,2.5,0c-1.7-1.7-3.6-2.3-5.2-3.5c-0.4-0.2-1-0.5-1.4-1.1
		c5.8,1.4,11.6,2.9,17.4,4.4c5.4,1.5,10.7,2.9,16,4.2c1.3,0,2.6,0.3,3.9,1.1c6.9,1.7,13.8,3.3,20.7,4.4c1.9,0.2,3.9,0,5.9-0.9
		c0.9-0.5,1.2-0.8,1.8-1.8c1.4-2.3,3.6-3.9,5.7-2.9c0.5,0.2,0.9,0.5,1.3,0.5l-1.2-8.3c-1.2-0.5-2.4-0.6-3.7-0.6
		c-1.7,0-3.6-0.9-5,1.8c-0.8,1.5-2.2,0-2.7-0.9c-0.9-1.8-1.8-1.1-2.7-0.9c-0.2-0.3-0.4-0.8-0.5-1.1c-0.1-0.5-0.2-0.8-0.3-1.2
		c-0.1,0.2-0.2,0.3-0.4,0.6c-0.4,0-0.9,0-1.3,0c-0.5-0.3-1.2,0-1.5-1.2c-0.5-2.3-1.6,0.5-2.2-0.6c-1.1-2.3-0.1-6.2-2.7-7.4
		c4.6-0.9,8.8-2.1,13.6-1.1c4,0.9,8,3.2,12.4,2.7c2.4-0.2,5.3-1.8,7.1-0.6c3.9,2.4,7.7,0.3,11.5,1.7c2.8,0.9,5.9,1.4,8.7,0.5
		c2.2-0.8,4.3-2.4,6.7-2.9c1.9-0.3,2.8,0.3,3.8,2c0.2,1.1,0.6,0.8,1.1,0.6c1.9-0.3,3.8,0,5.7,0.2c2.6-4.5,5.1-9.2,7.7-13.9
		c-0.7,3.8-0.6,8.8-0.3,14.4c0.3,0,0.6-0.2,0.8-0.6c1.3-1.1,3.1,2.3,4.2-0.8c0.4,0,0.8,0,1.3,0c0.4,0,0.8,0,1.2,0
		c0.8,0,1.7,0.2,2.5,0.2c7.3,2,14.7,1.8,21.9,0.8c2.5-0.3,5.2-2,8-2.6c5.4-1.1,10.6,1.5,15.9,0.9c0.6,0,1.2,0.2,1.8,0
		c1.4-0.6,2.6-2.4,4.4,0c1,1.4,3.9-0.8,5.3-2c3.3-2.7,6,0.6,9,0.5c2.8-0.3,5.4,1.1,8.3,0.6c5.6-0.9,11.2-2.9,16.9-1.7
		c0.7,0.2,1.5,0,1.9,0.8c0.6-0.6,0.9-0.3,1.1,0.6l0.1-0.2c1-1.7,1.6,1.1,2.5,0.5c-0.2-3.8,2.3-1.8,2.9-3.5c1.1,1.4-0.3,3.3,0.9,4.4
		c0.2,0.2,0.3,0.2,0.5,0.3c0.2,0,0.4,0,0.6,0c0.3-2.1,1.3,0.2,1.8-0.6c0.5-0.6,0.8-1.2,0.3-2.3c-0.2-0.5-0.3-0.9-0.3-1.2
		c1.1,0.2,2.2,0.3,3.3,0.5c-0.3-0.5-0.6-1.1-0.8-1.7c1.8,0.6,3.6,1.2,5.2-1.4c0.2-0.3,0.7-0.3,0.9-0.2c0.5,0.5,1,0.8,1.5,0.9
		c0.1,0.5,0.3,0.8,0.4,1.2c4.6-8.5,9.7-15.6,15.1-18.8l3.3,6.5l11.4-7.1v1.1c-3.6,8.6-10.1,21.3-17.1,33.6
		c-2.9,4.8-5.8,9.7-8.6,14.2c0.8-0.2,1.5-0.3,2.3-0.2c2.6,0.8,4.9,1.1,6.6-2.7c0.4-0.9,1.1-0.5,1.7,0c2.3,1.7,6.7,0.3,8.7-2.4
		c0.8,1.7,1.5,3.6,2.1,5.9c-0.6-2.9-0.3-4.8,0.4-6.5c0.1,0,0.1,0,0.1,0l0.2-0.2c0.2-0.2,0.3-0.5,0.5-0.8l0.1-0.2
		c0.1-0.2,0.1-0.3,0.2-0.5c0.2-0.3,0.3-0.5,0.5-0.6c0.1,0,0.3,0.3,0.4,0.9c0.7,0.3,1.3,0.8,1.9,1.1V89.6v-23V0C1280.1,0-0.1,0-0.1,0
		z M96.7,95.2c-4.3,1.7-8.8-2-13.1,0.5c-0.2,0.2-0.5,0.3-0.7,0.5c-0.6,0-1.3,0.2-1.9,0.3c-0.2,0.5-0.3,0.3-0.5,0
		c-0.2,0.2-0.4,0.3-0.6,0.6c-0.3-3-0.9-6.4-1.5-9.5c2.3-2.9,4.5-6.5,6.2-10.7c3.8,27.5,11.8-6.7,17.1,17.4
		C100.2,95.5,98.3,94.6,96.7,95.2z M162.9,83.1c-0.2,0.2-0.4,0.2-0.5,0.3c-1.9,1.4-3.7,0.5-5.5-0.2c-2.3-0.8-3.4,0.5-3.8,3.8
		c-0.2,4.1-0.7,4.8-2.4,3.8c-1.7-0.8-3.3-1.4-5-2.1c-0.5,0.2-1.1,0.6-1.2-0.8c-0.4-0.3-0.9-0.8-1.3-1.2c-0.2-0.3-0.5-0.5-0.7-0.6
		c-0.6,0.3-1.1,0.3-1.3-0.9c-0.6-0.2-1.3,0-1.7-1.1c-1.8,0.2-3.5,1.7-5.2,0.2c-1.8,2.6-4.4-0.8-6.2,1.7c0.4,1.8,0.2,3.3-0.6,4.7
		c-0.7-1.8-2.6-1.4-3.1-3.5c-0.4-0.2-0.9-0.2-1.4-0.3c-0.2-0.2-0.3-0.3-0.3-0.5c-0.2,0-0.4,0.2-0.6,0.2c-5.4,1.7-10.7,4.2-16.2,5.1
		c-0.3,0-0.6,0-1,0.2c2.7-3.8,6.9-6.2,11-9.5c5.1-4.1,10-9.7,12.2-21c5.3,3.5,10.5,7,15.3-1.8l2.2,22.6l11.8-30.4
		C163.4,63.1,166.3,70.7,162.9,83.1z M171.3,90.4c0.3-1.1,0.5-2.7,1-3c1.8-1.2,2.2,2.3,4.4,2.6C174.4,91.4,172.9,91.4,171.3,90.4z
		 M290.7,76.7c0.6-0.5,1.4,0.2,2.4,1.4C292.3,77.8,291.6,77.3,290.7,76.7z M308.1,100.1c-0.1,0-0.1-0.2-0.2-0.2c0,0-0.1-1.2,0.5-0.9
		C308.4,99.3,308.2,99.6,308.1,100.1z M309.2,104.1c-0.7-0.3-0.8-0.9-0.8-1.7c0.7-0.3,1.3-0.5,1.8-0.8c0,0.3,0,0.6,0,1.1
		C310.3,103.5,309.9,104.4,309.2,104.1z M337.5,112c-0.1-0.2-0.3-0.2-0.4,0c-0.1-1.2,0.2-2.1,0.6-3
		C337.5,109.9,337.4,110.9,337.5,112z M338.5,111.9c0.4-0.6,0.8-1.2,1.3-1.8C339.7,111.1,339.3,111.7,338.5,111.9z M357.6,112.9
		c-1.6,0.8-1.7-0.9-1.5-2.6c0-0.6,0.1-1.4-0.5-1.5c-1-0.2-0.5,0.9-0.5,1.5c0,1.2-0.9,1.1-1.1,0.9c-1.7-0.9-1.9,1.5-2.5,3.3
		c-0.3-0.5-0.4-0.9-0.5-1.4c0.8-2,1.6-4.1,2.3-6.5c0.9,0.2,1.9,0.2,2.9-0.2c2-0.8,2.7,2.4,3.2,4.4
		C360,112.9,358.3,112.6,357.6,112.9z M379.4,81.3c-0.3,1.2-0.7,0.9-1.1,0.2l-0.2,0.2l-0.1-0.2c-0.4,0-0.8,0.2-1.2,0.2
		c-0.3,1.4-0.6,2.7-1.7,3c-0.1-0.6-0.1-1.1-0.2-1.7c-0.2-0.2-0.4-0.5-0.6-0.6c-0.8,0.9-1,2.9-2.3,2.9v0.2c-0.4-0.2-0.9-0.3-1.4-0.5
		c-4.3-1.7-9.1,0.5-13.3-2.7c0.7-6.8,1.2-13.9,1.7-20.9c7.2,13.6,11,12.4,16.9-4.5c0.5,0,0.9,0,1.4,0c2.5,9.1,5.3,18-3.6,20.9
		c1.3,0.3,3.6,1.2,6.5,2.3C379.9,80.4,379.7,80.8,379.4,81.3z M456,93.1c-0.1,1.2,0.3,2.7-0.7,3.2c-1.1,0.5-0.3-2.3-1.3-2.3
		c-0.1,0.8-0.9,1.1-0.7,2.3c0.1,0.6,0.1,0.9,0.1,1.2c-0.4-0.6-1-1.2-1.8-1.2c-0.5-0.2-0.9,0.2-1.3,0.5c0-0.2,0-0.2,0-0.2
		c0-1.2-0.3-2-1.2-2c-0.1,0.8-0.1,1.5-0.2,2.3c-0.2,1.1-0.5,1.2-0.8,0c-0.3-0.6-0.5-1.2-0.8-1.8c-0.2,0.2-0.5,0.3-0.7,0.5
		c-0.4,0.2-0.8,0.3-1.2,0.5c-0.2,0.2-0.4,0.2-0.6,0.3c-0.5,0.3-0.9,0.5-1.4,0.6l-0.1,0.2c-0.3-0.2-0.6-0.3-0.9-0.5
		c-0.1-0.3-0.1-0.6-0.2-0.8c-1.5,0.2-3.5-1.2-4.5,0.6c-0.1,0.2-0.2,0.2-0.3,0.3c0,0.2,0,0.3,0,0.5c-0.2,0.5-0.3,1.1-0.4,2
		c0,0.2-0.6,0.5-0.8,0.3c-2-1.4-3.9-1.2-5.9-0.6c-0.8-0.6-1.8-0.8-2.9-0.3c-0.9-0.2-1.5,1.5-2.5,0.9c-3.9,1.5-4.9-0.2-3.8-6.4
		c-1.5,0.5-2.5-3.5-4.3-1.1c-0.2,1.1,0.9,1.5,0.5,2.9c-0.2,0.8,1.8,1.7,1,3.2c-0.6,1.2-1.9,0.6-3.3,0.5c1-2,0.4-4.1,0.6-6.1
		c-0.5,0.2-1.1,1.1-1.3-0.6c-1.1,2.1,0.1,5.1-1.2,7.6c-0.6,1.2-1.2,1.5-1.9,1.8c-1.3,0.5-1.7-2.4-3.1-1.8c-0.1,0.3-0.3,0.6-0.4,0.9
		c-0.2,0.8-0.4,0.8-0.7,0c-1.3-0.3-2-2.6-3.7-1.5c-2.3,1.5-4.7-1.8-7,0.3c-0.1-0.3-0.2-0.8-0.3-0.8c-2.2-1.1-3.2-4.7-5.4-5.6
		c-0.3,0.2-0.5,0.3-0.7,0.5c-0.7,0.5-0.1,2.9-1.3,2.4c-0.5-0.3-0.7-1.8-1.1-2.9c-0.1,2.4-1.6,0.6-2.2,1.7c0.2-1.5-2.1-1.5-0.9-3.6
		c-0.1-0.8-0.2-1.5-0.2-2.4c0.1,0.2,0.2,0.3,0.3,0.5c0.5,0.2,1.1,0,1.3,0.9l0.1,0.2c0-2.3,0.7-2.1,1.6-0.9h0.1
		c1.8-2.4,4.2-0.9,6.5-2.9c-0.2,2.1-0.4,3.5-0.6,5c2.3,2.1,4.9,0.3,7.4,0.6c8.1,1.2,16.2-2.1,24.3-2.4c5.7-0.2,11.4-1.7,17.1,0.3
		c0.2,0,0.4-0.2,0.6-0.2c0.3-0.2,0.5-0.2,0.7-0.3c0.1,0,0.3-0.2,0.5-0.3c2.2-1.4,4.3-0.6,6.3,1.4c0.1-0.5,0.2-0.9,0.6-0.8
		c0.6-0.2,1.2-0.2,1.8-0.3c0.1-0.6,0.4-0.8,0.8-0.5c0,0-0.1,0.5-0.1,0.6c0.1,0.2,0.1,0.5,0,0.8c0.4,0.9,0.8,0.6,1.3,0.3v-0.2
		c0-1.1-0.4-2.6,0.6-2.6s0.4,1.7,0.5,2.6c0.7,0.5,1.2,0.5,1.2-0.8c0.2,0.8,0.3,1.7,0.4,2.6c-0.1,0-0.1,0-0.2,0c0,0.2,0,0.2,0,0.3
		l-0.1-0.2V92C456.7,92,456.4,92.6,456,93.1z M483.1,119.7c-6,0.3-11.7-2.3-17.6-3.2c-2.7-0.5-5.9,0.6-8.2-3.5c3,0.9,5.9-1.8,9-0.2
		c2.7,1.4,5.5,0.5,8.2-0.2c0.6-0.2,1.3-0.9,1.3-2.3c-0.6-0.6-0.9-1.4-1-2.1c3.4,0,6.7,0.5,10.1,1.2c0.3,1.2,0.6,2.7,1.9,1.8
		c-1.7,1.7-2.8,3.3-2.2,6.4C484.9,119.1,484.6,119.7,483.1,119.7z M497.2,122.6c-3.2-1.7-6.8,0.5-9.8-2.6c-0.8-0.8-2.7,0.6-2.3-2.3
		c0.3-2.3,1.9-1.1,3.2-1.8c2.8,3,5.7-0.9,8.8-0.9c2.8,0.2,2.3,3.8,2.6,5.8C500.2,124.1,497.8,122.9,497.2,122.6z M489.6,50.9
		c0.2-0.8,0.4-1.7,0.6-2.3c1.3-0.9,2.8-0.6,3.9-2c0.3-0.5,0.6-0.8,0.8-1.1c2.5,1.8,5.5,6.8,8.8,11.5
		C498.6,56.6,493.9,55.2,489.6,50.9z M533.4,95.7c-0.7-0.3-0.7-1.1-0.6-2c-2,1.7-4.4-0.2-6.5,2.6c-1.2,1.5-4.2,0-4.8-2.4
		c-0.8-2.4,1.1-3.8,2.6-5.1c1-0.9,2.3,0,3.1-1.5c1.5,1.8,2-0.8,3.3-2.9c0,0.2,0,0.2,0,0.2c-0.8,4.7,0.1,6.7,2,7.3
		c0.5,1.7,0.9,3.3,1.4,4.8C533.7,96.3,533.6,96,533.4,95.7z M553.2,101c-1.9-0.3-3.7-1.1-5.5-1.8c1-2.9,2.6-5.1,5.1-6.1
		C553.2,95.5,553.3,98.2,553.2,101z M755.5,84.5c0.6-1.4,1.1-2.7,1.7-4.1c1.2,1.5,1.6,3,1.7,4.7C757.7,84.8,756.6,84.6,755.5,84.5z
		 M803.6,99.7c-0.1,0.3-0.2,0.8-0.3,1.1c-0.1,0.6-0.1,1.1-0.6,0.6c-0.4,0-0.7,0.2-1,0.2c0,2.1,0.1,4.2,0.1,6.4
		c-0.4-0.5-0.7-0.9-0.6-1.2c0.9-3.8-2.2-6.5-1.2-10.7c0.1-0.5,0.2-0.8,0.2-1.1c0.6,0.2,1.3,0.2,2,0.2
		C804.9,95.1,805.1,96.9,803.6,99.7z M821.2,101.3c-0.6,0.5-1.6,0-2.5,0.5c-2.8-3-5.7,0.9-8.8,0.9c-2.7,0-2.2-3.8-2.7-5.8
		c-0.5-3.3,1.9-2.1,2.5-1.8c1.1,0.6,2.2,0.8,3.4,0.8C815.6,97.6,818.3,99.4,821.2,101.3z M939.6,53.7c-0.2,0.5-0.5,0.8-1,0.2
		c-0.7-0.9-1.6-1.1-2.5-1.2c-0.2,0-0.4,0-0.6,0c-1.2-0.3-1.7,1.7-3.1,2.1c0.7-4.7-1.1-4.4-2.9-3.3c-0.9,0.6-1.7,0.2-2.6,0.3
		c0,0-0.1,0-0.2,0c1.4-5,2-9.8-0.7-13.5C931.3,35.9,938.3,45.9,939.6,53.7z M942.3,84.5c1.5,2.3-0.1,2.1-0.6,2.1
		c-4-0.3-7.9,2.6-11.9-0.3c-1.1-0.8-2.7-0.6-3.8,0c-1.1,0.5-2.1,0.8-3.2,0.8l8-8.2c-1.4-0.5-2.6-0.9-3.6-1.5
		c2.6,0.5,5.2,1.2,7.9,1.7c1,0.2,1.6,2.3,3,1.1c0.6-0.5,1.3-0.8,1.9-0.9c1.1,0.8,2.3,1.2,3.5,1.7c0.3,0.3,0.5,0.6,0.7,0.9
		C944,83.6,941.6,83.2,942.3,84.5z M1248.8,63c-1.7,0-3.4,0.8-5.1,0.5c-0.1,0-0.3,0-0.5,0c1.3-1.8,3.1-2.7,5.7-2
		C1248.9,61.9,1248.8,62.5,1248.8,63z"/>
	
		<linearGradient id="SVGID_00000042729737554167335160000014635917685904790914_" gradientUnits="userSpaceOnUse" x1="849.3793" y1="122.2524" x2="849.3793" y2="113.5405" gradientTransform="matrix(1 0 0 1 0 3.662109e-02)">
		<stop  offset="0" style="stop-color:#FFC180"/>
		<stop  offset="1" style="stop-color:#4C7515"/>
	</linearGradient>
	<path style="fill:url(#SVGID_00000042729737554167335160000014635917685904790914_);" d="M852.4,115c2,0,3.9,0.3,5.9,0.8
		c-0.1,0-0.2,0-0.3,0.2c-1.9,1.1-1.2,3-0.6,4.8c-0.9,0.3-1.4,1.8-2.5,1.4c-1.2,0-2.2-1.2-2.2-2.7c-0.1-5.3-3.1-3.2-4.7-4.1
		c-1.5-0.9-2.4,1.4-2.2,4.2c-1.4-3-3.3-3.5-5.2-3.9c0-0.2,0-0.3,0-0.5c-0.1-0.5-0.2-1.1-0.1-1.7C844.4,114.4,848.4,115,852.4,115z"
		/>
	
		<linearGradient id="SVGID_00000147917770613551058560000016515912473263199902_" gradientUnits="userSpaceOnUse" x1="544.4585" y1="135.488" x2="544.4585" y2="131.4789" gradientTransform="matrix(1 0 0 1 0 3.662109e-02)">
		<stop  offset="0" style="stop-color:#FFC180"/>
		<stop  offset="1" style="stop-color:#4C7515"/>
	</linearGradient>
	<path style="fill:url(#SVGID_00000147917770613551058560000016515912473263199902_);" d="M545.5,134.3c0.7,1.1-0.5,0.8-0.7,1.2
		c-0.4-0.3-0.8-0.6-1.3-0.6c0-1.2,0-2.4-0.3-3.3C544.1,132.1,544.8,133.2,545.5,134.3z"/>
	
		<linearGradient id="SVGID_00000153692477375738603330000016160336654190057659_" gradientUnits="userSpaceOnUse" x1="1235.8" y1="115.3568" x2="1235.8" y2="93.1844" gradientTransform="matrix(1 0 0 1 0 3.662109e-02)">
		<stop  offset="0" style="stop-color:#FFC180"/>
		<stop  offset="1" style="stop-color:#4C7515"/>
	</linearGradient>
	<path style="fill:url(#SVGID_00000153692477375738603330000016160336654190057659_);" d="M1228,100.1c1.6-0.3,4.2,1.5,5-2.7
		c-0.3-0.8,0-2.4-0.7-2.9c0.2,0,0.3,0,0.5,0c2.1,1.1,4.2,0.6,6.3,0.3c0.5,0.2,0.9,0,1.2-0.6c0.8-0.3,1.7-1.5,2.5-0.3
		c1.2,1.7,2.2,2.1,3.2,0.8c-0.5,1.2-1.1,2.4-1.6,3.6c-2.2,5.1-4.2,10.3-6,15c-0.1,0-0.3-0.2-0.5-0.5c-0.5-0.2-1.1,0-1.3-0.9
		l-0.1-0.2c0,2.3-0.7,2.1-1.6,0.9h-0.1c-1.8,2.4-4.2,0.9-6.5,2.9c0.2-2.1,0.4-3.5,0.6-5c-1.1-1.1-2.2-1.2-3.3-1.1
		c0.4-4.2,1.1-7.9,1.8-9.4c-0.3,0-0.6,0-0.9,0C1227,100.1,1227.5,100.1,1228,100.1z"/>
	
		<linearGradient id="SVGID_00000097491333985007960340000008159665766072870283_" gradientUnits="userSpaceOnUse" x1="1228.25" y1="92.0471" x2="1228.25" y2="91.593" gradientTransform="matrix(1 0 0 1 0 3.662109e-02)">
		<stop  offset="0" style="stop-color:#FFC180"/>
		<stop  offset="1" style="stop-color:#4C7515"/>
	</linearGradient>
	<path style="fill:url(#SVGID_00000097491333985007960340000008159665766072870283_);" d="M1228.4,92c-0.1,0-0.3-0.2-0.3-0.5
		C1228.2,91.7,1228.3,91.9,1228.4,92z"/>
	
		<linearGradient id="SVGID_00000017507405344897163100000016176027676155630516_" gradientUnits="userSpaceOnUse" x1="896.5" y1="123.6156" x2="896.5" y2="122.5435" gradientTransform="matrix(1 0 0 1 0 3.662109e-02)">
		<stop  offset="0" style="stop-color:#FFC180"/>
		<stop  offset="1" style="stop-color:#4C7515"/>
	</linearGradient>
	<path style="fill:url(#SVGID_00000017507405344897163100000016176027676155630516_);" d="M895.2,122.6c0.6,0.3,1.3,0.5,1.9,0.5
		c0.1,0,0.3,0,0.4,0c0.1,0.2,0.2,0.5,0.3,0.6c-0.5,0-1,0-1.5-0.2L895.2,122.6z"/>
	
		<linearGradient id="SVGID_00000072277310740566311600000003858875064285602703_" gradientUnits="userSpaceOnUse" x1="864.45" y1="122.7325" x2="864.45" y2="115.9623" gradientTransform="matrix(1 0 0 1 0 3.662109e-02)">
		<stop  offset="0" style="stop-color:#FFC180"/>
		<stop  offset="1" style="stop-color:#4C7515"/>
	</linearGradient>
	<path style="fill:url(#SVGID_00000072277310740566311600000003858875064285602703_);" d="M867.5,117.5c0.8,0.2,1.5,0.5,2.2,0.9
		c-0.5,0.3-0.5,1.1-0.5,3.2c-2.8,3.2-5.4-1.2-8.2-0.5c-0.5,0.2,0.1-3.6-1.6-4.1c0-0.5-0.1-0.8-0.2-1.1
		C861.9,116.5,864.7,117.2,867.5,117.5z"/>
	
		<linearGradient id="SVGID_00000083058412401060224220000006175694066545439679_" gradientUnits="userSpaceOnUse" x1="1098.6027" y1="113.2378" x2="1098.6027" y2="105.3669" gradientTransform="matrix(1 0 0 1 0 3.662109e-02)">
		<stop  offset="0" style="stop-color:#FFC180"/>
		<stop  offset="1" style="stop-color:#4C7515"/>
	</linearGradient>
	<path style="fill:url(#SVGID_00000083058412401060224220000006175694066545439679_);" d="M1100.8,107.6c0.8,2.3-0.9,3.6-2.3,4.8
		c0.1-0.6,0.1-1.1,0.1-1.4c-0.1,0.5-0.2,1.1-0.4,1.5c-0.6,0.6-1.3,0.5-2,0.6c1.4-2.4,2.6-5.1,3.2-7.9
		C1100,106,1100.5,106.7,1100.8,107.6z"/>
</g>
</svg>
