<?xml version="1.0" encoding="utf-8"?>
<!-- Generator: Adobe Illustrator 26.0.2, SVG Export Plug-In . SVG Version: 6.00 Build 0)  -->
<svg version="1.1" id="Layer_1" xmlns="http://www.w3.org/2000/svg" xmlns:xlink="http://www.w3.org/1999/xlink" x="0px" y="0px"
	 viewBox="0 0 1280 150" style="enable-background:new 0 0 1280 150;" xml:space="preserve">
<style type="text/css">
	.st0{fill:#FFAB03;}
</style>
<path class="st0" d="M0,0v59.4l0,0v47c5.3-1.2,10-2.7,8.4-7.9c8.9,20.8,31.1,4.2,27,36c10.6,2,8.9-13.9,5.9-16.8
	c12.3,1.3,22.3,1.5,32.5-8.7c6.7,7.6,56.5-7.8,67.1,16.9c-7.3-16,0.7-8.3,8-15.2l-6.3-14.1l16.2,1.6c3.3-1.3,4.3-0.7,4.2,0.5
	c2.7,0.7-0.8,8.1,6.2,11.7c11,1,11.7-6.8,17.9-14l-1.7-2.1l7.5-1.3c5.5,0.5-19.8,13.9-1.9,21.2c0.3-3.9,11.3-22.4,15.9-12.2
	c-9.2-0.8-8.2,9-4.9,13.2l12.9,1.1L211,98.4c18.5,0.7,37.3,4.2,56.4,7.6s38.5,6.5,58.3,6.1c-1,15.6,27.9,1.1,23.7,24.1l-1.5-2.2
	c-9.7,2.1,2.3,18.2,10.2,15.7c-8-7.4,15.4-22.8-4.5-26.5l15.8-10.7c4.9-22,15.3-20.9,27.4-16.1s25.9,13.4,37.9,6.5
	c-1.7,1.7-2.2,4-2.5,5.4c21.4-13.8,46.4,12.6,51.5,5.6l1.4,12.1c18.5-18.3,20.7-19.9,41.7-12c-0.4,1.9-3,5.4,0.3,8
	c5.5-8.9,11-17.7,25.5-15l-0.8,3.8l22.9-1.6c-0.9,18.6,9.1,13.1,20,8s22.7-9.8,25.1,10.5c5-10.8,21.8-13.9,29.5-18.9
	c0,1.6,0.4,3.3,1.5,5c9.8-19.9,25,6.8,34.7,4.7c6.6-4.6,4.2-11.1,1.7-17.5c11.7,16.1,35.4-16.9,39.6-10.1c9.1,1.7,2.7,14.4,4.7,22.7
	c13.8-3.3-0.5-33.8,16.9-18.5c-2.2,1.6-6.2,2.8-4.8,5c6.8,3.3,17,46.4,24.4,37.9l-4.2-6.8c13.2-9.3,28.4,31,31.8,5.9l-0.6-11.7
	c21,16,9.5-4.4,30.9,9.7l-0.4,1.9c9.8-2.1,14.3,12.7,19.9-6l-3.2-2.6c12-1.2,13,0.2,25.2,1.4c1.5-1.8,7.5-4.4,9.1-0.5
	c1.3-15.6,28.6-6.6,34-5.6c-9.7,2.1-5.5,8.8-3,15.3c6.3-12.6,10.2-13.9,17.7-4.5c2-19.4,4.4-40.1,19.9-41c-2.5,2.9-6.3,4.5-5,8.5
	c1.4,4,5.2-0.3,6.5-1.7c1.4,4-3.7,7-2.3,13.8c11.2-18.4,18.1-1,33.5-7.4c-5,5.8-1,9.6,0.5,16.4c2-22,20.1,19.5,15.3-9.1
	c14.5,8.8,33.4,9.3,49.9,10c16.5,0.6,30.8,1.4,36.4,10.6c3,8,11.5-4.9,16.6-5.2l-0.9,9.7c14.7-17.4,11.4-6.4,28.5-24
	c-7.1,11.5-4.3,16.8,2.8,25.9l11.8-20.1l2.2,14.9c4.8-5.8,10-3.5,15.3-1.2c2.2-7.5,7.1-11.2,12.2-13.9c5.9-3.2,11.9-5.1,13.5-10
	c5.3,20.2,13.8-5.2,17.8,13.8c1.7-2.8,3.9-5.2,6.2-7.1c-2.6-8.8-3.6-18.7,1.1-14.4c0.4-0.2,0.7-0.2,1.1-0.3l-1.9-10.6
	c-0.8-10.9,5.9,3.1,11.9,12.1c2.1,1.7,4,3.9,5.8,5.8c0.6,0,1.3,0,1.7,0.1c-0.3,0.3-0.6,0.6-1,0.6c3,2.7,6,4.1,10.1,0.1
	c4.2,4.5,8.7,5.1,13.2,4s9.1-4.1,13.7-6.8c5.9-3.5,11.8-6.6,17.8-5.3V59.4V44V0H0z"/>
</svg>
