<?xml version="1.0" encoding="utf-8"?>
<!-- Generator: Adobe Illustrator 26.0.2, SVG Export Plug-In . SVG Version: 6.00 Build 0)  -->
<svg version="1.1" id="Layer_1" xmlns="http://www.w3.org/2000/svg" xmlns:xlink="http://www.w3.org/1999/xlink" x="0px" y="0px"
	 viewBox="0 0 41.7 38.2" style="enable-background:new 0 0 41.7 38.2;" xml:space="preserve">
<path d="M21,34.6H9.4c-2.2,0-3.2-1-3.3-3.2c0-3.8,0-7.6,0-11.4c0-0.8,0.2-1.2,1.1-1.1c1.4,0.1,2.8-0.4,3.7-1.5
	c0.5-0.6,0.9-0.4,1.4,0c2.6,2.4,5.4,2.4,8,0c0.7-0.6,1-0.5,1.5,0c1.9,2,5,2.1,7,0.2c0.1-0.1,0.2-0.2,0.2-0.2c0.6-0.6,1-0.6,1.6,0
	c1,1.1,2.6,1.6,4.1,1.4c0.7-0.1,0.9,0.2,0.9,0.8c0,4.1,0,8.2,0,12.4c0,1.6-1.2,2.6-2.9,2.6C28.7,34.6,24.8,34.6,21,34.6z M11.6,27.2
	c0,1.6,0,3.3,0,5c0,0.7,0.2,1.1,1,1.1c1.9,0,3.9,0,5.8,0c0.8,0,1-0.4,1-1.1c0-3.3,0-6.6,0-9.9c0-0.8-0.3-1.1-1.1-1.1
	c-1.9,0-3.8,0-5.7,0c-0.9,0-1.1,0.4-1.1,1.2C11.6,24,11.6,25.6,11.6,27.2z M23.7,24.4c0,0.8,0,1.5,0,2.3c0,0.8,0.3,1.1,1,1.1h4.6
	c0.7,0,1.1-0.3,1.1-1c0-1.5,0-3,0-4.5c0.1-0.5-0.3-1-0.8-1c-0.1,0-0.2,0-0.3,0h-2.4C23.7,21.2,23.7,21.2,23.7,24.4z"/>
<path d="M20.5,8.7c0,1.3,0,2.6,0,3.9c0,0.7-0.3,1-1,1c-1.9,0-3.9,0-5.8,0c-0.8,0-1-0.3-0.8-1.1c0.5-2.7,1-5.4,1.5-8.1
	c0-0.5,0.5-0.9,1-0.8c0,0,0,0,0,0h4.1c0.8,0,1.1,0.4,1.1,1.1C20.5,6,20.5,7.3,20.5,8.7z"/>
<path d="M21.4,8.5c0-1.2,0-2.4,0-3.6c0-0.9,0.3-1.4,1.2-1.3c1.2,0,2.3,0,3.5,0c0.5-0.1,1.1,0.3,1.2,0.8c0,0,0,0.1,0,0.1
	c0.5,2.7,1,5.4,1.4,8.1c0.1,0.6-0.1,1-0.8,1c-1.9,0-3.7,0-5.6,0c-0.7,0-1-0.4-1-1.1C21.4,11.2,21.4,9.8,21.4,8.5L21.4,8.5z"/>
<path d="M8.1,13.5c-1,0-1.9,0-2.9,0c-0.7,0-0.9-0.3-0.7-0.9c1-2.6,1.9-5.2,2.9-7.8C7.6,4.1,8.3,3.7,9,3.7c1.3,0,2.5,0,3.8,0
	c0.7,0,0.8,0.3,0.7,0.9c-0.5,2.7-1,5.3-1.5,8c0,0.6-0.5,1-1.1,1c0,0-0.1,0-0.1,0C9.8,13.5,8.9,13.6,8.1,13.5L8.1,13.5z"/>
<path d="M33.6,13.5c-0.9,0-1.9,0-2.8,0c-0.5,0.1-1-0.3-1.1-0.8c0,0,0-0.1,0-0.1c-0.5-2.7-0.9-5.3-1.4-8c-0.1-0.7,0.1-1.1,0.9-1.1
	s1.6,0,2.4,0c0.9,0,1.7,0.5,2,1.3c1.1,2.4,2.3,5,3.5,7.4c0.5,1.1,0.1,1.3-0.8,1.2C35.4,13.5,34.5,13.5,33.6,13.5L33.6,13.5z"/>
<path d="M16.5,14.4c0.9,0,1.8,0,2.8,0c1.2,0,1.6,0.7,1,1.7c-0.8,1.3-2.2,2.2-3.8,2.2c-1.6,0.1-3.1-0.5-4.1-1.8
	c-0.4-0.6-0.3-1.5,0.4-2c0.2-0.2,0.5-0.2,0.8-0.2C14.6,14.4,15.6,14.4,16.5,14.4z"/>
<path d="M25.2,14.4c0.9,0,1.8,0,2.7,0c0.5,0,1-0.1,1.2,0.5c0.2,0.5,0.2,1.2-0.2,1.6c-1.6,2.2-5.8,2.1-7.3-0.2
	c-0.3-0.4-0.4-1-0.2-1.5c0.2-0.5,0.7-0.4,1.2-0.4C23.5,14.4,24.4,14.4,25.2,14.4z"/>
<path d="M34.1,14.4h3c0.7,0,0.8,0.3,0.6,0.9c-0.7,2.1-2.9,3.3-5,2.6c-1-0.3-1.8-1-2.3-1.8c-0.6-1.2-0.3-1.7,1-1.8
	C32.3,14.4,33.2,14.4,34.1,14.4L34.1,14.4z"/>
<path d="M7.8,14.4c1,0,2,0,3,0c0.7,0,0.8,0.3,0.7,0.9c-0.5,1.6-2,2.7-3.7,2.8c-1.8,0-3.3-1.1-3.9-2.8c-0.2-0.7,0-1,0.7-1L7.8,14.4z"
	/>
</svg>
