<?xml version="1.0" encoding="utf-8"?>
<!-- Generator: Adobe Illustrator 26.0.2, SVG Export Plug-In . SVG Version: 6.00 Build 0)  -->
<svg version="1.1" id="Layer_1_xA0_Image_00000070089360810732718610000013865453504857316273_"
	 xmlns="http://www.w3.org/2000/svg" xmlns:xlink="http://www.w3.org/1999/xlink" x="0px" y="0px" viewBox="0 0 1000 1080"
	 style="enable-background:new 0 0 1000 1080;" xml:space="preserve">
<g>
	<path d="M804.3,179.9c-57.9-27.2-115.7-54.4-173.4-81.9c-7-3.3-11.2-2.9-16,3.7c-35.1,47.5-70.5,94.7-105.9,142.1
		c-7.1,9.5-7.1,9.6,3.5,14.6c57.1,26.9,114.2,53.8,171.3,80.7c55.9,26.3,111.9,52.3,167.7,78.7c5.7,2.7,8.9,2.1,12.6-3.1
		c10.1-14.2,20.9-27.9,31.3-41.9c27-36.4,53.5-73.3,81.8-108.8c0-1.1,0-2.2,0-3.2C919.6,233.8,861.9,207,804.3,179.9z"/>
	<path d="M866.1,430.1c-4.7-6.4-8.7-8.2-16.6-4.4c-64.6,30.6-129.4,60.7-194.1,91c-48.4,22.7-96.7,45.6-145.2,68.3
		c-5.2,2.4-8,4.4-3.4,10.5c36.6,48.5,73,97,109.2,145.8c4.2,5.7,7.7,6.5,14,3.5c89.3-42.4,178.8-84.6,268.2-126.7
		c26.2-12.4,52.7-24.3,79-36.5c0-1.1,0-2.2,0-3.2c-4.9-6.1-10-12-14.6-18.2C930.4,516.9,898.2,473.6,866.1,430.1z"/>
	<path d="M461.6,199.2c-24.1-32.3-48.1-64.7-71.8-97.2c-4.3-5.9-7.9-7.9-15.2-4.4c-66.2,31.5-132.6,62.7-199,93.9
		c-46.9,22.1-93.9,44.1-140.9,66c-7.9,3.7-8.3,4.6-3.1,11.6c20.3,27.1,40.5,54.2,60.8,81.3c16.1,21.5,32.2,43,48.3,64.5
		c1.7,2.3,2.9,5.4,6.9,5.2c1.9-0.8,4.2-1.7,6.3-2.8c69.1-32.4,138.1-64.9,207.2-97.3c44.5-20.9,88.9-41.9,133.5-62.7
		c6.5-3,7-5.8,2.6-11.3C485.2,230.5,473.3,214.9,461.6,199.2z"/>
	<path d="M495.1,585.4c-32.7-15.1-65.3-30.4-97.8-45.7C315.8,501.5,234.4,463.2,153,425c-1.7-0.8-3.4-1.5-5.1-2.2
		c-4.9,0.2-6.8,4.1-9.2,7.2c-35.3,47.1-70.4,94.2-105.6,141.3c-6.9,9.2-6.9,9.4,3.4,14.2C78,605,119.6,624.4,161.2,644
		c71.4,33.7,142.8,67.4,214.1,101.2c5.1,2.4,8.4,2.5,12.2-2.6c36.5-49.1,73.3-98.1,110.1-147C501.5,590.5,500.7,588,495.1,585.4z"/>
	<path d="M491.4,633.6c-10.6,14-20.6,27.2-30.5,40.5c-22.2,29.7-44.3,59.4-66.5,89.1c-3.1,4.1-5.5,8.1-12.3,4.8
		c-19.5-9.7-39.3-18.7-59-27.9c-55.7-26.2-111.3-52.4-167-78.5c-10.6-5-11.1-4.6-11.1,6.9c0,46.5,0.6,93-0.4,139.4
		c-0.3,13.4,4.6,19.2,16,24.4c66.9,30.8,133.4,62.3,200,93.5c41.6,19.5,83.2,38.9,124.8,58.5c6.3,3,8.4,1.2,8.1-5.2
		c-0.1-1.9,0-3.8,0-5.6c0-109.4,0-218.7,0-328.1C493.4,642,494.2,638.5,491.4,633.6z"/>
	<path d="M859.6,668.7c0-11.8-0.5-12.2-10.9-7.3c-74.7,35-149.3,70-223.9,105.4c-6.6,3.1-10.2,2.7-14.6-3.3
		c-21-28.6-42.4-56.8-63.6-85.2c-10.9-14.6-21.7-29.2-33.6-45.3c-2.4,5.5-1.8,9.3-1.8,12.9c0,108.6,0,217.1,0,325.7
		c0,2.7,0.1,5.4,0,8.1c-0.2,6.2,2.2,7.5,7.9,4.7c16-7.7,32.1-15.1,48.1-22.6c93.6-43.9,187.2-87.9,281-131.5
		c8.4-3.9,11.9-8.4,11.8-18.1C859.3,764.4,859.6,716.5,859.6,668.7z"/>
</g>
</svg>
