<?xml version="1.0" encoding="utf-8"?>
<!-- Generator: Adobe Illustrator 26.0.2, SVG Export Plug-In . SVG Version: 6.00 Build 0)  -->
<svg version="1.1" id="Layer_1_xA0_Image_00000181061804551506283200000013050607181382842244_"
	 xmlns="http://www.w3.org/2000/svg" xmlns:xlink="http://www.w3.org/1999/xlink" x="0px" y="0px" viewBox="0 0 350 350"
	 style="enable-background:new 0 0 350 350;" xml:space="preserve">
<style type="text/css">
	.st0{fill:#FFFFFF;}
</style>
<g>
	<path class="st0" d="M306.6,216.7c-17.8,0-35.6,0-53.4,0c-2.1,0-3.6,0.5-4.7,2.4c-0.6,1.1-1.5,2.1-2.2,3.2c-2.8,4.2-6.6,7-11.7,7.2
		c-11,0.5-22.1,0.4-33.1,0.1c-5.5-0.2-9.5-3.1-12.3-7.7c-0.5-0.9-1.2-1.6-1.6-2.5c-1-2-2.6-2.7-4.9-2.7c-17.9,0.1-35.8,0-53.7,0
		c-3.3,0-3.5,0.3-2.7,3.4c3.9,14.6,7.7,29.2,11.8,43.8c3.1,11.1,7.8,14.5,19.4,14.5c20.1,0,40.2,0,60.3,0c20.4,0,40.8,0,61.2,0
		c11.2,0,16.2-3.9,19-14.6c3.8-14.4,7.7-28.8,11.6-43.2C310.4,217.1,310.2,216.7,306.6,216.7z"/>
	<path class="st0" d="M248.3,134.2c-2.9,0-4.8,0.7-6.3,3.3c-2.8,5-7.3,7.1-12.9,7c-6.9-0.1-13.7-0.3-20.6,0.1
		c-7,0.4-12.1-2.3-15.6-8.3c-0.8-1.4-1.9-2-3.6-2c-14.1,0.1-28.3,0.1-42.4,0c-2.6,0-2.8,0.8-2.2,3c3.1,11.1,6,22.3,9,33.4
		c2.3,8.7,6.2,11.7,15.1,11.8c16.3,0,32.6,0,49,0c16.6,0,33.2,0,49.8,0c8.1,0,12.2-3.1,14.3-10.8c3.1-11.4,6.1-22.9,9.2-34.3
		c0.7-2.5-0.1-3.1-2.5-3.1C275.2,134.3,261.8,134.3,248.3,134.2z"/>
	<path class="st0" d="M317.3,201.7c0-9.5-4.3-13.8-13.9-13.8c-28.5,0-57.1,0-85.6,0c-2.2,0-4.4,0-6.6,0c-26.8,0-53.5,0-80.3,0
		c-7.4,0-12.1,4.7-12.2,12.1c0,2.5,0,5,0,7.5c0,3.9,0,4,3.9,4c18.8,0,37.6,0.4,56.4-0.2c7.1-0.2,12,1.4,15,8
		c1.6,3.6,4.9,4.9,8.9,4.9c10-0.1,20.1-0.1,30.1,0c3.6,0,6.9-1.1,8.3-4.3c3.5-8,9.6-9.7,17.3-8.5c0.7,0.1,1.4,0,2.1,0
		c17.4,0,34.8,0,52.2,0c4.3,0,4.3,0,4.3-4.4C317.3,205.3,317.3,203.5,317.3,201.7z"/>
	<path class="st0" d="M141.9,128.7c15.3-0.1,30.6,0.2,45.9-0.2c5.1-0.1,8.3,1.3,10.3,5.8c1.6,3.5,4.6,4.8,8.2,4.8c7.7,0,15.3,0,23,0
		c3.7,0,6.5-1.5,8.4-4.8c0.5-0.9,1.1-1.6,1.6-2.5c1.3-2.4,3.2-3.3,6.1-3.3c14.8,0.1,29.6,0.1,44.5,0.1c7.7,0,7.7,0,7.7-7.7
		c0-7.6-3.5-11.1-11.1-11.1c-22.8,0-45.6,0-68.3,0c-6.8,0-13.5,0-20.3,0c-16.4,0-32.8,0-49.2,0c-6.2,0-9.8,3.3-10.4,9.5
		c-0.2,1.9,0,3.8-0.1,5.7C137.8,127.9,139,128.7,141.9,128.7z"/>
	<path class="st0" d="M81.4,97.3c-8.7,0-17.3,0-26,0c-1.5,0-2.6,0.6-3.5,1.8c-5.2,6.7-9.6,13.9-13.1,21.6c-5.4,12.1-6.5,24.9-5.9,38
		c0.2,5,3.4,8,8.5,8c9.1,0.1,18.1,0,27.2,0s18.1,0,27.2,0c4.9,0,8-3,8.4-7.9c1.7-22.4-4.9-42.2-18.9-59.6
		C84.2,98,83.1,97.3,81.4,97.3z"/>
	<path class="st0" d="M94.5,220.8c-8.7,0-17.3,0-26,0c-8.8,0-17.7,0-26.5,0c-6.1,0-9.2,3.1-9.2,9.2c0,11.8,0,23.7,0,35.5
		c0,7.9,4.9,12.8,12.9,12.8c15.2,0,30.4,0,45.6,0c7.8,0,12.7-4.9,12.7-12.6c0-11.8,0-23.7,0-35.5
		C104.1,223.8,101.1,220.8,94.5,220.8z"/>
	<path class="st0" d="M36.8,212.2c0.1,2.9,1.2,3.4,3.7,3.4c9.2-0.1,18.5,0,27.7,0c9.5,0,19.1-0.1,28.6,0c2.4,0,3.3-0.9,3.3-3.3
		c-0.1-12.4-0.1-24.9-0.1-37.3c0-2.4-0.9-3.1-3.1-3c-19,0.1-38,0.1-57,0c-2.5,0-3.4,0.9-3.4,3.3C36.7,187.5,36.4,199.9,36.8,212.2z"
		/>
	<path class="st0" d="M55.2,92.1c4.4-0.1,8.7,0,13.1,0c4.6,0,9.1,0,13.7,0c1.7,0,2.9-0.5,2.9-2.5c0-4.2,0.1-8.3-0.1-12.5
		c-0.2-3.7-2.2-5.4-6.1-5.4c-6.8,0-13.7,0-20.5,0c-4.2,0-6,1.7-6.1,5.9c-0.1,3.8,0,7.5,0,11.3C52,91.1,52.9,92.1,55.2,92.1z"/>
</g>
</svg>
